%TF.GenerationSoftware,KiCad,Pcbnew,9.0.2*%
%TF.CreationDate,2025-07-01T21:57:16-05:00*%
%TF.ProjectId,testing3,74657374-696e-4673-932e-6b696361645f,rev?*%
%TF.SameCoordinates,Original*%
%TF.FileFunction,Legend,Top*%
%TF.FilePolarity,Positive*%
%FSLAX46Y46*%
G04 Gerber Fmt 4.6, Leading zero omitted, Abs format (unit mm)*
G04 Created by KiCad (PCBNEW 9.0.2) date 2025-07-01 21:57:16*
%MOMM*%
%LPD*%
G01*
G04 APERTURE LIST*
%ADD10C,0.100000*%
%ADD11C,0.150000*%
%ADD12C,0.120000*%
%ADD13C,0.127000*%
G04 APERTURE END LIST*
D10*
X212313408Y-87220704D02*
X212275312Y-87258800D01*
X212275312Y-87258800D02*
X212161027Y-87296895D01*
X212161027Y-87296895D02*
X212084836Y-87296895D01*
X212084836Y-87296895D02*
X211970550Y-87258800D01*
X211970550Y-87258800D02*
X211894360Y-87182609D01*
X211894360Y-87182609D02*
X211856265Y-87106419D01*
X211856265Y-87106419D02*
X211818169Y-86954038D01*
X211818169Y-86954038D02*
X211818169Y-86839752D01*
X211818169Y-86839752D02*
X211856265Y-86687371D01*
X211856265Y-86687371D02*
X211894360Y-86611180D01*
X211894360Y-86611180D02*
X211970550Y-86534990D01*
X211970550Y-86534990D02*
X212084836Y-86496895D01*
X212084836Y-86496895D02*
X212161027Y-86496895D01*
X212161027Y-86496895D02*
X212275312Y-86534990D01*
X212275312Y-86534990D02*
X212313408Y-86573085D01*
X212656265Y-87296895D02*
X212656265Y-86763561D01*
X212656265Y-86915942D02*
X212694360Y-86839752D01*
X212694360Y-86839752D02*
X212732455Y-86801657D01*
X212732455Y-86801657D02*
X212808646Y-86763561D01*
X212808646Y-86763561D02*
X212884836Y-86763561D01*
X213494360Y-87296895D02*
X213494360Y-86877847D01*
X213494360Y-86877847D02*
X213456265Y-86801657D01*
X213456265Y-86801657D02*
X213380074Y-86763561D01*
X213380074Y-86763561D02*
X213227693Y-86763561D01*
X213227693Y-86763561D02*
X213151503Y-86801657D01*
X213494360Y-87258800D02*
X213418169Y-87296895D01*
X213418169Y-87296895D02*
X213227693Y-87296895D01*
X213227693Y-87296895D02*
X213151503Y-87258800D01*
X213151503Y-87258800D02*
X213113407Y-87182609D01*
X213113407Y-87182609D02*
X213113407Y-87106419D01*
X213113407Y-87106419D02*
X213151503Y-87030228D01*
X213151503Y-87030228D02*
X213227693Y-86992133D01*
X213227693Y-86992133D02*
X213418169Y-86992133D01*
X213418169Y-86992133D02*
X213494360Y-86954038D01*
X213799122Y-86763561D02*
X214218170Y-86763561D01*
X214218170Y-86763561D02*
X213799122Y-87296895D01*
X213799122Y-87296895D02*
X214218170Y-87296895D01*
X214446741Y-86763561D02*
X214637217Y-87296895D01*
X214827694Y-86763561D02*
X214637217Y-87296895D01*
X214637217Y-87296895D02*
X214561027Y-87487371D01*
X214561027Y-87487371D02*
X214522932Y-87525466D01*
X214522932Y-87525466D02*
X214446741Y-87563561D01*
X215246741Y-87220704D02*
X215284837Y-87258800D01*
X215284837Y-87258800D02*
X215246741Y-87296895D01*
X215246741Y-87296895D02*
X215208646Y-87258800D01*
X215208646Y-87258800D02*
X215246741Y-87220704D01*
X215246741Y-87220704D02*
X215246741Y-87296895D01*
X215094360Y-86534990D02*
X215170551Y-86496895D01*
X215170551Y-86496895D02*
X215361027Y-86496895D01*
X215361027Y-86496895D02*
X215437218Y-86534990D01*
X215437218Y-86534990D02*
X215475313Y-86611180D01*
X215475313Y-86611180D02*
X215475313Y-86687371D01*
X215475313Y-86687371D02*
X215437218Y-86763561D01*
X215437218Y-86763561D02*
X215399122Y-86801657D01*
X215399122Y-86801657D02*
X215322932Y-86839752D01*
X215322932Y-86839752D02*
X215284837Y-86877847D01*
X215284837Y-86877847D02*
X215246741Y-86954038D01*
X215246741Y-86954038D02*
X215246741Y-86992133D01*
X216427694Y-87296895D02*
X216427694Y-86496895D01*
X217341979Y-86763561D02*
X217494360Y-87296895D01*
X217494360Y-87296895D02*
X217646741Y-86915942D01*
X217646741Y-86915942D02*
X217799122Y-87296895D01*
X217799122Y-87296895D02*
X217951503Y-86763561D01*
X218599122Y-87296895D02*
X218599122Y-86877847D01*
X218599122Y-86877847D02*
X218561027Y-86801657D01*
X218561027Y-86801657D02*
X218484836Y-86763561D01*
X218484836Y-86763561D02*
X218332455Y-86763561D01*
X218332455Y-86763561D02*
X218256265Y-86801657D01*
X218599122Y-87258800D02*
X218522931Y-87296895D01*
X218522931Y-87296895D02*
X218332455Y-87296895D01*
X218332455Y-87296895D02*
X218256265Y-87258800D01*
X218256265Y-87258800D02*
X218218169Y-87182609D01*
X218218169Y-87182609D02*
X218218169Y-87106419D01*
X218218169Y-87106419D02*
X218256265Y-87030228D01*
X218256265Y-87030228D02*
X218332455Y-86992133D01*
X218332455Y-86992133D02*
X218522931Y-86992133D01*
X218522931Y-86992133D02*
X218599122Y-86954038D01*
X218941979Y-87258800D02*
X219018170Y-87296895D01*
X219018170Y-87296895D02*
X219170551Y-87296895D01*
X219170551Y-87296895D02*
X219246741Y-87258800D01*
X219246741Y-87258800D02*
X219284837Y-87182609D01*
X219284837Y-87182609D02*
X219284837Y-87144514D01*
X219284837Y-87144514D02*
X219246741Y-87068323D01*
X219246741Y-87068323D02*
X219170551Y-87030228D01*
X219170551Y-87030228D02*
X219056265Y-87030228D01*
X219056265Y-87030228D02*
X218980075Y-86992133D01*
X218980075Y-86992133D02*
X218941979Y-86915942D01*
X218941979Y-86915942D02*
X218941979Y-86877847D01*
X218941979Y-86877847D02*
X218980075Y-86801657D01*
X218980075Y-86801657D02*
X219056265Y-86763561D01*
X219056265Y-86763561D02*
X219170551Y-86763561D01*
X219170551Y-86763561D02*
X219246741Y-86801657D01*
X220580075Y-87258800D02*
X220503884Y-87296895D01*
X220503884Y-87296895D02*
X220351503Y-87296895D01*
X220351503Y-87296895D02*
X220275313Y-87258800D01*
X220275313Y-87258800D02*
X220237218Y-87220704D01*
X220237218Y-87220704D02*
X220199122Y-87144514D01*
X220199122Y-87144514D02*
X220199122Y-86915942D01*
X220199122Y-86915942D02*
X220237218Y-86839752D01*
X220237218Y-86839752D02*
X220275313Y-86801657D01*
X220275313Y-86801657D02*
X220351503Y-86763561D01*
X220351503Y-86763561D02*
X220503884Y-86763561D01*
X220503884Y-86763561D02*
X220580075Y-86801657D01*
X220922932Y-87296895D02*
X220922932Y-86763561D01*
X220922932Y-86915942D02*
X220961027Y-86839752D01*
X220961027Y-86839752D02*
X220999122Y-86801657D01*
X220999122Y-86801657D02*
X221075313Y-86763561D01*
X221075313Y-86763561D02*
X221151503Y-86763561D01*
X221761027Y-87296895D02*
X221761027Y-86877847D01*
X221761027Y-86877847D02*
X221722932Y-86801657D01*
X221722932Y-86801657D02*
X221646741Y-86763561D01*
X221646741Y-86763561D02*
X221494360Y-86763561D01*
X221494360Y-86763561D02*
X221418170Y-86801657D01*
X221761027Y-87258800D02*
X221684836Y-87296895D01*
X221684836Y-87296895D02*
X221494360Y-87296895D01*
X221494360Y-87296895D02*
X221418170Y-87258800D01*
X221418170Y-87258800D02*
X221380074Y-87182609D01*
X221380074Y-87182609D02*
X221380074Y-87106419D01*
X221380074Y-87106419D02*
X221418170Y-87030228D01*
X221418170Y-87030228D02*
X221494360Y-86992133D01*
X221494360Y-86992133D02*
X221684836Y-86992133D01*
X221684836Y-86992133D02*
X221761027Y-86954038D01*
X222065789Y-86763561D02*
X222484837Y-86763561D01*
X222484837Y-86763561D02*
X222065789Y-87296895D01*
X222065789Y-87296895D02*
X222484837Y-87296895D01*
X222713408Y-86763561D02*
X222903884Y-87296895D01*
X223094361Y-86763561D02*
X222903884Y-87296895D01*
X222903884Y-87296895D02*
X222827694Y-87487371D01*
X222827694Y-87487371D02*
X222789599Y-87525466D01*
X222789599Y-87525466D02*
X222713408Y-87563561D01*
X224122932Y-87296895D02*
X224046742Y-87258800D01*
X224046742Y-87258800D02*
X224008647Y-87220704D01*
X224008647Y-87220704D02*
X223970551Y-87144514D01*
X223970551Y-87144514D02*
X223970551Y-86915942D01*
X223970551Y-86915942D02*
X224008647Y-86839752D01*
X224008647Y-86839752D02*
X224046742Y-86801657D01*
X224046742Y-86801657D02*
X224122932Y-86763561D01*
X224122932Y-86763561D02*
X224237218Y-86763561D01*
X224237218Y-86763561D02*
X224313409Y-86801657D01*
X224313409Y-86801657D02*
X224351504Y-86839752D01*
X224351504Y-86839752D02*
X224389599Y-86915942D01*
X224389599Y-86915942D02*
X224389599Y-87144514D01*
X224389599Y-87144514D02*
X224351504Y-87220704D01*
X224351504Y-87220704D02*
X224313409Y-87258800D01*
X224313409Y-87258800D02*
X224237218Y-87296895D01*
X224237218Y-87296895D02*
X224122932Y-87296895D01*
X224732457Y-86763561D02*
X224732457Y-87296895D01*
X224732457Y-86839752D02*
X224770552Y-86801657D01*
X224770552Y-86801657D02*
X224846742Y-86763561D01*
X224846742Y-86763561D02*
X224961028Y-86763561D01*
X224961028Y-86763561D02*
X225037219Y-86801657D01*
X225037219Y-86801657D02*
X225075314Y-86877847D01*
X225075314Y-86877847D02*
X225075314Y-87296895D01*
X225799124Y-87258800D02*
X225722933Y-87296895D01*
X225722933Y-87296895D02*
X225570552Y-87296895D01*
X225570552Y-87296895D02*
X225494362Y-87258800D01*
X225494362Y-87258800D02*
X225456267Y-87220704D01*
X225456267Y-87220704D02*
X225418171Y-87144514D01*
X225418171Y-87144514D02*
X225418171Y-86915942D01*
X225418171Y-86915942D02*
X225456267Y-86839752D01*
X225456267Y-86839752D02*
X225494362Y-86801657D01*
X225494362Y-86801657D02*
X225570552Y-86763561D01*
X225570552Y-86763561D02*
X225722933Y-86763561D01*
X225722933Y-86763561D02*
X225799124Y-86801657D01*
X226446743Y-87258800D02*
X226370552Y-87296895D01*
X226370552Y-87296895D02*
X226218171Y-87296895D01*
X226218171Y-87296895D02*
X226141981Y-87258800D01*
X226141981Y-87258800D02*
X226103885Y-87182609D01*
X226103885Y-87182609D02*
X226103885Y-86877847D01*
X226103885Y-86877847D02*
X226141981Y-86801657D01*
X226141981Y-86801657D02*
X226218171Y-86763561D01*
X226218171Y-86763561D02*
X226370552Y-86763561D01*
X226370552Y-86763561D02*
X226446743Y-86801657D01*
X226446743Y-86801657D02*
X226484838Y-86877847D01*
X226484838Y-86877847D02*
X226484838Y-86954038D01*
X226484838Y-86954038D02*
X226103885Y-87030228D01*
X226827695Y-87220704D02*
X226865790Y-87258800D01*
X226865790Y-87258800D02*
X226827695Y-87296895D01*
X226827695Y-87296895D02*
X226789599Y-87258800D01*
X226789599Y-87258800D02*
X226827695Y-87220704D01*
X226827695Y-87220704D02*
X226827695Y-87296895D01*
X211818169Y-91668323D02*
X212199122Y-91668323D01*
X211741979Y-91896895D02*
X212008646Y-91096895D01*
X212008646Y-91096895D02*
X212275312Y-91896895D01*
X212541979Y-91363561D02*
X212541979Y-91896895D01*
X212541979Y-91439752D02*
X212580074Y-91401657D01*
X212580074Y-91401657D02*
X212656264Y-91363561D01*
X212656264Y-91363561D02*
X212770550Y-91363561D01*
X212770550Y-91363561D02*
X212846741Y-91401657D01*
X212846741Y-91401657D02*
X212884836Y-91477847D01*
X212884836Y-91477847D02*
X212884836Y-91896895D01*
X213608646Y-91896895D02*
X213608646Y-91096895D01*
X213608646Y-91858800D02*
X213532455Y-91896895D01*
X213532455Y-91896895D02*
X213380074Y-91896895D01*
X213380074Y-91896895D02*
X213303884Y-91858800D01*
X213303884Y-91858800D02*
X213265789Y-91820704D01*
X213265789Y-91820704D02*
X213227693Y-91744514D01*
X213227693Y-91744514D02*
X213227693Y-91515942D01*
X213227693Y-91515942D02*
X213265789Y-91439752D01*
X213265789Y-91439752D02*
X213303884Y-91401657D01*
X213303884Y-91401657D02*
X213380074Y-91363561D01*
X213380074Y-91363561D02*
X213532455Y-91363561D01*
X213532455Y-91363561D02*
X213608646Y-91401657D01*
X214599123Y-91896895D02*
X214599123Y-91363561D01*
X214599123Y-91515942D02*
X214637218Y-91439752D01*
X214637218Y-91439752D02*
X214675313Y-91401657D01*
X214675313Y-91401657D02*
X214751504Y-91363561D01*
X214751504Y-91363561D02*
X214827694Y-91363561D01*
X215437218Y-91896895D02*
X215437218Y-91477847D01*
X215437218Y-91477847D02*
X215399123Y-91401657D01*
X215399123Y-91401657D02*
X215322932Y-91363561D01*
X215322932Y-91363561D02*
X215170551Y-91363561D01*
X215170551Y-91363561D02*
X215094361Y-91401657D01*
X215437218Y-91858800D02*
X215361027Y-91896895D01*
X215361027Y-91896895D02*
X215170551Y-91896895D01*
X215170551Y-91896895D02*
X215094361Y-91858800D01*
X215094361Y-91858800D02*
X215056265Y-91782609D01*
X215056265Y-91782609D02*
X215056265Y-91706419D01*
X215056265Y-91706419D02*
X215094361Y-91630228D01*
X215094361Y-91630228D02*
X215170551Y-91592133D01*
X215170551Y-91592133D02*
X215361027Y-91592133D01*
X215361027Y-91592133D02*
X215437218Y-91554038D01*
X215703885Y-91363561D02*
X216008647Y-91363561D01*
X215818171Y-91096895D02*
X215818171Y-91782609D01*
X215818171Y-91782609D02*
X215856266Y-91858800D01*
X215856266Y-91858800D02*
X215932456Y-91896895D01*
X215932456Y-91896895D02*
X216008647Y-91896895D01*
X216237218Y-91858800D02*
X216313409Y-91896895D01*
X216313409Y-91896895D02*
X216465790Y-91896895D01*
X216465790Y-91896895D02*
X216541980Y-91858800D01*
X216541980Y-91858800D02*
X216580076Y-91782609D01*
X216580076Y-91782609D02*
X216580076Y-91744514D01*
X216580076Y-91744514D02*
X216541980Y-91668323D01*
X216541980Y-91668323D02*
X216465790Y-91630228D01*
X216465790Y-91630228D02*
X216351504Y-91630228D01*
X216351504Y-91630228D02*
X216275314Y-91592133D01*
X216275314Y-91592133D02*
X216237218Y-91515942D01*
X216237218Y-91515942D02*
X216237218Y-91477847D01*
X216237218Y-91477847D02*
X216275314Y-91401657D01*
X216275314Y-91401657D02*
X216351504Y-91363561D01*
X216351504Y-91363561D02*
X216465790Y-91363561D01*
X216465790Y-91363561D02*
X216541980Y-91401657D01*
X217532457Y-91896895D02*
X217532457Y-91363561D01*
X217532457Y-91439752D02*
X217570552Y-91401657D01*
X217570552Y-91401657D02*
X217646742Y-91363561D01*
X217646742Y-91363561D02*
X217761028Y-91363561D01*
X217761028Y-91363561D02*
X217837219Y-91401657D01*
X217837219Y-91401657D02*
X217875314Y-91477847D01*
X217875314Y-91477847D02*
X217875314Y-91896895D01*
X217875314Y-91477847D02*
X217913409Y-91401657D01*
X217913409Y-91401657D02*
X217989600Y-91363561D01*
X217989600Y-91363561D02*
X218103885Y-91363561D01*
X218103885Y-91363561D02*
X218180076Y-91401657D01*
X218180076Y-91401657D02*
X218218171Y-91477847D01*
X218218171Y-91477847D02*
X218218171Y-91896895D01*
X218941981Y-91896895D02*
X218941981Y-91477847D01*
X218941981Y-91477847D02*
X218903886Y-91401657D01*
X218903886Y-91401657D02*
X218827695Y-91363561D01*
X218827695Y-91363561D02*
X218675314Y-91363561D01*
X218675314Y-91363561D02*
X218599124Y-91401657D01*
X218941981Y-91858800D02*
X218865790Y-91896895D01*
X218865790Y-91896895D02*
X218675314Y-91896895D01*
X218675314Y-91896895D02*
X218599124Y-91858800D01*
X218599124Y-91858800D02*
X218561028Y-91782609D01*
X218561028Y-91782609D02*
X218561028Y-91706419D01*
X218561028Y-91706419D02*
X218599124Y-91630228D01*
X218599124Y-91630228D02*
X218675314Y-91592133D01*
X218675314Y-91592133D02*
X218865790Y-91592133D01*
X218865790Y-91592133D02*
X218941981Y-91554038D01*
X219322934Y-91896895D02*
X219322934Y-91096895D01*
X219399124Y-91592133D02*
X219627696Y-91896895D01*
X219627696Y-91363561D02*
X219322934Y-91668323D01*
X220275315Y-91858800D02*
X220199124Y-91896895D01*
X220199124Y-91896895D02*
X220046743Y-91896895D01*
X220046743Y-91896895D02*
X219970553Y-91858800D01*
X219970553Y-91858800D02*
X219932457Y-91782609D01*
X219932457Y-91782609D02*
X219932457Y-91477847D01*
X219932457Y-91477847D02*
X219970553Y-91401657D01*
X219970553Y-91401657D02*
X220046743Y-91363561D01*
X220046743Y-91363561D02*
X220199124Y-91363561D01*
X220199124Y-91363561D02*
X220275315Y-91401657D01*
X220275315Y-91401657D02*
X220313410Y-91477847D01*
X220313410Y-91477847D02*
X220313410Y-91554038D01*
X220313410Y-91554038D02*
X219932457Y-91630228D01*
X221265791Y-91896895D02*
X221265791Y-91363561D01*
X221265791Y-91439752D02*
X221303886Y-91401657D01*
X221303886Y-91401657D02*
X221380076Y-91363561D01*
X221380076Y-91363561D02*
X221494362Y-91363561D01*
X221494362Y-91363561D02*
X221570553Y-91401657D01*
X221570553Y-91401657D02*
X221608648Y-91477847D01*
X221608648Y-91477847D02*
X221608648Y-91896895D01*
X221608648Y-91477847D02*
X221646743Y-91401657D01*
X221646743Y-91401657D02*
X221722934Y-91363561D01*
X221722934Y-91363561D02*
X221837219Y-91363561D01*
X221837219Y-91363561D02*
X221913410Y-91401657D01*
X221913410Y-91401657D02*
X221951505Y-91477847D01*
X221951505Y-91477847D02*
X221951505Y-91896895D01*
X222637220Y-91858800D02*
X222561029Y-91896895D01*
X222561029Y-91896895D02*
X222408648Y-91896895D01*
X222408648Y-91896895D02*
X222332458Y-91858800D01*
X222332458Y-91858800D02*
X222294362Y-91782609D01*
X222294362Y-91782609D02*
X222294362Y-91477847D01*
X222294362Y-91477847D02*
X222332458Y-91401657D01*
X222332458Y-91401657D02*
X222408648Y-91363561D01*
X222408648Y-91363561D02*
X222561029Y-91363561D01*
X222561029Y-91363561D02*
X222637220Y-91401657D01*
X222637220Y-91401657D02*
X222675315Y-91477847D01*
X222675315Y-91477847D02*
X222675315Y-91554038D01*
X222675315Y-91554038D02*
X222294362Y-91630228D01*
X223970553Y-91858800D02*
X223894362Y-91896895D01*
X223894362Y-91896895D02*
X223741981Y-91896895D01*
X223741981Y-91896895D02*
X223665791Y-91858800D01*
X223665791Y-91858800D02*
X223627696Y-91820704D01*
X223627696Y-91820704D02*
X223589600Y-91744514D01*
X223589600Y-91744514D02*
X223589600Y-91515942D01*
X223589600Y-91515942D02*
X223627696Y-91439752D01*
X223627696Y-91439752D02*
X223665791Y-91401657D01*
X223665791Y-91401657D02*
X223741981Y-91363561D01*
X223741981Y-91363561D02*
X223894362Y-91363561D01*
X223894362Y-91363561D02*
X223970553Y-91401657D01*
X224313410Y-91896895D02*
X224313410Y-91363561D01*
X224313410Y-91515942D02*
X224351505Y-91439752D01*
X224351505Y-91439752D02*
X224389600Y-91401657D01*
X224389600Y-91401657D02*
X224465791Y-91363561D01*
X224465791Y-91363561D02*
X224541981Y-91363561D01*
X225151505Y-91896895D02*
X225151505Y-91477847D01*
X225151505Y-91477847D02*
X225113410Y-91401657D01*
X225113410Y-91401657D02*
X225037219Y-91363561D01*
X225037219Y-91363561D02*
X224884838Y-91363561D01*
X224884838Y-91363561D02*
X224808648Y-91401657D01*
X225151505Y-91858800D02*
X225075314Y-91896895D01*
X225075314Y-91896895D02*
X224884838Y-91896895D01*
X224884838Y-91896895D02*
X224808648Y-91858800D01*
X224808648Y-91858800D02*
X224770552Y-91782609D01*
X224770552Y-91782609D02*
X224770552Y-91706419D01*
X224770552Y-91706419D02*
X224808648Y-91630228D01*
X224808648Y-91630228D02*
X224884838Y-91592133D01*
X224884838Y-91592133D02*
X225075314Y-91592133D01*
X225075314Y-91592133D02*
X225151505Y-91554038D01*
X225456267Y-91363561D02*
X225875315Y-91363561D01*
X225875315Y-91363561D02*
X225456267Y-91896895D01*
X225456267Y-91896895D02*
X225875315Y-91896895D01*
X226103886Y-91363561D02*
X226294362Y-91896895D01*
X226484839Y-91363561D02*
X226294362Y-91896895D01*
X226294362Y-91896895D02*
X226218172Y-92087371D01*
X226218172Y-92087371D02*
X226180077Y-92125466D01*
X226180077Y-92125466D02*
X226103886Y-92163561D01*
X226789601Y-91820704D02*
X226827696Y-91858800D01*
X226827696Y-91858800D02*
X226789601Y-91896895D01*
X226789601Y-91896895D02*
X226751505Y-91858800D01*
X226751505Y-91858800D02*
X226789601Y-91820704D01*
X226789601Y-91820704D02*
X226789601Y-91896895D01*
X211741979Y-87696895D02*
X212199122Y-87696895D01*
X211970550Y-88496895D02*
X211970550Y-87696895D01*
X212465789Y-88496895D02*
X212465789Y-87696895D01*
X212808646Y-88496895D02*
X212808646Y-88077847D01*
X212808646Y-88077847D02*
X212770551Y-88001657D01*
X212770551Y-88001657D02*
X212694360Y-87963561D01*
X212694360Y-87963561D02*
X212580074Y-87963561D01*
X212580074Y-87963561D02*
X212503884Y-88001657D01*
X212503884Y-88001657D02*
X212465789Y-88039752D01*
X213494361Y-88458800D02*
X213418170Y-88496895D01*
X213418170Y-88496895D02*
X213265789Y-88496895D01*
X213265789Y-88496895D02*
X213189599Y-88458800D01*
X213189599Y-88458800D02*
X213151503Y-88382609D01*
X213151503Y-88382609D02*
X213151503Y-88077847D01*
X213151503Y-88077847D02*
X213189599Y-88001657D01*
X213189599Y-88001657D02*
X213265789Y-87963561D01*
X213265789Y-87963561D02*
X213418170Y-87963561D01*
X213418170Y-87963561D02*
X213494361Y-88001657D01*
X213494361Y-88001657D02*
X213532456Y-88077847D01*
X213532456Y-88077847D02*
X213532456Y-88154038D01*
X213532456Y-88154038D02*
X213151503Y-88230228D01*
X213799122Y-87963561D02*
X213989598Y-88496895D01*
X214180075Y-87963561D02*
X213989598Y-88496895D01*
X213989598Y-88496895D02*
X213913408Y-88687371D01*
X213913408Y-88687371D02*
X213875313Y-88725466D01*
X213875313Y-88725466D02*
X213799122Y-88763561D01*
X215208646Y-88496895D02*
X215132456Y-88458800D01*
X215132456Y-88458800D02*
X215094361Y-88382609D01*
X215094361Y-88382609D02*
X215094361Y-87696895D01*
X215627694Y-88496895D02*
X215551504Y-88458800D01*
X215551504Y-88458800D02*
X215513409Y-88420704D01*
X215513409Y-88420704D02*
X215475313Y-88344514D01*
X215475313Y-88344514D02*
X215475313Y-88115942D01*
X215475313Y-88115942D02*
X215513409Y-88039752D01*
X215513409Y-88039752D02*
X215551504Y-88001657D01*
X215551504Y-88001657D02*
X215627694Y-87963561D01*
X215627694Y-87963561D02*
X215741980Y-87963561D01*
X215741980Y-87963561D02*
X215818171Y-88001657D01*
X215818171Y-88001657D02*
X215856266Y-88039752D01*
X215856266Y-88039752D02*
X215894361Y-88115942D01*
X215894361Y-88115942D02*
X215894361Y-88344514D01*
X215894361Y-88344514D02*
X215856266Y-88420704D01*
X215856266Y-88420704D02*
X215818171Y-88458800D01*
X215818171Y-88458800D02*
X215741980Y-88496895D01*
X215741980Y-88496895D02*
X215627694Y-88496895D01*
X216580076Y-88458800D02*
X216503885Y-88496895D01*
X216503885Y-88496895D02*
X216351504Y-88496895D01*
X216351504Y-88496895D02*
X216275314Y-88458800D01*
X216275314Y-88458800D02*
X216237219Y-88420704D01*
X216237219Y-88420704D02*
X216199123Y-88344514D01*
X216199123Y-88344514D02*
X216199123Y-88115942D01*
X216199123Y-88115942D02*
X216237219Y-88039752D01*
X216237219Y-88039752D02*
X216275314Y-88001657D01*
X216275314Y-88001657D02*
X216351504Y-87963561D01*
X216351504Y-87963561D02*
X216503885Y-87963561D01*
X216503885Y-87963561D02*
X216580076Y-88001657D01*
X216922933Y-88496895D02*
X216922933Y-87696895D01*
X216999123Y-88192133D02*
X217227695Y-88496895D01*
X217227695Y-87963561D02*
X216922933Y-88268323D01*
X217875314Y-88458800D02*
X217799123Y-88496895D01*
X217799123Y-88496895D02*
X217646742Y-88496895D01*
X217646742Y-88496895D02*
X217570552Y-88458800D01*
X217570552Y-88458800D02*
X217532456Y-88382609D01*
X217532456Y-88382609D02*
X217532456Y-88077847D01*
X217532456Y-88077847D02*
X217570552Y-88001657D01*
X217570552Y-88001657D02*
X217646742Y-87963561D01*
X217646742Y-87963561D02*
X217799123Y-87963561D01*
X217799123Y-87963561D02*
X217875314Y-88001657D01*
X217875314Y-88001657D02*
X217913409Y-88077847D01*
X217913409Y-88077847D02*
X217913409Y-88154038D01*
X217913409Y-88154038D02*
X217532456Y-88230228D01*
X218599123Y-88496895D02*
X218599123Y-87696895D01*
X218599123Y-88458800D02*
X218522932Y-88496895D01*
X218522932Y-88496895D02*
X218370551Y-88496895D01*
X218370551Y-88496895D02*
X218294361Y-88458800D01*
X218294361Y-88458800D02*
X218256266Y-88420704D01*
X218256266Y-88420704D02*
X218218170Y-88344514D01*
X218218170Y-88344514D02*
X218218170Y-88115942D01*
X218218170Y-88115942D02*
X218256266Y-88039752D01*
X218256266Y-88039752D02*
X218294361Y-88001657D01*
X218294361Y-88001657D02*
X218370551Y-87963561D01*
X218370551Y-87963561D02*
X218522932Y-87963561D01*
X218522932Y-87963561D02*
X218599123Y-88001657D01*
X219589600Y-88496895D02*
X219589600Y-87963561D01*
X219589600Y-88039752D02*
X219627695Y-88001657D01*
X219627695Y-88001657D02*
X219703885Y-87963561D01*
X219703885Y-87963561D02*
X219818171Y-87963561D01*
X219818171Y-87963561D02*
X219894362Y-88001657D01*
X219894362Y-88001657D02*
X219932457Y-88077847D01*
X219932457Y-88077847D02*
X219932457Y-88496895D01*
X219932457Y-88077847D02*
X219970552Y-88001657D01*
X219970552Y-88001657D02*
X220046743Y-87963561D01*
X220046743Y-87963561D02*
X220161028Y-87963561D01*
X220161028Y-87963561D02*
X220237219Y-88001657D01*
X220237219Y-88001657D02*
X220275314Y-88077847D01*
X220275314Y-88077847D02*
X220275314Y-88496895D01*
X220961029Y-88458800D02*
X220884838Y-88496895D01*
X220884838Y-88496895D02*
X220732457Y-88496895D01*
X220732457Y-88496895D02*
X220656267Y-88458800D01*
X220656267Y-88458800D02*
X220618171Y-88382609D01*
X220618171Y-88382609D02*
X220618171Y-88077847D01*
X220618171Y-88077847D02*
X220656267Y-88001657D01*
X220656267Y-88001657D02*
X220732457Y-87963561D01*
X220732457Y-87963561D02*
X220884838Y-87963561D01*
X220884838Y-87963561D02*
X220961029Y-88001657D01*
X220961029Y-88001657D02*
X220999124Y-88077847D01*
X220999124Y-88077847D02*
X220999124Y-88154038D01*
X220999124Y-88154038D02*
X220618171Y-88230228D01*
X221951505Y-88496895D02*
X221951505Y-87963561D01*
X221951505Y-87696895D02*
X221913409Y-87734990D01*
X221913409Y-87734990D02*
X221951505Y-87773085D01*
X221951505Y-87773085D02*
X221989600Y-87734990D01*
X221989600Y-87734990D02*
X221951505Y-87696895D01*
X221951505Y-87696895D02*
X221951505Y-87773085D01*
X222332457Y-87963561D02*
X222332457Y-88496895D01*
X222332457Y-88039752D02*
X222370552Y-88001657D01*
X222370552Y-88001657D02*
X222446742Y-87963561D01*
X222446742Y-87963561D02*
X222561028Y-87963561D01*
X222561028Y-87963561D02*
X222637219Y-88001657D01*
X222637219Y-88001657D02*
X222675314Y-88077847D01*
X222675314Y-88077847D02*
X222675314Y-88496895D01*
X224008648Y-88496895D02*
X224008648Y-88077847D01*
X224008648Y-88077847D02*
X223970553Y-88001657D01*
X223970553Y-88001657D02*
X223894362Y-87963561D01*
X223894362Y-87963561D02*
X223741981Y-87963561D01*
X223741981Y-87963561D02*
X223665791Y-88001657D01*
X224008648Y-88458800D02*
X223932457Y-88496895D01*
X223932457Y-88496895D02*
X223741981Y-88496895D01*
X223741981Y-88496895D02*
X223665791Y-88458800D01*
X223665791Y-88458800D02*
X223627695Y-88382609D01*
X223627695Y-88382609D02*
X223627695Y-88306419D01*
X223627695Y-88306419D02*
X223665791Y-88230228D01*
X223665791Y-88230228D02*
X223741981Y-88192133D01*
X223741981Y-88192133D02*
X223932457Y-88192133D01*
X223932457Y-88192133D02*
X224008648Y-88154038D01*
X224999125Y-88496895D02*
X224999125Y-87963561D01*
X224999125Y-88115942D02*
X225037220Y-88039752D01*
X225037220Y-88039752D02*
X225075315Y-88001657D01*
X225075315Y-88001657D02*
X225151506Y-87963561D01*
X225151506Y-87963561D02*
X225227696Y-87963561D01*
X225608648Y-88496895D02*
X225532458Y-88458800D01*
X225532458Y-88458800D02*
X225494363Y-88420704D01*
X225494363Y-88420704D02*
X225456267Y-88344514D01*
X225456267Y-88344514D02*
X225456267Y-88115942D01*
X225456267Y-88115942D02*
X225494363Y-88039752D01*
X225494363Y-88039752D02*
X225532458Y-88001657D01*
X225532458Y-88001657D02*
X225608648Y-87963561D01*
X225608648Y-87963561D02*
X225722934Y-87963561D01*
X225722934Y-87963561D02*
X225799125Y-88001657D01*
X225799125Y-88001657D02*
X225837220Y-88039752D01*
X225837220Y-88039752D02*
X225875315Y-88115942D01*
X225875315Y-88115942D02*
X225875315Y-88344514D01*
X225875315Y-88344514D02*
X225837220Y-88420704D01*
X225837220Y-88420704D02*
X225799125Y-88458800D01*
X225799125Y-88458800D02*
X225722934Y-88496895D01*
X225722934Y-88496895D02*
X225608648Y-88496895D01*
X226332458Y-88496895D02*
X226256268Y-88458800D01*
X226256268Y-88458800D02*
X226218173Y-88420704D01*
X226218173Y-88420704D02*
X226180077Y-88344514D01*
X226180077Y-88344514D02*
X226180077Y-88115942D01*
X226180077Y-88115942D02*
X226218173Y-88039752D01*
X226218173Y-88039752D02*
X226256268Y-88001657D01*
X226256268Y-88001657D02*
X226332458Y-87963561D01*
X226332458Y-87963561D02*
X226446744Y-87963561D01*
X226446744Y-87963561D02*
X226522935Y-88001657D01*
X226522935Y-88001657D02*
X226561030Y-88039752D01*
X226561030Y-88039752D02*
X226599125Y-88115942D01*
X226599125Y-88115942D02*
X226599125Y-88344514D01*
X226599125Y-88344514D02*
X226561030Y-88420704D01*
X226561030Y-88420704D02*
X226522935Y-88458800D01*
X226522935Y-88458800D02*
X226446744Y-88496895D01*
X226446744Y-88496895D02*
X226332458Y-88496895D01*
X226941983Y-88496895D02*
X226941983Y-87963561D01*
X226941983Y-88039752D02*
X226980078Y-88001657D01*
X226980078Y-88001657D02*
X227056268Y-87963561D01*
X227056268Y-87963561D02*
X227170554Y-87963561D01*
X227170554Y-87963561D02*
X227246745Y-88001657D01*
X227246745Y-88001657D02*
X227284840Y-88077847D01*
X227284840Y-88077847D02*
X227284840Y-88496895D01*
X227284840Y-88077847D02*
X227322935Y-88001657D01*
X227322935Y-88001657D02*
X227399126Y-87963561D01*
X227399126Y-87963561D02*
X227513411Y-87963561D01*
X227513411Y-87963561D02*
X227589602Y-88001657D01*
X227589602Y-88001657D02*
X227627697Y-88077847D01*
X227627697Y-88077847D02*
X227627697Y-88496895D01*
X228008650Y-88420704D02*
X228046745Y-88458800D01*
X228046745Y-88458800D02*
X228008650Y-88496895D01*
X228008650Y-88496895D02*
X227970554Y-88458800D01*
X227970554Y-88458800D02*
X228008650Y-88420704D01*
X228008650Y-88420704D02*
X228008650Y-88496895D01*
X211818169Y-90568323D02*
X212199122Y-90568323D01*
X211741979Y-90796895D02*
X212008646Y-89996895D01*
X212008646Y-89996895D02*
X212275312Y-90796895D01*
X213151503Y-90796895D02*
X213151503Y-90263561D01*
X213151503Y-90415942D02*
X213189598Y-90339752D01*
X213189598Y-90339752D02*
X213227693Y-90301657D01*
X213227693Y-90301657D02*
X213303884Y-90263561D01*
X213303884Y-90263561D02*
X213380074Y-90263561D01*
X213989598Y-90263561D02*
X213989598Y-90796895D01*
X213646741Y-90263561D02*
X213646741Y-90682609D01*
X213646741Y-90682609D02*
X213684836Y-90758800D01*
X213684836Y-90758800D02*
X213761026Y-90796895D01*
X213761026Y-90796895D02*
X213875312Y-90796895D01*
X213875312Y-90796895D02*
X213951503Y-90758800D01*
X213951503Y-90758800D02*
X213989598Y-90720704D01*
X214370551Y-90796895D02*
X214370551Y-89996895D01*
X214370551Y-90301657D02*
X214446741Y-90263561D01*
X214446741Y-90263561D02*
X214599122Y-90263561D01*
X214599122Y-90263561D02*
X214675313Y-90301657D01*
X214675313Y-90301657D02*
X214713408Y-90339752D01*
X214713408Y-90339752D02*
X214751503Y-90415942D01*
X214751503Y-90415942D02*
X214751503Y-90644514D01*
X214751503Y-90644514D02*
X214713408Y-90720704D01*
X214713408Y-90720704D02*
X214675313Y-90758800D01*
X214675313Y-90758800D02*
X214599122Y-90796895D01*
X214599122Y-90796895D02*
X214446741Y-90796895D01*
X214446741Y-90796895D02*
X214370551Y-90758800D01*
X215094361Y-90796895D02*
X215094361Y-89996895D01*
X215094361Y-90301657D02*
X215170551Y-90263561D01*
X215170551Y-90263561D02*
X215322932Y-90263561D01*
X215322932Y-90263561D02*
X215399123Y-90301657D01*
X215399123Y-90301657D02*
X215437218Y-90339752D01*
X215437218Y-90339752D02*
X215475313Y-90415942D01*
X215475313Y-90415942D02*
X215475313Y-90644514D01*
X215475313Y-90644514D02*
X215437218Y-90720704D01*
X215437218Y-90720704D02*
X215399123Y-90758800D01*
X215399123Y-90758800D02*
X215322932Y-90796895D01*
X215322932Y-90796895D02*
X215170551Y-90796895D01*
X215170551Y-90796895D02*
X215094361Y-90758800D01*
X216122933Y-90758800D02*
X216046742Y-90796895D01*
X216046742Y-90796895D02*
X215894361Y-90796895D01*
X215894361Y-90796895D02*
X215818171Y-90758800D01*
X215818171Y-90758800D02*
X215780075Y-90682609D01*
X215780075Y-90682609D02*
X215780075Y-90377847D01*
X215780075Y-90377847D02*
X215818171Y-90301657D01*
X215818171Y-90301657D02*
X215894361Y-90263561D01*
X215894361Y-90263561D02*
X216046742Y-90263561D01*
X216046742Y-90263561D02*
X216122933Y-90301657D01*
X216122933Y-90301657D02*
X216161028Y-90377847D01*
X216161028Y-90377847D02*
X216161028Y-90454038D01*
X216161028Y-90454038D02*
X215780075Y-90530228D01*
X216503885Y-90796895D02*
X216503885Y-90263561D01*
X216503885Y-90415942D02*
X216541980Y-90339752D01*
X216541980Y-90339752D02*
X216580075Y-90301657D01*
X216580075Y-90301657D02*
X216656266Y-90263561D01*
X216656266Y-90263561D02*
X216732456Y-90263561D01*
X217608647Y-90796895D02*
X217608647Y-90263561D01*
X217608647Y-90415942D02*
X217646742Y-90339752D01*
X217646742Y-90339752D02*
X217684837Y-90301657D01*
X217684837Y-90301657D02*
X217761028Y-90263561D01*
X217761028Y-90263561D02*
X217837218Y-90263561D01*
X218218170Y-90796895D02*
X218141980Y-90758800D01*
X218141980Y-90758800D02*
X218103885Y-90720704D01*
X218103885Y-90720704D02*
X218065789Y-90644514D01*
X218065789Y-90644514D02*
X218065789Y-90415942D01*
X218065789Y-90415942D02*
X218103885Y-90339752D01*
X218103885Y-90339752D02*
X218141980Y-90301657D01*
X218141980Y-90301657D02*
X218218170Y-90263561D01*
X218218170Y-90263561D02*
X218332456Y-90263561D01*
X218332456Y-90263561D02*
X218408647Y-90301657D01*
X218408647Y-90301657D02*
X218446742Y-90339752D01*
X218446742Y-90339752D02*
X218484837Y-90415942D01*
X218484837Y-90415942D02*
X218484837Y-90644514D01*
X218484837Y-90644514D02*
X218446742Y-90720704D01*
X218446742Y-90720704D02*
X218408647Y-90758800D01*
X218408647Y-90758800D02*
X218332456Y-90796895D01*
X218332456Y-90796895D02*
X218218170Y-90796895D01*
X218941980Y-90796895D02*
X218865790Y-90758800D01*
X218865790Y-90758800D02*
X218827695Y-90720704D01*
X218827695Y-90720704D02*
X218789599Y-90644514D01*
X218789599Y-90644514D02*
X218789599Y-90415942D01*
X218789599Y-90415942D02*
X218827695Y-90339752D01*
X218827695Y-90339752D02*
X218865790Y-90301657D01*
X218865790Y-90301657D02*
X218941980Y-90263561D01*
X218941980Y-90263561D02*
X219056266Y-90263561D01*
X219056266Y-90263561D02*
X219132457Y-90301657D01*
X219132457Y-90301657D02*
X219170552Y-90339752D01*
X219170552Y-90339752D02*
X219208647Y-90415942D01*
X219208647Y-90415942D02*
X219208647Y-90644514D01*
X219208647Y-90644514D02*
X219170552Y-90720704D01*
X219170552Y-90720704D02*
X219132457Y-90758800D01*
X219132457Y-90758800D02*
X219056266Y-90796895D01*
X219056266Y-90796895D02*
X218941980Y-90796895D01*
X219551505Y-90796895D02*
X219551505Y-90263561D01*
X219551505Y-90339752D02*
X219589600Y-90301657D01*
X219589600Y-90301657D02*
X219665790Y-90263561D01*
X219665790Y-90263561D02*
X219780076Y-90263561D01*
X219780076Y-90263561D02*
X219856267Y-90301657D01*
X219856267Y-90301657D02*
X219894362Y-90377847D01*
X219894362Y-90377847D02*
X219894362Y-90796895D01*
X219894362Y-90377847D02*
X219932457Y-90301657D01*
X219932457Y-90301657D02*
X220008648Y-90263561D01*
X220008648Y-90263561D02*
X220122933Y-90263561D01*
X220122933Y-90263561D02*
X220199124Y-90301657D01*
X220199124Y-90301657D02*
X220237219Y-90377847D01*
X220237219Y-90377847D02*
X220237219Y-90796895D01*
X221151505Y-90263561D02*
X221303886Y-90796895D01*
X221303886Y-90796895D02*
X221456267Y-90415942D01*
X221456267Y-90415942D02*
X221608648Y-90796895D01*
X221608648Y-90796895D02*
X221761029Y-90263561D01*
X222065791Y-90796895D02*
X222065791Y-90263561D01*
X222065791Y-89996895D02*
X222027695Y-90034990D01*
X222027695Y-90034990D02*
X222065791Y-90073085D01*
X222065791Y-90073085D02*
X222103886Y-90034990D01*
X222103886Y-90034990D02*
X222065791Y-89996895D01*
X222065791Y-89996895D02*
X222065791Y-90073085D01*
X222332457Y-90263561D02*
X222637219Y-90263561D01*
X222446743Y-89996895D02*
X222446743Y-90682609D01*
X222446743Y-90682609D02*
X222484838Y-90758800D01*
X222484838Y-90758800D02*
X222561028Y-90796895D01*
X222561028Y-90796895D02*
X222637219Y-90796895D01*
X222903886Y-90796895D02*
X222903886Y-89996895D01*
X223246743Y-90796895D02*
X223246743Y-90377847D01*
X223246743Y-90377847D02*
X223208648Y-90301657D01*
X223208648Y-90301657D02*
X223132457Y-90263561D01*
X223132457Y-90263561D02*
X223018171Y-90263561D01*
X223018171Y-90263561D02*
X222941981Y-90301657D01*
X222941981Y-90301657D02*
X222903886Y-90339752D01*
X224237220Y-90796895D02*
X224237220Y-90263561D01*
X224237220Y-90415942D02*
X224275315Y-90339752D01*
X224275315Y-90339752D02*
X224313410Y-90301657D01*
X224313410Y-90301657D02*
X224389601Y-90263561D01*
X224389601Y-90263561D02*
X224465791Y-90263561D01*
X225075315Y-90796895D02*
X225075315Y-90377847D01*
X225075315Y-90377847D02*
X225037220Y-90301657D01*
X225037220Y-90301657D02*
X224961029Y-90263561D01*
X224961029Y-90263561D02*
X224808648Y-90263561D01*
X224808648Y-90263561D02*
X224732458Y-90301657D01*
X225075315Y-90758800D02*
X224999124Y-90796895D01*
X224999124Y-90796895D02*
X224808648Y-90796895D01*
X224808648Y-90796895D02*
X224732458Y-90758800D01*
X224732458Y-90758800D02*
X224694362Y-90682609D01*
X224694362Y-90682609D02*
X224694362Y-90606419D01*
X224694362Y-90606419D02*
X224732458Y-90530228D01*
X224732458Y-90530228D02*
X224808648Y-90492133D01*
X224808648Y-90492133D02*
X224999124Y-90492133D01*
X224999124Y-90492133D02*
X225075315Y-90454038D01*
X225341982Y-90263561D02*
X225646744Y-90263561D01*
X225456268Y-89996895D02*
X225456268Y-90682609D01*
X225456268Y-90682609D02*
X225494363Y-90758800D01*
X225494363Y-90758800D02*
X225570553Y-90796895D01*
X225570553Y-90796895D02*
X225646744Y-90796895D01*
X225875315Y-90758800D02*
X225951506Y-90796895D01*
X225951506Y-90796895D02*
X226103887Y-90796895D01*
X226103887Y-90796895D02*
X226180077Y-90758800D01*
X226180077Y-90758800D02*
X226218173Y-90682609D01*
X226218173Y-90682609D02*
X226218173Y-90644514D01*
X226218173Y-90644514D02*
X226180077Y-90568323D01*
X226180077Y-90568323D02*
X226103887Y-90530228D01*
X226103887Y-90530228D02*
X225989601Y-90530228D01*
X225989601Y-90530228D02*
X225913411Y-90492133D01*
X225913411Y-90492133D02*
X225875315Y-90415942D01*
X225875315Y-90415942D02*
X225875315Y-90377847D01*
X225875315Y-90377847D02*
X225913411Y-90301657D01*
X225913411Y-90301657D02*
X225989601Y-90263561D01*
X225989601Y-90263561D02*
X226103887Y-90263561D01*
X226103887Y-90263561D02*
X226180077Y-90301657D01*
X226561030Y-90720704D02*
X226599125Y-90758800D01*
X226599125Y-90758800D02*
X226561030Y-90796895D01*
X226561030Y-90796895D02*
X226522934Y-90758800D01*
X226522934Y-90758800D02*
X226561030Y-90720704D01*
X226561030Y-90720704D02*
X226561030Y-90796895D01*
X211818169Y-89468323D02*
X212199122Y-89468323D01*
X211741979Y-89696895D02*
X212008646Y-88896895D01*
X212008646Y-88896895D02*
X212275312Y-89696895D01*
X213151503Y-89696895D02*
X213151503Y-89163561D01*
X213151503Y-89315942D02*
X213189598Y-89239752D01*
X213189598Y-89239752D02*
X213227693Y-89201657D01*
X213227693Y-89201657D02*
X213303884Y-89163561D01*
X213303884Y-89163561D02*
X213380074Y-89163561D01*
X213989598Y-89163561D02*
X213989598Y-89696895D01*
X213646741Y-89163561D02*
X213646741Y-89582609D01*
X213646741Y-89582609D02*
X213684836Y-89658800D01*
X213684836Y-89658800D02*
X213761026Y-89696895D01*
X213761026Y-89696895D02*
X213875312Y-89696895D01*
X213875312Y-89696895D02*
X213951503Y-89658800D01*
X213951503Y-89658800D02*
X213989598Y-89620704D01*
X214370551Y-89696895D02*
X214370551Y-88896895D01*
X214370551Y-89201657D02*
X214446741Y-89163561D01*
X214446741Y-89163561D02*
X214599122Y-89163561D01*
X214599122Y-89163561D02*
X214675313Y-89201657D01*
X214675313Y-89201657D02*
X214713408Y-89239752D01*
X214713408Y-89239752D02*
X214751503Y-89315942D01*
X214751503Y-89315942D02*
X214751503Y-89544514D01*
X214751503Y-89544514D02*
X214713408Y-89620704D01*
X214713408Y-89620704D02*
X214675313Y-89658800D01*
X214675313Y-89658800D02*
X214599122Y-89696895D01*
X214599122Y-89696895D02*
X214446741Y-89696895D01*
X214446741Y-89696895D02*
X214370551Y-89658800D01*
X215094361Y-89696895D02*
X215094361Y-88896895D01*
X215094361Y-89201657D02*
X215170551Y-89163561D01*
X215170551Y-89163561D02*
X215322932Y-89163561D01*
X215322932Y-89163561D02*
X215399123Y-89201657D01*
X215399123Y-89201657D02*
X215437218Y-89239752D01*
X215437218Y-89239752D02*
X215475313Y-89315942D01*
X215475313Y-89315942D02*
X215475313Y-89544514D01*
X215475313Y-89544514D02*
X215437218Y-89620704D01*
X215437218Y-89620704D02*
X215399123Y-89658800D01*
X215399123Y-89658800D02*
X215322932Y-89696895D01*
X215322932Y-89696895D02*
X215170551Y-89696895D01*
X215170551Y-89696895D02*
X215094361Y-89658800D01*
X216122933Y-89658800D02*
X216046742Y-89696895D01*
X216046742Y-89696895D02*
X215894361Y-89696895D01*
X215894361Y-89696895D02*
X215818171Y-89658800D01*
X215818171Y-89658800D02*
X215780075Y-89582609D01*
X215780075Y-89582609D02*
X215780075Y-89277847D01*
X215780075Y-89277847D02*
X215818171Y-89201657D01*
X215818171Y-89201657D02*
X215894361Y-89163561D01*
X215894361Y-89163561D02*
X216046742Y-89163561D01*
X216046742Y-89163561D02*
X216122933Y-89201657D01*
X216122933Y-89201657D02*
X216161028Y-89277847D01*
X216161028Y-89277847D02*
X216161028Y-89354038D01*
X216161028Y-89354038D02*
X215780075Y-89430228D01*
X216503885Y-89696895D02*
X216503885Y-89163561D01*
X216503885Y-89315942D02*
X216541980Y-89239752D01*
X216541980Y-89239752D02*
X216580075Y-89201657D01*
X216580075Y-89201657D02*
X216656266Y-89163561D01*
X216656266Y-89163561D02*
X216732456Y-89163561D01*
X217608647Y-89696895D02*
X217608647Y-89163561D01*
X217608647Y-89315942D02*
X217646742Y-89239752D01*
X217646742Y-89239752D02*
X217684837Y-89201657D01*
X217684837Y-89201657D02*
X217761028Y-89163561D01*
X217761028Y-89163561D02*
X217837218Y-89163561D01*
X218218170Y-89696895D02*
X218141980Y-89658800D01*
X218141980Y-89658800D02*
X218103885Y-89620704D01*
X218103885Y-89620704D02*
X218065789Y-89544514D01*
X218065789Y-89544514D02*
X218065789Y-89315942D01*
X218065789Y-89315942D02*
X218103885Y-89239752D01*
X218103885Y-89239752D02*
X218141980Y-89201657D01*
X218141980Y-89201657D02*
X218218170Y-89163561D01*
X218218170Y-89163561D02*
X218332456Y-89163561D01*
X218332456Y-89163561D02*
X218408647Y-89201657D01*
X218408647Y-89201657D02*
X218446742Y-89239752D01*
X218446742Y-89239752D02*
X218484837Y-89315942D01*
X218484837Y-89315942D02*
X218484837Y-89544514D01*
X218484837Y-89544514D02*
X218446742Y-89620704D01*
X218446742Y-89620704D02*
X218408647Y-89658800D01*
X218408647Y-89658800D02*
X218332456Y-89696895D01*
X218332456Y-89696895D02*
X218218170Y-89696895D01*
X218941980Y-89696895D02*
X218865790Y-89658800D01*
X218865790Y-89658800D02*
X218827695Y-89620704D01*
X218827695Y-89620704D02*
X218789599Y-89544514D01*
X218789599Y-89544514D02*
X218789599Y-89315942D01*
X218789599Y-89315942D02*
X218827695Y-89239752D01*
X218827695Y-89239752D02*
X218865790Y-89201657D01*
X218865790Y-89201657D02*
X218941980Y-89163561D01*
X218941980Y-89163561D02*
X219056266Y-89163561D01*
X219056266Y-89163561D02*
X219132457Y-89201657D01*
X219132457Y-89201657D02*
X219170552Y-89239752D01*
X219170552Y-89239752D02*
X219208647Y-89315942D01*
X219208647Y-89315942D02*
X219208647Y-89544514D01*
X219208647Y-89544514D02*
X219170552Y-89620704D01*
X219170552Y-89620704D02*
X219132457Y-89658800D01*
X219132457Y-89658800D02*
X219056266Y-89696895D01*
X219056266Y-89696895D02*
X218941980Y-89696895D01*
X219551505Y-89696895D02*
X219551505Y-89163561D01*
X219551505Y-89239752D02*
X219589600Y-89201657D01*
X219589600Y-89201657D02*
X219665790Y-89163561D01*
X219665790Y-89163561D02*
X219780076Y-89163561D01*
X219780076Y-89163561D02*
X219856267Y-89201657D01*
X219856267Y-89201657D02*
X219894362Y-89277847D01*
X219894362Y-89277847D02*
X219894362Y-89696895D01*
X219894362Y-89277847D02*
X219932457Y-89201657D01*
X219932457Y-89201657D02*
X220008648Y-89163561D01*
X220008648Y-89163561D02*
X220122933Y-89163561D01*
X220122933Y-89163561D02*
X220199124Y-89201657D01*
X220199124Y-89201657D02*
X220237219Y-89277847D01*
X220237219Y-89277847D02*
X220237219Y-89696895D01*
X220618172Y-89620704D02*
X220656267Y-89658800D01*
X220656267Y-89658800D02*
X220618172Y-89696895D01*
X220618172Y-89696895D02*
X220580076Y-89658800D01*
X220580076Y-89658800D02*
X220618172Y-89620704D01*
X220618172Y-89620704D02*
X220618172Y-89696895D01*
X194718169Y-89468323D02*
X195099122Y-89468323D01*
X194641979Y-89696895D02*
X194908646Y-88896895D01*
X194908646Y-88896895D02*
X195175312Y-89696895D01*
X196051503Y-89696895D02*
X196051503Y-89163561D01*
X196051503Y-89315942D02*
X196089598Y-89239752D01*
X196089598Y-89239752D02*
X196127693Y-89201657D01*
X196127693Y-89201657D02*
X196203884Y-89163561D01*
X196203884Y-89163561D02*
X196280074Y-89163561D01*
X196889598Y-89163561D02*
X196889598Y-89696895D01*
X196546741Y-89163561D02*
X196546741Y-89582609D01*
X196546741Y-89582609D02*
X196584836Y-89658800D01*
X196584836Y-89658800D02*
X196661026Y-89696895D01*
X196661026Y-89696895D02*
X196775312Y-89696895D01*
X196775312Y-89696895D02*
X196851503Y-89658800D01*
X196851503Y-89658800D02*
X196889598Y-89620704D01*
X197270551Y-89696895D02*
X197270551Y-88896895D01*
X197270551Y-89201657D02*
X197346741Y-89163561D01*
X197346741Y-89163561D02*
X197499122Y-89163561D01*
X197499122Y-89163561D02*
X197575313Y-89201657D01*
X197575313Y-89201657D02*
X197613408Y-89239752D01*
X197613408Y-89239752D02*
X197651503Y-89315942D01*
X197651503Y-89315942D02*
X197651503Y-89544514D01*
X197651503Y-89544514D02*
X197613408Y-89620704D01*
X197613408Y-89620704D02*
X197575313Y-89658800D01*
X197575313Y-89658800D02*
X197499122Y-89696895D01*
X197499122Y-89696895D02*
X197346741Y-89696895D01*
X197346741Y-89696895D02*
X197270551Y-89658800D01*
X197994361Y-89696895D02*
X197994361Y-88896895D01*
X197994361Y-89201657D02*
X198070551Y-89163561D01*
X198070551Y-89163561D02*
X198222932Y-89163561D01*
X198222932Y-89163561D02*
X198299123Y-89201657D01*
X198299123Y-89201657D02*
X198337218Y-89239752D01*
X198337218Y-89239752D02*
X198375313Y-89315942D01*
X198375313Y-89315942D02*
X198375313Y-89544514D01*
X198375313Y-89544514D02*
X198337218Y-89620704D01*
X198337218Y-89620704D02*
X198299123Y-89658800D01*
X198299123Y-89658800D02*
X198222932Y-89696895D01*
X198222932Y-89696895D02*
X198070551Y-89696895D01*
X198070551Y-89696895D02*
X197994361Y-89658800D01*
X199022933Y-89658800D02*
X198946742Y-89696895D01*
X198946742Y-89696895D02*
X198794361Y-89696895D01*
X198794361Y-89696895D02*
X198718171Y-89658800D01*
X198718171Y-89658800D02*
X198680075Y-89582609D01*
X198680075Y-89582609D02*
X198680075Y-89277847D01*
X198680075Y-89277847D02*
X198718171Y-89201657D01*
X198718171Y-89201657D02*
X198794361Y-89163561D01*
X198794361Y-89163561D02*
X198946742Y-89163561D01*
X198946742Y-89163561D02*
X199022933Y-89201657D01*
X199022933Y-89201657D02*
X199061028Y-89277847D01*
X199061028Y-89277847D02*
X199061028Y-89354038D01*
X199061028Y-89354038D02*
X198680075Y-89430228D01*
X199403885Y-89696895D02*
X199403885Y-89163561D01*
X199403885Y-89315942D02*
X199441980Y-89239752D01*
X199441980Y-89239752D02*
X199480075Y-89201657D01*
X199480075Y-89201657D02*
X199556266Y-89163561D01*
X199556266Y-89163561D02*
X199632456Y-89163561D01*
X200508647Y-89696895D02*
X200508647Y-89163561D01*
X200508647Y-89315942D02*
X200546742Y-89239752D01*
X200546742Y-89239752D02*
X200584837Y-89201657D01*
X200584837Y-89201657D02*
X200661028Y-89163561D01*
X200661028Y-89163561D02*
X200737218Y-89163561D01*
X201118170Y-89696895D02*
X201041980Y-89658800D01*
X201041980Y-89658800D02*
X201003885Y-89620704D01*
X201003885Y-89620704D02*
X200965789Y-89544514D01*
X200965789Y-89544514D02*
X200965789Y-89315942D01*
X200965789Y-89315942D02*
X201003885Y-89239752D01*
X201003885Y-89239752D02*
X201041980Y-89201657D01*
X201041980Y-89201657D02*
X201118170Y-89163561D01*
X201118170Y-89163561D02*
X201232456Y-89163561D01*
X201232456Y-89163561D02*
X201308647Y-89201657D01*
X201308647Y-89201657D02*
X201346742Y-89239752D01*
X201346742Y-89239752D02*
X201384837Y-89315942D01*
X201384837Y-89315942D02*
X201384837Y-89544514D01*
X201384837Y-89544514D02*
X201346742Y-89620704D01*
X201346742Y-89620704D02*
X201308647Y-89658800D01*
X201308647Y-89658800D02*
X201232456Y-89696895D01*
X201232456Y-89696895D02*
X201118170Y-89696895D01*
X201841980Y-89696895D02*
X201765790Y-89658800D01*
X201765790Y-89658800D02*
X201727695Y-89620704D01*
X201727695Y-89620704D02*
X201689599Y-89544514D01*
X201689599Y-89544514D02*
X201689599Y-89315942D01*
X201689599Y-89315942D02*
X201727695Y-89239752D01*
X201727695Y-89239752D02*
X201765790Y-89201657D01*
X201765790Y-89201657D02*
X201841980Y-89163561D01*
X201841980Y-89163561D02*
X201956266Y-89163561D01*
X201956266Y-89163561D02*
X202032457Y-89201657D01*
X202032457Y-89201657D02*
X202070552Y-89239752D01*
X202070552Y-89239752D02*
X202108647Y-89315942D01*
X202108647Y-89315942D02*
X202108647Y-89544514D01*
X202108647Y-89544514D02*
X202070552Y-89620704D01*
X202070552Y-89620704D02*
X202032457Y-89658800D01*
X202032457Y-89658800D02*
X201956266Y-89696895D01*
X201956266Y-89696895D02*
X201841980Y-89696895D01*
X202451505Y-89696895D02*
X202451505Y-89163561D01*
X202451505Y-89239752D02*
X202489600Y-89201657D01*
X202489600Y-89201657D02*
X202565790Y-89163561D01*
X202565790Y-89163561D02*
X202680076Y-89163561D01*
X202680076Y-89163561D02*
X202756267Y-89201657D01*
X202756267Y-89201657D02*
X202794362Y-89277847D01*
X202794362Y-89277847D02*
X202794362Y-89696895D01*
X202794362Y-89277847D02*
X202832457Y-89201657D01*
X202832457Y-89201657D02*
X202908648Y-89163561D01*
X202908648Y-89163561D02*
X203022933Y-89163561D01*
X203022933Y-89163561D02*
X203099124Y-89201657D01*
X203099124Y-89201657D02*
X203137219Y-89277847D01*
X203137219Y-89277847D02*
X203137219Y-89696895D01*
X203518172Y-89620704D02*
X203556267Y-89658800D01*
X203556267Y-89658800D02*
X203518172Y-89696895D01*
X203518172Y-89696895D02*
X203480076Y-89658800D01*
X203480076Y-89658800D02*
X203518172Y-89620704D01*
X203518172Y-89620704D02*
X203518172Y-89696895D01*
X194718169Y-90568323D02*
X195099122Y-90568323D01*
X194641979Y-90796895D02*
X194908646Y-89996895D01*
X194908646Y-89996895D02*
X195175312Y-90796895D01*
X196051503Y-90796895D02*
X196051503Y-90263561D01*
X196051503Y-90415942D02*
X196089598Y-90339752D01*
X196089598Y-90339752D02*
X196127693Y-90301657D01*
X196127693Y-90301657D02*
X196203884Y-90263561D01*
X196203884Y-90263561D02*
X196280074Y-90263561D01*
X196889598Y-90263561D02*
X196889598Y-90796895D01*
X196546741Y-90263561D02*
X196546741Y-90682609D01*
X196546741Y-90682609D02*
X196584836Y-90758800D01*
X196584836Y-90758800D02*
X196661026Y-90796895D01*
X196661026Y-90796895D02*
X196775312Y-90796895D01*
X196775312Y-90796895D02*
X196851503Y-90758800D01*
X196851503Y-90758800D02*
X196889598Y-90720704D01*
X197270551Y-90796895D02*
X197270551Y-89996895D01*
X197270551Y-90301657D02*
X197346741Y-90263561D01*
X197346741Y-90263561D02*
X197499122Y-90263561D01*
X197499122Y-90263561D02*
X197575313Y-90301657D01*
X197575313Y-90301657D02*
X197613408Y-90339752D01*
X197613408Y-90339752D02*
X197651503Y-90415942D01*
X197651503Y-90415942D02*
X197651503Y-90644514D01*
X197651503Y-90644514D02*
X197613408Y-90720704D01*
X197613408Y-90720704D02*
X197575313Y-90758800D01*
X197575313Y-90758800D02*
X197499122Y-90796895D01*
X197499122Y-90796895D02*
X197346741Y-90796895D01*
X197346741Y-90796895D02*
X197270551Y-90758800D01*
X197994361Y-90796895D02*
X197994361Y-89996895D01*
X197994361Y-90301657D02*
X198070551Y-90263561D01*
X198070551Y-90263561D02*
X198222932Y-90263561D01*
X198222932Y-90263561D02*
X198299123Y-90301657D01*
X198299123Y-90301657D02*
X198337218Y-90339752D01*
X198337218Y-90339752D02*
X198375313Y-90415942D01*
X198375313Y-90415942D02*
X198375313Y-90644514D01*
X198375313Y-90644514D02*
X198337218Y-90720704D01*
X198337218Y-90720704D02*
X198299123Y-90758800D01*
X198299123Y-90758800D02*
X198222932Y-90796895D01*
X198222932Y-90796895D02*
X198070551Y-90796895D01*
X198070551Y-90796895D02*
X197994361Y-90758800D01*
X199022933Y-90758800D02*
X198946742Y-90796895D01*
X198946742Y-90796895D02*
X198794361Y-90796895D01*
X198794361Y-90796895D02*
X198718171Y-90758800D01*
X198718171Y-90758800D02*
X198680075Y-90682609D01*
X198680075Y-90682609D02*
X198680075Y-90377847D01*
X198680075Y-90377847D02*
X198718171Y-90301657D01*
X198718171Y-90301657D02*
X198794361Y-90263561D01*
X198794361Y-90263561D02*
X198946742Y-90263561D01*
X198946742Y-90263561D02*
X199022933Y-90301657D01*
X199022933Y-90301657D02*
X199061028Y-90377847D01*
X199061028Y-90377847D02*
X199061028Y-90454038D01*
X199061028Y-90454038D02*
X198680075Y-90530228D01*
X199403885Y-90796895D02*
X199403885Y-90263561D01*
X199403885Y-90415942D02*
X199441980Y-90339752D01*
X199441980Y-90339752D02*
X199480075Y-90301657D01*
X199480075Y-90301657D02*
X199556266Y-90263561D01*
X199556266Y-90263561D02*
X199632456Y-90263561D01*
X200508647Y-90796895D02*
X200508647Y-90263561D01*
X200508647Y-90415942D02*
X200546742Y-90339752D01*
X200546742Y-90339752D02*
X200584837Y-90301657D01*
X200584837Y-90301657D02*
X200661028Y-90263561D01*
X200661028Y-90263561D02*
X200737218Y-90263561D01*
X201118170Y-90796895D02*
X201041980Y-90758800D01*
X201041980Y-90758800D02*
X201003885Y-90720704D01*
X201003885Y-90720704D02*
X200965789Y-90644514D01*
X200965789Y-90644514D02*
X200965789Y-90415942D01*
X200965789Y-90415942D02*
X201003885Y-90339752D01*
X201003885Y-90339752D02*
X201041980Y-90301657D01*
X201041980Y-90301657D02*
X201118170Y-90263561D01*
X201118170Y-90263561D02*
X201232456Y-90263561D01*
X201232456Y-90263561D02*
X201308647Y-90301657D01*
X201308647Y-90301657D02*
X201346742Y-90339752D01*
X201346742Y-90339752D02*
X201384837Y-90415942D01*
X201384837Y-90415942D02*
X201384837Y-90644514D01*
X201384837Y-90644514D02*
X201346742Y-90720704D01*
X201346742Y-90720704D02*
X201308647Y-90758800D01*
X201308647Y-90758800D02*
X201232456Y-90796895D01*
X201232456Y-90796895D02*
X201118170Y-90796895D01*
X201841980Y-90796895D02*
X201765790Y-90758800D01*
X201765790Y-90758800D02*
X201727695Y-90720704D01*
X201727695Y-90720704D02*
X201689599Y-90644514D01*
X201689599Y-90644514D02*
X201689599Y-90415942D01*
X201689599Y-90415942D02*
X201727695Y-90339752D01*
X201727695Y-90339752D02*
X201765790Y-90301657D01*
X201765790Y-90301657D02*
X201841980Y-90263561D01*
X201841980Y-90263561D02*
X201956266Y-90263561D01*
X201956266Y-90263561D02*
X202032457Y-90301657D01*
X202032457Y-90301657D02*
X202070552Y-90339752D01*
X202070552Y-90339752D02*
X202108647Y-90415942D01*
X202108647Y-90415942D02*
X202108647Y-90644514D01*
X202108647Y-90644514D02*
X202070552Y-90720704D01*
X202070552Y-90720704D02*
X202032457Y-90758800D01*
X202032457Y-90758800D02*
X201956266Y-90796895D01*
X201956266Y-90796895D02*
X201841980Y-90796895D01*
X202451505Y-90796895D02*
X202451505Y-90263561D01*
X202451505Y-90339752D02*
X202489600Y-90301657D01*
X202489600Y-90301657D02*
X202565790Y-90263561D01*
X202565790Y-90263561D02*
X202680076Y-90263561D01*
X202680076Y-90263561D02*
X202756267Y-90301657D01*
X202756267Y-90301657D02*
X202794362Y-90377847D01*
X202794362Y-90377847D02*
X202794362Y-90796895D01*
X202794362Y-90377847D02*
X202832457Y-90301657D01*
X202832457Y-90301657D02*
X202908648Y-90263561D01*
X202908648Y-90263561D02*
X203022933Y-90263561D01*
X203022933Y-90263561D02*
X203099124Y-90301657D01*
X203099124Y-90301657D02*
X203137219Y-90377847D01*
X203137219Y-90377847D02*
X203137219Y-90796895D01*
X204051505Y-90263561D02*
X204203886Y-90796895D01*
X204203886Y-90796895D02*
X204356267Y-90415942D01*
X204356267Y-90415942D02*
X204508648Y-90796895D01*
X204508648Y-90796895D02*
X204661029Y-90263561D01*
X204965791Y-90796895D02*
X204965791Y-90263561D01*
X204965791Y-89996895D02*
X204927695Y-90034990D01*
X204927695Y-90034990D02*
X204965791Y-90073085D01*
X204965791Y-90073085D02*
X205003886Y-90034990D01*
X205003886Y-90034990D02*
X204965791Y-89996895D01*
X204965791Y-89996895D02*
X204965791Y-90073085D01*
X205232457Y-90263561D02*
X205537219Y-90263561D01*
X205346743Y-89996895D02*
X205346743Y-90682609D01*
X205346743Y-90682609D02*
X205384838Y-90758800D01*
X205384838Y-90758800D02*
X205461028Y-90796895D01*
X205461028Y-90796895D02*
X205537219Y-90796895D01*
X205803886Y-90796895D02*
X205803886Y-89996895D01*
X206146743Y-90796895D02*
X206146743Y-90377847D01*
X206146743Y-90377847D02*
X206108648Y-90301657D01*
X206108648Y-90301657D02*
X206032457Y-90263561D01*
X206032457Y-90263561D02*
X205918171Y-90263561D01*
X205918171Y-90263561D02*
X205841981Y-90301657D01*
X205841981Y-90301657D02*
X205803886Y-90339752D01*
X207137220Y-90796895D02*
X207137220Y-90263561D01*
X207137220Y-90415942D02*
X207175315Y-90339752D01*
X207175315Y-90339752D02*
X207213410Y-90301657D01*
X207213410Y-90301657D02*
X207289601Y-90263561D01*
X207289601Y-90263561D02*
X207365791Y-90263561D01*
X207975315Y-90796895D02*
X207975315Y-90377847D01*
X207975315Y-90377847D02*
X207937220Y-90301657D01*
X207937220Y-90301657D02*
X207861029Y-90263561D01*
X207861029Y-90263561D02*
X207708648Y-90263561D01*
X207708648Y-90263561D02*
X207632458Y-90301657D01*
X207975315Y-90758800D02*
X207899124Y-90796895D01*
X207899124Y-90796895D02*
X207708648Y-90796895D01*
X207708648Y-90796895D02*
X207632458Y-90758800D01*
X207632458Y-90758800D02*
X207594362Y-90682609D01*
X207594362Y-90682609D02*
X207594362Y-90606419D01*
X207594362Y-90606419D02*
X207632458Y-90530228D01*
X207632458Y-90530228D02*
X207708648Y-90492133D01*
X207708648Y-90492133D02*
X207899124Y-90492133D01*
X207899124Y-90492133D02*
X207975315Y-90454038D01*
X208241982Y-90263561D02*
X208546744Y-90263561D01*
X208356268Y-89996895D02*
X208356268Y-90682609D01*
X208356268Y-90682609D02*
X208394363Y-90758800D01*
X208394363Y-90758800D02*
X208470553Y-90796895D01*
X208470553Y-90796895D02*
X208546744Y-90796895D01*
X208775315Y-90758800D02*
X208851506Y-90796895D01*
X208851506Y-90796895D02*
X209003887Y-90796895D01*
X209003887Y-90796895D02*
X209080077Y-90758800D01*
X209080077Y-90758800D02*
X209118173Y-90682609D01*
X209118173Y-90682609D02*
X209118173Y-90644514D01*
X209118173Y-90644514D02*
X209080077Y-90568323D01*
X209080077Y-90568323D02*
X209003887Y-90530228D01*
X209003887Y-90530228D02*
X208889601Y-90530228D01*
X208889601Y-90530228D02*
X208813411Y-90492133D01*
X208813411Y-90492133D02*
X208775315Y-90415942D01*
X208775315Y-90415942D02*
X208775315Y-90377847D01*
X208775315Y-90377847D02*
X208813411Y-90301657D01*
X208813411Y-90301657D02*
X208889601Y-90263561D01*
X208889601Y-90263561D02*
X209003887Y-90263561D01*
X209003887Y-90263561D02*
X209080077Y-90301657D01*
X209461030Y-90720704D02*
X209499125Y-90758800D01*
X209499125Y-90758800D02*
X209461030Y-90796895D01*
X209461030Y-90796895D02*
X209422934Y-90758800D01*
X209422934Y-90758800D02*
X209461030Y-90720704D01*
X209461030Y-90720704D02*
X209461030Y-90796895D01*
X194718169Y-91668323D02*
X195099122Y-91668323D01*
X194641979Y-91896895D02*
X194908646Y-91096895D01*
X194908646Y-91096895D02*
X195175312Y-91896895D01*
X195441979Y-91363561D02*
X195441979Y-91896895D01*
X195441979Y-91439752D02*
X195480074Y-91401657D01*
X195480074Y-91401657D02*
X195556264Y-91363561D01*
X195556264Y-91363561D02*
X195670550Y-91363561D01*
X195670550Y-91363561D02*
X195746741Y-91401657D01*
X195746741Y-91401657D02*
X195784836Y-91477847D01*
X195784836Y-91477847D02*
X195784836Y-91896895D01*
X196508646Y-91896895D02*
X196508646Y-91096895D01*
X196508646Y-91858800D02*
X196432455Y-91896895D01*
X196432455Y-91896895D02*
X196280074Y-91896895D01*
X196280074Y-91896895D02*
X196203884Y-91858800D01*
X196203884Y-91858800D02*
X196165789Y-91820704D01*
X196165789Y-91820704D02*
X196127693Y-91744514D01*
X196127693Y-91744514D02*
X196127693Y-91515942D01*
X196127693Y-91515942D02*
X196165789Y-91439752D01*
X196165789Y-91439752D02*
X196203884Y-91401657D01*
X196203884Y-91401657D02*
X196280074Y-91363561D01*
X196280074Y-91363561D02*
X196432455Y-91363561D01*
X196432455Y-91363561D02*
X196508646Y-91401657D01*
X197499123Y-91896895D02*
X197499123Y-91363561D01*
X197499123Y-91515942D02*
X197537218Y-91439752D01*
X197537218Y-91439752D02*
X197575313Y-91401657D01*
X197575313Y-91401657D02*
X197651504Y-91363561D01*
X197651504Y-91363561D02*
X197727694Y-91363561D01*
X198337218Y-91896895D02*
X198337218Y-91477847D01*
X198337218Y-91477847D02*
X198299123Y-91401657D01*
X198299123Y-91401657D02*
X198222932Y-91363561D01*
X198222932Y-91363561D02*
X198070551Y-91363561D01*
X198070551Y-91363561D02*
X197994361Y-91401657D01*
X198337218Y-91858800D02*
X198261027Y-91896895D01*
X198261027Y-91896895D02*
X198070551Y-91896895D01*
X198070551Y-91896895D02*
X197994361Y-91858800D01*
X197994361Y-91858800D02*
X197956265Y-91782609D01*
X197956265Y-91782609D02*
X197956265Y-91706419D01*
X197956265Y-91706419D02*
X197994361Y-91630228D01*
X197994361Y-91630228D02*
X198070551Y-91592133D01*
X198070551Y-91592133D02*
X198261027Y-91592133D01*
X198261027Y-91592133D02*
X198337218Y-91554038D01*
X198603885Y-91363561D02*
X198908647Y-91363561D01*
X198718171Y-91096895D02*
X198718171Y-91782609D01*
X198718171Y-91782609D02*
X198756266Y-91858800D01*
X198756266Y-91858800D02*
X198832456Y-91896895D01*
X198832456Y-91896895D02*
X198908647Y-91896895D01*
X199137218Y-91858800D02*
X199213409Y-91896895D01*
X199213409Y-91896895D02*
X199365790Y-91896895D01*
X199365790Y-91896895D02*
X199441980Y-91858800D01*
X199441980Y-91858800D02*
X199480076Y-91782609D01*
X199480076Y-91782609D02*
X199480076Y-91744514D01*
X199480076Y-91744514D02*
X199441980Y-91668323D01*
X199441980Y-91668323D02*
X199365790Y-91630228D01*
X199365790Y-91630228D02*
X199251504Y-91630228D01*
X199251504Y-91630228D02*
X199175314Y-91592133D01*
X199175314Y-91592133D02*
X199137218Y-91515942D01*
X199137218Y-91515942D02*
X199137218Y-91477847D01*
X199137218Y-91477847D02*
X199175314Y-91401657D01*
X199175314Y-91401657D02*
X199251504Y-91363561D01*
X199251504Y-91363561D02*
X199365790Y-91363561D01*
X199365790Y-91363561D02*
X199441980Y-91401657D01*
X200432457Y-91896895D02*
X200432457Y-91363561D01*
X200432457Y-91439752D02*
X200470552Y-91401657D01*
X200470552Y-91401657D02*
X200546742Y-91363561D01*
X200546742Y-91363561D02*
X200661028Y-91363561D01*
X200661028Y-91363561D02*
X200737219Y-91401657D01*
X200737219Y-91401657D02*
X200775314Y-91477847D01*
X200775314Y-91477847D02*
X200775314Y-91896895D01*
X200775314Y-91477847D02*
X200813409Y-91401657D01*
X200813409Y-91401657D02*
X200889600Y-91363561D01*
X200889600Y-91363561D02*
X201003885Y-91363561D01*
X201003885Y-91363561D02*
X201080076Y-91401657D01*
X201080076Y-91401657D02*
X201118171Y-91477847D01*
X201118171Y-91477847D02*
X201118171Y-91896895D01*
X201841981Y-91896895D02*
X201841981Y-91477847D01*
X201841981Y-91477847D02*
X201803886Y-91401657D01*
X201803886Y-91401657D02*
X201727695Y-91363561D01*
X201727695Y-91363561D02*
X201575314Y-91363561D01*
X201575314Y-91363561D02*
X201499124Y-91401657D01*
X201841981Y-91858800D02*
X201765790Y-91896895D01*
X201765790Y-91896895D02*
X201575314Y-91896895D01*
X201575314Y-91896895D02*
X201499124Y-91858800D01*
X201499124Y-91858800D02*
X201461028Y-91782609D01*
X201461028Y-91782609D02*
X201461028Y-91706419D01*
X201461028Y-91706419D02*
X201499124Y-91630228D01*
X201499124Y-91630228D02*
X201575314Y-91592133D01*
X201575314Y-91592133D02*
X201765790Y-91592133D01*
X201765790Y-91592133D02*
X201841981Y-91554038D01*
X202222934Y-91896895D02*
X202222934Y-91096895D01*
X202299124Y-91592133D02*
X202527696Y-91896895D01*
X202527696Y-91363561D02*
X202222934Y-91668323D01*
X203175315Y-91858800D02*
X203099124Y-91896895D01*
X203099124Y-91896895D02*
X202946743Y-91896895D01*
X202946743Y-91896895D02*
X202870553Y-91858800D01*
X202870553Y-91858800D02*
X202832457Y-91782609D01*
X202832457Y-91782609D02*
X202832457Y-91477847D01*
X202832457Y-91477847D02*
X202870553Y-91401657D01*
X202870553Y-91401657D02*
X202946743Y-91363561D01*
X202946743Y-91363561D02*
X203099124Y-91363561D01*
X203099124Y-91363561D02*
X203175315Y-91401657D01*
X203175315Y-91401657D02*
X203213410Y-91477847D01*
X203213410Y-91477847D02*
X203213410Y-91554038D01*
X203213410Y-91554038D02*
X202832457Y-91630228D01*
X204165791Y-91896895D02*
X204165791Y-91363561D01*
X204165791Y-91439752D02*
X204203886Y-91401657D01*
X204203886Y-91401657D02*
X204280076Y-91363561D01*
X204280076Y-91363561D02*
X204394362Y-91363561D01*
X204394362Y-91363561D02*
X204470553Y-91401657D01*
X204470553Y-91401657D02*
X204508648Y-91477847D01*
X204508648Y-91477847D02*
X204508648Y-91896895D01*
X204508648Y-91477847D02*
X204546743Y-91401657D01*
X204546743Y-91401657D02*
X204622934Y-91363561D01*
X204622934Y-91363561D02*
X204737219Y-91363561D01*
X204737219Y-91363561D02*
X204813410Y-91401657D01*
X204813410Y-91401657D02*
X204851505Y-91477847D01*
X204851505Y-91477847D02*
X204851505Y-91896895D01*
X205537220Y-91858800D02*
X205461029Y-91896895D01*
X205461029Y-91896895D02*
X205308648Y-91896895D01*
X205308648Y-91896895D02*
X205232458Y-91858800D01*
X205232458Y-91858800D02*
X205194362Y-91782609D01*
X205194362Y-91782609D02*
X205194362Y-91477847D01*
X205194362Y-91477847D02*
X205232458Y-91401657D01*
X205232458Y-91401657D02*
X205308648Y-91363561D01*
X205308648Y-91363561D02*
X205461029Y-91363561D01*
X205461029Y-91363561D02*
X205537220Y-91401657D01*
X205537220Y-91401657D02*
X205575315Y-91477847D01*
X205575315Y-91477847D02*
X205575315Y-91554038D01*
X205575315Y-91554038D02*
X205194362Y-91630228D01*
X206870553Y-91858800D02*
X206794362Y-91896895D01*
X206794362Y-91896895D02*
X206641981Y-91896895D01*
X206641981Y-91896895D02*
X206565791Y-91858800D01*
X206565791Y-91858800D02*
X206527696Y-91820704D01*
X206527696Y-91820704D02*
X206489600Y-91744514D01*
X206489600Y-91744514D02*
X206489600Y-91515942D01*
X206489600Y-91515942D02*
X206527696Y-91439752D01*
X206527696Y-91439752D02*
X206565791Y-91401657D01*
X206565791Y-91401657D02*
X206641981Y-91363561D01*
X206641981Y-91363561D02*
X206794362Y-91363561D01*
X206794362Y-91363561D02*
X206870553Y-91401657D01*
X207213410Y-91896895D02*
X207213410Y-91363561D01*
X207213410Y-91515942D02*
X207251505Y-91439752D01*
X207251505Y-91439752D02*
X207289600Y-91401657D01*
X207289600Y-91401657D02*
X207365791Y-91363561D01*
X207365791Y-91363561D02*
X207441981Y-91363561D01*
X208051505Y-91896895D02*
X208051505Y-91477847D01*
X208051505Y-91477847D02*
X208013410Y-91401657D01*
X208013410Y-91401657D02*
X207937219Y-91363561D01*
X207937219Y-91363561D02*
X207784838Y-91363561D01*
X207784838Y-91363561D02*
X207708648Y-91401657D01*
X208051505Y-91858800D02*
X207975314Y-91896895D01*
X207975314Y-91896895D02*
X207784838Y-91896895D01*
X207784838Y-91896895D02*
X207708648Y-91858800D01*
X207708648Y-91858800D02*
X207670552Y-91782609D01*
X207670552Y-91782609D02*
X207670552Y-91706419D01*
X207670552Y-91706419D02*
X207708648Y-91630228D01*
X207708648Y-91630228D02*
X207784838Y-91592133D01*
X207784838Y-91592133D02*
X207975314Y-91592133D01*
X207975314Y-91592133D02*
X208051505Y-91554038D01*
X208356267Y-91363561D02*
X208775315Y-91363561D01*
X208775315Y-91363561D02*
X208356267Y-91896895D01*
X208356267Y-91896895D02*
X208775315Y-91896895D01*
X209003886Y-91363561D02*
X209194362Y-91896895D01*
X209384839Y-91363561D02*
X209194362Y-91896895D01*
X209194362Y-91896895D02*
X209118172Y-92087371D01*
X209118172Y-92087371D02*
X209080077Y-92125466D01*
X209080077Y-92125466D02*
X209003886Y-92163561D01*
X209689601Y-91820704D02*
X209727696Y-91858800D01*
X209727696Y-91858800D02*
X209689601Y-91896895D01*
X209689601Y-91896895D02*
X209651505Y-91858800D01*
X209651505Y-91858800D02*
X209689601Y-91820704D01*
X209689601Y-91820704D02*
X209689601Y-91896895D01*
X195213408Y-87220704D02*
X195175312Y-87258800D01*
X195175312Y-87258800D02*
X195061027Y-87296895D01*
X195061027Y-87296895D02*
X194984836Y-87296895D01*
X194984836Y-87296895D02*
X194870550Y-87258800D01*
X194870550Y-87258800D02*
X194794360Y-87182609D01*
X194794360Y-87182609D02*
X194756265Y-87106419D01*
X194756265Y-87106419D02*
X194718169Y-86954038D01*
X194718169Y-86954038D02*
X194718169Y-86839752D01*
X194718169Y-86839752D02*
X194756265Y-86687371D01*
X194756265Y-86687371D02*
X194794360Y-86611180D01*
X194794360Y-86611180D02*
X194870550Y-86534990D01*
X194870550Y-86534990D02*
X194984836Y-86496895D01*
X194984836Y-86496895D02*
X195061027Y-86496895D01*
X195061027Y-86496895D02*
X195175312Y-86534990D01*
X195175312Y-86534990D02*
X195213408Y-86573085D01*
X195556265Y-87296895D02*
X195556265Y-86763561D01*
X195556265Y-86915942D02*
X195594360Y-86839752D01*
X195594360Y-86839752D02*
X195632455Y-86801657D01*
X195632455Y-86801657D02*
X195708646Y-86763561D01*
X195708646Y-86763561D02*
X195784836Y-86763561D01*
X196394360Y-87296895D02*
X196394360Y-86877847D01*
X196394360Y-86877847D02*
X196356265Y-86801657D01*
X196356265Y-86801657D02*
X196280074Y-86763561D01*
X196280074Y-86763561D02*
X196127693Y-86763561D01*
X196127693Y-86763561D02*
X196051503Y-86801657D01*
X196394360Y-87258800D02*
X196318169Y-87296895D01*
X196318169Y-87296895D02*
X196127693Y-87296895D01*
X196127693Y-87296895D02*
X196051503Y-87258800D01*
X196051503Y-87258800D02*
X196013407Y-87182609D01*
X196013407Y-87182609D02*
X196013407Y-87106419D01*
X196013407Y-87106419D02*
X196051503Y-87030228D01*
X196051503Y-87030228D02*
X196127693Y-86992133D01*
X196127693Y-86992133D02*
X196318169Y-86992133D01*
X196318169Y-86992133D02*
X196394360Y-86954038D01*
X196699122Y-86763561D02*
X197118170Y-86763561D01*
X197118170Y-86763561D02*
X196699122Y-87296895D01*
X196699122Y-87296895D02*
X197118170Y-87296895D01*
X197346741Y-86763561D02*
X197537217Y-87296895D01*
X197727694Y-86763561D02*
X197537217Y-87296895D01*
X197537217Y-87296895D02*
X197461027Y-87487371D01*
X197461027Y-87487371D02*
X197422932Y-87525466D01*
X197422932Y-87525466D02*
X197346741Y-87563561D01*
X198146741Y-87220704D02*
X198184837Y-87258800D01*
X198184837Y-87258800D02*
X198146741Y-87296895D01*
X198146741Y-87296895D02*
X198108646Y-87258800D01*
X198108646Y-87258800D02*
X198146741Y-87220704D01*
X198146741Y-87220704D02*
X198146741Y-87296895D01*
X197994360Y-86534990D02*
X198070551Y-86496895D01*
X198070551Y-86496895D02*
X198261027Y-86496895D01*
X198261027Y-86496895D02*
X198337218Y-86534990D01*
X198337218Y-86534990D02*
X198375313Y-86611180D01*
X198375313Y-86611180D02*
X198375313Y-86687371D01*
X198375313Y-86687371D02*
X198337218Y-86763561D01*
X198337218Y-86763561D02*
X198299122Y-86801657D01*
X198299122Y-86801657D02*
X198222932Y-86839752D01*
X198222932Y-86839752D02*
X198184837Y-86877847D01*
X198184837Y-86877847D02*
X198146741Y-86954038D01*
X198146741Y-86954038D02*
X198146741Y-86992133D01*
X199327694Y-87296895D02*
X199327694Y-86496895D01*
X200241979Y-86763561D02*
X200394360Y-87296895D01*
X200394360Y-87296895D02*
X200546741Y-86915942D01*
X200546741Y-86915942D02*
X200699122Y-87296895D01*
X200699122Y-87296895D02*
X200851503Y-86763561D01*
X201499122Y-87296895D02*
X201499122Y-86877847D01*
X201499122Y-86877847D02*
X201461027Y-86801657D01*
X201461027Y-86801657D02*
X201384836Y-86763561D01*
X201384836Y-86763561D02*
X201232455Y-86763561D01*
X201232455Y-86763561D02*
X201156265Y-86801657D01*
X201499122Y-87258800D02*
X201422931Y-87296895D01*
X201422931Y-87296895D02*
X201232455Y-87296895D01*
X201232455Y-87296895D02*
X201156265Y-87258800D01*
X201156265Y-87258800D02*
X201118169Y-87182609D01*
X201118169Y-87182609D02*
X201118169Y-87106419D01*
X201118169Y-87106419D02*
X201156265Y-87030228D01*
X201156265Y-87030228D02*
X201232455Y-86992133D01*
X201232455Y-86992133D02*
X201422931Y-86992133D01*
X201422931Y-86992133D02*
X201499122Y-86954038D01*
X201841979Y-87258800D02*
X201918170Y-87296895D01*
X201918170Y-87296895D02*
X202070551Y-87296895D01*
X202070551Y-87296895D02*
X202146741Y-87258800D01*
X202146741Y-87258800D02*
X202184837Y-87182609D01*
X202184837Y-87182609D02*
X202184837Y-87144514D01*
X202184837Y-87144514D02*
X202146741Y-87068323D01*
X202146741Y-87068323D02*
X202070551Y-87030228D01*
X202070551Y-87030228D02*
X201956265Y-87030228D01*
X201956265Y-87030228D02*
X201880075Y-86992133D01*
X201880075Y-86992133D02*
X201841979Y-86915942D01*
X201841979Y-86915942D02*
X201841979Y-86877847D01*
X201841979Y-86877847D02*
X201880075Y-86801657D01*
X201880075Y-86801657D02*
X201956265Y-86763561D01*
X201956265Y-86763561D02*
X202070551Y-86763561D01*
X202070551Y-86763561D02*
X202146741Y-86801657D01*
X203480075Y-87258800D02*
X203403884Y-87296895D01*
X203403884Y-87296895D02*
X203251503Y-87296895D01*
X203251503Y-87296895D02*
X203175313Y-87258800D01*
X203175313Y-87258800D02*
X203137218Y-87220704D01*
X203137218Y-87220704D02*
X203099122Y-87144514D01*
X203099122Y-87144514D02*
X203099122Y-86915942D01*
X203099122Y-86915942D02*
X203137218Y-86839752D01*
X203137218Y-86839752D02*
X203175313Y-86801657D01*
X203175313Y-86801657D02*
X203251503Y-86763561D01*
X203251503Y-86763561D02*
X203403884Y-86763561D01*
X203403884Y-86763561D02*
X203480075Y-86801657D01*
X203822932Y-87296895D02*
X203822932Y-86763561D01*
X203822932Y-86915942D02*
X203861027Y-86839752D01*
X203861027Y-86839752D02*
X203899122Y-86801657D01*
X203899122Y-86801657D02*
X203975313Y-86763561D01*
X203975313Y-86763561D02*
X204051503Y-86763561D01*
X204661027Y-87296895D02*
X204661027Y-86877847D01*
X204661027Y-86877847D02*
X204622932Y-86801657D01*
X204622932Y-86801657D02*
X204546741Y-86763561D01*
X204546741Y-86763561D02*
X204394360Y-86763561D01*
X204394360Y-86763561D02*
X204318170Y-86801657D01*
X204661027Y-87258800D02*
X204584836Y-87296895D01*
X204584836Y-87296895D02*
X204394360Y-87296895D01*
X204394360Y-87296895D02*
X204318170Y-87258800D01*
X204318170Y-87258800D02*
X204280074Y-87182609D01*
X204280074Y-87182609D02*
X204280074Y-87106419D01*
X204280074Y-87106419D02*
X204318170Y-87030228D01*
X204318170Y-87030228D02*
X204394360Y-86992133D01*
X204394360Y-86992133D02*
X204584836Y-86992133D01*
X204584836Y-86992133D02*
X204661027Y-86954038D01*
X204965789Y-86763561D02*
X205384837Y-86763561D01*
X205384837Y-86763561D02*
X204965789Y-87296895D01*
X204965789Y-87296895D02*
X205384837Y-87296895D01*
X205613408Y-86763561D02*
X205803884Y-87296895D01*
X205994361Y-86763561D02*
X205803884Y-87296895D01*
X205803884Y-87296895D02*
X205727694Y-87487371D01*
X205727694Y-87487371D02*
X205689599Y-87525466D01*
X205689599Y-87525466D02*
X205613408Y-87563561D01*
X207022932Y-87296895D02*
X206946742Y-87258800D01*
X206946742Y-87258800D02*
X206908647Y-87220704D01*
X206908647Y-87220704D02*
X206870551Y-87144514D01*
X206870551Y-87144514D02*
X206870551Y-86915942D01*
X206870551Y-86915942D02*
X206908647Y-86839752D01*
X206908647Y-86839752D02*
X206946742Y-86801657D01*
X206946742Y-86801657D02*
X207022932Y-86763561D01*
X207022932Y-86763561D02*
X207137218Y-86763561D01*
X207137218Y-86763561D02*
X207213409Y-86801657D01*
X207213409Y-86801657D02*
X207251504Y-86839752D01*
X207251504Y-86839752D02*
X207289599Y-86915942D01*
X207289599Y-86915942D02*
X207289599Y-87144514D01*
X207289599Y-87144514D02*
X207251504Y-87220704D01*
X207251504Y-87220704D02*
X207213409Y-87258800D01*
X207213409Y-87258800D02*
X207137218Y-87296895D01*
X207137218Y-87296895D02*
X207022932Y-87296895D01*
X207632457Y-86763561D02*
X207632457Y-87296895D01*
X207632457Y-86839752D02*
X207670552Y-86801657D01*
X207670552Y-86801657D02*
X207746742Y-86763561D01*
X207746742Y-86763561D02*
X207861028Y-86763561D01*
X207861028Y-86763561D02*
X207937219Y-86801657D01*
X207937219Y-86801657D02*
X207975314Y-86877847D01*
X207975314Y-86877847D02*
X207975314Y-87296895D01*
X208699124Y-87258800D02*
X208622933Y-87296895D01*
X208622933Y-87296895D02*
X208470552Y-87296895D01*
X208470552Y-87296895D02*
X208394362Y-87258800D01*
X208394362Y-87258800D02*
X208356267Y-87220704D01*
X208356267Y-87220704D02*
X208318171Y-87144514D01*
X208318171Y-87144514D02*
X208318171Y-86915942D01*
X208318171Y-86915942D02*
X208356267Y-86839752D01*
X208356267Y-86839752D02*
X208394362Y-86801657D01*
X208394362Y-86801657D02*
X208470552Y-86763561D01*
X208470552Y-86763561D02*
X208622933Y-86763561D01*
X208622933Y-86763561D02*
X208699124Y-86801657D01*
X209346743Y-87258800D02*
X209270552Y-87296895D01*
X209270552Y-87296895D02*
X209118171Y-87296895D01*
X209118171Y-87296895D02*
X209041981Y-87258800D01*
X209041981Y-87258800D02*
X209003885Y-87182609D01*
X209003885Y-87182609D02*
X209003885Y-86877847D01*
X209003885Y-86877847D02*
X209041981Y-86801657D01*
X209041981Y-86801657D02*
X209118171Y-86763561D01*
X209118171Y-86763561D02*
X209270552Y-86763561D01*
X209270552Y-86763561D02*
X209346743Y-86801657D01*
X209346743Y-86801657D02*
X209384838Y-86877847D01*
X209384838Y-86877847D02*
X209384838Y-86954038D01*
X209384838Y-86954038D02*
X209003885Y-87030228D01*
X209727695Y-87220704D02*
X209765790Y-87258800D01*
X209765790Y-87258800D02*
X209727695Y-87296895D01*
X209727695Y-87296895D02*
X209689599Y-87258800D01*
X209689599Y-87258800D02*
X209727695Y-87220704D01*
X209727695Y-87220704D02*
X209727695Y-87296895D01*
X194641979Y-87696895D02*
X195099122Y-87696895D01*
X194870550Y-88496895D02*
X194870550Y-87696895D01*
X195365789Y-88496895D02*
X195365789Y-87696895D01*
X195708646Y-88496895D02*
X195708646Y-88077847D01*
X195708646Y-88077847D02*
X195670551Y-88001657D01*
X195670551Y-88001657D02*
X195594360Y-87963561D01*
X195594360Y-87963561D02*
X195480074Y-87963561D01*
X195480074Y-87963561D02*
X195403884Y-88001657D01*
X195403884Y-88001657D02*
X195365789Y-88039752D01*
X196394361Y-88458800D02*
X196318170Y-88496895D01*
X196318170Y-88496895D02*
X196165789Y-88496895D01*
X196165789Y-88496895D02*
X196089599Y-88458800D01*
X196089599Y-88458800D02*
X196051503Y-88382609D01*
X196051503Y-88382609D02*
X196051503Y-88077847D01*
X196051503Y-88077847D02*
X196089599Y-88001657D01*
X196089599Y-88001657D02*
X196165789Y-87963561D01*
X196165789Y-87963561D02*
X196318170Y-87963561D01*
X196318170Y-87963561D02*
X196394361Y-88001657D01*
X196394361Y-88001657D02*
X196432456Y-88077847D01*
X196432456Y-88077847D02*
X196432456Y-88154038D01*
X196432456Y-88154038D02*
X196051503Y-88230228D01*
X196699122Y-87963561D02*
X196889598Y-88496895D01*
X197080075Y-87963561D02*
X196889598Y-88496895D01*
X196889598Y-88496895D02*
X196813408Y-88687371D01*
X196813408Y-88687371D02*
X196775313Y-88725466D01*
X196775313Y-88725466D02*
X196699122Y-88763561D01*
X198108646Y-88496895D02*
X198032456Y-88458800D01*
X198032456Y-88458800D02*
X197994361Y-88382609D01*
X197994361Y-88382609D02*
X197994361Y-87696895D01*
X198527694Y-88496895D02*
X198451504Y-88458800D01*
X198451504Y-88458800D02*
X198413409Y-88420704D01*
X198413409Y-88420704D02*
X198375313Y-88344514D01*
X198375313Y-88344514D02*
X198375313Y-88115942D01*
X198375313Y-88115942D02*
X198413409Y-88039752D01*
X198413409Y-88039752D02*
X198451504Y-88001657D01*
X198451504Y-88001657D02*
X198527694Y-87963561D01*
X198527694Y-87963561D02*
X198641980Y-87963561D01*
X198641980Y-87963561D02*
X198718171Y-88001657D01*
X198718171Y-88001657D02*
X198756266Y-88039752D01*
X198756266Y-88039752D02*
X198794361Y-88115942D01*
X198794361Y-88115942D02*
X198794361Y-88344514D01*
X198794361Y-88344514D02*
X198756266Y-88420704D01*
X198756266Y-88420704D02*
X198718171Y-88458800D01*
X198718171Y-88458800D02*
X198641980Y-88496895D01*
X198641980Y-88496895D02*
X198527694Y-88496895D01*
X199480076Y-88458800D02*
X199403885Y-88496895D01*
X199403885Y-88496895D02*
X199251504Y-88496895D01*
X199251504Y-88496895D02*
X199175314Y-88458800D01*
X199175314Y-88458800D02*
X199137219Y-88420704D01*
X199137219Y-88420704D02*
X199099123Y-88344514D01*
X199099123Y-88344514D02*
X199099123Y-88115942D01*
X199099123Y-88115942D02*
X199137219Y-88039752D01*
X199137219Y-88039752D02*
X199175314Y-88001657D01*
X199175314Y-88001657D02*
X199251504Y-87963561D01*
X199251504Y-87963561D02*
X199403885Y-87963561D01*
X199403885Y-87963561D02*
X199480076Y-88001657D01*
X199822933Y-88496895D02*
X199822933Y-87696895D01*
X199899123Y-88192133D02*
X200127695Y-88496895D01*
X200127695Y-87963561D02*
X199822933Y-88268323D01*
X200775314Y-88458800D02*
X200699123Y-88496895D01*
X200699123Y-88496895D02*
X200546742Y-88496895D01*
X200546742Y-88496895D02*
X200470552Y-88458800D01*
X200470552Y-88458800D02*
X200432456Y-88382609D01*
X200432456Y-88382609D02*
X200432456Y-88077847D01*
X200432456Y-88077847D02*
X200470552Y-88001657D01*
X200470552Y-88001657D02*
X200546742Y-87963561D01*
X200546742Y-87963561D02*
X200699123Y-87963561D01*
X200699123Y-87963561D02*
X200775314Y-88001657D01*
X200775314Y-88001657D02*
X200813409Y-88077847D01*
X200813409Y-88077847D02*
X200813409Y-88154038D01*
X200813409Y-88154038D02*
X200432456Y-88230228D01*
X201499123Y-88496895D02*
X201499123Y-87696895D01*
X201499123Y-88458800D02*
X201422932Y-88496895D01*
X201422932Y-88496895D02*
X201270551Y-88496895D01*
X201270551Y-88496895D02*
X201194361Y-88458800D01*
X201194361Y-88458800D02*
X201156266Y-88420704D01*
X201156266Y-88420704D02*
X201118170Y-88344514D01*
X201118170Y-88344514D02*
X201118170Y-88115942D01*
X201118170Y-88115942D02*
X201156266Y-88039752D01*
X201156266Y-88039752D02*
X201194361Y-88001657D01*
X201194361Y-88001657D02*
X201270551Y-87963561D01*
X201270551Y-87963561D02*
X201422932Y-87963561D01*
X201422932Y-87963561D02*
X201499123Y-88001657D01*
X202489600Y-88496895D02*
X202489600Y-87963561D01*
X202489600Y-88039752D02*
X202527695Y-88001657D01*
X202527695Y-88001657D02*
X202603885Y-87963561D01*
X202603885Y-87963561D02*
X202718171Y-87963561D01*
X202718171Y-87963561D02*
X202794362Y-88001657D01*
X202794362Y-88001657D02*
X202832457Y-88077847D01*
X202832457Y-88077847D02*
X202832457Y-88496895D01*
X202832457Y-88077847D02*
X202870552Y-88001657D01*
X202870552Y-88001657D02*
X202946743Y-87963561D01*
X202946743Y-87963561D02*
X203061028Y-87963561D01*
X203061028Y-87963561D02*
X203137219Y-88001657D01*
X203137219Y-88001657D02*
X203175314Y-88077847D01*
X203175314Y-88077847D02*
X203175314Y-88496895D01*
X203861029Y-88458800D02*
X203784838Y-88496895D01*
X203784838Y-88496895D02*
X203632457Y-88496895D01*
X203632457Y-88496895D02*
X203556267Y-88458800D01*
X203556267Y-88458800D02*
X203518171Y-88382609D01*
X203518171Y-88382609D02*
X203518171Y-88077847D01*
X203518171Y-88077847D02*
X203556267Y-88001657D01*
X203556267Y-88001657D02*
X203632457Y-87963561D01*
X203632457Y-87963561D02*
X203784838Y-87963561D01*
X203784838Y-87963561D02*
X203861029Y-88001657D01*
X203861029Y-88001657D02*
X203899124Y-88077847D01*
X203899124Y-88077847D02*
X203899124Y-88154038D01*
X203899124Y-88154038D02*
X203518171Y-88230228D01*
X204851505Y-88496895D02*
X204851505Y-87963561D01*
X204851505Y-87696895D02*
X204813409Y-87734990D01*
X204813409Y-87734990D02*
X204851505Y-87773085D01*
X204851505Y-87773085D02*
X204889600Y-87734990D01*
X204889600Y-87734990D02*
X204851505Y-87696895D01*
X204851505Y-87696895D02*
X204851505Y-87773085D01*
X205232457Y-87963561D02*
X205232457Y-88496895D01*
X205232457Y-88039752D02*
X205270552Y-88001657D01*
X205270552Y-88001657D02*
X205346742Y-87963561D01*
X205346742Y-87963561D02*
X205461028Y-87963561D01*
X205461028Y-87963561D02*
X205537219Y-88001657D01*
X205537219Y-88001657D02*
X205575314Y-88077847D01*
X205575314Y-88077847D02*
X205575314Y-88496895D01*
X206908648Y-88496895D02*
X206908648Y-88077847D01*
X206908648Y-88077847D02*
X206870553Y-88001657D01*
X206870553Y-88001657D02*
X206794362Y-87963561D01*
X206794362Y-87963561D02*
X206641981Y-87963561D01*
X206641981Y-87963561D02*
X206565791Y-88001657D01*
X206908648Y-88458800D02*
X206832457Y-88496895D01*
X206832457Y-88496895D02*
X206641981Y-88496895D01*
X206641981Y-88496895D02*
X206565791Y-88458800D01*
X206565791Y-88458800D02*
X206527695Y-88382609D01*
X206527695Y-88382609D02*
X206527695Y-88306419D01*
X206527695Y-88306419D02*
X206565791Y-88230228D01*
X206565791Y-88230228D02*
X206641981Y-88192133D01*
X206641981Y-88192133D02*
X206832457Y-88192133D01*
X206832457Y-88192133D02*
X206908648Y-88154038D01*
X207899125Y-88496895D02*
X207899125Y-87963561D01*
X207899125Y-88115942D02*
X207937220Y-88039752D01*
X207937220Y-88039752D02*
X207975315Y-88001657D01*
X207975315Y-88001657D02*
X208051506Y-87963561D01*
X208051506Y-87963561D02*
X208127696Y-87963561D01*
X208508648Y-88496895D02*
X208432458Y-88458800D01*
X208432458Y-88458800D02*
X208394363Y-88420704D01*
X208394363Y-88420704D02*
X208356267Y-88344514D01*
X208356267Y-88344514D02*
X208356267Y-88115942D01*
X208356267Y-88115942D02*
X208394363Y-88039752D01*
X208394363Y-88039752D02*
X208432458Y-88001657D01*
X208432458Y-88001657D02*
X208508648Y-87963561D01*
X208508648Y-87963561D02*
X208622934Y-87963561D01*
X208622934Y-87963561D02*
X208699125Y-88001657D01*
X208699125Y-88001657D02*
X208737220Y-88039752D01*
X208737220Y-88039752D02*
X208775315Y-88115942D01*
X208775315Y-88115942D02*
X208775315Y-88344514D01*
X208775315Y-88344514D02*
X208737220Y-88420704D01*
X208737220Y-88420704D02*
X208699125Y-88458800D01*
X208699125Y-88458800D02*
X208622934Y-88496895D01*
X208622934Y-88496895D02*
X208508648Y-88496895D01*
X209232458Y-88496895D02*
X209156268Y-88458800D01*
X209156268Y-88458800D02*
X209118173Y-88420704D01*
X209118173Y-88420704D02*
X209080077Y-88344514D01*
X209080077Y-88344514D02*
X209080077Y-88115942D01*
X209080077Y-88115942D02*
X209118173Y-88039752D01*
X209118173Y-88039752D02*
X209156268Y-88001657D01*
X209156268Y-88001657D02*
X209232458Y-87963561D01*
X209232458Y-87963561D02*
X209346744Y-87963561D01*
X209346744Y-87963561D02*
X209422935Y-88001657D01*
X209422935Y-88001657D02*
X209461030Y-88039752D01*
X209461030Y-88039752D02*
X209499125Y-88115942D01*
X209499125Y-88115942D02*
X209499125Y-88344514D01*
X209499125Y-88344514D02*
X209461030Y-88420704D01*
X209461030Y-88420704D02*
X209422935Y-88458800D01*
X209422935Y-88458800D02*
X209346744Y-88496895D01*
X209346744Y-88496895D02*
X209232458Y-88496895D01*
X209841983Y-88496895D02*
X209841983Y-87963561D01*
X209841983Y-88039752D02*
X209880078Y-88001657D01*
X209880078Y-88001657D02*
X209956268Y-87963561D01*
X209956268Y-87963561D02*
X210070554Y-87963561D01*
X210070554Y-87963561D02*
X210146745Y-88001657D01*
X210146745Y-88001657D02*
X210184840Y-88077847D01*
X210184840Y-88077847D02*
X210184840Y-88496895D01*
X210184840Y-88077847D02*
X210222935Y-88001657D01*
X210222935Y-88001657D02*
X210299126Y-87963561D01*
X210299126Y-87963561D02*
X210413411Y-87963561D01*
X210413411Y-87963561D02*
X210489602Y-88001657D01*
X210489602Y-88001657D02*
X210527697Y-88077847D01*
X210527697Y-88077847D02*
X210527697Y-88496895D01*
X210908650Y-88420704D02*
X210946745Y-88458800D01*
X210946745Y-88458800D02*
X210908650Y-88496895D01*
X210908650Y-88496895D02*
X210870554Y-88458800D01*
X210870554Y-88458800D02*
X210908650Y-88420704D01*
X210908650Y-88420704D02*
X210908650Y-88496895D01*
D11*
X201704819Y-111850594D02*
X200704819Y-111850594D01*
X200704819Y-111850594D02*
X200704819Y-111612499D01*
X200704819Y-111612499D02*
X200752438Y-111469642D01*
X200752438Y-111469642D02*
X200847676Y-111374404D01*
X200847676Y-111374404D02*
X200942914Y-111326785D01*
X200942914Y-111326785D02*
X201133390Y-111279166D01*
X201133390Y-111279166D02*
X201276247Y-111279166D01*
X201276247Y-111279166D02*
X201466723Y-111326785D01*
X201466723Y-111326785D02*
X201561961Y-111374404D01*
X201561961Y-111374404D02*
X201657200Y-111469642D01*
X201657200Y-111469642D02*
X201704819Y-111612499D01*
X201704819Y-111612499D02*
X201704819Y-111850594D01*
X200704819Y-110945832D02*
X200704819Y-110279166D01*
X200704819Y-110279166D02*
X201704819Y-110707737D01*
X201861905Y-121404819D02*
X201861905Y-120404819D01*
X201861905Y-120404819D02*
X202100000Y-120404819D01*
X202100000Y-120404819D02*
X202242857Y-120452438D01*
X202242857Y-120452438D02*
X202338095Y-120547676D01*
X202338095Y-120547676D02*
X202385714Y-120642914D01*
X202385714Y-120642914D02*
X202433333Y-120833390D01*
X202433333Y-120833390D02*
X202433333Y-120976247D01*
X202433333Y-120976247D02*
X202385714Y-121166723D01*
X202385714Y-121166723D02*
X202338095Y-121261961D01*
X202338095Y-121261961D02*
X202242857Y-121357200D01*
X202242857Y-121357200D02*
X202100000Y-121404819D01*
X202100000Y-121404819D02*
X201861905Y-121404819D01*
X202814286Y-120500057D02*
X202861905Y-120452438D01*
X202861905Y-120452438D02*
X202957143Y-120404819D01*
X202957143Y-120404819D02*
X203195238Y-120404819D01*
X203195238Y-120404819D02*
X203290476Y-120452438D01*
X203290476Y-120452438D02*
X203338095Y-120500057D01*
X203338095Y-120500057D02*
X203385714Y-120595295D01*
X203385714Y-120595295D02*
X203385714Y-120690533D01*
X203385714Y-120690533D02*
X203338095Y-120833390D01*
X203338095Y-120833390D02*
X202766667Y-121404819D01*
X202766667Y-121404819D02*
X203385714Y-121404819D01*
X202157200Y-131033332D02*
X202204819Y-130890475D01*
X202204819Y-130890475D02*
X202204819Y-130652380D01*
X202204819Y-130652380D02*
X202157200Y-130557142D01*
X202157200Y-130557142D02*
X202109580Y-130509523D01*
X202109580Y-130509523D02*
X202014342Y-130461904D01*
X202014342Y-130461904D02*
X201919104Y-130461904D01*
X201919104Y-130461904D02*
X201823866Y-130509523D01*
X201823866Y-130509523D02*
X201776247Y-130557142D01*
X201776247Y-130557142D02*
X201728628Y-130652380D01*
X201728628Y-130652380D02*
X201681009Y-130842856D01*
X201681009Y-130842856D02*
X201633390Y-130938094D01*
X201633390Y-130938094D02*
X201585771Y-130985713D01*
X201585771Y-130985713D02*
X201490533Y-131033332D01*
X201490533Y-131033332D02*
X201395295Y-131033332D01*
X201395295Y-131033332D02*
X201300057Y-130985713D01*
X201300057Y-130985713D02*
X201252438Y-130938094D01*
X201252438Y-130938094D02*
X201204819Y-130842856D01*
X201204819Y-130842856D02*
X201204819Y-130604761D01*
X201204819Y-130604761D02*
X201252438Y-130461904D01*
X201204819Y-130128570D02*
X202204819Y-129890475D01*
X202204819Y-129890475D02*
X201490533Y-129699999D01*
X201490533Y-129699999D02*
X202204819Y-129509523D01*
X202204819Y-129509523D02*
X201204819Y-129271428D01*
X201204819Y-128985713D02*
X201204819Y-128366666D01*
X201204819Y-128366666D02*
X201585771Y-128699999D01*
X201585771Y-128699999D02*
X201585771Y-128557142D01*
X201585771Y-128557142D02*
X201633390Y-128461904D01*
X201633390Y-128461904D02*
X201681009Y-128414285D01*
X201681009Y-128414285D02*
X201776247Y-128366666D01*
X201776247Y-128366666D02*
X202014342Y-128366666D01*
X202014342Y-128366666D02*
X202109580Y-128414285D01*
X202109580Y-128414285D02*
X202157200Y-128461904D01*
X202157200Y-128461904D02*
X202204819Y-128557142D01*
X202204819Y-128557142D02*
X202204819Y-128842856D01*
X202204819Y-128842856D02*
X202157200Y-128938094D01*
X202157200Y-128938094D02*
X202109580Y-128985713D01*
X214757200Y-131033332D02*
X214804819Y-130890475D01*
X214804819Y-130890475D02*
X214804819Y-130652380D01*
X214804819Y-130652380D02*
X214757200Y-130557142D01*
X214757200Y-130557142D02*
X214709580Y-130509523D01*
X214709580Y-130509523D02*
X214614342Y-130461904D01*
X214614342Y-130461904D02*
X214519104Y-130461904D01*
X214519104Y-130461904D02*
X214423866Y-130509523D01*
X214423866Y-130509523D02*
X214376247Y-130557142D01*
X214376247Y-130557142D02*
X214328628Y-130652380D01*
X214328628Y-130652380D02*
X214281009Y-130842856D01*
X214281009Y-130842856D02*
X214233390Y-130938094D01*
X214233390Y-130938094D02*
X214185771Y-130985713D01*
X214185771Y-130985713D02*
X214090533Y-131033332D01*
X214090533Y-131033332D02*
X213995295Y-131033332D01*
X213995295Y-131033332D02*
X213900057Y-130985713D01*
X213900057Y-130985713D02*
X213852438Y-130938094D01*
X213852438Y-130938094D02*
X213804819Y-130842856D01*
X213804819Y-130842856D02*
X213804819Y-130604761D01*
X213804819Y-130604761D02*
X213852438Y-130461904D01*
X213804819Y-130128570D02*
X214804819Y-129890475D01*
X214804819Y-129890475D02*
X214090533Y-129699999D01*
X214090533Y-129699999D02*
X214804819Y-129509523D01*
X214804819Y-129509523D02*
X213804819Y-129271428D01*
X214804819Y-128366666D02*
X214804819Y-128938094D01*
X214804819Y-128652380D02*
X213804819Y-128652380D01*
X213804819Y-128652380D02*
X213947676Y-128747618D01*
X213947676Y-128747618D02*
X214042914Y-128842856D01*
X214042914Y-128842856D02*
X214090533Y-128938094D01*
X224407142Y-129209580D02*
X224359523Y-129257200D01*
X224359523Y-129257200D02*
X224216666Y-129304819D01*
X224216666Y-129304819D02*
X224121428Y-129304819D01*
X224121428Y-129304819D02*
X223978571Y-129257200D01*
X223978571Y-129257200D02*
X223883333Y-129161961D01*
X223883333Y-129161961D02*
X223835714Y-129066723D01*
X223835714Y-129066723D02*
X223788095Y-128876247D01*
X223788095Y-128876247D02*
X223788095Y-128733390D01*
X223788095Y-128733390D02*
X223835714Y-128542914D01*
X223835714Y-128542914D02*
X223883333Y-128447676D01*
X223883333Y-128447676D02*
X223978571Y-128352438D01*
X223978571Y-128352438D02*
X224121428Y-128304819D01*
X224121428Y-128304819D02*
X224216666Y-128304819D01*
X224216666Y-128304819D02*
X224359523Y-128352438D01*
X224359523Y-128352438D02*
X224407142Y-128400057D01*
X225359523Y-129304819D02*
X224788095Y-129304819D01*
X225073809Y-129304819D02*
X225073809Y-128304819D01*
X225073809Y-128304819D02*
X224978571Y-128447676D01*
X224978571Y-128447676D02*
X224883333Y-128542914D01*
X224883333Y-128542914D02*
X224788095Y-128590533D01*
X226216666Y-128304819D02*
X226026190Y-128304819D01*
X226026190Y-128304819D02*
X225930952Y-128352438D01*
X225930952Y-128352438D02*
X225883333Y-128400057D01*
X225883333Y-128400057D02*
X225788095Y-128542914D01*
X225788095Y-128542914D02*
X225740476Y-128733390D01*
X225740476Y-128733390D02*
X225740476Y-129114342D01*
X225740476Y-129114342D02*
X225788095Y-129209580D01*
X225788095Y-129209580D02*
X225835714Y-129257200D01*
X225835714Y-129257200D02*
X225930952Y-129304819D01*
X225930952Y-129304819D02*
X226121428Y-129304819D01*
X226121428Y-129304819D02*
X226216666Y-129257200D01*
X226216666Y-129257200D02*
X226264285Y-129209580D01*
X226264285Y-129209580D02*
X226311904Y-129114342D01*
X226311904Y-129114342D02*
X226311904Y-128876247D01*
X226311904Y-128876247D02*
X226264285Y-128781009D01*
X226264285Y-128781009D02*
X226216666Y-128733390D01*
X226216666Y-128733390D02*
X226121428Y-128685771D01*
X226121428Y-128685771D02*
X225930952Y-128685771D01*
X225930952Y-128685771D02*
X225835714Y-128733390D01*
X225835714Y-128733390D02*
X225788095Y-128781009D01*
X225788095Y-128781009D02*
X225740476Y-128876247D01*
X224607142Y-115809580D02*
X224559523Y-115857200D01*
X224559523Y-115857200D02*
X224416666Y-115904819D01*
X224416666Y-115904819D02*
X224321428Y-115904819D01*
X224321428Y-115904819D02*
X224178571Y-115857200D01*
X224178571Y-115857200D02*
X224083333Y-115761961D01*
X224083333Y-115761961D02*
X224035714Y-115666723D01*
X224035714Y-115666723D02*
X223988095Y-115476247D01*
X223988095Y-115476247D02*
X223988095Y-115333390D01*
X223988095Y-115333390D02*
X224035714Y-115142914D01*
X224035714Y-115142914D02*
X224083333Y-115047676D01*
X224083333Y-115047676D02*
X224178571Y-114952438D01*
X224178571Y-114952438D02*
X224321428Y-114904819D01*
X224321428Y-114904819D02*
X224416666Y-114904819D01*
X224416666Y-114904819D02*
X224559523Y-114952438D01*
X224559523Y-114952438D02*
X224607142Y-115000057D01*
X225559523Y-115904819D02*
X224988095Y-115904819D01*
X225273809Y-115904819D02*
X225273809Y-114904819D01*
X225273809Y-114904819D02*
X225178571Y-115047676D01*
X225178571Y-115047676D02*
X225083333Y-115142914D01*
X225083333Y-115142914D02*
X224988095Y-115190533D01*
X226464285Y-114904819D02*
X225988095Y-114904819D01*
X225988095Y-114904819D02*
X225940476Y-115381009D01*
X225940476Y-115381009D02*
X225988095Y-115333390D01*
X225988095Y-115333390D02*
X226083333Y-115285771D01*
X226083333Y-115285771D02*
X226321428Y-115285771D01*
X226321428Y-115285771D02*
X226416666Y-115333390D01*
X226416666Y-115333390D02*
X226464285Y-115381009D01*
X226464285Y-115381009D02*
X226511904Y-115476247D01*
X226511904Y-115476247D02*
X226511904Y-115714342D01*
X226511904Y-115714342D02*
X226464285Y-115809580D01*
X226464285Y-115809580D02*
X226416666Y-115857200D01*
X226416666Y-115857200D02*
X226321428Y-115904819D01*
X226321428Y-115904819D02*
X226083333Y-115904819D01*
X226083333Y-115904819D02*
X225988095Y-115857200D01*
X225988095Y-115857200D02*
X225940476Y-115809580D01*
X224657142Y-102609580D02*
X224609523Y-102657200D01*
X224609523Y-102657200D02*
X224466666Y-102704819D01*
X224466666Y-102704819D02*
X224371428Y-102704819D01*
X224371428Y-102704819D02*
X224228571Y-102657200D01*
X224228571Y-102657200D02*
X224133333Y-102561961D01*
X224133333Y-102561961D02*
X224085714Y-102466723D01*
X224085714Y-102466723D02*
X224038095Y-102276247D01*
X224038095Y-102276247D02*
X224038095Y-102133390D01*
X224038095Y-102133390D02*
X224085714Y-101942914D01*
X224085714Y-101942914D02*
X224133333Y-101847676D01*
X224133333Y-101847676D02*
X224228571Y-101752438D01*
X224228571Y-101752438D02*
X224371428Y-101704819D01*
X224371428Y-101704819D02*
X224466666Y-101704819D01*
X224466666Y-101704819D02*
X224609523Y-101752438D01*
X224609523Y-101752438D02*
X224657142Y-101800057D01*
X225609523Y-102704819D02*
X225038095Y-102704819D01*
X225323809Y-102704819D02*
X225323809Y-101704819D01*
X225323809Y-101704819D02*
X225228571Y-101847676D01*
X225228571Y-101847676D02*
X225133333Y-101942914D01*
X225133333Y-101942914D02*
X225038095Y-101990533D01*
X226466666Y-102038152D02*
X226466666Y-102704819D01*
X226228571Y-101657200D02*
X225990476Y-102371485D01*
X225990476Y-102371485D02*
X226609523Y-102371485D01*
X224407142Y-133509580D02*
X224359523Y-133557200D01*
X224359523Y-133557200D02*
X224216666Y-133604819D01*
X224216666Y-133604819D02*
X224121428Y-133604819D01*
X224121428Y-133604819D02*
X223978571Y-133557200D01*
X223978571Y-133557200D02*
X223883333Y-133461961D01*
X223883333Y-133461961D02*
X223835714Y-133366723D01*
X223835714Y-133366723D02*
X223788095Y-133176247D01*
X223788095Y-133176247D02*
X223788095Y-133033390D01*
X223788095Y-133033390D02*
X223835714Y-132842914D01*
X223835714Y-132842914D02*
X223883333Y-132747676D01*
X223883333Y-132747676D02*
X223978571Y-132652438D01*
X223978571Y-132652438D02*
X224121428Y-132604819D01*
X224121428Y-132604819D02*
X224216666Y-132604819D01*
X224216666Y-132604819D02*
X224359523Y-132652438D01*
X224359523Y-132652438D02*
X224407142Y-132700057D01*
X225359523Y-133604819D02*
X224788095Y-133604819D01*
X225073809Y-133604819D02*
X225073809Y-132604819D01*
X225073809Y-132604819D02*
X224978571Y-132747676D01*
X224978571Y-132747676D02*
X224883333Y-132842914D01*
X224883333Y-132842914D02*
X224788095Y-132890533D01*
X225930952Y-133033390D02*
X225835714Y-132985771D01*
X225835714Y-132985771D02*
X225788095Y-132938152D01*
X225788095Y-132938152D02*
X225740476Y-132842914D01*
X225740476Y-132842914D02*
X225740476Y-132795295D01*
X225740476Y-132795295D02*
X225788095Y-132700057D01*
X225788095Y-132700057D02*
X225835714Y-132652438D01*
X225835714Y-132652438D02*
X225930952Y-132604819D01*
X225930952Y-132604819D02*
X226121428Y-132604819D01*
X226121428Y-132604819D02*
X226216666Y-132652438D01*
X226216666Y-132652438D02*
X226264285Y-132700057D01*
X226264285Y-132700057D02*
X226311904Y-132795295D01*
X226311904Y-132795295D02*
X226311904Y-132842914D01*
X226311904Y-132842914D02*
X226264285Y-132938152D01*
X226264285Y-132938152D02*
X226216666Y-132985771D01*
X226216666Y-132985771D02*
X226121428Y-133033390D01*
X226121428Y-133033390D02*
X225930952Y-133033390D01*
X225930952Y-133033390D02*
X225835714Y-133081009D01*
X225835714Y-133081009D02*
X225788095Y-133128628D01*
X225788095Y-133128628D02*
X225740476Y-133223866D01*
X225740476Y-133223866D02*
X225740476Y-133414342D01*
X225740476Y-133414342D02*
X225788095Y-133509580D01*
X225788095Y-133509580D02*
X225835714Y-133557200D01*
X225835714Y-133557200D02*
X225930952Y-133604819D01*
X225930952Y-133604819D02*
X226121428Y-133604819D01*
X226121428Y-133604819D02*
X226216666Y-133557200D01*
X226216666Y-133557200D02*
X226264285Y-133509580D01*
X226264285Y-133509580D02*
X226311904Y-133414342D01*
X226311904Y-133414342D02*
X226311904Y-133223866D01*
X226311904Y-133223866D02*
X226264285Y-133128628D01*
X226264285Y-133128628D02*
X226216666Y-133081009D01*
X226216666Y-133081009D02*
X226121428Y-133033390D01*
X230507142Y-128209580D02*
X230459523Y-128257200D01*
X230459523Y-128257200D02*
X230316666Y-128304819D01*
X230316666Y-128304819D02*
X230221428Y-128304819D01*
X230221428Y-128304819D02*
X230078571Y-128257200D01*
X230078571Y-128257200D02*
X229983333Y-128161961D01*
X229983333Y-128161961D02*
X229935714Y-128066723D01*
X229935714Y-128066723D02*
X229888095Y-127876247D01*
X229888095Y-127876247D02*
X229888095Y-127733390D01*
X229888095Y-127733390D02*
X229935714Y-127542914D01*
X229935714Y-127542914D02*
X229983333Y-127447676D01*
X229983333Y-127447676D02*
X230078571Y-127352438D01*
X230078571Y-127352438D02*
X230221428Y-127304819D01*
X230221428Y-127304819D02*
X230316666Y-127304819D01*
X230316666Y-127304819D02*
X230459523Y-127352438D01*
X230459523Y-127352438D02*
X230507142Y-127400057D01*
X231459523Y-128304819D02*
X230888095Y-128304819D01*
X231173809Y-128304819D02*
X231173809Y-127304819D01*
X231173809Y-127304819D02*
X231078571Y-127447676D01*
X231078571Y-127447676D02*
X230983333Y-127542914D01*
X230983333Y-127542914D02*
X230888095Y-127590533D01*
X231792857Y-127304819D02*
X232459523Y-127304819D01*
X232459523Y-127304819D02*
X232030952Y-128304819D01*
D12*
%TO.C,D7*%
X203950000Y-112722500D02*
X203950000Y-110062500D01*
X202250000Y-112722500D02*
X202250000Y-110062500D01*
X202250000Y-112722500D02*
X203950000Y-112722500D01*
%TO.C,D2*%
X204210000Y-118250000D02*
X201550000Y-118250000D01*
X204210000Y-119950000D02*
X201550000Y-119950000D01*
X204210000Y-119950000D02*
X204210000Y-118250000D01*
%TO.C,SW3*%
X205570000Y-127630000D02*
X205570000Y-131770000D01*
X205270000Y-127630000D02*
X205570000Y-127630000D01*
X202430000Y-127630000D02*
X202730000Y-127630000D01*
X205570000Y-131770000D02*
X205270000Y-131770000D01*
X202730000Y-131770000D02*
X202430000Y-131770000D01*
X202430000Y-131770000D02*
X202430000Y-127630000D01*
%TO.C,SW1*%
X218170000Y-127630000D02*
X218170000Y-131770000D01*
X217870000Y-127630000D02*
X218170000Y-127630000D01*
X215030000Y-127630000D02*
X215330000Y-127630000D01*
X218170000Y-131770000D02*
X217870000Y-131770000D01*
X215330000Y-131770000D02*
X215030000Y-131770000D01*
X215030000Y-131770000D02*
X215030000Y-127630000D01*
%TO.C,C6*%
X208560000Y-101207836D02*
X208560000Y-100992164D01*
X207840000Y-101207836D02*
X207840000Y-100992164D01*
%TO.C,R18*%
X221230000Y-116453641D02*
X221230000Y-116146359D01*
X220470000Y-116453641D02*
X220470000Y-116146359D01*
%TO.C,C16*%
X226211252Y-127910000D02*
X223888748Y-127910000D01*
X226211252Y-124490000D02*
X223888748Y-124490000D01*
%TO.C,R21*%
X217653641Y-109380000D02*
X217346359Y-109380000D01*
X217653641Y-108620000D02*
X217346359Y-108620000D01*
D10*
%TO.C,U8*%
X216350000Y-103800000D02*
G75*
G02*
X216250000Y-103800000I-50000J0D01*
G01*
X216250000Y-103800000D02*
G75*
G02*
X216350000Y-103800000I50000J0D01*
G01*
D13*
X215680000Y-104630000D02*
X215680000Y-104075600D01*
X215680000Y-99024400D02*
X215680000Y-98470000D01*
X215680000Y-98470000D02*
X215125600Y-98470000D01*
X215125600Y-104630000D02*
X215680000Y-104630000D01*
X210074400Y-104630000D02*
X209520000Y-104630000D01*
X210074400Y-98470000D02*
X209520000Y-98470000D01*
X209520000Y-104630000D02*
X209520000Y-104075600D01*
X209520000Y-98470000D02*
X209520000Y-99024400D01*
D12*
%TO.C,R9*%
X222136359Y-123980000D02*
X222443641Y-123980000D01*
X222136359Y-123220000D02*
X222443641Y-123220000D01*
%TO.C,C12*%
X205560000Y-108092164D02*
X205560000Y-108307836D01*
X204840000Y-108092164D02*
X204840000Y-108307836D01*
%TO.C,R12*%
X202646359Y-108180000D02*
X202953641Y-108180000D01*
X202646359Y-107420000D02*
X202953641Y-107420000D01*
%TO.C,R22*%
X220180000Y-111446359D02*
X220180000Y-111753641D01*
X219420000Y-111446359D02*
X219420000Y-111753641D01*
%TO.C,R6*%
X201946359Y-120920000D02*
X202253641Y-120920000D01*
X201946359Y-120160000D02*
X202253641Y-120160000D01*
%TO.C,D6*%
X205635000Y-114700000D02*
X205635000Y-112415000D01*
X205635000Y-112415000D02*
X204165000Y-112415000D01*
X204165000Y-112415000D02*
X204165000Y-114700000D01*
%TO.C,R13*%
X202953641Y-109180000D02*
X202646359Y-109180000D01*
X202953641Y-108420000D02*
X202646359Y-108420000D01*
%TO.C,R8*%
X222196359Y-109580000D02*
X222503641Y-109580000D01*
X222196359Y-108820000D02*
X222503641Y-108820000D01*
%TO.C,C3*%
X218460000Y-101962164D02*
X218460000Y-102177836D01*
X217740000Y-101962164D02*
X217740000Y-102177836D01*
%TO.C,C19*%
X205907836Y-116960000D02*
X205692164Y-116960000D01*
X205907836Y-116240000D02*
X205692164Y-116240000D01*
%TO.C,Q6*%
X233130000Y-124440000D02*
X233130000Y-127940000D01*
X233390000Y-124440000D02*
X233130000Y-124440000D01*
X233390000Y-127940000D02*
X233130000Y-127940000D01*
X236630000Y-124760000D02*
X236630000Y-127940000D01*
X236630000Y-127940000D02*
X236370000Y-127940000D01*
X236850000Y-124440000D02*
X236370000Y-124440000D01*
X236370000Y-123960000D01*
X236850000Y-124440000D01*
G36*
X236850000Y-124440000D02*
G01*
X236370000Y-124440000D01*
X236370000Y-123960000D01*
X236850000Y-124440000D01*
G37*
%TO.C,U3*%
X201830000Y-121300000D02*
X201550000Y-121300000D01*
X201830000Y-121020000D01*
X201830000Y-121300000D01*
G36*
X201830000Y-121300000D02*
G01*
X201550000Y-121300000D01*
X201830000Y-121020000D01*
X201830000Y-121300000D01*
G37*
X203250000Y-123280000D02*
X201950000Y-123280000D01*
X203250000Y-121300000D02*
X202200000Y-121300000D01*
%TO.C,C23*%
X203510000Y-116740580D02*
X203510000Y-116459420D01*
X202490000Y-116740580D02*
X202490000Y-116459420D01*
%TO.C,C20*%
X205907836Y-117960000D02*
X205692164Y-117960000D01*
X205907836Y-117240000D02*
X205692164Y-117240000D01*
%TO.C,Q4*%
X233040000Y-111265000D02*
X233040000Y-114765000D01*
X233300000Y-111265000D02*
X233040000Y-111265000D01*
X233300000Y-114765000D02*
X233040000Y-114765000D01*
X236540000Y-111585000D02*
X236540000Y-114765000D01*
X236540000Y-114765000D02*
X236280000Y-114765000D01*
X236760000Y-111265000D02*
X236280000Y-111265000D01*
X236280000Y-110785000D01*
X236760000Y-111265000D01*
G36*
X236760000Y-111265000D02*
G01*
X236280000Y-111265000D01*
X236280000Y-110785000D01*
X236760000Y-111265000D01*
G37*
%TO.C,C7*%
X205410000Y-110559420D02*
X205410000Y-110840580D01*
X204390000Y-110559420D02*
X204390000Y-110840580D01*
%TO.C,Q3*%
X233030000Y-96990000D02*
X233030000Y-100490000D01*
X233290000Y-96990000D02*
X233030000Y-96990000D01*
X233290000Y-100490000D02*
X233030000Y-100490000D01*
X236530000Y-97310000D02*
X236530000Y-100490000D01*
X236530000Y-100490000D02*
X236270000Y-100490000D01*
X236750000Y-96990000D02*
X236270000Y-96990000D01*
X236270000Y-96510000D01*
X236750000Y-96990000D01*
G36*
X236750000Y-96990000D02*
G01*
X236270000Y-96990000D01*
X236270000Y-96510000D01*
X236750000Y-96990000D01*
G37*
%TO.C,C4*%
X217460000Y-101962164D02*
X217460000Y-102177836D01*
X216740000Y-101962164D02*
X216740000Y-102177836D01*
%TO.C,J2*%
X214170000Y-132030000D02*
X214170000Y-129370000D01*
X209030000Y-132030000D02*
X214170000Y-132030000D01*
X209030000Y-132030000D02*
X209030000Y-129370000D01*
X209030000Y-129370000D02*
X214170000Y-129370000D01*
X206430000Y-130700000D02*
X206430000Y-129370000D01*
X206430000Y-129370000D02*
X207760000Y-129370000D01*
%TO.C,C22*%
X207792164Y-117960000D02*
X208007836Y-117960000D01*
X207792164Y-117240000D02*
X208007836Y-117240000D01*
%TO.C,C21*%
X207792164Y-116960000D02*
X208007836Y-116960000D01*
X207792164Y-116240000D02*
X208007836Y-116240000D01*
%TO.C,R15*%
X221046359Y-114780000D02*
X221353641Y-114780000D01*
X221046359Y-114020000D02*
X221353641Y-114020000D01*
%TO.C,C26*%
X209209420Y-128160000D02*
X209490580Y-128160000D01*
X209209420Y-127140000D02*
X209490580Y-127140000D01*
%TO.C,C15*%
X226411252Y-114510000D02*
X224088748Y-114510000D01*
X226411252Y-111090000D02*
X224088748Y-111090000D01*
%TO.C,C2*%
X219860000Y-102409420D02*
X219860000Y-102690580D01*
X218840000Y-102409420D02*
X218840000Y-102690580D01*
%TO.C,C25*%
X206957836Y-128010000D02*
X206742164Y-128010000D01*
X206957836Y-127290000D02*
X206742164Y-127290000D01*
%TO.C,R16*%
X220746359Y-128980000D02*
X221053641Y-128980000D01*
X220746359Y-128220000D02*
X221053641Y-128220000D01*
%TO.C,C13*%
X206460000Y-115227836D02*
X206460000Y-115012164D01*
X205740000Y-115227836D02*
X205740000Y-115012164D01*
%TO.C,R1*%
X222246359Y-97480000D02*
X222553641Y-97480000D01*
X222246359Y-96720000D02*
X222553641Y-96720000D01*
%TO.C,R27*%
X210253641Y-107430000D02*
X209946359Y-107430000D01*
X210253641Y-106670000D02*
X209946359Y-106670000D01*
%TO.C,R28*%
X204003641Y-126680000D02*
X203696359Y-126680000D01*
X204003641Y-125920000D02*
X203696359Y-125920000D01*
%TO.C,R25*%
X233090000Y-104922936D02*
X233090000Y-109277064D01*
X236510000Y-104922936D02*
X236510000Y-109277064D01*
%TO.C,C24*%
X204660000Y-117287836D02*
X204660000Y-117072164D01*
X203940000Y-117287836D02*
X203940000Y-117072164D01*
%TO.C,C14*%
X226461252Y-101310000D02*
X224138748Y-101310000D01*
X226461252Y-97890000D02*
X224138748Y-97890000D01*
%TO.C,R20*%
X221063641Y-127930000D02*
X220756359Y-127930000D01*
X221063641Y-127170000D02*
X220756359Y-127170000D01*
%TO.C,U4*%
X212040000Y-119610000D02*
X211710000Y-119370000D01*
X212040000Y-119130000D01*
X212040000Y-119610000D01*
G36*
X212040000Y-119610000D02*
G01*
X211710000Y-119370000D01*
X212040000Y-119130000D01*
X212040000Y-119610000D01*
G37*
X211810000Y-124410000D02*
X210550000Y-124410000D01*
X211810000Y-120650000D02*
X211810000Y-124410000D01*
X204990000Y-124410000D02*
X206250000Y-124410000D01*
X204990000Y-120650000D02*
X204990000Y-124410000D01*
%TO.C,R17*%
X221580000Y-130253641D02*
X221580000Y-129946359D01*
X220820000Y-130253641D02*
X220820000Y-129946359D01*
%TO.C,R5*%
X201946359Y-124420000D02*
X202253641Y-124420000D01*
X201946359Y-123660000D02*
X202253641Y-123660000D01*
%TO.C,Q2*%
X229110000Y-111630000D02*
X229110000Y-111370000D01*
X229110000Y-114870000D02*
X229110000Y-114610000D01*
X232290000Y-114870000D02*
X229110000Y-114870000D01*
X232610000Y-111370000D02*
X229110000Y-111370000D01*
X232610000Y-111630000D02*
X232610000Y-111370000D01*
X232610000Y-115090000D02*
X232610000Y-114610000D01*
X233090000Y-114610000D01*
X232610000Y-115090000D01*
G36*
X232610000Y-115090000D02*
G01*
X232610000Y-114610000D01*
X233090000Y-114610000D01*
X232610000Y-115090000D01*
G37*
%TO.C,J1*%
X200440000Y-119490000D02*
X200440000Y-118690000D01*
X197520000Y-126990000D02*
X195740000Y-126990000D01*
X197520000Y-117590000D02*
X195740000Y-117590000D01*
%TO.C,R19*%
X221353641Y-100180000D02*
X221046359Y-100180000D01*
X221353641Y-99420000D02*
X221046359Y-99420000D01*
%TO.C,R7*%
X222196359Y-110680000D02*
X222503641Y-110680000D01*
X222196359Y-109920000D02*
X222503641Y-109920000D01*
%TO.C,C11*%
X204710000Y-102440580D02*
X204710000Y-102159420D01*
X203690000Y-102440580D02*
X203690000Y-102159420D01*
%TO.C,R14*%
X204580000Y-108353641D02*
X204580000Y-108046359D01*
X203820000Y-108353641D02*
X203820000Y-108046359D01*
%TO.C,C10*%
X229437500Y-120347500D02*
X228650000Y-120347500D01*
X229043750Y-120741250D02*
X229043750Y-119953750D01*
X228410000Y-120845563D02*
X228410000Y-119560000D01*
X228410000Y-120845563D02*
X227345563Y-121910000D01*
X228410000Y-116154437D02*
X228410000Y-117440000D01*
X228410000Y-116154437D02*
X227345563Y-115090000D01*
X227345563Y-121910000D02*
X221590000Y-121910000D01*
X227345563Y-115090000D02*
X221590000Y-115090000D01*
X221590000Y-121910000D02*
X221590000Y-119560000D01*
X221590000Y-115090000D02*
X221590000Y-117440000D01*
%TO.C,R2*%
X222246359Y-96480000D02*
X222553641Y-96480000D01*
X222246359Y-95720000D02*
X222553641Y-95720000D01*
%TO.C,R24*%
X233090000Y-90660436D02*
X233090000Y-95014564D01*
X236510000Y-90660436D02*
X236510000Y-95014564D01*
%TO.C,U1*%
X217140000Y-116330000D02*
X216460000Y-116330000D01*
X216800000Y-115860000D01*
X217140000Y-116330000D01*
G36*
X217140000Y-116330000D02*
G01*
X216460000Y-116330000D01*
X216800000Y-115860000D01*
X217140000Y-116330000D01*
G37*
X216210000Y-116310000D02*
X216210000Y-115860000D01*
X216210000Y-109090000D02*
X216210000Y-109540000D01*
X215760000Y-116310000D02*
X216210000Y-116310000D01*
X215760000Y-109090000D02*
X216210000Y-109090000D01*
X209440000Y-116310000D02*
X208990000Y-116310000D01*
X209440000Y-109090000D02*
X208990000Y-109090000D01*
X208990000Y-116310000D02*
X208990000Y-115860000D01*
X208990000Y-109090000D02*
X208990000Y-109540000D01*
%TO.C,R10*%
X222136359Y-122980000D02*
X222443641Y-122980000D01*
X222136359Y-122220000D02*
X222443641Y-122220000D01*
%TO.C,Q5*%
X229210000Y-124830000D02*
X229210000Y-124570000D01*
X229210000Y-128070000D02*
X229210000Y-127810000D01*
X232390000Y-128070000D02*
X229210000Y-128070000D01*
X232710000Y-124570000D02*
X229210000Y-124570000D01*
X232710000Y-124830000D02*
X232710000Y-124570000D01*
X232710000Y-128290000D02*
X232710000Y-127810000D01*
X233190000Y-127810000D01*
X232710000Y-128290000D01*
G36*
X232710000Y-128290000D02*
G01*
X232710000Y-127810000D01*
X233190000Y-127810000D01*
X232710000Y-128290000D01*
G37*
%TO.C,C1*%
X229537500Y-106947500D02*
X228750000Y-106947500D01*
X229143750Y-107341250D02*
X229143750Y-106553750D01*
X228510000Y-107445563D02*
X228510000Y-106160000D01*
X228510000Y-107445563D02*
X227445563Y-108510000D01*
X228510000Y-102754437D02*
X228510000Y-104040000D01*
X228510000Y-102754437D02*
X227445563Y-101690000D01*
X227445563Y-108510000D02*
X221690000Y-108510000D01*
X227445563Y-101690000D02*
X221690000Y-101690000D01*
X221690000Y-108510000D02*
X221690000Y-106160000D01*
X221690000Y-101690000D02*
X221690000Y-104040000D01*
%TO.C,U9*%
X205360000Y-104070000D02*
X205080000Y-104070000D01*
X205080000Y-103790000D01*
X205360000Y-104070000D01*
G36*
X205360000Y-104070000D02*
G01*
X205080000Y-104070000D01*
X205080000Y-103790000D01*
X205360000Y-104070000D01*
G37*
X205310000Y-104310000D02*
X205310000Y-107000000D01*
X202090000Y-104200000D02*
X202090000Y-107000000D01*
%TO.C,C5*%
X217460000Y-103962164D02*
X217460000Y-104177836D01*
X216740000Y-103962164D02*
X216740000Y-104177836D01*
%TO.C,C18*%
X226211252Y-132210000D02*
X223888748Y-132210000D01*
X226211252Y-128790000D02*
X223888748Y-128790000D01*
%TO.C,R26*%
X232990000Y-118060436D02*
X232990000Y-122414564D01*
X236410000Y-118060436D02*
X236410000Y-122414564D01*
%TO.C,R23*%
X203680000Y-113546359D02*
X203680000Y-113853641D01*
X202920000Y-113546359D02*
X202920000Y-113853641D01*
%TO.C,C17*%
X229988748Y-128790000D02*
X232311252Y-128790000D01*
X229988748Y-132210000D02*
X232311252Y-132210000D01*
%TO.C,Q1*%
X229110000Y-97290000D02*
X229110000Y-97030000D01*
X229110000Y-100530000D02*
X229110000Y-100270000D01*
X232290000Y-100530000D02*
X229110000Y-100530000D01*
X232610000Y-97030000D02*
X229110000Y-97030000D01*
X232610000Y-97290000D02*
X232610000Y-97030000D01*
X232610000Y-100750000D02*
X232610000Y-100270000D01*
X233090000Y-100270000D01*
X232610000Y-100750000D01*
G36*
X232610000Y-100750000D02*
G01*
X232610000Y-100270000D01*
X233090000Y-100270000D01*
X232610000Y-100750000D01*
G37*
%TO.C,R11*%
X221056359Y-101380000D02*
X221363641Y-101380000D01*
X221056359Y-100620000D02*
X221363641Y-100620000D01*
%TD*%
M02*
