M48
; DRILL file {KiCad 9.0.2} date 2025-07-01T21:57:18-0500
; FORMAT={-:-/ absolute / metric / decimal}
; #@! TF.CreationDate,2025-07-01T21:57:18-05:00
; #@! TF.GenerationSoftware,Kicad,Pcbnew,9.0.2
; #@! TF.FileFunction,Plated,1,4,PTH
FMAT,2
METRIC
; #@! TA.AperFunction,Plated,PTH,ViaDrill
T1C0.300
; #@! TA.AperFunction,Plated,PTH,ComponentDrill
T2C0.300
; #@! TA.AperFunction,Plated,PTH,ComponentDrill
T3C0.600
; #@! TA.AperFunction,Plated,PTH,ComponentDrill
T4C1.000
; #@! TA.AperFunction,Plated,PTH,ComponentDrill
T5C3.750
%
G90
G05
T1
X194.1Y-93.8
X194.1Y-95.0
X194.2Y-105.9
X194.2Y-107.1
X194.5Y-94.4
X194.55Y-106.5
X194.9Y-93.8
X194.9Y-95.0
X194.95Y-105.9
X194.95Y-107.1
X195.3Y-94.4
X195.35Y-106.5
X195.4Y-121.6
X195.4Y-122.8
X195.7Y-93.8
X195.7Y-95.0
X195.7Y-105.9
X195.7Y-107.1
X195.75Y-122.2
X196.1Y-94.4
X196.1Y-106.5
X196.15Y-121.6
X196.15Y-122.8
X196.5Y-93.8
X196.5Y-95.0
X196.5Y-105.9
X196.5Y-107.1
X196.55Y-122.2
X196.85Y-106.5
X196.9Y-94.4
X196.9Y-121.6
X196.9Y-122.8
X197.25Y-105.9
X197.25Y-107.1
X197.3Y-93.8
X197.3Y-95.0
X197.65Y-106.5
X197.7Y-94.4
X198.0Y-105.9
X198.0Y-107.1
X198.1Y-93.8
X198.1Y-95.0
X198.4Y-106.5
X198.5Y-94.4
X198.8Y-105.9
X198.8Y-107.1
X198.9Y-93.8
X198.9Y-95.0
X199.15Y-106.5
X199.3Y-94.4
X199.55Y-105.9
X199.55Y-107.1
X199.7Y-93.8
X199.7Y-95.0
X199.95Y-106.5
X200.1Y-94.4
X200.3Y-105.9
X200.3Y-107.1
X200.5Y-93.8
X200.5Y-95.0
X200.5Y-126.4
X200.5Y-127.6
X200.5Y-128.3
X200.5Y-129.5
X200.6Y-119.89
X200.6Y-124.69
X200.85Y-127.0
X200.85Y-128.9
X200.9Y-94.4
X201.25Y-126.4
X201.25Y-127.6
X201.25Y-128.3
X201.25Y-129.5
X201.65Y-127.0
X201.65Y-128.9
X202.0Y-126.4
X202.0Y-127.6
X202.0Y-128.3
X202.0Y-129.5
X202.29Y-108.8
X202.5Y-120.4
X203.35Y-125.3
X203.4Y-123.7
X203.4Y-124.4
X204.0Y-97.3
X204.0Y-98.5
X204.0Y-99.2
X204.0Y-100.4
X204.1Y-124.1
X204.35Y-97.9
X204.35Y-99.8
X204.55Y-121.25
X204.587Y-122.087
X204.75Y-97.3
X204.75Y-98.5
X204.75Y-99.2
X204.75Y-100.4
X205.0Y-112.3
X205.15Y-97.9
X205.15Y-99.8
X205.2Y-108.68
X205.5Y-97.3
X205.5Y-98.5
X205.5Y-99.2
X205.7Y-122.5
X205.7Y-123.7
X205.8Y-111.5
X205.8Y-112.2
X205.8Y-112.9
X205.8Y-113.6
X206.05Y-123.1
X206.2Y-128.5
X206.2Y-129.2
X206.2Y-129.9
X206.2Y-130.6
X206.2Y-131.3
X206.45Y-122.5
X206.45Y-123.7
X206.85Y-123.1
X206.9Y-112.4
X206.9Y-128.8
X206.95Y-114.5
X206.95Y-113.7
X207.2Y-122.5
X207.2Y-123.7
X207.4Y-102.2
X207.4Y-103.4
X208.0Y-102.8
X208.0Y-104.0
X208.2Y-101.58
X208.34Y-100.76
X208.38Y-116.6
X208.38Y-117.6
X209.5Y-121.8
X209.6Y-121.0
X209.6Y-128.5
X209.8Y-109.9
X209.8Y-115.3
X210.0Y-123.2
X210.0Y-129.1
X210.35Y-97.3
X210.35Y-106.05
X210.4Y-112.1
X210.4Y-122.6
X210.4Y-128.5
X210.5Y-112.8
X210.8Y-123.2
X211.1Y-112.2
X211.1Y-115.6
X211.1Y-122.1
X211.225Y-96.925
X211.5Y-110.9
X211.5Y-113.8
X211.6Y-96.05
X211.9Y-101.1
X211.9Y-102.3
X211.9Y-115.4
X212.0Y-113.2
X212.25Y-101.7
X212.5Y-112.6
X212.6Y-96.05
X212.65Y-101.1
X212.65Y-102.3
X212.7Y-115.6
X212.8Y-109.8
X212.85Y-126.0
X212.85Y-127.2
X212.85Y-127.9
X212.85Y-129.1
X213.0Y-112.0
X213.05Y-101.7
X213.2Y-126.6
X213.2Y-128.5
X213.3Y-106.4
X213.4Y-101.1
X213.4Y-102.3
X213.4Y-110.4
X213.6Y-126.0
X213.6Y-127.2
X213.6Y-127.9
X213.6Y-129.1
X213.8Y-111.8
X213.85Y-118.3
X214.0Y-109.8
X214.0Y-126.6
X214.0Y-128.5
X214.1Y-106.3
X214.3Y-107.1
X214.35Y-97.3
X214.35Y-126.0
X214.35Y-127.2
X214.35Y-127.9
X214.35Y-129.1
X214.4Y-110.5
X214.9Y-109.8
X215.0Y-106.6
X215.0Y-118.4
X215.0Y-119.6
X215.35Y-119.0
X215.4Y-113.8
X215.7Y-105.6
X215.75Y-118.4
X215.75Y-119.6
X216.15Y-119.0
X216.5Y-118.4
X216.5Y-119.6
X216.7Y-116.8
X216.85Y-96.3
X216.85Y-97.3
X216.85Y-98.3
X216.975Y-99.175
X217.0Y-109.0
X217.35Y-126.3
X217.85Y-100.3
X218.35Y-111.25
X218.35Y-112.8
X218.9Y-128.6
X218.9Y-129.8
X218.9Y-130.5
X218.9Y-131.7
X219.1Y-123.05
X219.25Y-129.2
X219.25Y-131.1
X219.35Y-109.8
X219.65Y-129.8
X219.65Y-130.5
X219.65Y-131.7
X219.7Y-126.7
X219.85Y-98.3
X220.05Y-131.1
X220.4Y-129.8
X220.4Y-130.5
X220.4Y-131.7
X220.6Y-98.05
X220.6Y-124.05
X220.7Y-99.0
X220.7Y-113.1
X220.85Y-110.8
X221.35Y-98.3
X221.41Y-128.6
X221.42Y-127.55
X221.72Y-101.0
X221.8Y-99.0
X221.8Y-111.7
X221.9Y-114.4
X222.0Y-98.0
X222.15Y-116.0
X222.15Y-117.2
X222.2Y-130.8
X222.2Y-131.5
X222.25Y-119.8
X222.25Y-121.0
X222.5Y-116.6
X222.6Y-98.3
X222.6Y-99.05
X222.6Y-120.4
X222.7Y-111.4
X222.7Y-112.6
X222.8Y-107.2
X222.8Y-108.0
X222.85Y-99.8
X222.85Y-102.6
X222.85Y-103.8
X222.9Y-116.0
X222.9Y-117.2
X222.9Y-129.8
X222.9Y-130.5
X222.9Y-131.2
X222.9Y-131.9
X223.0Y-119.8
X223.0Y-121.0
X223.1Y-112.0
X223.2Y-103.2
X223.3Y-116.6
X223.4Y-120.4
X223.5Y-111.4
X223.5Y-112.6
X223.5Y-113.4
X223.5Y-113.4
X223.6Y-108.0
X223.6Y-131.6
X223.65Y-116.0
X223.65Y-117.2
X223.7Y-123.0
X223.7Y-123.8
X223.75Y-119.8
X223.75Y-121.0
X223.85Y-96.3
X223.85Y-97.3
X223.9Y-109.8
X223.9Y-110.6
X228.1Y-91.0
X228.1Y-92.2
X228.1Y-92.9
X228.1Y-94.1
X228.2Y-101.8
X228.2Y-103.0
X228.2Y-103.7
X228.2Y-104.9
X228.2Y-105.6
X228.5Y-91.6
X228.5Y-93.5
X228.6Y-102.4
X228.6Y-104.3
X228.6Y-106.2
X228.6Y-112.0
X228.6Y-113.2
X228.9Y-91.0
X228.9Y-92.2
X228.9Y-92.9
X228.9Y-94.1
X228.9Y-125.0
X228.9Y-126.9
X229.0Y-101.8
X229.0Y-103.0
X229.0Y-103.7
X229.0Y-104.9
X229.0Y-105.6
X229.0Y-106.8
X229.0Y-112.6
X229.0Y-115.2
X229.0Y-116.4
X229.0Y-117.1
X229.0Y-118.3
X229.3Y-91.6
X229.3Y-93.5
X229.3Y-98.4
X229.3Y-99.6
X229.3Y-124.4
X229.3Y-125.6
X229.3Y-126.3
X229.3Y-127.5
X229.4Y-102.4
X229.4Y-104.3
X229.4Y-106.2
X229.4Y-112.0
X229.4Y-113.2
X229.4Y-115.8
X229.4Y-117.7
X229.7Y-91.0
X229.7Y-92.2
X229.7Y-92.9
X229.7Y-94.1
X229.7Y-99.0
X229.7Y-125.0
X229.7Y-126.9
X229.8Y-101.8
X229.8Y-103.0
X229.8Y-103.7
X229.8Y-104.9
X229.8Y-105.6
X229.8Y-106.8
X229.8Y-107.5
X229.8Y-112.6
X229.8Y-115.2
X229.8Y-116.4
X229.8Y-117.1
X229.8Y-118.3
X230.1Y-91.6
X230.1Y-93.5
X230.1Y-98.4
X230.1Y-99.6
X230.1Y-124.4
X230.1Y-125.6
X230.1Y-126.3
X230.1Y-127.5
X230.2Y-102.4
X230.2Y-104.3
X230.2Y-106.2
X230.2Y-108.1
X230.2Y-112.0
X230.2Y-113.2
X230.2Y-115.8
X230.2Y-117.7
X230.5Y-91.0
X230.5Y-92.2
X230.5Y-92.9
X230.5Y-94.1
X230.5Y-99.0
X230.5Y-125.0
X230.5Y-126.9
X230.6Y-101.8
X230.6Y-103.0
X230.6Y-103.7
X230.6Y-104.9
X230.6Y-105.6
X230.6Y-106.8
X230.6Y-107.5
X230.6Y-108.7
X230.6Y-112.6
X230.6Y-115.2
X230.6Y-116.4
X230.6Y-117.1
X230.6Y-118.3
X230.9Y-98.4
X230.9Y-99.6
X230.9Y-124.4
X230.9Y-125.6
X230.9Y-126.3
X230.9Y-127.5
X231.0Y-102.4
X231.0Y-104.3
X231.0Y-106.2
X231.0Y-108.1
X231.0Y-112.0
X231.0Y-113.2
X231.0Y-115.8
X231.0Y-117.7
X231.3Y-99.0
X231.3Y-125.0
X231.3Y-126.9
X231.6Y-95.5
X231.6Y-96.4
X231.6Y-109.9
X231.6Y-110.8
X231.7Y-123.0
X231.7Y-123.9
X231.9Y-89.3
X231.9Y-90.1
X231.9Y-90.9
X231.9Y-91.7
X231.9Y-92.5
X231.9Y-93.3
X231.9Y-94.1
X231.9Y-103.7
X231.9Y-104.5
X231.9Y-105.3
X231.9Y-106.1
X231.9Y-106.9
X231.9Y-107.7
X231.9Y-108.5
X231.9Y-116.8
X231.9Y-117.6
X231.9Y-118.4
X231.9Y-119.2
X231.9Y-120.0
X231.9Y-120.8
X231.9Y-121.6
X232.1Y-101.1
X232.1Y-115.6
X232.3Y-95.1
X232.3Y-109.5
X232.4Y-122.6
X232.6Y-89.7
X232.6Y-90.5
X232.6Y-91.3
X232.6Y-92.1
X232.6Y-92.9
X232.6Y-93.7
X232.6Y-104.1
X232.6Y-104.9
X232.6Y-105.7
X232.6Y-106.5
X232.6Y-107.3
X232.6Y-108.1
X232.6Y-117.2
X232.6Y-118.0
X232.6Y-118.8
X232.6Y-119.6
X232.6Y-120.4
X232.6Y-121.2
X234.7Y-131.7
X234.75Y-130.5
X235.1Y-128.6
X235.1Y-129.9
X235.1Y-131.1
X235.5Y-130.5
X235.5Y-131.7
X235.85Y-131.1
X235.9Y-129.9
X236.25Y-130.5
X236.25Y-131.7
X236.6Y-129.9
X236.65Y-131.1
X237.0Y-130.5
X237.0Y-131.7
X237.1Y-89.3
X237.1Y-90.1
X237.1Y-90.9
X237.1Y-91.7
X237.1Y-92.5
X237.1Y-93.3
X237.1Y-103.7
X237.1Y-104.5
X237.1Y-105.3
X237.1Y-106.1
X237.1Y-106.9
X237.1Y-117.2
X237.1Y-118.0
X237.1Y-118.8
X237.4Y-129.9
X237.4Y-131.1
X237.75Y-130.5
X237.8Y-89.6
X237.8Y-90.4
X237.8Y-91.2
X237.8Y-92.0
X237.8Y-92.8
X237.8Y-93.6
X237.8Y-104.0
X237.8Y-104.8
X237.8Y-105.6
X237.8Y-106.4
X237.8Y-107.2
X237.8Y-116.7
X237.8Y-117.5
X237.8Y-118.3
X237.8Y-119.1
X238.5Y-89.3
X238.5Y-90.1
X238.5Y-90.9
X238.5Y-91.7
X238.5Y-92.5
X238.5Y-93.2
X238.5Y-103.7
X238.5Y-104.5
X238.5Y-105.3
X238.5Y-106.1
X238.5Y-106.9
X238.5Y-117.2
X238.5Y-118.0
X238.5Y-118.8
X239.2Y-89.6
X239.2Y-90.4
X239.2Y-91.2
X239.2Y-92.0
X239.2Y-92.8
X239.2Y-93.6
X239.2Y-104.0
X239.2Y-104.8
X239.2Y-105.6
X239.2Y-106.4
X239.2Y-107.2
X239.2Y-116.7
X239.2Y-117.5
X239.2Y-118.3
X239.2Y-119.1
X239.9Y-103.7
X239.9Y-104.5
X239.9Y-105.3
X239.9Y-106.1
X239.9Y-106.9
X239.9Y-117.2
X239.9Y-118.0
X239.9Y-118.8
X240.6Y-104.0
X240.6Y-104.8
X240.6Y-105.6
X240.6Y-106.4
X240.6Y-107.2
X240.6Y-116.7
X240.6Y-117.5
X240.6Y-118.3
X240.6Y-119.1
X241.3Y-103.7
X241.3Y-104.5
X241.3Y-105.3
X241.3Y-106.1
X241.3Y-106.9
X241.3Y-117.2
X241.3Y-118.0
X241.3Y-118.8
X242.0Y-104.0
X242.0Y-104.8
X242.0Y-105.6
X242.0Y-106.4
X242.0Y-107.2
X242.0Y-116.7
X242.0Y-117.5
X242.0Y-118.3
X242.0Y-119.1
X242.7Y-103.7
X242.7Y-104.5
X242.7Y-105.3
X242.7Y-106.1
X242.7Y-106.9
X242.7Y-117.2
X242.7Y-118.0
X242.7Y-118.8
X243.3Y-93.6
X243.4Y-104.0
X243.4Y-104.8
X243.4Y-105.6
X243.4Y-106.4
X243.4Y-107.2
X243.4Y-116.7
X243.4Y-117.5
X243.4Y-118.3
X243.4Y-119.1
T2
X202.95Y-105.6
X203.7Y-105.6
X204.45Y-105.6
T4
X207.76Y-130.7
X210.3Y-130.7
X212.84Y-130.7
T5
X197.1Y-99.3
X197.1Y-111.3
X240.5Y-99.7
X240.5Y-111.7
X240.5Y-123.7
T3
G00X194.965Y-117.97
M15
G01X194.365Y-117.97
M16
G05
G00X194.965Y-126.61
M15
G01X194.365Y-126.61
M16
G05
G00X199.395Y-117.97
M15
G01X198.295Y-117.97
M16
G05
G00X199.395Y-126.61
M15
G01X198.295Y-126.61
M16
G05
M30
