%TF.GenerationSoftware,KiCad,Pcbnew,9.0.2*%
%TF.CreationDate,2025-07-01T21:57:16-05:00*%
%TF.ProjectId,testing3,74657374-696e-4673-932e-6b696361645f,rev?*%
%TF.SameCoordinates,Original*%
%TF.FileFunction,Copper,L3,Inr*%
%TF.FilePolarity,Positive*%
%FSLAX46Y46*%
G04 Gerber Fmt 4.6, Leading zero omitted, Abs format (unit mm)*
G04 Created by KiCad (PCBNEW 9.0.2) date 2025-07-01 21:57:16*
%MOMM*%
%LPD*%
G01*
G04 APERTURE LIST*
G04 Aperture macros list*
%AMRoundRect*
0 Rectangle with rounded corners*
0 $1 Rounding radius*
0 $2 $3 $4 $5 $6 $7 $8 $9 X,Y pos of 4 corners*
0 Add a 4 corners polygon primitive as box body*
4,1,4,$2,$3,$4,$5,$6,$7,$8,$9,$2,$3,0*
0 Add four circle primitives for the rounded corners*
1,1,$1+$1,$2,$3*
1,1,$1+$1,$4,$5*
1,1,$1+$1,$6,$7*
1,1,$1+$1,$8,$9*
0 Add four rect primitives between the rounded corners*
20,1,$1+$1,$2,$3,$4,$5,0*
20,1,$1+$1,$4,$5,$6,$7,0*
20,1,$1+$1,$6,$7,$8,$9,0*
20,1,$1+$1,$8,$9,$2,$3,0*%
G04 Aperture macros list end*
%TA.AperFunction,ComponentPad*%
%ADD10C,1.700000*%
%TD*%
%TA.AperFunction,ComponentPad*%
%ADD11R,1.700000X1.700000*%
%TD*%
%TA.AperFunction,ComponentPad*%
%ADD12C,6.000000*%
%TD*%
%TA.AperFunction,ComponentPad*%
%ADD13RoundRect,0.250002X-2.749998X2.749998X-2.749998X-2.749998X2.749998X-2.749998X2.749998X2.749998X0*%
%TD*%
%TA.AperFunction,HeatsinkPad*%
%ADD14O,1.600000X1.000000*%
%TD*%
%TA.AperFunction,HeatsinkPad*%
%ADD15O,2.100000X1.000000*%
%TD*%
%TA.AperFunction,HeatsinkPad*%
%ADD16C,0.500000*%
%TD*%
%TA.AperFunction,ViaPad*%
%ADD17C,0.600000*%
%TD*%
%TA.AperFunction,Conductor*%
%ADD18C,0.200000*%
%TD*%
%TA.AperFunction,Conductor*%
%ADD19C,0.500000*%
%TD*%
G04 APERTURE END LIST*
D10*
%TO.N,GND*%
%TO.C,J2*%
X212840000Y-130700000D03*
%TO.N,PWM-In*%
X210300000Y-130700000D03*
D11*
%TO.N,+3V3*%
X207760000Y-130700000D03*
%TD*%
D12*
%TO.N,GND*%
%TO.C,J3*%
X197100000Y-111300000D03*
D13*
%TO.N,Vin*%
X197100000Y-99300000D03*
%TD*%
%TO.N,MOT1*%
%TO.C,J4*%
X240500000Y-99700000D03*
D12*
%TO.N,MOT2*%
X240500000Y-111700000D03*
%TO.N,MOT3*%
X240500000Y-123700000D03*
%TD*%
D14*
%TO.N,GND*%
%TO.C,J1*%
X194665000Y-126610000D03*
D15*
X198845000Y-126610000D03*
D14*
X194665000Y-117970000D03*
D15*
X198845000Y-117970000D03*
%TD*%
D16*
%TO.N,GND*%
%TO.C,U9*%
X202950000Y-105600000D03*
X203700000Y-105600000D03*
X204450000Y-105600000D03*
%TD*%
D17*
%TO.N,MOT1*%
X221720000Y-101000000D03*
%TO.N,Vin*%
X230200000Y-113200000D03*
X228600000Y-113200000D03*
X231000000Y-113200000D03*
X230600000Y-112600000D03*
X228600000Y-112000000D03*
X229400000Y-112000000D03*
X229400000Y-113200000D03*
X231000000Y-112000000D03*
X229800000Y-112600000D03*
X230200000Y-112000000D03*
X229000000Y-112600000D03*
X230100000Y-127500000D03*
X230900000Y-127500000D03*
X230500000Y-126900000D03*
X229300000Y-126300000D03*
X229300000Y-127500000D03*
X230900000Y-126300000D03*
X231300000Y-126900000D03*
X229700000Y-126900000D03*
X230100000Y-126300000D03*
X228900000Y-126900000D03*
X230100000Y-125600000D03*
X230900000Y-125600000D03*
X230500000Y-125000000D03*
X229300000Y-124400000D03*
X229300000Y-125600000D03*
X230900000Y-124400000D03*
X231300000Y-125000000D03*
X229700000Y-125000000D03*
X230100000Y-124400000D03*
X228900000Y-125000000D03*
X228100000Y-92200000D03*
X229700000Y-92200000D03*
X230500000Y-92200000D03*
X229700000Y-91000000D03*
X228900000Y-92200000D03*
X230100000Y-91600000D03*
X228500000Y-91600000D03*
X228900000Y-91000000D03*
X230500000Y-91000000D03*
X229300000Y-91600000D03*
X228100000Y-91000000D03*
X230100000Y-99600000D03*
X230900000Y-99600000D03*
X230500000Y-99000000D03*
X229300000Y-98400000D03*
X229300000Y-99600000D03*
X230900000Y-98400000D03*
X231300000Y-99000000D03*
X229700000Y-99000000D03*
X230100000Y-98400000D03*
X228100000Y-94100000D03*
X229700000Y-94100000D03*
X230500000Y-94100000D03*
X229700000Y-92900000D03*
X228900000Y-94100000D03*
X230100000Y-93500000D03*
X228500000Y-93500000D03*
X228900000Y-92900000D03*
X230500000Y-92900000D03*
X229300000Y-93500000D03*
X228100000Y-92900000D03*
X229800000Y-118300000D03*
X230600000Y-118300000D03*
X229800000Y-117100000D03*
X229000000Y-118300000D03*
X230200000Y-117700000D03*
X229000000Y-117100000D03*
X230600000Y-117100000D03*
X229400000Y-117700000D03*
X231000000Y-117700000D03*
X229800000Y-116400000D03*
X230600000Y-116400000D03*
X229800000Y-115200000D03*
X229000000Y-116400000D03*
X230200000Y-115800000D03*
X229000000Y-115200000D03*
X230600000Y-115200000D03*
X229400000Y-115800000D03*
X231000000Y-115800000D03*
X228200000Y-103000000D03*
X229800000Y-103000000D03*
X230600000Y-103000000D03*
X229800000Y-101800000D03*
X229000000Y-103000000D03*
X230200000Y-102400000D03*
X228600000Y-102400000D03*
X229000000Y-101800000D03*
X230600000Y-101800000D03*
X229400000Y-102400000D03*
X231000000Y-102400000D03*
X228200000Y-101800000D03*
X228200000Y-104900000D03*
X229800000Y-104900000D03*
X230600000Y-104900000D03*
X229800000Y-103700000D03*
X229000000Y-104900000D03*
X230200000Y-104300000D03*
X228600000Y-104300000D03*
X229000000Y-103700000D03*
X230600000Y-103700000D03*
X229400000Y-104300000D03*
X231000000Y-104300000D03*
X228200000Y-103700000D03*
X228200000Y-105600000D03*
X230600000Y-105600000D03*
X229800000Y-106800000D03*
X229400000Y-106200000D03*
X230200000Y-106200000D03*
X231000000Y-106200000D03*
X229000000Y-106800000D03*
X229800000Y-105600000D03*
X229000000Y-105600000D03*
X228600000Y-106200000D03*
X230600000Y-106800000D03*
X230600000Y-107500000D03*
X229800000Y-107500000D03*
X230200000Y-108100000D03*
X231000000Y-108100000D03*
X230600000Y-108700000D03*
X198900000Y-93800000D03*
X200500000Y-93800000D03*
X200100000Y-94400000D03*
X199700000Y-93800000D03*
X200900000Y-94400000D03*
X200500000Y-95000000D03*
X199700000Y-95000000D03*
X198900000Y-95000000D03*
X199300000Y-94400000D03*
X197700000Y-94400000D03*
X196500000Y-95000000D03*
X198500000Y-94400000D03*
X198100000Y-93800000D03*
X198100000Y-95000000D03*
X197300000Y-93800000D03*
X196500000Y-93800000D03*
X197300000Y-95000000D03*
X196900000Y-94400000D03*
X196100000Y-94400000D03*
X195700000Y-93800000D03*
X195700000Y-95000000D03*
X195300000Y-94400000D03*
X194900000Y-93800000D03*
X194100000Y-93800000D03*
X194500000Y-94400000D03*
X194900000Y-95000000D03*
X194100000Y-95000000D03*
%TO.N,MOT1*%
X232100000Y-101100000D03*
X217850000Y-100300000D03*
%TO.N,Net-(Q1-G)*%
X231600000Y-96400000D03*
X223850000Y-97300000D03*
%TO.N,GND*%
X231900000Y-93300000D03*
X205800000Y-112900000D03*
X238500000Y-118000000D03*
X237800000Y-106400000D03*
X212850000Y-127200000D03*
X202000000Y-126400000D03*
X219650000Y-129800000D03*
X195750000Y-122200000D03*
X240600000Y-107200000D03*
X239200000Y-93600000D03*
X232600000Y-91300000D03*
X237100000Y-117200000D03*
X237100000Y-90900000D03*
X198800000Y-107100000D03*
X237000000Y-131700000D03*
X238500000Y-90900000D03*
X205800000Y-112200000D03*
X206850000Y-123100000D03*
X214000000Y-126600000D03*
X234700000Y-131700000D03*
X214350000Y-127900000D03*
X218900000Y-128600000D03*
X197250000Y-105900000D03*
X219250000Y-129200000D03*
X205150000Y-97900000D03*
X238500000Y-106100000D03*
X200500000Y-128300000D03*
X204000000Y-97300000D03*
X243400000Y-106400000D03*
X237800000Y-117500000D03*
X232600000Y-107300000D03*
X213600000Y-127900000D03*
X239900000Y-104500000D03*
X231900000Y-120800000D03*
X240600000Y-105600000D03*
X210000000Y-123200000D03*
X222800000Y-107200000D03*
X242000000Y-107200000D03*
X213800000Y-111800000D03*
X239200000Y-105600000D03*
X239900000Y-103700000D03*
X214000000Y-128500000D03*
X222200000Y-130800000D03*
X237100000Y-92500000D03*
X238500000Y-104500000D03*
X239900000Y-105300000D03*
X239900000Y-117200000D03*
X204750000Y-100400000D03*
X239200000Y-118300000D03*
X243400000Y-119100000D03*
X206200000Y-129900000D03*
X200300000Y-105900000D03*
X199950000Y-106500000D03*
X239900000Y-118800000D03*
X202000000Y-128300000D03*
X195350000Y-106500000D03*
X213400000Y-101100000D03*
X242700000Y-104500000D03*
X232600000Y-105700000D03*
X204100000Y-124100000D03*
X194550000Y-106500000D03*
X243400000Y-104800000D03*
X237100000Y-91700000D03*
X223300000Y-116600000D03*
X236250000Y-131700000D03*
X208380000Y-116600000D03*
X231900000Y-119200000D03*
X222250000Y-119800000D03*
X232600000Y-92900000D03*
X199150000Y-106500000D03*
X204350000Y-99800000D03*
X232600000Y-104900000D03*
X222900000Y-130500000D03*
X210500000Y-112800000D03*
X242700000Y-106100000D03*
X205500000Y-99200000D03*
X239200000Y-90400000D03*
X222700000Y-111400000D03*
X205150000Y-99800000D03*
X204750000Y-99200000D03*
X239900000Y-106100000D03*
X236250000Y-130500000D03*
X240600000Y-104800000D03*
X220600000Y-98050000D03*
X231900000Y-105300000D03*
X212000000Y-113200000D03*
X202000000Y-129500000D03*
X237800000Y-105600000D03*
X242000000Y-117500000D03*
X241300000Y-104500000D03*
X201250000Y-128300000D03*
X210000000Y-129100000D03*
X242000000Y-116700000D03*
X222600000Y-99050000D03*
X196850000Y-106500000D03*
X196500000Y-107100000D03*
X243400000Y-107200000D03*
X196100000Y-106500000D03*
X241300000Y-106900000D03*
X194950000Y-107100000D03*
X220400000Y-131700000D03*
X237100000Y-93300000D03*
X205200000Y-108680000D03*
X237800000Y-107200000D03*
X238500000Y-93200000D03*
X231900000Y-89300000D03*
X195700000Y-107100000D03*
X197250000Y-107100000D03*
X200500000Y-127600000D03*
X239900000Y-106900000D03*
X237800000Y-92800000D03*
X201650000Y-127000000D03*
X222900000Y-116000000D03*
X222850000Y-99800000D03*
X218900000Y-130500000D03*
X239200000Y-104000000D03*
X243400000Y-116700000D03*
X214350000Y-127200000D03*
X220400000Y-130500000D03*
X205000000Y-112300000D03*
X204350000Y-97900000D03*
X239900000Y-118000000D03*
X205700000Y-122500000D03*
X215750000Y-118400000D03*
X231900000Y-91700000D03*
X239200000Y-89600000D03*
X240600000Y-118300000D03*
X218900000Y-131700000D03*
X223200000Y-103200000D03*
X237750000Y-130500000D03*
X237800000Y-116700000D03*
X243300000Y-93600000D03*
X213400000Y-102300000D03*
X213200000Y-128500000D03*
X242000000Y-119100000D03*
X231900000Y-117600000D03*
X211100000Y-112200000D03*
X209600000Y-128500000D03*
X222900000Y-131900000D03*
X219650000Y-130500000D03*
X216500000Y-119600000D03*
X234750000Y-130500000D03*
X211900000Y-101100000D03*
X238500000Y-117200000D03*
X201250000Y-127600000D03*
X232600000Y-119600000D03*
X195400000Y-122800000D03*
X239200000Y-104800000D03*
X196150000Y-122800000D03*
X213600000Y-126000000D03*
X222600000Y-120400000D03*
X215350000Y-119000000D03*
X237800000Y-92000000D03*
X238500000Y-90100000D03*
X222150000Y-116000000D03*
X232600000Y-120400000D03*
X236650000Y-131100000D03*
X201250000Y-126400000D03*
X211100000Y-122100000D03*
X232600000Y-106500000D03*
X205800000Y-113600000D03*
X237100000Y-90100000D03*
X223400000Y-120400000D03*
X232600000Y-118000000D03*
X214350000Y-129100000D03*
X241300000Y-118800000D03*
X212850000Y-129100000D03*
X216700000Y-116800000D03*
X231900000Y-90100000D03*
X231900000Y-121600000D03*
X222200000Y-131500000D03*
X237100000Y-106900000D03*
X220400000Y-129800000D03*
X221800000Y-99000000D03*
X210800000Y-123200000D03*
X237100000Y-106100000D03*
X219850000Y-98300000D03*
X243400000Y-117500000D03*
X223650000Y-116000000D03*
X237100000Y-118800000D03*
X212650000Y-101100000D03*
X206450000Y-122500000D03*
X213600000Y-129100000D03*
X209600000Y-121000000D03*
X223650000Y-117200000D03*
X194950000Y-105900000D03*
X206450000Y-123700000D03*
X242700000Y-106900000D03*
X210400000Y-128500000D03*
X237800000Y-91200000D03*
X238500000Y-106900000D03*
X235500000Y-130500000D03*
X206200000Y-128500000D03*
X237100000Y-118000000D03*
X237800000Y-90400000D03*
X241300000Y-105300000D03*
X200850000Y-128900000D03*
X241300000Y-117200000D03*
X206200000Y-130600000D03*
X204000000Y-100400000D03*
X198000000Y-107100000D03*
X219650000Y-131700000D03*
X197650000Y-106500000D03*
X239200000Y-107200000D03*
X202500000Y-120400000D03*
X232600000Y-93700000D03*
X202000000Y-127600000D03*
X232600000Y-90500000D03*
X240600000Y-106400000D03*
X212500000Y-112600000D03*
X243400000Y-104000000D03*
X237800000Y-89600000D03*
X237100000Y-89300000D03*
X211900000Y-102300000D03*
X194200000Y-105900000D03*
X236600000Y-129900000D03*
X237400000Y-131100000D03*
X222900000Y-131200000D03*
X232600000Y-118800000D03*
X209500000Y-121800000D03*
X237400000Y-129900000D03*
X231900000Y-120000000D03*
X215750000Y-119600000D03*
X231900000Y-94100000D03*
X231900000Y-103700000D03*
X205700000Y-123700000D03*
X239200000Y-116700000D03*
X219250000Y-131100000D03*
X242700000Y-117200000D03*
X204750000Y-98500000D03*
X204000000Y-98500000D03*
X200500000Y-129500000D03*
X231900000Y-106900000D03*
X231900000Y-104500000D03*
X222900000Y-117200000D03*
X198400000Y-106500000D03*
X222000000Y-98000000D03*
X222800000Y-108000000D03*
X203400000Y-123700000D03*
X218900000Y-129800000D03*
X242700000Y-105300000D03*
X208380000Y-117600000D03*
X235100000Y-129900000D03*
X199550000Y-105900000D03*
X237800000Y-93600000D03*
X223500000Y-113400000D03*
X214350000Y-126000000D03*
X204750000Y-97300000D03*
X207200000Y-123700000D03*
X232600000Y-121200000D03*
X205500000Y-97300000D03*
X220050000Y-131100000D03*
X242000000Y-118300000D03*
X222900000Y-129800000D03*
X239200000Y-92800000D03*
X208340000Y-100760000D03*
X235900000Y-129900000D03*
X240600000Y-119100000D03*
X237100000Y-104500000D03*
X222700000Y-112600000D03*
X223000000Y-119800000D03*
X232600000Y-92100000D03*
X231900000Y-116800000D03*
X206050000Y-123100000D03*
X240600000Y-116700000D03*
X223500000Y-113400000D03*
X242000000Y-105600000D03*
X202290000Y-108800000D03*
X231900000Y-92500000D03*
X239200000Y-92000000D03*
X232600000Y-108100000D03*
X242700000Y-118000000D03*
X221350000Y-98300000D03*
X238500000Y-92500000D03*
X196550000Y-122200000D03*
X242000000Y-104000000D03*
X237800000Y-104000000D03*
X210400000Y-122600000D03*
X231900000Y-107700000D03*
X240600000Y-117500000D03*
X242700000Y-103700000D03*
X196900000Y-122800000D03*
X237100000Y-103700000D03*
X200500000Y-126400000D03*
X243400000Y-105600000D03*
X238500000Y-118800000D03*
X198000000Y-105900000D03*
X237800000Y-104800000D03*
X240600000Y-104000000D03*
X232600000Y-117200000D03*
X242700000Y-118800000D03*
X203400000Y-124400000D03*
X212650000Y-102300000D03*
X241300000Y-118000000D03*
X231900000Y-118400000D03*
X238500000Y-103700000D03*
X223500000Y-112600000D03*
X231900000Y-90900000D03*
X237000000Y-130500000D03*
X200850000Y-127000000D03*
X194200000Y-107100000D03*
X210400000Y-112100000D03*
X213000000Y-112000000D03*
X200300000Y-107100000D03*
X201250000Y-129500000D03*
X201650000Y-128900000D03*
X213200000Y-126600000D03*
X239200000Y-117500000D03*
X223600000Y-131600000D03*
X199550000Y-107100000D03*
X195700000Y-105900000D03*
X239200000Y-119100000D03*
X205500000Y-98500000D03*
X241300000Y-103700000D03*
X222500000Y-116600000D03*
X196900000Y-121600000D03*
X222150000Y-117200000D03*
X223100000Y-112000000D03*
X237800000Y-118300000D03*
X237100000Y-105300000D03*
X198800000Y-105900000D03*
X216500000Y-118400000D03*
X213050000Y-101700000D03*
X222250000Y-121000000D03*
X212850000Y-126000000D03*
X223750000Y-121000000D03*
X222600000Y-98300000D03*
X231900000Y-108500000D03*
X206900000Y-128800000D03*
X213600000Y-127200000D03*
X242000000Y-106400000D03*
X232600000Y-89700000D03*
X222850000Y-102600000D03*
X235100000Y-131100000D03*
X207200000Y-122500000D03*
X204000000Y-99200000D03*
X223500000Y-111400000D03*
X232600000Y-104100000D03*
X196500000Y-105900000D03*
X215000000Y-119600000D03*
X206200000Y-129200000D03*
X223000000Y-121000000D03*
X231900000Y-106100000D03*
X235500000Y-131700000D03*
X206200000Y-131300000D03*
X223600000Y-108000000D03*
X216150000Y-119000000D03*
X212850000Y-127900000D03*
X238500000Y-89300000D03*
X238500000Y-105300000D03*
X212250000Y-101700000D03*
X196150000Y-121600000D03*
X239200000Y-91200000D03*
X211500000Y-113800000D03*
X205800000Y-111500000D03*
X235850000Y-131100000D03*
X238500000Y-91700000D03*
X222850000Y-103800000D03*
X241300000Y-106100000D03*
X239200000Y-106400000D03*
X242000000Y-104800000D03*
X215000000Y-118400000D03*
X195400000Y-121600000D03*
X223750000Y-119800000D03*
X243400000Y-118300000D03*
X237800000Y-119100000D03*
%TO.N,Net-(Q3-G)*%
X223850000Y-96300000D03*
X231600000Y-95500000D03*
%TO.N,Net-(D2-A)*%
X200600000Y-119890000D03*
X200600000Y-124690000D03*
%TO.N,SD2*%
X213300000Y-106400000D03*
X213400000Y-110400000D03*
%TO.N,In1*%
X211100000Y-115600000D03*
X214300000Y-107100000D03*
%TO.N,In2*%
X214100000Y-106300000D03*
X211900000Y-115400000D03*
%TO.N,In3*%
X212700000Y-115600000D03*
X215700000Y-105600000D03*
%TO.N,SD3*%
X215000000Y-106600000D03*
X212800000Y-109800000D03*
%TO.N,D-*%
X206950000Y-113700000D03*
X204550000Y-121250000D03*
%TO.N,D+*%
X206949943Y-114500000D03*
X204586912Y-122086912D03*
%TO.N,MOT2*%
X216850000Y-97300000D03*
X232100000Y-115600000D03*
X221900000Y-114400000D03*
%TO.N,Net-(Q2-G)*%
X231600000Y-110800000D03*
X223900000Y-110600000D03*
%TO.N,Net-(Q4-G)*%
X223900000Y-109800000D03*
X231600000Y-109900000D03*
%TO.N,MOT3*%
X221410000Y-128600000D03*
X235100000Y-128600000D03*
X211600000Y-96050000D03*
%TO.N,Net-(Q5-G)*%
X223700000Y-123800000D03*
X231700000Y-123900000D03*
%TO.N,Net-(Q6-G)*%
X223700000Y-123000000D03*
X231700000Y-123000000D03*
%TO.N,V3*%
X219700000Y-126700000D03*
X215400000Y-113800000D03*
%TO.N,V1*%
X221800000Y-111700000D03*
X220700000Y-99000000D03*
%TO.N,V2*%
X217000000Y-109000000D03*
X220700000Y-113100000D03*
%TO.N,VNAT*%
X218350000Y-111250000D03*
X221420000Y-127550000D03*
%TO.N,SPA*%
X232300000Y-95100000D03*
X216975000Y-99175000D03*
%TO.N,SPB*%
X214350000Y-97300000D03*
X232300000Y-109500000D03*
%TO.N,SPC*%
X210350000Y-97300000D03*
X232400000Y-122600000D03*
%TO.N,GHB*%
X220850000Y-110800000D03*
X216850000Y-96300000D03*
%TO.N,GLB*%
X219350000Y-109800000D03*
X216850000Y-98300000D03*
%TO.N,GLC*%
X219100000Y-123050000D03*
X211225000Y-96925000D03*
%TO.N,GHC*%
X212600000Y-96050000D03*
X220600000Y-124050000D03*
%TO.N,+3V3*%
X209800000Y-109900000D03*
X211500000Y-110900000D03*
X208200000Y-101580000D03*
X209800000Y-115300000D03*
%TO.N,NSCS*%
X208000000Y-104000000D03*
X206900000Y-112400000D03*
%TO.N,SCLK*%
X214400000Y-110500000D03*
X207400000Y-103400000D03*
%TO.N,SDI*%
X214000000Y-109800000D03*
X208000000Y-102800000D03*
%TO.N,SDO*%
X210350000Y-106050000D03*
X207400000Y-102200000D03*
X214900000Y-109800000D03*
%TO.N,RST*%
X218350000Y-112800000D03*
X217350000Y-126300000D03*
%TO.N,BOOT*%
X213850000Y-118300000D03*
X203350000Y-125300000D03*
%TD*%
D18*
%TO.N,MOT3*%
X223700000Y-128600000D02*
X221410000Y-128600000D01*
%TO.N,SPA*%
X232099000Y-94899000D02*
X221251000Y-94899000D01*
X232300000Y-95100000D02*
X232099000Y-94899000D01*
%TO.N,Net-(Q1-G)*%
X228950000Y-96400000D02*
X228050000Y-97300000D01*
X231600000Y-96400000D02*
X228950000Y-96400000D01*
X228050000Y-97300000D02*
X223850000Y-97300000D01*
%TO.N,Net-(Q3-G)*%
X231600000Y-95500000D02*
X228850000Y-95500000D01*
%TO.N,MOT1*%
X219050000Y-101000000D02*
X218350000Y-100300000D01*
X221720000Y-101000000D02*
X219050000Y-101000000D01*
X218350000Y-100300000D02*
X217850000Y-100300000D01*
X231500000Y-101000000D02*
X221720000Y-101000000D01*
X231600000Y-101100000D02*
X231500000Y-101000000D01*
X232100000Y-101100000D02*
X231600000Y-101100000D01*
%TO.N,SPB*%
X231349057Y-109301000D02*
X225801000Y-109301000D01*
X232099000Y-109299000D02*
X231351057Y-109299000D01*
X225801000Y-109301000D02*
X214350000Y-97850000D01*
X214350000Y-97850000D02*
X214350000Y-97300000D01*
X232300000Y-109500000D02*
X232099000Y-109299000D01*
X231351057Y-109299000D02*
X231349057Y-109301000D01*
%TO.N,Net-(Q2-G)*%
X231400000Y-110600000D02*
X231600000Y-110800000D01*
X223900000Y-110600000D02*
X231400000Y-110600000D01*
%TO.N,Net-(Q4-G)*%
X224000000Y-109900000D02*
X223900000Y-109800000D01*
X231600000Y-109900000D02*
X224000000Y-109900000D01*
%TO.N,MOT2*%
X230900000Y-114400000D02*
X221900000Y-114400000D01*
%TO.N,Net-(Q6-G)*%
X231700000Y-123000000D02*
X223700000Y-123000000D01*
%TO.N,Net-(Q5-G)*%
X231600000Y-123800000D02*
X231700000Y-123900000D01*
X223700000Y-123800000D02*
X231600000Y-123800000D01*
%TO.N,MOT3*%
X235100000Y-128600000D02*
X223700000Y-128600000D01*
%TO.N,MOT2*%
X232100000Y-115600000D02*
X230900000Y-114400000D01*
%TO.N,Net-(Q3-G)*%
X228850000Y-95500000D02*
X228050000Y-96300000D01*
X228050000Y-96300000D02*
X223850000Y-96300000D01*
%TO.N,SPA*%
X221251000Y-94899000D02*
X216975000Y-99175000D01*
D19*
%TO.N,Net-(D2-A)*%
X200600000Y-119890000D02*
X200600000Y-124690000D01*
D18*
%TO.N,In1*%
X215501000Y-108301000D02*
X215501000Y-111199000D01*
X211100000Y-115350057D02*
X211100000Y-115600000D01*
X215501000Y-111199000D02*
X215251057Y-111199000D01*
X215251057Y-111199000D02*
X211100000Y-115350057D01*
X214300000Y-107100000D02*
X215501000Y-108301000D01*
%TO.N,In2*%
X214100000Y-106300000D02*
X214401000Y-105999000D01*
X215902000Y-106652057D02*
X215902000Y-111398000D01*
X215248943Y-105999000D02*
X215902000Y-106652057D01*
X214401000Y-105999000D02*
X215248943Y-105999000D01*
X215902000Y-111398000D02*
X211900000Y-115400000D01*
%TO.N,D-*%
X204550000Y-116050000D02*
X206900000Y-113700000D01*
X206900000Y-113700000D02*
X206950000Y-113700000D01*
X204550000Y-121250000D02*
X204550000Y-116050000D01*
%TO.N,D+*%
X205151000Y-121522824D02*
X205151000Y-116316100D01*
X206483550Y-114983550D02*
X206958522Y-114508578D01*
X205151000Y-116316100D02*
X206483550Y-114983550D01*
X204586912Y-122086912D02*
X205151000Y-121522824D01*
X206483550Y-114983550D02*
X206667100Y-114800000D01*
%TO.N,MOT3*%
X223700000Y-128600000D02*
X219701000Y-124601000D01*
X219501000Y-122601057D02*
X219501000Y-110953000D01*
X219701000Y-122801057D02*
X219501000Y-122601057D01*
X219701000Y-124601000D02*
X219701000Y-122801057D01*
X211600000Y-96450057D02*
X211600000Y-96050000D01*
X219501000Y-110953000D02*
X218749000Y-110201000D01*
X218749000Y-103599057D02*
X211600000Y-96450057D01*
X218749000Y-110201000D02*
X218749000Y-103599057D01*
%TO.N,Net-(Q5-G)*%
X231600000Y-124000000D02*
X231700000Y-123900000D01*
%TO.N,V3*%
X218499000Y-113999000D02*
X218499000Y-125499000D01*
X218300000Y-113800000D02*
X218499000Y-113999000D01*
X218499000Y-125499000D02*
X219700000Y-126700000D01*
X215400000Y-113800000D02*
X218300000Y-113800000D01*
%TO.N,SPA*%
X216975000Y-99175000D02*
X216850000Y-99300000D01*
%TO.N,GLC*%
X219100000Y-111119100D02*
X219100000Y-123050000D01*
X218348000Y-110367100D02*
X219100000Y-111119100D01*
X211225000Y-96925000D02*
X218348000Y-104048000D01*
X218348000Y-104048000D02*
X218348000Y-110367100D01*
%TO.N,GHC*%
X219902000Y-122434957D02*
X219902000Y-113400000D01*
X220600000Y-123132957D02*
X219902000Y-122434957D01*
X220600000Y-124050000D02*
X220600000Y-123132957D01*
X219951000Y-104151000D02*
X219150000Y-103350000D01*
X212600000Y-96050000D02*
X212600000Y-96800000D01*
X212600000Y-96800000D02*
X219150000Y-103350000D01*
X219951000Y-113351000D02*
X219951000Y-104151000D01*
X219902000Y-113400000D02*
X219951000Y-113351000D01*
%TO.N,+3V3*%
X211400000Y-110500000D02*
X211500000Y-110600000D01*
X211500000Y-110600000D02*
X211500000Y-110700000D01*
X210800000Y-109900000D02*
X211400000Y-110500000D01*
X211500000Y-110700000D02*
X211500000Y-110900000D01*
X209800000Y-109900000D02*
X210800000Y-109900000D01*
X209800000Y-115300000D02*
X209800000Y-109900000D01*
%TO.N,NSCS*%
X206900000Y-105100000D02*
X206900000Y-112400000D01*
X208000000Y-104000000D02*
X206900000Y-105100000D01*
%TO.N,SDI*%
X208000000Y-102800000D02*
X214000000Y-108800000D01*
X214000000Y-108800000D02*
X214000000Y-109800000D01*
%TO.N,SDO*%
X214900000Y-109800000D02*
X214900000Y-109900000D01*
X208249943Y-102200000D02*
X214900000Y-108850057D01*
X207400000Y-102200000D02*
X208249943Y-102200000D01*
X214900000Y-108850057D02*
X214900000Y-109800000D01*
%TD*%
%TA.AperFunction,Conductor*%
%TO.N,GND*%
G36*
X212435736Y-110515572D02*
G01*
X212564135Y-110568756D01*
X212618538Y-110612595D01*
X212631243Y-110635864D01*
X212690602Y-110779172D01*
X212690609Y-110779185D01*
X212778210Y-110910288D01*
X212778213Y-110910292D01*
X212889707Y-111021786D01*
X212889711Y-111021789D01*
X213020814Y-111109390D01*
X213020827Y-111109397D01*
X213166498Y-111169735D01*
X213166503Y-111169737D01*
X213321153Y-111200499D01*
X213321156Y-111200500D01*
X213321158Y-111200500D01*
X213478844Y-111200500D01*
X213478845Y-111200499D01*
X213633497Y-111169737D01*
X213774727Y-111111237D01*
X213844196Y-111103769D01*
X213891070Y-111122697D01*
X214020814Y-111209390D01*
X214020821Y-111209394D01*
X214111427Y-111246924D01*
X214165829Y-111290763D01*
X214187895Y-111357057D01*
X214170617Y-111424756D01*
X214151655Y-111449165D01*
X212440943Y-113159878D01*
X210731286Y-114869535D01*
X210731284Y-114869537D01*
X210703206Y-114897614D01*
X210697492Y-114903328D01*
X210678706Y-114918745D01*
X210663799Y-114928706D01*
X210597122Y-114949585D01*
X210529741Y-114931102D01*
X210491804Y-114894496D01*
X210421789Y-114789711D01*
X210421397Y-114789124D01*
X210400520Y-114722447D01*
X210400500Y-114720234D01*
X210400500Y-110649097D01*
X210420185Y-110582058D01*
X210472989Y-110536303D01*
X210542147Y-110526359D01*
X210605703Y-110555384D01*
X210612181Y-110561416D01*
X210681239Y-110630474D01*
X210714724Y-110691797D01*
X210715176Y-110742345D01*
X210699500Y-110821159D01*
X210699500Y-110978846D01*
X210730261Y-111133489D01*
X210730264Y-111133501D01*
X210790602Y-111279172D01*
X210790609Y-111279185D01*
X210878210Y-111410288D01*
X210878213Y-111410292D01*
X210989707Y-111521786D01*
X210989711Y-111521789D01*
X211120814Y-111609390D01*
X211120827Y-111609397D01*
X211257027Y-111665812D01*
X211266503Y-111669737D01*
X211390019Y-111694306D01*
X211421153Y-111700499D01*
X211421156Y-111700500D01*
X211421158Y-111700500D01*
X211578844Y-111700500D01*
X211578845Y-111700499D01*
X211733497Y-111669737D01*
X211851592Y-111620821D01*
X211879172Y-111609397D01*
X211879172Y-111609396D01*
X211879179Y-111609394D01*
X212010289Y-111521789D01*
X212121789Y-111410289D01*
X212209394Y-111279179D01*
X212269737Y-111133497D01*
X212300500Y-110978842D01*
X212300500Y-110821158D01*
X212300500Y-110821155D01*
X212300499Y-110821153D01*
X212269737Y-110666503D01*
X212269624Y-110666129D01*
X212269622Y-110665923D01*
X212268549Y-110660528D01*
X212269572Y-110660324D01*
X212269000Y-110596262D01*
X212306248Y-110537149D01*
X212369542Y-110507558D01*
X212435736Y-110515572D01*
G37*
%TD.AperFunction*%
%TA.AperFunction,Conductor*%
G36*
X220756703Y-105106384D02*
G01*
X220763181Y-105112416D01*
X224738583Y-109087819D01*
X224749195Y-109107255D01*
X224763696Y-109123989D01*
X224765612Y-109137320D01*
X224772068Y-109149142D01*
X224770488Y-109171228D01*
X224773640Y-109193147D01*
X224768044Y-109205398D01*
X224767084Y-109218834D01*
X224753813Y-109236560D01*
X224744615Y-109256703D01*
X224733283Y-109263985D01*
X224725212Y-109274767D01*
X224704466Y-109282504D01*
X224685837Y-109294477D01*
X224663918Y-109297628D01*
X224659748Y-109299184D01*
X224650902Y-109299500D01*
X224582940Y-109299500D01*
X224515901Y-109279815D01*
X224495263Y-109263185D01*
X224410289Y-109178211D01*
X224410288Y-109178210D01*
X224410287Y-109178209D01*
X224279185Y-109090609D01*
X224279172Y-109090602D01*
X224133501Y-109030264D01*
X224133489Y-109030261D01*
X223978845Y-108999500D01*
X223978842Y-108999500D01*
X223821158Y-108999500D01*
X223821155Y-108999500D01*
X223666510Y-109030261D01*
X223666498Y-109030264D01*
X223520827Y-109090602D01*
X223520814Y-109090609D01*
X223389711Y-109178210D01*
X223389707Y-109178213D01*
X223278213Y-109289707D01*
X223278210Y-109289711D01*
X223190609Y-109420814D01*
X223190602Y-109420827D01*
X223130264Y-109566498D01*
X223130261Y-109566510D01*
X223099500Y-109721153D01*
X223099500Y-109878846D01*
X223130261Y-110033489D01*
X223130264Y-110033501D01*
X223179574Y-110152548D01*
X223187043Y-110222018D01*
X223179574Y-110247452D01*
X223130264Y-110366498D01*
X223130261Y-110366510D01*
X223099500Y-110521153D01*
X223099500Y-110678846D01*
X223130261Y-110833489D01*
X223130264Y-110833501D01*
X223190602Y-110979172D01*
X223190609Y-110979185D01*
X223278210Y-111110288D01*
X223278213Y-111110292D01*
X223389707Y-111221786D01*
X223389711Y-111221789D01*
X223520814Y-111309390D01*
X223520827Y-111309397D01*
X223666498Y-111369735D01*
X223666503Y-111369737D01*
X223821153Y-111400499D01*
X223821156Y-111400500D01*
X223821158Y-111400500D01*
X223978844Y-111400500D01*
X223978845Y-111400499D01*
X224133497Y-111369737D01*
X224251592Y-111320821D01*
X224279172Y-111309397D01*
X224279172Y-111309396D01*
X224279179Y-111309394D01*
X224279185Y-111309390D01*
X224410875Y-111221398D01*
X224477553Y-111200520D01*
X224479766Y-111200500D01*
X227968059Y-111200500D01*
X228035098Y-111220185D01*
X228080853Y-111272989D01*
X228090797Y-111342147D01*
X228061772Y-111405703D01*
X228055740Y-111412181D01*
X227978213Y-111489707D01*
X227978210Y-111489711D01*
X227890609Y-111620814D01*
X227890602Y-111620827D01*
X227830264Y-111766498D01*
X227830261Y-111766510D01*
X227799500Y-111921153D01*
X227799500Y-112078846D01*
X227830261Y-112233489D01*
X227830264Y-112233501D01*
X227890602Y-112379172D01*
X227890609Y-112379185D01*
X227978210Y-112510288D01*
X227978213Y-112510292D01*
X227980240Y-112512319D01*
X227980962Y-112513642D01*
X227982076Y-112514999D01*
X227981818Y-112515210D01*
X228013725Y-112573642D01*
X228008741Y-112643334D01*
X227982001Y-112684939D01*
X227982076Y-112685001D01*
X227981552Y-112685639D01*
X227980240Y-112687681D01*
X227978213Y-112689707D01*
X227978210Y-112689711D01*
X227890609Y-112820814D01*
X227890602Y-112820827D01*
X227830264Y-112966498D01*
X227830261Y-112966510D01*
X227799500Y-113121153D01*
X227799500Y-113278846D01*
X227830261Y-113433489D01*
X227830264Y-113433501D01*
X227890602Y-113579172D01*
X227890610Y-113579187D01*
X227908933Y-113606608D01*
X227929812Y-113673285D01*
X227911328Y-113740666D01*
X227859350Y-113787356D01*
X227805832Y-113799500D01*
X222479766Y-113799500D01*
X222412727Y-113779815D01*
X222410875Y-113778602D01*
X222279185Y-113690609D01*
X222279172Y-113690602D01*
X222133501Y-113630264D01*
X222133489Y-113630261D01*
X221978845Y-113599500D01*
X221978842Y-113599500D01*
X221821158Y-113599500D01*
X221821155Y-113599500D01*
X221666510Y-113630261D01*
X221666503Y-113630263D01*
X221549075Y-113678902D01*
X221479606Y-113686370D01*
X221417127Y-113655094D01*
X221381475Y-113595005D01*
X221383970Y-113525180D01*
X221398525Y-113495445D01*
X221409390Y-113479185D01*
X221409390Y-113479184D01*
X221409394Y-113479179D01*
X221414643Y-113466508D01*
X221469735Y-113333501D01*
X221469737Y-113333497D01*
X221500500Y-113178842D01*
X221500500Y-113021158D01*
X221500500Y-113021155D01*
X221500499Y-113021153D01*
X221478447Y-112910291D01*
X221469737Y-112866503D01*
X221439829Y-112794297D01*
X221409397Y-112720827D01*
X221409395Y-112720823D01*
X221409394Y-112720821D01*
X221344401Y-112623553D01*
X221323524Y-112556877D01*
X221342008Y-112489497D01*
X221393987Y-112442806D01*
X221462957Y-112431630D01*
X221494956Y-112440102D01*
X221566498Y-112469735D01*
X221566503Y-112469737D01*
X221665843Y-112489497D01*
X221721153Y-112500499D01*
X221721156Y-112500500D01*
X221721158Y-112500500D01*
X221878844Y-112500500D01*
X221878845Y-112500499D01*
X222033497Y-112469737D01*
X222151592Y-112420821D01*
X222179172Y-112409397D01*
X222179172Y-112409396D01*
X222179179Y-112409394D01*
X222310289Y-112321789D01*
X222421789Y-112210289D01*
X222509394Y-112079179D01*
X222569737Y-111933497D01*
X222600500Y-111778842D01*
X222600500Y-111621158D01*
X222600500Y-111621155D01*
X222600499Y-111621153D01*
X222594917Y-111593090D01*
X222569737Y-111466503D01*
X222569735Y-111466498D01*
X222509397Y-111320827D01*
X222509390Y-111320814D01*
X222421789Y-111189711D01*
X222421786Y-111189707D01*
X222310292Y-111078213D01*
X222310288Y-111078210D01*
X222179185Y-110990609D01*
X222179172Y-110990602D01*
X222033501Y-110930264D01*
X222033489Y-110930261D01*
X221878845Y-110899500D01*
X221878842Y-110899500D01*
X221774500Y-110899500D01*
X221707461Y-110879815D01*
X221661706Y-110827011D01*
X221650500Y-110775500D01*
X221650500Y-110721155D01*
X221650499Y-110721153D01*
X221644660Y-110691797D01*
X221619737Y-110566503D01*
X221596082Y-110509394D01*
X221559397Y-110420827D01*
X221559390Y-110420814D01*
X221471789Y-110289711D01*
X221471786Y-110289707D01*
X221360292Y-110178213D01*
X221360288Y-110178210D01*
X221229185Y-110090609D01*
X221229172Y-110090602D01*
X221083501Y-110030264D01*
X221083489Y-110030261D01*
X220928845Y-109999500D01*
X220928842Y-109999500D01*
X220771158Y-109999500D01*
X220771155Y-109999500D01*
X220699691Y-110013715D01*
X220630100Y-110007488D01*
X220574922Y-109964625D01*
X220551678Y-109898735D01*
X220551500Y-109892098D01*
X220551500Y-105200097D01*
X220571185Y-105133058D01*
X220623989Y-105087303D01*
X220693147Y-105077359D01*
X220756703Y-105106384D01*
G37*
%TD.AperFunction*%
%TA.AperFunction,Conductor*%
G36*
X221207273Y-101620185D02*
G01*
X221209125Y-101621398D01*
X221340814Y-101709390D01*
X221340827Y-101709397D01*
X221486498Y-101769735D01*
X221486503Y-101769737D01*
X221641153Y-101800499D01*
X221641156Y-101800500D01*
X221641158Y-101800500D01*
X221798844Y-101800500D01*
X221798845Y-101800499D01*
X221953497Y-101769737D01*
X222099179Y-101709394D01*
X222165250Y-101665247D01*
X222230875Y-101621398D01*
X222297553Y-101600520D01*
X222299766Y-101600500D01*
X227275500Y-101600500D01*
X227342539Y-101620185D01*
X227388294Y-101672989D01*
X227399500Y-101724500D01*
X227399500Y-101878846D01*
X227430261Y-102033489D01*
X227430264Y-102033501D01*
X227490602Y-102179172D01*
X227490609Y-102179185D01*
X227578210Y-102310288D01*
X227578213Y-102310292D01*
X227580240Y-102312319D01*
X227580962Y-102313642D01*
X227582076Y-102314999D01*
X227581818Y-102315210D01*
X227613725Y-102373642D01*
X227608741Y-102443334D01*
X227582001Y-102484939D01*
X227582076Y-102485001D01*
X227581552Y-102485639D01*
X227580240Y-102487681D01*
X227578213Y-102489707D01*
X227578210Y-102489711D01*
X227490609Y-102620814D01*
X227490602Y-102620827D01*
X227430264Y-102766498D01*
X227430261Y-102766510D01*
X227399500Y-102921153D01*
X227399500Y-103078846D01*
X227430260Y-103233488D01*
X227430262Y-103233493D01*
X227430263Y-103233497D01*
X227447322Y-103274682D01*
X227458865Y-103302549D01*
X227466333Y-103372018D01*
X227458865Y-103397451D01*
X227430262Y-103466506D01*
X227430260Y-103466511D01*
X227399500Y-103621153D01*
X227399500Y-103778846D01*
X227430261Y-103933489D01*
X227430264Y-103933501D01*
X227490602Y-104079172D01*
X227490609Y-104079185D01*
X227578210Y-104210288D01*
X227578213Y-104210292D01*
X227580240Y-104212319D01*
X227580962Y-104213642D01*
X227582076Y-104214999D01*
X227581818Y-104215210D01*
X227613725Y-104273642D01*
X227608741Y-104343334D01*
X227582001Y-104384939D01*
X227582076Y-104385001D01*
X227581552Y-104385639D01*
X227580240Y-104387681D01*
X227578213Y-104389707D01*
X227578210Y-104389711D01*
X227490609Y-104520814D01*
X227490602Y-104520827D01*
X227430264Y-104666498D01*
X227430261Y-104666510D01*
X227399500Y-104821153D01*
X227399500Y-104978846D01*
X227430260Y-105133488D01*
X227430262Y-105133493D01*
X227430263Y-105133497D01*
X227453272Y-105189046D01*
X227458865Y-105202549D01*
X227466333Y-105272018D01*
X227458865Y-105297447D01*
X227444116Y-105333058D01*
X227430262Y-105366506D01*
X227430260Y-105366511D01*
X227399500Y-105521153D01*
X227399500Y-105678846D01*
X227430261Y-105833489D01*
X227430264Y-105833501D01*
X227490602Y-105979172D01*
X227490609Y-105979185D01*
X227578210Y-106110288D01*
X227578213Y-106110292D01*
X227689707Y-106221786D01*
X227689711Y-106221789D01*
X227760534Y-106269112D01*
X227805339Y-106322724D01*
X227813260Y-106348022D01*
X227830261Y-106433491D01*
X227830264Y-106433501D01*
X227890602Y-106579172D01*
X227890609Y-106579185D01*
X227978210Y-106710288D01*
X227978213Y-106710292D01*
X228089707Y-106821786D01*
X228089711Y-106821789D01*
X228160534Y-106869112D01*
X228205339Y-106922724D01*
X228213260Y-106948022D01*
X228230261Y-107033491D01*
X228230264Y-107033501D01*
X228290602Y-107179172D01*
X228290609Y-107179185D01*
X228378210Y-107310288D01*
X228378213Y-107310292D01*
X228489707Y-107421786D01*
X228489711Y-107421789D01*
X228620814Y-107509390D01*
X228620827Y-107509397D01*
X228766498Y-107569735D01*
X228766503Y-107569737D01*
X228766507Y-107569737D01*
X228766508Y-107569738D01*
X228925951Y-107601454D01*
X228987862Y-107633839D01*
X229022436Y-107694555D01*
X229023376Y-107698878D01*
X229030261Y-107733492D01*
X229030264Y-107733501D01*
X229090602Y-107879172D01*
X229090609Y-107879185D01*
X229178210Y-108010288D01*
X229178213Y-108010292D01*
X229289707Y-108121786D01*
X229289711Y-108121789D01*
X229360534Y-108169112D01*
X229405339Y-108222724D01*
X229413260Y-108248022D01*
X229430261Y-108333491D01*
X229430264Y-108333501D01*
X229490602Y-108479172D01*
X229490609Y-108479184D01*
X229509602Y-108507609D01*
X229530480Y-108574286D01*
X229511996Y-108641666D01*
X229460017Y-108688357D01*
X229406500Y-108700500D01*
X226101098Y-108700500D01*
X226034059Y-108680815D01*
X226013417Y-108664181D01*
X222599236Y-105250000D01*
X219161415Y-101812180D01*
X219127931Y-101750858D01*
X219132915Y-101681166D01*
X219174787Y-101625233D01*
X219240251Y-101600816D01*
X219249097Y-101600500D01*
X221140234Y-101600500D01*
X221207273Y-101620185D01*
G37*
%TD.AperFunction*%
%TA.AperFunction,Conductor*%
G36*
X241103736Y-89300726D02*
G01*
X241393796Y-89318271D01*
X241408659Y-89320076D01*
X241690798Y-89371780D01*
X241705335Y-89375363D01*
X241979172Y-89460695D01*
X241993163Y-89466000D01*
X242254743Y-89583727D01*
X242267989Y-89590680D01*
X242513465Y-89739075D01*
X242525776Y-89747573D01*
X242751573Y-89924473D01*
X242762781Y-89934403D01*
X242965596Y-90137218D01*
X242975526Y-90148426D01*
X243129359Y-90344780D01*
X243152422Y-90374217D01*
X243160926Y-90386537D01*
X243223297Y-90489711D01*
X243309316Y-90632004D01*
X243316275Y-90645263D01*
X243433997Y-90906831D01*
X243439306Y-90920832D01*
X243524635Y-91194663D01*
X243528219Y-91209201D01*
X243579923Y-91491340D01*
X243581728Y-91506205D01*
X243599274Y-91796263D01*
X243599500Y-91803750D01*
X243599500Y-96103462D01*
X243579815Y-96170501D01*
X243527011Y-96216256D01*
X243457853Y-96226200D01*
X243436497Y-96221168D01*
X243402798Y-96210001D01*
X243402794Y-96210000D01*
X243300008Y-96199500D01*
X237700000Y-96199500D01*
X237699983Y-96199501D01*
X237597204Y-96210000D01*
X237597201Y-96210001D01*
X237430669Y-96265185D01*
X237430664Y-96265187D01*
X237281343Y-96357290D01*
X237157290Y-96481343D01*
X237065187Y-96630664D01*
X237065186Y-96630667D01*
X237010001Y-96797204D01*
X237010001Y-96797205D01*
X237010000Y-96797205D01*
X236999500Y-96899985D01*
X236999500Y-102499999D01*
X236999501Y-102500016D01*
X237010000Y-102602795D01*
X237010001Y-102602798D01*
X237059886Y-102753339D01*
X237065186Y-102769333D01*
X237157289Y-102918655D01*
X237281345Y-103042711D01*
X237430667Y-103134814D01*
X237597204Y-103189999D01*
X237699993Y-103200500D01*
X243300006Y-103200499D01*
X243402796Y-103189999D01*
X243436495Y-103178831D01*
X243506324Y-103176430D01*
X243566366Y-103212162D01*
X243597559Y-103274682D01*
X243599500Y-103296538D01*
X243599500Y-109629222D01*
X243579815Y-109696261D01*
X243527011Y-109742016D01*
X243457853Y-109751960D01*
X243394297Y-109722935D01*
X243372398Y-109698113D01*
X243315024Y-109612248D01*
X243315019Y-109612240D01*
X243096828Y-109346373D01*
X243096827Y-109346372D01*
X243096823Y-109346367D01*
X242853632Y-109103176D01*
X242587765Y-108884985D01*
X242587764Y-108884984D01*
X242587760Y-108884981D01*
X242301787Y-108693900D01*
X242301782Y-108693897D01*
X242301775Y-108693893D01*
X241998469Y-108531772D01*
X241998464Y-108531770D01*
X241680706Y-108400150D01*
X241351572Y-108300308D01*
X241014248Y-108233210D01*
X241014249Y-108233210D01*
X240756456Y-108207821D01*
X240671969Y-108199500D01*
X240328031Y-108199500D01*
X240249966Y-108207188D01*
X239985750Y-108233210D01*
X239648427Y-108300308D01*
X239319293Y-108400150D01*
X239001535Y-108531770D01*
X239001530Y-108531772D01*
X238698224Y-108693893D01*
X238698206Y-108693904D01*
X238412248Y-108884975D01*
X238412234Y-108884985D01*
X238146367Y-109103176D01*
X237903176Y-109346367D01*
X237684985Y-109612234D01*
X237684975Y-109612248D01*
X237493904Y-109898206D01*
X237493893Y-109898224D01*
X237331772Y-110201530D01*
X237331770Y-110201535D01*
X237200150Y-110519293D01*
X237100308Y-110848427D01*
X237033210Y-111185750D01*
X237012060Y-111400500D01*
X236999500Y-111528031D01*
X236999500Y-111871969D01*
X237005559Y-111933489D01*
X237033210Y-112214249D01*
X237100308Y-112551572D01*
X237200150Y-112880706D01*
X237331770Y-113198464D01*
X237331772Y-113198469D01*
X237493893Y-113501775D01*
X237493904Y-113501793D01*
X237684975Y-113787751D01*
X237684985Y-113787765D01*
X237903176Y-114053632D01*
X238146367Y-114296823D01*
X238146372Y-114296827D01*
X238146373Y-114296828D01*
X238412240Y-114515019D01*
X238698213Y-114706100D01*
X238698222Y-114706105D01*
X238698224Y-114706106D01*
X239001530Y-114868227D01*
X239001532Y-114868227D01*
X239001538Y-114868231D01*
X239319295Y-114999850D01*
X239648422Y-115099690D01*
X239985750Y-115166789D01*
X240328031Y-115200500D01*
X240328034Y-115200500D01*
X240671966Y-115200500D01*
X240671969Y-115200500D01*
X241014250Y-115166789D01*
X241351578Y-115099690D01*
X241680705Y-114999850D01*
X241998462Y-114868231D01*
X242301787Y-114706100D01*
X242587760Y-114515019D01*
X242853627Y-114296828D01*
X243096828Y-114053627D01*
X243315019Y-113787760D01*
X243320975Y-113778846D01*
X243372398Y-113701887D01*
X243426010Y-113657081D01*
X243495335Y-113648374D01*
X243558362Y-113678528D01*
X243595082Y-113737971D01*
X243599500Y-113770777D01*
X243599500Y-121629222D01*
X243579815Y-121696261D01*
X243527011Y-121742016D01*
X243457853Y-121751960D01*
X243394297Y-121722935D01*
X243372398Y-121698113D01*
X243326337Y-121629179D01*
X243315019Y-121612240D01*
X243096828Y-121346373D01*
X243096827Y-121346372D01*
X243096823Y-121346367D01*
X242853632Y-121103176D01*
X242587765Y-120884985D01*
X242587764Y-120884984D01*
X242587760Y-120884981D01*
X242301787Y-120693900D01*
X242301782Y-120693897D01*
X242301775Y-120693893D01*
X241998469Y-120531772D01*
X241998464Y-120531770D01*
X241680706Y-120400150D01*
X241351572Y-120300308D01*
X241014248Y-120233210D01*
X241014249Y-120233210D01*
X240756456Y-120207821D01*
X240671969Y-120199500D01*
X240328031Y-120199500D01*
X240249966Y-120207188D01*
X239985750Y-120233210D01*
X239648427Y-120300308D01*
X239319293Y-120400150D01*
X239001535Y-120531770D01*
X239001530Y-120531772D01*
X238698224Y-120693893D01*
X238698206Y-120693904D01*
X238412248Y-120884975D01*
X238412234Y-120884985D01*
X238146367Y-121103176D01*
X237903176Y-121346367D01*
X237684985Y-121612234D01*
X237684975Y-121612248D01*
X237493904Y-121898206D01*
X237493893Y-121898224D01*
X237331772Y-122201530D01*
X237331770Y-122201535D01*
X237200150Y-122519293D01*
X237176517Y-122597201D01*
X237100310Y-122848422D01*
X237085843Y-122921153D01*
X237033210Y-123185750D01*
X237012060Y-123400500D01*
X236999500Y-123528031D01*
X236999500Y-123871969D01*
X237009269Y-123971153D01*
X237033210Y-124214249D01*
X237100308Y-124551572D01*
X237200150Y-124880706D01*
X237331770Y-125198464D01*
X237331772Y-125198469D01*
X237493893Y-125501775D01*
X237493904Y-125501793D01*
X237684975Y-125787751D01*
X237684985Y-125787765D01*
X237903176Y-126053632D01*
X238146367Y-126296823D01*
X238146372Y-126296827D01*
X238146373Y-126296828D01*
X238412240Y-126515019D01*
X238698213Y-126706100D01*
X238698222Y-126706105D01*
X238698224Y-126706106D01*
X239001530Y-126868227D01*
X239001532Y-126868227D01*
X239001538Y-126868231D01*
X239319295Y-126999850D01*
X239648422Y-127099690D01*
X239985750Y-127166789D01*
X240328031Y-127200500D01*
X240328034Y-127200500D01*
X240671966Y-127200500D01*
X240671969Y-127200500D01*
X241014250Y-127166789D01*
X241351578Y-127099690D01*
X241680705Y-126999850D01*
X241998462Y-126868231D01*
X242301787Y-126706100D01*
X242587760Y-126515019D01*
X242853627Y-126296828D01*
X243096828Y-126053627D01*
X243315019Y-125787760D01*
X243330894Y-125764002D01*
X243372398Y-125701887D01*
X243426010Y-125657081D01*
X243495335Y-125648374D01*
X243558362Y-125678528D01*
X243595082Y-125737971D01*
X243599500Y-125770777D01*
X243599500Y-129596249D01*
X243599274Y-129603736D01*
X243581728Y-129893794D01*
X243579923Y-129908659D01*
X243528219Y-130190798D01*
X243524635Y-130205336D01*
X243439306Y-130479167D01*
X243433997Y-130493168D01*
X243316275Y-130754736D01*
X243309316Y-130767995D01*
X243160928Y-131013459D01*
X243152422Y-131025782D01*
X242975526Y-131251573D01*
X242965596Y-131262781D01*
X242762781Y-131465596D01*
X242751573Y-131475526D01*
X242525782Y-131652422D01*
X242513459Y-131660928D01*
X242267995Y-131809316D01*
X242254736Y-131816275D01*
X241993168Y-131933997D01*
X241979167Y-131939306D01*
X241705336Y-132024635D01*
X241690798Y-132028219D01*
X241408659Y-132079923D01*
X241393794Y-132081728D01*
X241103736Y-132099274D01*
X241096249Y-132099500D01*
X211044555Y-132099500D01*
X210977516Y-132079815D01*
X210931761Y-132027011D01*
X210921817Y-131957853D01*
X210950842Y-131894297D01*
X210988261Y-131865015D01*
X210994796Y-131861684D01*
X211007816Y-131855051D01*
X211061187Y-131816275D01*
X211179786Y-131730109D01*
X211179788Y-131730106D01*
X211179792Y-131730104D01*
X211330104Y-131579792D01*
X211330106Y-131579788D01*
X211330109Y-131579786D01*
X211455048Y-131407820D01*
X211455047Y-131407820D01*
X211455051Y-131407816D01*
X211551557Y-131218412D01*
X211617246Y-131016243D01*
X211650500Y-130806287D01*
X211650500Y-130593713D01*
X211617246Y-130383757D01*
X211551557Y-130181588D01*
X211455051Y-129992184D01*
X211422694Y-129947648D01*
X240199500Y-129947648D01*
X240199500Y-130152351D01*
X240231522Y-130354534D01*
X240294781Y-130549223D01*
X240387715Y-130731613D01*
X240508028Y-130897213D01*
X240652786Y-131041971D01*
X240807749Y-131154556D01*
X240818390Y-131162287D01*
X240928541Y-131218412D01*
X241000776Y-131255218D01*
X241000778Y-131255218D01*
X241000781Y-131255220D01*
X241105137Y-131289127D01*
X241195465Y-131318477D01*
X241296557Y-131334488D01*
X241397648Y-131350500D01*
X241397649Y-131350500D01*
X241602351Y-131350500D01*
X241602352Y-131350500D01*
X241804534Y-131318477D01*
X241999219Y-131255220D01*
X242181610Y-131162287D01*
X242274590Y-131094732D01*
X242347213Y-131041971D01*
X242347215Y-131041968D01*
X242347219Y-131041966D01*
X242491966Y-130897219D01*
X242491968Y-130897215D01*
X242491971Y-130897213D01*
X242575960Y-130781610D01*
X242612287Y-130731610D01*
X242705220Y-130549219D01*
X242768477Y-130354534D01*
X242800500Y-130152352D01*
X242800500Y-129947648D01*
X242794325Y-129908659D01*
X242768477Y-129745465D01*
X242705218Y-129550776D01*
X242671503Y-129484607D01*
X242612287Y-129368390D01*
X242603218Y-129355908D01*
X242491971Y-129202786D01*
X242347213Y-129058028D01*
X242181613Y-128937715D01*
X242181612Y-128937714D01*
X242181610Y-128937713D01*
X242124653Y-128908691D01*
X241999223Y-128844781D01*
X241804534Y-128781522D01*
X241629995Y-128753878D01*
X241602352Y-128749500D01*
X241397648Y-128749500D01*
X241373329Y-128753351D01*
X241195465Y-128781522D01*
X241000776Y-128844781D01*
X240818386Y-128937715D01*
X240652786Y-129058028D01*
X240508028Y-129202786D01*
X240387715Y-129368386D01*
X240294781Y-129550776D01*
X240231522Y-129745465D01*
X240199500Y-129947648D01*
X211422694Y-129947648D01*
X211330109Y-129820213D01*
X211179786Y-129669890D01*
X211007820Y-129544951D01*
X210818414Y-129448444D01*
X210818413Y-129448443D01*
X210818412Y-129448443D01*
X210616243Y-129382754D01*
X210616241Y-129382753D01*
X210616240Y-129382753D01*
X210454957Y-129357208D01*
X210406287Y-129349500D01*
X210193713Y-129349500D01*
X210145042Y-129357208D01*
X209983760Y-129382753D01*
X209882672Y-129415598D01*
X209874094Y-129418386D01*
X209781585Y-129448444D01*
X209592179Y-129544951D01*
X209420215Y-129669889D01*
X209306673Y-129783431D01*
X209245350Y-129816915D01*
X209175658Y-129811931D01*
X209119725Y-129770059D01*
X209102810Y-129739082D01*
X209053797Y-129607671D01*
X209053793Y-129607664D01*
X208967547Y-129492455D01*
X208967544Y-129492452D01*
X208852335Y-129406206D01*
X208852328Y-129406202D01*
X208717482Y-129355908D01*
X208717483Y-129355908D01*
X208657883Y-129349501D01*
X208657881Y-129349500D01*
X208657873Y-129349500D01*
X208657864Y-129349500D01*
X206862129Y-129349500D01*
X206862123Y-129349501D01*
X206802516Y-129355908D01*
X206667671Y-129406202D01*
X206667664Y-129406206D01*
X206552455Y-129492452D01*
X206552452Y-129492455D01*
X206466206Y-129607664D01*
X206466202Y-129607671D01*
X206415908Y-129742517D01*
X206409501Y-129802116D01*
X206409500Y-129802135D01*
X206409500Y-131597870D01*
X206409501Y-131597876D01*
X206415908Y-131657483D01*
X206466202Y-131792328D01*
X206466206Y-131792335D01*
X206547695Y-131901189D01*
X206572113Y-131966653D01*
X206557262Y-132034926D01*
X206507857Y-132084332D01*
X206448429Y-132099500D01*
X196203751Y-132099500D01*
X196196264Y-132099274D01*
X195906205Y-132081728D01*
X195891340Y-132079923D01*
X195609201Y-132028219D01*
X195594663Y-132024635D01*
X195320832Y-131939306D01*
X195306831Y-131933997D01*
X195045263Y-131816275D01*
X195032004Y-131809316D01*
X195003902Y-131792328D01*
X194786537Y-131660926D01*
X194774217Y-131652422D01*
X194704590Y-131597873D01*
X194548426Y-131475526D01*
X194537218Y-131465596D01*
X194334403Y-131262781D01*
X194324473Y-131251573D01*
X194298493Y-131218412D01*
X194147573Y-131025776D01*
X194139075Y-131013465D01*
X193990680Y-130767989D01*
X193983727Y-130754743D01*
X193866000Y-130493163D01*
X193860693Y-130479167D01*
X193837436Y-130404534D01*
X193775363Y-130205335D01*
X193771780Y-130190798D01*
X193770092Y-130181585D01*
X193736384Y-129997648D01*
X194549500Y-129997648D01*
X194549500Y-130202351D01*
X194581522Y-130404534D01*
X194644781Y-130599223D01*
X194737715Y-130781613D01*
X194858028Y-130947213D01*
X195002786Y-131091971D01*
X195099566Y-131162284D01*
X195168390Y-131212287D01*
X195267490Y-131262781D01*
X195350776Y-131305218D01*
X195350778Y-131305218D01*
X195350781Y-131305220D01*
X195455137Y-131339127D01*
X195545465Y-131368477D01*
X195646557Y-131384488D01*
X195747648Y-131400500D01*
X195747649Y-131400500D01*
X195952351Y-131400500D01*
X195952352Y-131400500D01*
X196154534Y-131368477D01*
X196349219Y-131305220D01*
X196531610Y-131212287D01*
X196624590Y-131144732D01*
X196697213Y-131091971D01*
X196697215Y-131091968D01*
X196697219Y-131091966D01*
X196841966Y-130947219D01*
X196841968Y-130947215D01*
X196841971Y-130947213D01*
X196944358Y-130806287D01*
X196962287Y-130781610D01*
X197055220Y-130599219D01*
X197118477Y-130404534D01*
X197150500Y-130202352D01*
X197150500Y-129997648D01*
X197118477Y-129795466D01*
X197110842Y-129771969D01*
X197077675Y-129669890D01*
X197055220Y-129600781D01*
X197055218Y-129600778D01*
X197055218Y-129600776D01*
X197000025Y-129492455D01*
X196962287Y-129418390D01*
X196936396Y-129382754D01*
X196841971Y-129252786D01*
X196697213Y-129108028D01*
X196531613Y-128987715D01*
X196531612Y-128987714D01*
X196531610Y-128987713D01*
X196433480Y-128937713D01*
X196349223Y-128894781D01*
X196154534Y-128831522D01*
X195979995Y-128803878D01*
X195952352Y-128799500D01*
X195747648Y-128799500D01*
X195723329Y-128803351D01*
X195545465Y-128831522D01*
X195350776Y-128894781D01*
X195168386Y-128987715D01*
X195002786Y-129108028D01*
X194858028Y-129252786D01*
X194737715Y-129418386D01*
X194644781Y-129600776D01*
X194581522Y-129795465D01*
X194549500Y-129997648D01*
X193736384Y-129997648D01*
X193720076Y-129908658D01*
X193718271Y-129893794D01*
X193700726Y-129603736D01*
X193700500Y-129596249D01*
X193700500Y-125104234D01*
X197769500Y-125104234D01*
X197769500Y-125255766D01*
X197774054Y-125272762D01*
X197808719Y-125402136D01*
X197841976Y-125459737D01*
X197884485Y-125533365D01*
X197991635Y-125640515D01*
X198122865Y-125716281D01*
X198269234Y-125755500D01*
X198269236Y-125755500D01*
X198420764Y-125755500D01*
X198420766Y-125755500D01*
X198567135Y-125716281D01*
X198698365Y-125640515D01*
X198805515Y-125533365D01*
X198881281Y-125402135D01*
X198920500Y-125255766D01*
X198920500Y-125104234D01*
X198881281Y-124957865D01*
X198805515Y-124826635D01*
X198698365Y-124719485D01*
X198617749Y-124672941D01*
X198567136Y-124643719D01*
X198481700Y-124620827D01*
X198420766Y-124604500D01*
X198269234Y-124604500D01*
X198122863Y-124643719D01*
X197991635Y-124719485D01*
X197991632Y-124719487D01*
X197884487Y-124826632D01*
X197884485Y-124826635D01*
X197808719Y-124957863D01*
X197773692Y-125088590D01*
X197769500Y-125104234D01*
X193700500Y-125104234D01*
X193700500Y-119324234D01*
X197769500Y-119324234D01*
X197769500Y-119475766D01*
X197789109Y-119548950D01*
X197808719Y-119622136D01*
X197846602Y-119687750D01*
X197884485Y-119753365D01*
X197991635Y-119860515D01*
X198122865Y-119936281D01*
X198269234Y-119975500D01*
X198269236Y-119975500D01*
X198420764Y-119975500D01*
X198420766Y-119975500D01*
X198567135Y-119936281D01*
X198698365Y-119860515D01*
X198747727Y-119811153D01*
X199799500Y-119811153D01*
X199799500Y-119968846D01*
X199830261Y-120123489D01*
X199830263Y-120123497D01*
X199840061Y-120147151D01*
X199849500Y-120194604D01*
X199849500Y-124385396D01*
X199840062Y-124432844D01*
X199830263Y-124456503D01*
X199830262Y-124456506D01*
X199830260Y-124456511D01*
X199799500Y-124611153D01*
X199799500Y-124768846D01*
X199830261Y-124923489D01*
X199830264Y-124923501D01*
X199890602Y-125069172D01*
X199890609Y-125069185D01*
X199978210Y-125200288D01*
X199978213Y-125200292D01*
X200089707Y-125311786D01*
X200089711Y-125311789D01*
X200220814Y-125399390D01*
X200220827Y-125399397D01*
X200366498Y-125459735D01*
X200366503Y-125459737D01*
X200521153Y-125490499D01*
X200521156Y-125490500D01*
X200521158Y-125490500D01*
X200678844Y-125490500D01*
X200678845Y-125490499D01*
X200833497Y-125459737D01*
X200979179Y-125399394D01*
X201110289Y-125311789D01*
X201200925Y-125221153D01*
X202549500Y-125221153D01*
X202549500Y-125378846D01*
X202580261Y-125533489D01*
X202580264Y-125533501D01*
X202640602Y-125679172D01*
X202640609Y-125679185D01*
X202728210Y-125810288D01*
X202728213Y-125810292D01*
X202839707Y-125921786D01*
X202839711Y-125921789D01*
X202970814Y-126009390D01*
X202970827Y-126009397D01*
X203108710Y-126066509D01*
X203116503Y-126069737D01*
X203271153Y-126100499D01*
X203271156Y-126100500D01*
X203271158Y-126100500D01*
X203428844Y-126100500D01*
X203428845Y-126100499D01*
X203583497Y-126069737D01*
X203729179Y-126009394D01*
X203860289Y-125921789D01*
X203971789Y-125810289D01*
X204059394Y-125679179D01*
X204119737Y-125533497D01*
X204150500Y-125378842D01*
X204150500Y-125221158D01*
X204150500Y-125221155D01*
X204150499Y-125221153D01*
X204135585Y-125146175D01*
X204119737Y-125066503D01*
X204102695Y-125025360D01*
X204059397Y-124920827D01*
X204059390Y-124920814D01*
X203971789Y-124789711D01*
X203971786Y-124789707D01*
X203860292Y-124678213D01*
X203860288Y-124678210D01*
X203729185Y-124590609D01*
X203729172Y-124590602D01*
X203583501Y-124530264D01*
X203583489Y-124530261D01*
X203428845Y-124499500D01*
X203428842Y-124499500D01*
X203271158Y-124499500D01*
X203271155Y-124499500D01*
X203116510Y-124530261D01*
X203116498Y-124530264D01*
X202970827Y-124590602D01*
X202970814Y-124590609D01*
X202839711Y-124678210D01*
X202839707Y-124678213D01*
X202728213Y-124789707D01*
X202728210Y-124789711D01*
X202640609Y-124920814D01*
X202640602Y-124920827D01*
X202580264Y-125066498D01*
X202580261Y-125066510D01*
X202549500Y-125221153D01*
X201200925Y-125221153D01*
X201221789Y-125200289D01*
X201309394Y-125069179D01*
X201310503Y-125066503D01*
X201350533Y-124969860D01*
X201369737Y-124923497D01*
X201400500Y-124768842D01*
X201400500Y-124611158D01*
X201400500Y-124611155D01*
X201400499Y-124611153D01*
X201369739Y-124456511D01*
X201369738Y-124456508D01*
X201369737Y-124456503D01*
X201359937Y-124432844D01*
X201350500Y-124385396D01*
X201350500Y-121171153D01*
X203749500Y-121171153D01*
X203749500Y-121328846D01*
X203780261Y-121483489D01*
X203780264Y-121483501D01*
X203840602Y-121629172D01*
X203840609Y-121629185D01*
X203846655Y-121638233D01*
X203867533Y-121704911D01*
X203858114Y-121754576D01*
X203817175Y-121853415D01*
X203817174Y-121853418D01*
X203817174Y-121853419D01*
X203817173Y-121853422D01*
X203786412Y-122008065D01*
X203786412Y-122165758D01*
X203817173Y-122320401D01*
X203817176Y-122320413D01*
X203877514Y-122466084D01*
X203877521Y-122466097D01*
X203965122Y-122597200D01*
X203965125Y-122597204D01*
X204076619Y-122708698D01*
X204076623Y-122708701D01*
X204207726Y-122796302D01*
X204207739Y-122796309D01*
X204333553Y-122848422D01*
X204353415Y-122856649D01*
X204508065Y-122887411D01*
X204508068Y-122887412D01*
X204508070Y-122887412D01*
X204665756Y-122887412D01*
X204665757Y-122887411D01*
X204820409Y-122856649D01*
X204966091Y-122796306D01*
X205097201Y-122708701D01*
X205208701Y-122597201D01*
X205296306Y-122466091D01*
X205356649Y-122320409D01*
X205387412Y-122165754D01*
X205387412Y-122165751D01*
X205387549Y-122165063D01*
X205396314Y-122148306D01*
X205400334Y-122129827D01*
X205419074Y-122104792D01*
X205419933Y-122103152D01*
X205421442Y-122101616D01*
X205509504Y-122013553D01*
X205509506Y-122013553D01*
X205519714Y-122003344D01*
X205519716Y-122003344D01*
X205631520Y-121891540D01*
X205696619Y-121778785D01*
X205710577Y-121754609D01*
X205751501Y-121601881D01*
X205751501Y-121443767D01*
X205751501Y-121436172D01*
X205751500Y-121436154D01*
X205751500Y-118221153D01*
X213049500Y-118221153D01*
X213049500Y-118378846D01*
X213080261Y-118533489D01*
X213080264Y-118533501D01*
X213140602Y-118679172D01*
X213140609Y-118679185D01*
X213228210Y-118810288D01*
X213228213Y-118810292D01*
X213339707Y-118921786D01*
X213339711Y-118921789D01*
X213470814Y-119009390D01*
X213470827Y-119009397D01*
X213560722Y-119046632D01*
X213616503Y-119069737D01*
X213715858Y-119089500D01*
X213771153Y-119100499D01*
X213771156Y-119100500D01*
X213771158Y-119100500D01*
X213928844Y-119100500D01*
X213928845Y-119100499D01*
X214083497Y-119069737D01*
X214229179Y-119009394D01*
X214360289Y-118921789D01*
X214471789Y-118810289D01*
X214559394Y-118679179D01*
X214619737Y-118533497D01*
X214650500Y-118378842D01*
X214650500Y-118221158D01*
X214650500Y-118221155D01*
X214650499Y-118221153D01*
X214648338Y-118210288D01*
X214619737Y-118066503D01*
X214619735Y-118066498D01*
X214559397Y-117920827D01*
X214559390Y-117920814D01*
X214471789Y-117789711D01*
X214471786Y-117789707D01*
X214360292Y-117678213D01*
X214360288Y-117678210D01*
X214229185Y-117590609D01*
X214229172Y-117590602D01*
X214083501Y-117530264D01*
X214083489Y-117530261D01*
X213928845Y-117499500D01*
X213928842Y-117499500D01*
X213771158Y-117499500D01*
X213771155Y-117499500D01*
X213616510Y-117530261D01*
X213616498Y-117530264D01*
X213470827Y-117590602D01*
X213470814Y-117590609D01*
X213339711Y-117678210D01*
X213339707Y-117678213D01*
X213228213Y-117789707D01*
X213228210Y-117789711D01*
X213140609Y-117920814D01*
X213140602Y-117920827D01*
X213080264Y-118066498D01*
X213080261Y-118066510D01*
X213049500Y-118221153D01*
X205751500Y-118221153D01*
X205751500Y-116616197D01*
X205771185Y-116549158D01*
X205787819Y-116528516D01*
X206964069Y-115352266D01*
X206986021Y-115330313D01*
X207047341Y-115296828D01*
X207049475Y-115296384D01*
X207183440Y-115269737D01*
X207301535Y-115220821D01*
X207329115Y-115209397D01*
X207329115Y-115209396D01*
X207329122Y-115209394D01*
X207460232Y-115121789D01*
X207571732Y-115010289D01*
X207659337Y-114879179D01*
X207719680Y-114733497D01*
X207750443Y-114578842D01*
X207750443Y-114421158D01*
X207750443Y-114421155D01*
X207750442Y-114421153D01*
X207746334Y-114400500D01*
X207719680Y-114266503D01*
X207670395Y-114147519D01*
X207662927Y-114078053D01*
X207670394Y-114052621D01*
X207719737Y-113933497D01*
X207750500Y-113778842D01*
X207750500Y-113621158D01*
X207750500Y-113621155D01*
X207750499Y-113621153D01*
X207738222Y-113559433D01*
X207719737Y-113466503D01*
X207706062Y-113433489D01*
X207659397Y-113320827D01*
X207659390Y-113320814D01*
X207571789Y-113189711D01*
X207571786Y-113189707D01*
X207494759Y-113112680D01*
X207461274Y-113051357D01*
X207466258Y-112981665D01*
X207494760Y-112937317D01*
X207521789Y-112910289D01*
X207609394Y-112779179D01*
X207669737Y-112633497D01*
X207700500Y-112478842D01*
X207700500Y-112321158D01*
X207700500Y-112321155D01*
X207700499Y-112321153D01*
X207692276Y-112279815D01*
X207669737Y-112166503D01*
X207633569Y-112079185D01*
X207609397Y-112020827D01*
X207609390Y-112020814D01*
X207521398Y-111889125D01*
X207500520Y-111822447D01*
X207500500Y-111820234D01*
X207500500Y-105400097D01*
X207520185Y-105333058D01*
X207536819Y-105312416D01*
X207771876Y-105077359D01*
X208014662Y-104834572D01*
X208075983Y-104801089D01*
X208078150Y-104800638D01*
X208136085Y-104789113D01*
X208233497Y-104769737D01*
X208379179Y-104709394D01*
X208510289Y-104621789D01*
X208621789Y-104510289D01*
X208633681Y-104492490D01*
X208687293Y-104447686D01*
X208756618Y-104438978D01*
X208819646Y-104469132D01*
X208824465Y-104473700D01*
X209721883Y-105371118D01*
X209755368Y-105432441D01*
X209750384Y-105502133D01*
X209730053Y-105537467D01*
X209728207Y-105539715D01*
X209640609Y-105670814D01*
X209640602Y-105670827D01*
X209580264Y-105816498D01*
X209580261Y-105816510D01*
X209549500Y-105971153D01*
X209549500Y-106128846D01*
X209580261Y-106283489D01*
X209580264Y-106283501D01*
X209640602Y-106429172D01*
X209640609Y-106429185D01*
X209728210Y-106560288D01*
X209728213Y-106560292D01*
X209839707Y-106671786D01*
X209839711Y-106671789D01*
X209970814Y-106759390D01*
X209970827Y-106759397D01*
X210116498Y-106819735D01*
X210116503Y-106819737D01*
X210271153Y-106850499D01*
X210271156Y-106850500D01*
X210271158Y-106850500D01*
X210428844Y-106850500D01*
X210428845Y-106850499D01*
X210583497Y-106819737D01*
X210729179Y-106759394D01*
X210860289Y-106671789D01*
X210860307Y-106671770D01*
X210862517Y-106669958D01*
X210863925Y-106669359D01*
X210865354Y-106668405D01*
X210865534Y-106668675D01*
X210926822Y-106642633D01*
X210995692Y-106654412D01*
X211028881Y-106678116D01*
X213185966Y-108835201D01*
X213219451Y-108896524D01*
X213214467Y-108966216D01*
X213172595Y-109022149D01*
X213107131Y-109046566D01*
X213050835Y-109037444D01*
X213033501Y-109030264D01*
X213033489Y-109030261D01*
X212878845Y-108999500D01*
X212878842Y-108999500D01*
X212721158Y-108999500D01*
X212721155Y-108999500D01*
X212566510Y-109030261D01*
X212566498Y-109030264D01*
X212420827Y-109090602D01*
X212420814Y-109090609D01*
X212289711Y-109178210D01*
X212289707Y-109178213D01*
X212178213Y-109289707D01*
X212178210Y-109289711D01*
X212090609Y-109420814D01*
X212090602Y-109420827D01*
X212030264Y-109566498D01*
X212030261Y-109566510D01*
X211999500Y-109721153D01*
X211999500Y-109878846D01*
X212011977Y-109941572D01*
X212005750Y-110011164D01*
X211962887Y-110066341D01*
X211896997Y-110089585D01*
X211829000Y-110073517D01*
X211802679Y-110053444D01*
X211287590Y-109538355D01*
X211287588Y-109538352D01*
X211168717Y-109419481D01*
X211168716Y-109419480D01*
X211074606Y-109365146D01*
X211031785Y-109340423D01*
X210879057Y-109299499D01*
X210720943Y-109299499D01*
X210713347Y-109299499D01*
X210713331Y-109299500D01*
X210379766Y-109299500D01*
X210312727Y-109279815D01*
X210310875Y-109278602D01*
X210179185Y-109190609D01*
X210179172Y-109190602D01*
X210033501Y-109130264D01*
X210033489Y-109130261D01*
X209878845Y-109099500D01*
X209878842Y-109099500D01*
X209721158Y-109099500D01*
X209721155Y-109099500D01*
X209566510Y-109130261D01*
X209566498Y-109130264D01*
X209420827Y-109190602D01*
X209420814Y-109190609D01*
X209289711Y-109278210D01*
X209289707Y-109278213D01*
X209178213Y-109389707D01*
X209178210Y-109389711D01*
X209090609Y-109520814D01*
X209090602Y-109520827D01*
X209030264Y-109666498D01*
X209030261Y-109666510D01*
X208999500Y-109821153D01*
X208999500Y-109978846D01*
X209030261Y-110133489D01*
X209030264Y-110133501D01*
X209090602Y-110279172D01*
X209090609Y-110279185D01*
X209178602Y-110410874D01*
X209199480Y-110477551D01*
X209199500Y-110479765D01*
X209199500Y-114720234D01*
X209179815Y-114787273D01*
X209178602Y-114789125D01*
X209090609Y-114920814D01*
X209090602Y-114920827D01*
X209030264Y-115066498D01*
X209030261Y-115066510D01*
X208999500Y-115221153D01*
X208999500Y-115378846D01*
X209030261Y-115533489D01*
X209030264Y-115533501D01*
X209090602Y-115679172D01*
X209090609Y-115679185D01*
X209178210Y-115810288D01*
X209178213Y-115810292D01*
X209289707Y-115921786D01*
X209289711Y-115921789D01*
X209420814Y-116009390D01*
X209420827Y-116009397D01*
X209566498Y-116069735D01*
X209566503Y-116069737D01*
X209721153Y-116100499D01*
X209721156Y-116100500D01*
X209721158Y-116100500D01*
X209878844Y-116100500D01*
X209878845Y-116100499D01*
X210033497Y-116069737D01*
X210151592Y-116020821D01*
X210179172Y-116009397D01*
X210179172Y-116009396D01*
X210179179Y-116009394D01*
X210179184Y-116009390D01*
X210179187Y-116009389D01*
X210236201Y-115971293D01*
X210302878Y-115950414D01*
X210370259Y-115968898D01*
X210408195Y-116005503D01*
X210478210Y-116110289D01*
X210589707Y-116221786D01*
X210589711Y-116221789D01*
X210720814Y-116309390D01*
X210720827Y-116309397D01*
X210792871Y-116339238D01*
X210866503Y-116369737D01*
X211021153Y-116400499D01*
X211021156Y-116400500D01*
X211021158Y-116400500D01*
X211178844Y-116400500D01*
X211178845Y-116400499D01*
X211333497Y-116369737D01*
X211479179Y-116309394D01*
X211610289Y-116221789D01*
X211616163Y-116215914D01*
X211677481Y-116182429D01*
X211728037Y-116181977D01*
X211821155Y-116200500D01*
X211821158Y-116200500D01*
X211978843Y-116200500D01*
X212012334Y-116193837D01*
X212071962Y-116181977D01*
X212141552Y-116188204D01*
X212183834Y-116215913D01*
X212189707Y-116221786D01*
X212189711Y-116221789D01*
X212320814Y-116309390D01*
X212320827Y-116309397D01*
X212392871Y-116339238D01*
X212466503Y-116369737D01*
X212621153Y-116400499D01*
X212621156Y-116400500D01*
X212621158Y-116400500D01*
X212778844Y-116400500D01*
X212778845Y-116400499D01*
X212933497Y-116369737D01*
X213079179Y-116309394D01*
X213210289Y-116221789D01*
X213321789Y-116110289D01*
X213409394Y-115979179D01*
X213412661Y-115971293D01*
X213423067Y-115946166D01*
X213469737Y-115833497D01*
X213500500Y-115678842D01*
X213500500Y-115521158D01*
X213500500Y-115521155D01*
X213500499Y-115521153D01*
X213469738Y-115366510D01*
X213469737Y-115366503D01*
X213409532Y-115221153D01*
X213409397Y-115220827D01*
X213409390Y-115220814D01*
X213321789Y-115089711D01*
X213321786Y-115089707D01*
X213278337Y-115046258D01*
X213244852Y-114984935D01*
X213249836Y-114915243D01*
X213278335Y-114870898D01*
X214387819Y-113761415D01*
X214449142Y-113727930D01*
X214518834Y-113732914D01*
X214574767Y-113774786D01*
X214599184Y-113840250D01*
X214599500Y-113849096D01*
X214599500Y-113878846D01*
X214630261Y-114033489D01*
X214630264Y-114033501D01*
X214690602Y-114179172D01*
X214690609Y-114179185D01*
X214778210Y-114310288D01*
X214778213Y-114310292D01*
X214889707Y-114421786D01*
X214889711Y-114421789D01*
X215020814Y-114509390D01*
X215020827Y-114509397D01*
X215166498Y-114569735D01*
X215166503Y-114569737D01*
X215321153Y-114600499D01*
X215321156Y-114600500D01*
X215321158Y-114600500D01*
X215478844Y-114600500D01*
X215478845Y-114600499D01*
X215633497Y-114569737D01*
X215779179Y-114509394D01*
X215779185Y-114509390D01*
X215910875Y-114421398D01*
X215977553Y-114400520D01*
X215979766Y-114400500D01*
X217774500Y-114400500D01*
X217841539Y-114420185D01*
X217887294Y-114472989D01*
X217898500Y-114524500D01*
X217898500Y-125419939D01*
X217898499Y-125419943D01*
X217898499Y-125459735D01*
X217898499Y-125475163D01*
X217887792Y-125511624D01*
X217879342Y-125540403D01*
X217878813Y-125542202D01*
X217826009Y-125587956D01*
X217774238Y-125595399D01*
X217756852Y-125597899D01*
X217756851Y-125597898D01*
X217756850Y-125597899D01*
X217756846Y-125597897D01*
X217727047Y-125589722D01*
X217583501Y-125530264D01*
X217583489Y-125530261D01*
X217428845Y-125499500D01*
X217428842Y-125499500D01*
X217271158Y-125499500D01*
X217271155Y-125499500D01*
X217116510Y-125530261D01*
X217116498Y-125530264D01*
X216970827Y-125590602D01*
X216970814Y-125590609D01*
X216839711Y-125678210D01*
X216839707Y-125678213D01*
X216728213Y-125789707D01*
X216728210Y-125789711D01*
X216640609Y-125920814D01*
X216640602Y-125920827D01*
X216580264Y-126066498D01*
X216580261Y-126066510D01*
X216549500Y-126221153D01*
X216549500Y-126378846D01*
X216580261Y-126533489D01*
X216580264Y-126533501D01*
X216640602Y-126679172D01*
X216640609Y-126679185D01*
X216728210Y-126810288D01*
X216728213Y-126810292D01*
X216839707Y-126921786D01*
X216839711Y-126921789D01*
X216970814Y-127009390D01*
X216970827Y-127009397D01*
X217044013Y-127039711D01*
X217116503Y-127069737D01*
X217267086Y-127099690D01*
X217271153Y-127100499D01*
X217271156Y-127100500D01*
X217271158Y-127100500D01*
X217428844Y-127100500D01*
X217428845Y-127100499D01*
X217583497Y-127069737D01*
X217729179Y-127009394D01*
X217860289Y-126921789D01*
X217971789Y-126810289D01*
X218059394Y-126679179D01*
X218119737Y-126533497D01*
X218150500Y-126378842D01*
X218150500Y-126299097D01*
X218170185Y-126232058D01*
X218222989Y-126186303D01*
X218292147Y-126176359D01*
X218355703Y-126205384D01*
X218362181Y-126211416D01*
X218865425Y-126714660D01*
X218898910Y-126775983D01*
X218899361Y-126778149D01*
X218930261Y-126933491D01*
X218930264Y-126933501D01*
X218990602Y-127079172D01*
X218990609Y-127079185D01*
X219078210Y-127210288D01*
X219078213Y-127210292D01*
X219189707Y-127321786D01*
X219189711Y-127321789D01*
X219320814Y-127409390D01*
X219320827Y-127409397D01*
X219466498Y-127469735D01*
X219466503Y-127469737D01*
X219621153Y-127500499D01*
X219621156Y-127500500D01*
X219621158Y-127500500D01*
X219778844Y-127500500D01*
X219778845Y-127500499D01*
X219933497Y-127469737D01*
X220079179Y-127409394D01*
X220210289Y-127321789D01*
X220321789Y-127210289D01*
X220409394Y-127079179D01*
X220469737Y-126933497D01*
X220500500Y-126778842D01*
X220500500Y-126621158D01*
X220500500Y-126621155D01*
X220488022Y-126558428D01*
X220494249Y-126488837D01*
X220537111Y-126433659D01*
X220603001Y-126410414D01*
X220670998Y-126426481D01*
X220697320Y-126446555D01*
X220964283Y-126713518D01*
X220997768Y-126774841D01*
X220992784Y-126844533D01*
X220950912Y-126900466D01*
X220945494Y-126904300D01*
X220909713Y-126928208D01*
X220909707Y-126928213D01*
X220798213Y-127039707D01*
X220798210Y-127039711D01*
X220710609Y-127170814D01*
X220710602Y-127170827D01*
X220650264Y-127316498D01*
X220650261Y-127316510D01*
X220619500Y-127471153D01*
X220619500Y-127628846D01*
X220650261Y-127783489D01*
X220650264Y-127783501D01*
X220710602Y-127929172D01*
X220710612Y-127929190D01*
X220757008Y-127998627D01*
X220777886Y-128065304D01*
X220759401Y-128132684D01*
X220757008Y-128136407D01*
X220700612Y-128220809D01*
X220700602Y-128220827D01*
X220640264Y-128366498D01*
X220640261Y-128366510D01*
X220609500Y-128521153D01*
X220609500Y-128678846D01*
X220640261Y-128833489D01*
X220640264Y-128833501D01*
X220700602Y-128979172D01*
X220700609Y-128979185D01*
X220788210Y-129110288D01*
X220788213Y-129110292D01*
X220899707Y-129221786D01*
X220899711Y-129221789D01*
X221030814Y-129309390D01*
X221030827Y-129309397D01*
X221143119Y-129355909D01*
X221176503Y-129369737D01*
X221331153Y-129400499D01*
X221331156Y-129400500D01*
X221331158Y-129400500D01*
X221488844Y-129400500D01*
X221488845Y-129400499D01*
X221643497Y-129369737D01*
X221789179Y-129309394D01*
X221873899Y-129252786D01*
X221920875Y-129221398D01*
X221987553Y-129200520D01*
X221989766Y-129200500D01*
X223620939Y-129200500D01*
X223620943Y-129200501D01*
X223779057Y-129200501D01*
X223779061Y-129200500D01*
X234520234Y-129200500D01*
X234587273Y-129220185D01*
X234589125Y-129221398D01*
X234720814Y-129309390D01*
X234720827Y-129309397D01*
X234833119Y-129355909D01*
X234866503Y-129369737D01*
X235021153Y-129400499D01*
X235021156Y-129400500D01*
X235021158Y-129400500D01*
X235178844Y-129400500D01*
X235178845Y-129400499D01*
X235333497Y-129369737D01*
X235479179Y-129309394D01*
X235610289Y-129221789D01*
X235721789Y-129110289D01*
X235809394Y-128979179D01*
X235869737Y-128833497D01*
X235900500Y-128678842D01*
X235900500Y-128521158D01*
X235900500Y-128521155D01*
X235900499Y-128521153D01*
X235869738Y-128366510D01*
X235869737Y-128366503D01*
X235869735Y-128366498D01*
X235809397Y-128220827D01*
X235809390Y-128220814D01*
X235721789Y-128089711D01*
X235721786Y-128089707D01*
X235610292Y-127978213D01*
X235610288Y-127978210D01*
X235479185Y-127890609D01*
X235479172Y-127890602D01*
X235333501Y-127830264D01*
X235333489Y-127830261D01*
X235178845Y-127799500D01*
X235178842Y-127799500D01*
X235021158Y-127799500D01*
X235021155Y-127799500D01*
X234866510Y-127830261D01*
X234866498Y-127830264D01*
X234720827Y-127890602D01*
X234720814Y-127890609D01*
X234589125Y-127978602D01*
X234522447Y-127999480D01*
X234520234Y-127999500D01*
X231745134Y-127999500D01*
X231718866Y-127991786D01*
X231691834Y-127987460D01*
X231685827Y-127982085D01*
X231678095Y-127979815D01*
X231660169Y-127959128D01*
X231639765Y-127940871D01*
X231637617Y-127933101D01*
X231632340Y-127927011D01*
X231628443Y-127899914D01*
X231621150Y-127873527D01*
X231623215Y-127863555D01*
X231622396Y-127857853D01*
X231626728Y-127838676D01*
X231628406Y-127833277D01*
X231669737Y-127733497D01*
X231688013Y-127641612D01*
X231689949Y-127635390D01*
X231705830Y-127611522D01*
X231719121Y-127586113D01*
X231727267Y-127579304D01*
X231728654Y-127577221D01*
X231730977Y-127576204D01*
X231739459Y-127569115D01*
X231810289Y-127521789D01*
X231921789Y-127410289D01*
X232009394Y-127279179D01*
X232069737Y-127133497D01*
X232100500Y-126978842D01*
X232100500Y-126821158D01*
X232100500Y-126821155D01*
X232100499Y-126821153D01*
X232098338Y-126810288D01*
X232069737Y-126666503D01*
X232050955Y-126621158D01*
X232009397Y-126520827D01*
X232009390Y-126520814D01*
X231921789Y-126389711D01*
X231921786Y-126389707D01*
X231810289Y-126278210D01*
X231739464Y-126230887D01*
X231723295Y-126211539D01*
X231704198Y-126195071D01*
X231699179Y-126182683D01*
X231694659Y-126177275D01*
X231689461Y-126163001D01*
X231687849Y-126157559D01*
X231669737Y-126066503D01*
X231638646Y-125991444D01*
X231636802Y-125985216D01*
X231636734Y-125956521D01*
X231633666Y-125927984D01*
X231636642Y-125917845D01*
X231636637Y-125915346D01*
X231638005Y-125913205D01*
X231641133Y-125902552D01*
X231669737Y-125833497D01*
X231686739Y-125748021D01*
X231719121Y-125686113D01*
X231739459Y-125669115D01*
X231810289Y-125621789D01*
X231921789Y-125510289D01*
X232009394Y-125379179D01*
X232069737Y-125233497D01*
X232100500Y-125078842D01*
X232100500Y-124921158D01*
X232100500Y-124921155D01*
X232100499Y-124921153D01*
X232100432Y-124920814D01*
X232069737Y-124766503D01*
X232059756Y-124742408D01*
X232052288Y-124672941D01*
X232083563Y-124610462D01*
X232105422Y-124591858D01*
X232210289Y-124521789D01*
X232321789Y-124410289D01*
X232409394Y-124279179D01*
X232469737Y-124133497D01*
X232500500Y-123978842D01*
X232500500Y-123821158D01*
X232500500Y-123821155D01*
X232500499Y-123821153D01*
X232499573Y-123816498D01*
X232469737Y-123666503D01*
X232469735Y-123666498D01*
X232426457Y-123562013D01*
X232418988Y-123492544D01*
X232450264Y-123430065D01*
X232510353Y-123394413D01*
X232516817Y-123392946D01*
X232633497Y-123369737D01*
X232779179Y-123309394D01*
X232910289Y-123221789D01*
X233021789Y-123110289D01*
X233109394Y-122979179D01*
X233169737Y-122833497D01*
X233200500Y-122678842D01*
X233200500Y-122521158D01*
X233200500Y-122521155D01*
X233200499Y-122521153D01*
X233194244Y-122489707D01*
X233169737Y-122366503D01*
X233150646Y-122320413D01*
X233109397Y-122220827D01*
X233109390Y-122220814D01*
X233021789Y-122089711D01*
X233021786Y-122089707D01*
X232910292Y-121978213D01*
X232910288Y-121978210D01*
X232779185Y-121890609D01*
X232779172Y-121890602D01*
X232633501Y-121830264D01*
X232633489Y-121830261D01*
X232478845Y-121799500D01*
X232478842Y-121799500D01*
X232321158Y-121799500D01*
X232321155Y-121799500D01*
X232166510Y-121830261D01*
X232166498Y-121830264D01*
X232020827Y-121890602D01*
X232020814Y-121890609D01*
X231889711Y-121978210D01*
X231889707Y-121978213D01*
X231778213Y-122089707D01*
X231778207Y-122089715D01*
X231741675Y-122144390D01*
X231688063Y-122189196D01*
X231638573Y-122199500D01*
X231621155Y-122199500D01*
X231466510Y-122230261D01*
X231466498Y-122230264D01*
X231320827Y-122290602D01*
X231320814Y-122290609D01*
X231189125Y-122378602D01*
X231122447Y-122399480D01*
X231120234Y-122399500D01*
X224279766Y-122399500D01*
X224212727Y-122379815D01*
X224210875Y-122378602D01*
X224079185Y-122290609D01*
X224079172Y-122290602D01*
X223933501Y-122230264D01*
X223933489Y-122230261D01*
X223778845Y-122199500D01*
X223778842Y-122199500D01*
X223621158Y-122199500D01*
X223621155Y-122199500D01*
X223466510Y-122230261D01*
X223466498Y-122230264D01*
X223320827Y-122290602D01*
X223320814Y-122290609D01*
X223189711Y-122378210D01*
X223189707Y-122378213D01*
X223078213Y-122489707D01*
X223078210Y-122489711D01*
X222990609Y-122620814D01*
X222990602Y-122620827D01*
X222930264Y-122766498D01*
X222930261Y-122766510D01*
X222899500Y-122921153D01*
X222899500Y-123078846D01*
X222930261Y-123233489D01*
X222930264Y-123233501D01*
X222979574Y-123352548D01*
X222987043Y-123422018D01*
X222979574Y-123447452D01*
X222930264Y-123566498D01*
X222930261Y-123566510D01*
X222899500Y-123721153D01*
X222899500Y-123878846D01*
X222930261Y-124033489D01*
X222930264Y-124033501D01*
X222990602Y-124179172D01*
X222990609Y-124179185D01*
X223078210Y-124310288D01*
X223078213Y-124310292D01*
X223189707Y-124421786D01*
X223189711Y-124421789D01*
X223320814Y-124509390D01*
X223320827Y-124509397D01*
X223466498Y-124569735D01*
X223466503Y-124569737D01*
X223577692Y-124591854D01*
X223621153Y-124600499D01*
X223621156Y-124600500D01*
X223621158Y-124600500D01*
X223778844Y-124600500D01*
X223778845Y-124600499D01*
X223933497Y-124569737D01*
X224079179Y-124509394D01*
X224079185Y-124509390D01*
X224210875Y-124421398D01*
X224277553Y-124400520D01*
X224279766Y-124400500D01*
X228105832Y-124400500D01*
X228172871Y-124420185D01*
X228218626Y-124472989D01*
X228228570Y-124542147D01*
X228208933Y-124593392D01*
X228190610Y-124620812D01*
X228190602Y-124620827D01*
X228130264Y-124766498D01*
X228130261Y-124766510D01*
X228099500Y-124921153D01*
X228099500Y-125078846D01*
X228130261Y-125233489D01*
X228130264Y-125233501D01*
X228190602Y-125379172D01*
X228190609Y-125379185D01*
X228278210Y-125510288D01*
X228278213Y-125510292D01*
X228389707Y-125621786D01*
X228389711Y-125621789D01*
X228460534Y-125669112D01*
X228476705Y-125688462D01*
X228495799Y-125704928D01*
X228500817Y-125717313D01*
X228505339Y-125722724D01*
X228510537Y-125736998D01*
X228512152Y-125742452D01*
X228530263Y-125833497D01*
X228561351Y-125908552D01*
X228563197Y-125914784D01*
X228563264Y-125943476D01*
X228566333Y-125972018D01*
X228563356Y-125982156D01*
X228563362Y-125984653D01*
X228561995Y-125986791D01*
X228558865Y-125997447D01*
X228535594Y-126053632D01*
X228530262Y-126066506D01*
X228530261Y-126066509D01*
X228513260Y-126151977D01*
X228480875Y-126213888D01*
X228460536Y-126230886D01*
X228421257Y-126257131D01*
X228389713Y-126278210D01*
X228389707Y-126278214D01*
X228389704Y-126278217D01*
X228278213Y-126389707D01*
X228278210Y-126389711D01*
X228190609Y-126520814D01*
X228190602Y-126520827D01*
X228130264Y-126666498D01*
X228130261Y-126666510D01*
X228099500Y-126821153D01*
X228099500Y-126978846D01*
X228130261Y-127133489D01*
X228130264Y-127133501D01*
X228190602Y-127279172D01*
X228190609Y-127279185D01*
X228278210Y-127410288D01*
X228278213Y-127410292D01*
X228389707Y-127521786D01*
X228389711Y-127521789D01*
X228460534Y-127569112D01*
X228476182Y-127587836D01*
X228494878Y-127603522D01*
X228500338Y-127616740D01*
X228505339Y-127622724D01*
X228510049Y-127635389D01*
X228511987Y-127641621D01*
X228530263Y-127733497D01*
X228571594Y-127833279D01*
X228573272Y-127838675D01*
X228573741Y-127868177D01*
X228576896Y-127897517D01*
X228574291Y-127902720D01*
X228574384Y-127908536D01*
X228558830Y-127933607D01*
X228545621Y-127959996D01*
X228540617Y-127962964D01*
X228537551Y-127967908D01*
X228510909Y-127980591D01*
X228485532Y-127995648D01*
X228477041Y-127996714D01*
X228474465Y-127997941D01*
X228470898Y-127997486D01*
X228454866Y-127999500D01*
X224000097Y-127999500D01*
X223933058Y-127979815D01*
X223912416Y-127963181D01*
X220919095Y-124969860D01*
X220885610Y-124908537D01*
X220890594Y-124838845D01*
X220932466Y-124782912D01*
X220959323Y-124767618D01*
X220979179Y-124759394D01*
X221110289Y-124671789D01*
X221221789Y-124560289D01*
X221309394Y-124429179D01*
X221369737Y-124283497D01*
X221400500Y-124128842D01*
X221400500Y-123971158D01*
X221400500Y-123971155D01*
X221400499Y-123971153D01*
X221369738Y-123816510D01*
X221369737Y-123816503D01*
X221330242Y-123721153D01*
X221309397Y-123670827D01*
X221309390Y-123670814D01*
X221221398Y-123539125D01*
X221200520Y-123472447D01*
X221200500Y-123470234D01*
X221200500Y-123053901D01*
X221200499Y-123053897D01*
X221194858Y-123032842D01*
X221159577Y-122901172D01*
X221151632Y-122887412D01*
X221144349Y-122874797D01*
X221129121Y-122848422D01*
X221080520Y-122764241D01*
X220968716Y-122652437D01*
X220968715Y-122652436D01*
X220964385Y-122648106D01*
X220964374Y-122648096D01*
X220538819Y-122222541D01*
X220505334Y-122161218D01*
X220502500Y-122134860D01*
X220502500Y-114024500D01*
X220522185Y-113957461D01*
X220574989Y-113911706D01*
X220626500Y-113900500D01*
X220778844Y-113900500D01*
X220778845Y-113900499D01*
X220933497Y-113869737D01*
X221050923Y-113821097D01*
X221120392Y-113813629D01*
X221182871Y-113844904D01*
X221218523Y-113904993D01*
X221216029Y-113974818D01*
X221201478Y-114004549D01*
X221190608Y-114020816D01*
X221190602Y-114020827D01*
X221130264Y-114166498D01*
X221130261Y-114166510D01*
X221099500Y-114321153D01*
X221099500Y-114478846D01*
X221130261Y-114633489D01*
X221130264Y-114633501D01*
X221190602Y-114779172D01*
X221190609Y-114779185D01*
X221278210Y-114910288D01*
X221278213Y-114910292D01*
X221389707Y-115021786D01*
X221389711Y-115021789D01*
X221520814Y-115109390D01*
X221520827Y-115109397D01*
X221659386Y-115166789D01*
X221666503Y-115169737D01*
X221821153Y-115200499D01*
X221821156Y-115200500D01*
X221821158Y-115200500D01*
X221978844Y-115200500D01*
X221978845Y-115200499D01*
X222133497Y-115169737D01*
X222279179Y-115109394D01*
X222333663Y-115072989D01*
X222410875Y-115021398D01*
X222477553Y-115000520D01*
X222479766Y-115000500D01*
X228075500Y-115000500D01*
X228142539Y-115020185D01*
X228188294Y-115072989D01*
X228199500Y-115124500D01*
X228199500Y-115278846D01*
X228230261Y-115433489D01*
X228230264Y-115433501D01*
X228290602Y-115579172D01*
X228290609Y-115579185D01*
X228378210Y-115710288D01*
X228378213Y-115710292D01*
X228380240Y-115712319D01*
X228380962Y-115713642D01*
X228382076Y-115714999D01*
X228381818Y-115715210D01*
X228413725Y-115773642D01*
X228408741Y-115843334D01*
X228382001Y-115884939D01*
X228382076Y-115885001D01*
X228381552Y-115885639D01*
X228380240Y-115887681D01*
X228378213Y-115889707D01*
X228378210Y-115889711D01*
X228290609Y-116020814D01*
X228290602Y-116020827D01*
X228230264Y-116166498D01*
X228230261Y-116166510D01*
X228199500Y-116321153D01*
X228199500Y-116478846D01*
X228230260Y-116633488D01*
X228230262Y-116633493D01*
X228230263Y-116633497D01*
X228258864Y-116702547D01*
X228258865Y-116702549D01*
X228266333Y-116772018D01*
X228258865Y-116797451D01*
X228230262Y-116866506D01*
X228230260Y-116866511D01*
X228199500Y-117021153D01*
X228199500Y-117178846D01*
X228230261Y-117333489D01*
X228230264Y-117333501D01*
X228290602Y-117479172D01*
X228290609Y-117479185D01*
X228378210Y-117610288D01*
X228378213Y-117610292D01*
X228380240Y-117612319D01*
X228380962Y-117613642D01*
X228382076Y-117614999D01*
X228381818Y-117615210D01*
X228413725Y-117673642D01*
X228408741Y-117743334D01*
X228382001Y-117784939D01*
X228382076Y-117785001D01*
X228381552Y-117785639D01*
X228380240Y-117787681D01*
X228378213Y-117789707D01*
X228378210Y-117789711D01*
X228290609Y-117920814D01*
X228290602Y-117920827D01*
X228230264Y-118066498D01*
X228230261Y-118066510D01*
X228199500Y-118221153D01*
X228199500Y-118378846D01*
X228230261Y-118533489D01*
X228230264Y-118533501D01*
X228290602Y-118679172D01*
X228290609Y-118679185D01*
X228378210Y-118810288D01*
X228378213Y-118810292D01*
X228489707Y-118921786D01*
X228489711Y-118921789D01*
X228620814Y-119009390D01*
X228620827Y-119009397D01*
X228710722Y-119046632D01*
X228766503Y-119069737D01*
X228865858Y-119089500D01*
X228921153Y-119100499D01*
X228921156Y-119100500D01*
X228921158Y-119100500D01*
X229078844Y-119100500D01*
X229078845Y-119100499D01*
X229233497Y-119069737D01*
X229352548Y-119020425D01*
X229422017Y-119012956D01*
X229447453Y-119020425D01*
X229566503Y-119069737D01*
X229665858Y-119089500D01*
X229721153Y-119100499D01*
X229721156Y-119100500D01*
X229721158Y-119100500D01*
X229878844Y-119100500D01*
X229878845Y-119100499D01*
X230033497Y-119069737D01*
X230152548Y-119020425D01*
X230222017Y-119012956D01*
X230247453Y-119020425D01*
X230366503Y-119069737D01*
X230465858Y-119089500D01*
X230521153Y-119100499D01*
X230521156Y-119100500D01*
X230521158Y-119100500D01*
X230678844Y-119100500D01*
X230678845Y-119100499D01*
X230833497Y-119069737D01*
X230979179Y-119009394D01*
X231110289Y-118921789D01*
X231221789Y-118810289D01*
X231309394Y-118679179D01*
X231369737Y-118533497D01*
X231386739Y-118448021D01*
X231419121Y-118386113D01*
X231439459Y-118369115D01*
X231510289Y-118321789D01*
X231621789Y-118210289D01*
X231709394Y-118079179D01*
X231769737Y-117933497D01*
X231800500Y-117778842D01*
X231800500Y-117621158D01*
X231800500Y-117621155D01*
X231800499Y-117621153D01*
X231782419Y-117530261D01*
X231769737Y-117466503D01*
X231769735Y-117466498D01*
X231709397Y-117320827D01*
X231709390Y-117320814D01*
X231621789Y-117189711D01*
X231621786Y-117189707D01*
X231510289Y-117078210D01*
X231439464Y-117030887D01*
X231423295Y-117011539D01*
X231404198Y-116995071D01*
X231399179Y-116982683D01*
X231394659Y-116977275D01*
X231389461Y-116963001D01*
X231387849Y-116957559D01*
X231369737Y-116866503D01*
X231338646Y-116791444D01*
X231336802Y-116785216D01*
X231336734Y-116756521D01*
X231333666Y-116727984D01*
X231336642Y-116717845D01*
X231336637Y-116715346D01*
X231338005Y-116713205D01*
X231341133Y-116702552D01*
X231369737Y-116633497D01*
X231386739Y-116548021D01*
X231419121Y-116486113D01*
X231439459Y-116469115D01*
X231510289Y-116421789D01*
X231592841Y-116339236D01*
X231654162Y-116305752D01*
X231723853Y-116310736D01*
X231727973Y-116312357D01*
X231792871Y-116339238D01*
X231866503Y-116369737D01*
X232021153Y-116400499D01*
X232021156Y-116400500D01*
X232021158Y-116400500D01*
X232178844Y-116400500D01*
X232178845Y-116400499D01*
X232333497Y-116369737D01*
X232479179Y-116309394D01*
X232610289Y-116221789D01*
X232721789Y-116110289D01*
X232809394Y-115979179D01*
X232812661Y-115971293D01*
X232823067Y-115946166D01*
X232869737Y-115833497D01*
X232900500Y-115678842D01*
X232900500Y-115521158D01*
X232900500Y-115521155D01*
X232900499Y-115521153D01*
X232869738Y-115366510D01*
X232869737Y-115366503D01*
X232809532Y-115221153D01*
X232809397Y-115220827D01*
X232809390Y-115220814D01*
X232721789Y-115089711D01*
X232721786Y-115089707D01*
X232610292Y-114978213D01*
X232610288Y-114978210D01*
X232479185Y-114890609D01*
X232479172Y-114890602D01*
X232333501Y-114830264D01*
X232333491Y-114830261D01*
X232178149Y-114799361D01*
X232116238Y-114766976D01*
X232114660Y-114765425D01*
X231413754Y-114064519D01*
X231380269Y-114003196D01*
X231385253Y-113933504D01*
X231427125Y-113877571D01*
X231432521Y-113873751D01*
X231510289Y-113821789D01*
X231621789Y-113710289D01*
X231709394Y-113579179D01*
X231769737Y-113433497D01*
X231800500Y-113278842D01*
X231800500Y-113121158D01*
X231800500Y-113121155D01*
X231800499Y-113121153D01*
X231789105Y-113063871D01*
X231769737Y-112966503D01*
X231746454Y-112910292D01*
X231709397Y-112820827D01*
X231709390Y-112820814D01*
X231621789Y-112689711D01*
X231619766Y-112687688D01*
X231619043Y-112686365D01*
X231617924Y-112685001D01*
X231618182Y-112684788D01*
X231586276Y-112626368D01*
X231591255Y-112556676D01*
X231617999Y-112515060D01*
X231617924Y-112514999D01*
X231618454Y-112514351D01*
X231619766Y-112512312D01*
X231621789Y-112510289D01*
X231709394Y-112379179D01*
X231769737Y-112233497D01*
X231800500Y-112078842D01*
X231800500Y-111921158D01*
X231800500Y-111921155D01*
X231800499Y-111921153D01*
X231772192Y-111778846D01*
X231769737Y-111766503D01*
X231756803Y-111735279D01*
X231749335Y-111665812D01*
X231780610Y-111603333D01*
X231828457Y-111573488D01*
X231827869Y-111572068D01*
X231979172Y-111509397D01*
X231979172Y-111509396D01*
X231979179Y-111509394D01*
X232110289Y-111421789D01*
X232221789Y-111310289D01*
X232309394Y-111179179D01*
X232312719Y-111171153D01*
X232332789Y-111122697D01*
X232369737Y-111033497D01*
X232400500Y-110878842D01*
X232400500Y-110721158D01*
X232400500Y-110721155D01*
X232400499Y-110721153D01*
X232394660Y-110691797D01*
X232369737Y-110566503D01*
X232367630Y-110561416D01*
X232326457Y-110462013D01*
X232318988Y-110392544D01*
X232350264Y-110330065D01*
X232410353Y-110294413D01*
X232416817Y-110292946D01*
X232533497Y-110269737D01*
X232679179Y-110209394D01*
X232810289Y-110121789D01*
X232921789Y-110010289D01*
X233009394Y-109879179D01*
X233069737Y-109733497D01*
X233100500Y-109578842D01*
X233100500Y-109421158D01*
X233100500Y-109421155D01*
X233100499Y-109421153D01*
X233092150Y-109379179D01*
X233069737Y-109266503D01*
X233038298Y-109190602D01*
X233009397Y-109120827D01*
X233009390Y-109120814D01*
X232921789Y-108989711D01*
X232921786Y-108989707D01*
X232810292Y-108878213D01*
X232810288Y-108878210D01*
X232679185Y-108790609D01*
X232679172Y-108790602D01*
X232533501Y-108730264D01*
X232533489Y-108730261D01*
X232378845Y-108699500D01*
X232378842Y-108699500D01*
X232221158Y-108699500D01*
X232221156Y-108699500D01*
X232215094Y-108700097D01*
X232215031Y-108699459D01*
X232201274Y-108700727D01*
X232185688Y-108700543D01*
X232178057Y-108698499D01*
X232019943Y-108698499D01*
X232019939Y-108698500D01*
X231794837Y-108698500D01*
X231727798Y-108678815D01*
X231682043Y-108626011D01*
X231672099Y-108556853D01*
X231691734Y-108505610D01*
X231703474Y-108488037D01*
X231709394Y-108479179D01*
X231769737Y-108333497D01*
X231800500Y-108178842D01*
X231800500Y-108021158D01*
X231800500Y-108021155D01*
X231800499Y-108021153D01*
X231798338Y-108010288D01*
X231769737Y-107866503D01*
X231769735Y-107866498D01*
X231709397Y-107720827D01*
X231709390Y-107720814D01*
X231621789Y-107589711D01*
X231621786Y-107589707D01*
X231510289Y-107478210D01*
X231439464Y-107430887D01*
X231423295Y-107411539D01*
X231404198Y-107395071D01*
X231399179Y-107382683D01*
X231394659Y-107377275D01*
X231389461Y-107363001D01*
X231387849Y-107357559D01*
X231369737Y-107266503D01*
X231338646Y-107191444D01*
X231336802Y-107185216D01*
X231336734Y-107156521D01*
X231333666Y-107127984D01*
X231336642Y-107117845D01*
X231336637Y-107115346D01*
X231338005Y-107113205D01*
X231341133Y-107102552D01*
X231369737Y-107033497D01*
X231386739Y-106948021D01*
X231419121Y-106886113D01*
X231439459Y-106869115D01*
X231510289Y-106821789D01*
X231621789Y-106710289D01*
X231709394Y-106579179D01*
X231769737Y-106433497D01*
X231800500Y-106278842D01*
X231800500Y-106121158D01*
X231800500Y-106121155D01*
X231800499Y-106121153D01*
X231796383Y-106100459D01*
X231769737Y-105966503D01*
X231715007Y-105834371D01*
X231709397Y-105820827D01*
X231709390Y-105820814D01*
X231621789Y-105689711D01*
X231621786Y-105689707D01*
X231510289Y-105578210D01*
X231439464Y-105530887D01*
X231423295Y-105511539D01*
X231404198Y-105495071D01*
X231399179Y-105482683D01*
X231394659Y-105477275D01*
X231389461Y-105463001D01*
X231387849Y-105457559D01*
X231369737Y-105366503D01*
X231338646Y-105291444D01*
X231336802Y-105285216D01*
X231336734Y-105256521D01*
X231333666Y-105227984D01*
X231336642Y-105217845D01*
X231336637Y-105215346D01*
X231338005Y-105213205D01*
X231341133Y-105202552D01*
X231369737Y-105133497D01*
X231386739Y-105048021D01*
X231419121Y-104986113D01*
X231439459Y-104969115D01*
X231510289Y-104921789D01*
X231621789Y-104810289D01*
X231709394Y-104679179D01*
X231769737Y-104533497D01*
X231800500Y-104378842D01*
X231800500Y-104221158D01*
X231800500Y-104221155D01*
X231800499Y-104221153D01*
X231787662Y-104156616D01*
X231769737Y-104066503D01*
X231769735Y-104066498D01*
X231709397Y-103920827D01*
X231709390Y-103920814D01*
X231621789Y-103789711D01*
X231621786Y-103789707D01*
X231510289Y-103678210D01*
X231439464Y-103630887D01*
X231423295Y-103611539D01*
X231404198Y-103595071D01*
X231399179Y-103582683D01*
X231394659Y-103577275D01*
X231389461Y-103563001D01*
X231387849Y-103557559D01*
X231369737Y-103466503D01*
X231338646Y-103391444D01*
X231336802Y-103385216D01*
X231336734Y-103356521D01*
X231333666Y-103327984D01*
X231336642Y-103317845D01*
X231336637Y-103315346D01*
X231338005Y-103313205D01*
X231341133Y-103302552D01*
X231369737Y-103233497D01*
X231386739Y-103148021D01*
X231419121Y-103086113D01*
X231439459Y-103069115D01*
X231510289Y-103021789D01*
X231621789Y-102910289D01*
X231709394Y-102779179D01*
X231711688Y-102773642D01*
X231727771Y-102734812D01*
X231769737Y-102633497D01*
X231800500Y-102478842D01*
X231800500Y-102321158D01*
X231800500Y-102321155D01*
X231800499Y-102321153D01*
X231798338Y-102310288D01*
X231769737Y-102166503D01*
X231715571Y-102035735D01*
X231708103Y-101966267D01*
X231739378Y-101903788D01*
X231799467Y-101868136D01*
X231860339Y-101869494D01*
X231860528Y-101868549D01*
X231865907Y-101869619D01*
X231866129Y-101869624D01*
X231866503Y-101869737D01*
X232021153Y-101900499D01*
X232021156Y-101900500D01*
X232021158Y-101900500D01*
X232178844Y-101900500D01*
X232178845Y-101900499D01*
X232333497Y-101869737D01*
X232451592Y-101820821D01*
X232479172Y-101809397D01*
X232479172Y-101809396D01*
X232479179Y-101809394D01*
X232610289Y-101721789D01*
X232721789Y-101610289D01*
X232809394Y-101479179D01*
X232869737Y-101333497D01*
X232900500Y-101178842D01*
X232900500Y-101021158D01*
X232900500Y-101021155D01*
X232900499Y-101021153D01*
X232887979Y-100958210D01*
X232869737Y-100866503D01*
X232846441Y-100810261D01*
X232809397Y-100720827D01*
X232809390Y-100720814D01*
X232721789Y-100589711D01*
X232721786Y-100589707D01*
X232610292Y-100478213D01*
X232610288Y-100478210D01*
X232479185Y-100390609D01*
X232479172Y-100390602D01*
X232333501Y-100330264D01*
X232333489Y-100330261D01*
X232178845Y-100299500D01*
X232178842Y-100299500D01*
X232021158Y-100299500D01*
X232021155Y-100299500D01*
X231866510Y-100330261D01*
X231866498Y-100330264D01*
X231720823Y-100390604D01*
X231720820Y-100390606D01*
X231717450Y-100392858D01*
X231692430Y-100400689D01*
X231668814Y-100412086D01*
X231657751Y-100411544D01*
X231650770Y-100413730D01*
X231633528Y-100412834D01*
X231624880Y-100411777D01*
X231579057Y-100399499D01*
X231524398Y-100399499D01*
X231516902Y-100398583D01*
X231491473Y-100387615D01*
X231464903Y-100379814D01*
X231459842Y-100373974D01*
X231452745Y-100370913D01*
X231437279Y-100347934D01*
X231419148Y-100327010D01*
X231418048Y-100319362D01*
X231413732Y-100312949D01*
X231413144Y-100285260D01*
X231409204Y-100257852D01*
X231412414Y-100250821D01*
X231412251Y-100243095D01*
X231426724Y-100219487D01*
X231438229Y-100194296D01*
X231444261Y-100187818D01*
X231521786Y-100110292D01*
X231521789Y-100110289D01*
X231609394Y-99979179D01*
X231669737Y-99833497D01*
X231686739Y-99748021D01*
X231719121Y-99686113D01*
X231739459Y-99669115D01*
X231810289Y-99621789D01*
X231921789Y-99510289D01*
X232009394Y-99379179D01*
X232069737Y-99233497D01*
X232100500Y-99078842D01*
X232100500Y-98921158D01*
X232100500Y-98921155D01*
X232100499Y-98921153D01*
X232081847Y-98827385D01*
X232069737Y-98766503D01*
X232069735Y-98766498D01*
X232009397Y-98620827D01*
X232009390Y-98620814D01*
X231921789Y-98489711D01*
X231921786Y-98489707D01*
X231810289Y-98378210D01*
X231739464Y-98330887D01*
X231694659Y-98277275D01*
X231686740Y-98251987D01*
X231669737Y-98166503D01*
X231642398Y-98100500D01*
X231609397Y-98020827D01*
X231609390Y-98020814D01*
X231521789Y-97889711D01*
X231521786Y-97889707D01*
X231410292Y-97778213D01*
X231410288Y-97778210D01*
X231279185Y-97690609D01*
X231279172Y-97690602D01*
X231133501Y-97630264D01*
X231133489Y-97630261D01*
X230978845Y-97599500D01*
X230978842Y-97599500D01*
X230821158Y-97599500D01*
X230821155Y-97599500D01*
X230666510Y-97630261D01*
X230666498Y-97630264D01*
X230547452Y-97679574D01*
X230477982Y-97687043D01*
X230452548Y-97679574D01*
X230333501Y-97630264D01*
X230333489Y-97630261D01*
X230178845Y-97599500D01*
X230178842Y-97599500D01*
X230021158Y-97599500D01*
X230021155Y-97599500D01*
X229866510Y-97630261D01*
X229866498Y-97630264D01*
X229747452Y-97679574D01*
X229677982Y-97687043D01*
X229652548Y-97679574D01*
X229533501Y-97630264D01*
X229533489Y-97630261D01*
X229378845Y-97599500D01*
X229378842Y-97599500D01*
X229221158Y-97599500D01*
X229221155Y-97599500D01*
X229066510Y-97630261D01*
X229066498Y-97630264D01*
X228920827Y-97690602D01*
X228920814Y-97690609D01*
X228789711Y-97778210D01*
X228789707Y-97778213D01*
X228678213Y-97889707D01*
X228678210Y-97889711D01*
X228590609Y-98020814D01*
X228590602Y-98020827D01*
X228530264Y-98166498D01*
X228530261Y-98166510D01*
X228499500Y-98321153D01*
X228499500Y-98478846D01*
X228530261Y-98633489D01*
X228530264Y-98633501D01*
X228590602Y-98779172D01*
X228590609Y-98779185D01*
X228678210Y-98910288D01*
X228678213Y-98910292D01*
X228680240Y-98912319D01*
X228680962Y-98913642D01*
X228682076Y-98914999D01*
X228681818Y-98915210D01*
X228713725Y-98973642D01*
X228708741Y-99043334D01*
X228682001Y-99084939D01*
X228682076Y-99085001D01*
X228681552Y-99085639D01*
X228680240Y-99087681D01*
X228678213Y-99089707D01*
X228678210Y-99089711D01*
X228590609Y-99220814D01*
X228590602Y-99220827D01*
X228530264Y-99366498D01*
X228530261Y-99366510D01*
X228499500Y-99521153D01*
X228499500Y-99678846D01*
X228530261Y-99833489D01*
X228530264Y-99833501D01*
X228590602Y-99979172D01*
X228590609Y-99979185D01*
X228678210Y-100110288D01*
X228678213Y-100110292D01*
X228755740Y-100187819D01*
X228789225Y-100249142D01*
X228784241Y-100318834D01*
X228742369Y-100374767D01*
X228676905Y-100399184D01*
X228668059Y-100399500D01*
X222299766Y-100399500D01*
X222232727Y-100379815D01*
X222230875Y-100378602D01*
X222099185Y-100290609D01*
X222099172Y-100290602D01*
X221953501Y-100230264D01*
X221953489Y-100230261D01*
X221798845Y-100199500D01*
X221798842Y-100199500D01*
X221641158Y-100199500D01*
X221641155Y-100199500D01*
X221486510Y-100230261D01*
X221486498Y-100230264D01*
X221340827Y-100290602D01*
X221340814Y-100290609D01*
X221209125Y-100378602D01*
X221142447Y-100399480D01*
X221140234Y-100399500D01*
X219350097Y-100399500D01*
X219283058Y-100379815D01*
X219262416Y-100363181D01*
X218837590Y-99938355D01*
X218837588Y-99938352D01*
X218718717Y-99819481D01*
X218718716Y-99819480D01*
X218631904Y-99769360D01*
X218631904Y-99769359D01*
X218631900Y-99769358D01*
X218581785Y-99740423D01*
X218429054Y-99699498D01*
X218420997Y-99698438D01*
X218421188Y-99696981D01*
X218362725Y-99679814D01*
X218360873Y-99678601D01*
X218229185Y-99590609D01*
X218229172Y-99590602D01*
X218083501Y-99530264D01*
X218083489Y-99530261D01*
X217928845Y-99499500D01*
X217928842Y-99499500D01*
X217877730Y-99499500D01*
X217857516Y-99493564D01*
X217836477Y-99492437D01*
X217824662Y-99483917D01*
X217810691Y-99479815D01*
X217796895Y-99463894D01*
X217779805Y-99451570D01*
X217774472Y-99438016D01*
X217764936Y-99427011D01*
X217761937Y-99406156D01*
X217754224Y-99386552D01*
X217755553Y-99361755D01*
X217754992Y-99357853D01*
X217756113Y-99351309D01*
X217775638Y-99253150D01*
X217808023Y-99191239D01*
X217809518Y-99189716D01*
X218078081Y-98921153D01*
X219899500Y-98921153D01*
X219899500Y-99078846D01*
X219930261Y-99233489D01*
X219930264Y-99233501D01*
X219990602Y-99379172D01*
X219990609Y-99379185D01*
X220078210Y-99510288D01*
X220078213Y-99510292D01*
X220189707Y-99621786D01*
X220189711Y-99621789D01*
X220320814Y-99709390D01*
X220320827Y-99709397D01*
X220395732Y-99740423D01*
X220466503Y-99769737D01*
X220621153Y-99800499D01*
X220621156Y-99800500D01*
X220621158Y-99800500D01*
X220778844Y-99800500D01*
X220778845Y-99800499D01*
X220933497Y-99769737D01*
X221079179Y-99709394D01*
X221210289Y-99621789D01*
X221321789Y-99510289D01*
X221409394Y-99379179D01*
X221469737Y-99233497D01*
X221500500Y-99078842D01*
X221500500Y-98921158D01*
X221500500Y-98921155D01*
X221500499Y-98921153D01*
X221481847Y-98827385D01*
X221469737Y-98766503D01*
X221469735Y-98766498D01*
X221409397Y-98620827D01*
X221409390Y-98620814D01*
X221321789Y-98489711D01*
X221321786Y-98489707D01*
X221210292Y-98378213D01*
X221210288Y-98378210D01*
X221079185Y-98290609D01*
X221079172Y-98290602D01*
X220933501Y-98230264D01*
X220933489Y-98230261D01*
X220778845Y-98199500D01*
X220778842Y-98199500D01*
X220621158Y-98199500D01*
X220621155Y-98199500D01*
X220466510Y-98230261D01*
X220466498Y-98230264D01*
X220320827Y-98290602D01*
X220320814Y-98290609D01*
X220189711Y-98378210D01*
X220189707Y-98378213D01*
X220078213Y-98489707D01*
X220078210Y-98489711D01*
X219990609Y-98620814D01*
X219990602Y-98620827D01*
X219930264Y-98766498D01*
X219930261Y-98766510D01*
X219899500Y-98921153D01*
X218078081Y-98921153D01*
X221463416Y-95535819D01*
X221524739Y-95502334D01*
X221551097Y-95499500D01*
X223219059Y-95499500D01*
X223286098Y-95519185D01*
X223331853Y-95571989D01*
X223341797Y-95641147D01*
X223312772Y-95704703D01*
X223306740Y-95711181D01*
X223228213Y-95789707D01*
X223228210Y-95789711D01*
X223140609Y-95920814D01*
X223140602Y-95920827D01*
X223080264Y-96066498D01*
X223080261Y-96066510D01*
X223049500Y-96221153D01*
X223049500Y-96378846D01*
X223080261Y-96533489D01*
X223080264Y-96533501D01*
X223140602Y-96679172D01*
X223140609Y-96679185D01*
X223175304Y-96731109D01*
X223196182Y-96797786D01*
X223177698Y-96865167D01*
X223175304Y-96868891D01*
X223140609Y-96920814D01*
X223140602Y-96920827D01*
X223080264Y-97066498D01*
X223080261Y-97066510D01*
X223049500Y-97221153D01*
X223049500Y-97378846D01*
X223080261Y-97533489D01*
X223080264Y-97533501D01*
X223140602Y-97679172D01*
X223140609Y-97679185D01*
X223228210Y-97810288D01*
X223228213Y-97810292D01*
X223339707Y-97921786D01*
X223339711Y-97921789D01*
X223470814Y-98009390D01*
X223470827Y-98009397D01*
X223608683Y-98066498D01*
X223616503Y-98069737D01*
X223771153Y-98100499D01*
X223771156Y-98100500D01*
X223771158Y-98100500D01*
X223928844Y-98100500D01*
X223928845Y-98100499D01*
X224083497Y-98069737D01*
X224201592Y-98020821D01*
X224229172Y-98009397D01*
X224229172Y-98009396D01*
X224229179Y-98009394D01*
X224229185Y-98009390D01*
X224360875Y-97921398D01*
X224427553Y-97900520D01*
X224429766Y-97900500D01*
X227963331Y-97900500D01*
X227963347Y-97900501D01*
X227970943Y-97900501D01*
X228129054Y-97900501D01*
X228129057Y-97900501D01*
X228281785Y-97859577D01*
X228344211Y-97823535D01*
X228418716Y-97780520D01*
X228530520Y-97668716D01*
X228530520Y-97668714D01*
X228540724Y-97658511D01*
X228540727Y-97658506D01*
X229162416Y-97036819D01*
X229223739Y-97003334D01*
X229250097Y-97000500D01*
X231020234Y-97000500D01*
X231087273Y-97020185D01*
X231089125Y-97021398D01*
X231220814Y-97109390D01*
X231220827Y-97109397D01*
X231366498Y-97169735D01*
X231366503Y-97169737D01*
X231521153Y-97200499D01*
X231521156Y-97200500D01*
X231521158Y-97200500D01*
X231678844Y-97200500D01*
X231678845Y-97200499D01*
X231833497Y-97169737D01*
X231979179Y-97109394D01*
X232110289Y-97021789D01*
X232221789Y-96910289D01*
X232309394Y-96779179D01*
X232369737Y-96633497D01*
X232400500Y-96478842D01*
X232400500Y-96321158D01*
X232400500Y-96321155D01*
X232400499Y-96321153D01*
X232396930Y-96303211D01*
X232369737Y-96166503D01*
X232354139Y-96128846D01*
X232326457Y-96062013D01*
X232318988Y-95992544D01*
X232350264Y-95930065D01*
X232410353Y-95894413D01*
X232416817Y-95892946D01*
X232533497Y-95869737D01*
X232679179Y-95809394D01*
X232810289Y-95721789D01*
X232921789Y-95610289D01*
X233009394Y-95479179D01*
X233069737Y-95333497D01*
X233100500Y-95178842D01*
X233100500Y-95021158D01*
X233100500Y-95021155D01*
X233100499Y-95021153D01*
X233078447Y-94910292D01*
X233069737Y-94866503D01*
X233033569Y-94779185D01*
X233009397Y-94720827D01*
X233009390Y-94720814D01*
X232921789Y-94589711D01*
X232921786Y-94589707D01*
X232810292Y-94478213D01*
X232810288Y-94478210D01*
X232679185Y-94390609D01*
X232679172Y-94390602D01*
X232533501Y-94330264D01*
X232533489Y-94330261D01*
X232378845Y-94299500D01*
X232378842Y-94299500D01*
X232221158Y-94299500D01*
X232221156Y-94299500D01*
X232215094Y-94300097D01*
X232215031Y-94299459D01*
X232201274Y-94300727D01*
X232185688Y-94300543D01*
X232178057Y-94298499D01*
X232019943Y-94298499D01*
X232019939Y-94298500D01*
X231424500Y-94298500D01*
X231357461Y-94278815D01*
X231311706Y-94226011D01*
X231300500Y-94174500D01*
X231300500Y-94021155D01*
X231300499Y-94021153D01*
X231274353Y-93889711D01*
X231269737Y-93866503D01*
X231233165Y-93778210D01*
X231209397Y-93720827D01*
X231209390Y-93720814D01*
X231121789Y-93589711D01*
X231119766Y-93587688D01*
X231119043Y-93586365D01*
X231117924Y-93585001D01*
X231118182Y-93584788D01*
X231086276Y-93526368D01*
X231091255Y-93456676D01*
X231117999Y-93415060D01*
X231117924Y-93414999D01*
X231118454Y-93414351D01*
X231119766Y-93412312D01*
X231121789Y-93410289D01*
X231209394Y-93279179D01*
X231269737Y-93133497D01*
X231300500Y-92978842D01*
X231300500Y-92821158D01*
X231300500Y-92821155D01*
X231300499Y-92821153D01*
X231287384Y-92755220D01*
X231269737Y-92666503D01*
X231241134Y-92597450D01*
X231233666Y-92527984D01*
X231241133Y-92502552D01*
X231269737Y-92433497D01*
X231300500Y-92278842D01*
X231300500Y-92121158D01*
X231300500Y-92121155D01*
X231300499Y-92121153D01*
X231269738Y-91966510D01*
X231269737Y-91966503D01*
X231241869Y-91899223D01*
X231209397Y-91820827D01*
X231209390Y-91820814D01*
X231121789Y-91689711D01*
X231119766Y-91687688D01*
X231119043Y-91686365D01*
X231117924Y-91685001D01*
X231118182Y-91684788D01*
X231086276Y-91626368D01*
X231091255Y-91556676D01*
X231117999Y-91515060D01*
X231117924Y-91514999D01*
X231118454Y-91514351D01*
X231119766Y-91512312D01*
X231121789Y-91510289D01*
X231209394Y-91379179D01*
X231243165Y-91297648D01*
X240199500Y-91297648D01*
X240199500Y-91502352D01*
X240201503Y-91514999D01*
X240231522Y-91704534D01*
X240294781Y-91899223D01*
X240387715Y-92081613D01*
X240508028Y-92247213D01*
X240652786Y-92391971D01*
X240804984Y-92502547D01*
X240818390Y-92512287D01*
X240934607Y-92571503D01*
X241000776Y-92605218D01*
X241000778Y-92605218D01*
X241000781Y-92605220D01*
X241105137Y-92639127D01*
X241195465Y-92668477D01*
X241296557Y-92684488D01*
X241397648Y-92700500D01*
X241397649Y-92700500D01*
X241602351Y-92700500D01*
X241602352Y-92700500D01*
X241804534Y-92668477D01*
X241999219Y-92605220D01*
X242181610Y-92512287D01*
X242290067Y-92433489D01*
X242347213Y-92391971D01*
X242347215Y-92391968D01*
X242347219Y-92391966D01*
X242491966Y-92247219D01*
X242491968Y-92247215D01*
X242491971Y-92247213D01*
X242544732Y-92174590D01*
X242612287Y-92081610D01*
X242705220Y-91899219D01*
X242768477Y-91704534D01*
X242800500Y-91502352D01*
X242800500Y-91297648D01*
X242790340Y-91233501D01*
X242768477Y-91095465D01*
X242739127Y-91005137D01*
X242705220Y-90900781D01*
X242705218Y-90900778D01*
X242705218Y-90900776D01*
X242636805Y-90766510D01*
X242612287Y-90718390D01*
X242600950Y-90702786D01*
X242491971Y-90552786D01*
X242347213Y-90408028D01*
X242181613Y-90287715D01*
X242181612Y-90287714D01*
X242181610Y-90287713D01*
X242106613Y-90249500D01*
X241999223Y-90194781D01*
X241804534Y-90131522D01*
X241629995Y-90103878D01*
X241602352Y-90099500D01*
X241397648Y-90099500D01*
X241373329Y-90103351D01*
X241195465Y-90131522D01*
X241000776Y-90194781D01*
X240818386Y-90287715D01*
X240652786Y-90408028D01*
X240508028Y-90552786D01*
X240387715Y-90718386D01*
X240294781Y-90900776D01*
X240231522Y-91095465D01*
X240207787Y-91245324D01*
X240199500Y-91297648D01*
X231243165Y-91297648D01*
X231269737Y-91233497D01*
X231300500Y-91078842D01*
X231300500Y-90921158D01*
X231300500Y-90921155D01*
X231300499Y-90921153D01*
X231269738Y-90766510D01*
X231269737Y-90766503D01*
X231249808Y-90718390D01*
X231209397Y-90620827D01*
X231209390Y-90620814D01*
X231121789Y-90489711D01*
X231121786Y-90489707D01*
X231010292Y-90378213D01*
X231010288Y-90378210D01*
X230879185Y-90290609D01*
X230879172Y-90290602D01*
X230733501Y-90230264D01*
X230733489Y-90230261D01*
X230578845Y-90199500D01*
X230578842Y-90199500D01*
X230421158Y-90199500D01*
X230421155Y-90199500D01*
X230266510Y-90230261D01*
X230266498Y-90230264D01*
X230147452Y-90279574D01*
X230077982Y-90287043D01*
X230052548Y-90279574D01*
X229933501Y-90230264D01*
X229933489Y-90230261D01*
X229778845Y-90199500D01*
X229778842Y-90199500D01*
X229621158Y-90199500D01*
X229621155Y-90199500D01*
X229466510Y-90230261D01*
X229466498Y-90230264D01*
X229347452Y-90279574D01*
X229277982Y-90287043D01*
X229252548Y-90279574D01*
X229133501Y-90230264D01*
X229133489Y-90230261D01*
X228978845Y-90199500D01*
X228978842Y-90199500D01*
X228821158Y-90199500D01*
X228821155Y-90199500D01*
X228666510Y-90230261D01*
X228666498Y-90230264D01*
X228547452Y-90279574D01*
X228477982Y-90287043D01*
X228452548Y-90279574D01*
X228333501Y-90230264D01*
X228333489Y-90230261D01*
X228178845Y-90199500D01*
X228178842Y-90199500D01*
X228021158Y-90199500D01*
X228021155Y-90199500D01*
X227866510Y-90230261D01*
X227866498Y-90230264D01*
X227720827Y-90290602D01*
X227720814Y-90290609D01*
X227589711Y-90378210D01*
X227589707Y-90378213D01*
X227478213Y-90489707D01*
X227478210Y-90489711D01*
X227390609Y-90620814D01*
X227390602Y-90620827D01*
X227330264Y-90766498D01*
X227330261Y-90766510D01*
X227299500Y-90921153D01*
X227299500Y-91078846D01*
X227330261Y-91233489D01*
X227330264Y-91233501D01*
X227390602Y-91379172D01*
X227390609Y-91379185D01*
X227478210Y-91510288D01*
X227478213Y-91510292D01*
X227480240Y-91512319D01*
X227480962Y-91513642D01*
X227482076Y-91514999D01*
X227481818Y-91515210D01*
X227513725Y-91573642D01*
X227508741Y-91643334D01*
X227482001Y-91684939D01*
X227482076Y-91685001D01*
X227481552Y-91685639D01*
X227480240Y-91687681D01*
X227478213Y-91689707D01*
X227478210Y-91689711D01*
X227390609Y-91820814D01*
X227390602Y-91820827D01*
X227330264Y-91966498D01*
X227330261Y-91966510D01*
X227299500Y-92121153D01*
X227299500Y-92278846D01*
X227330260Y-92433488D01*
X227330262Y-92433493D01*
X227330263Y-92433497D01*
X227358864Y-92502547D01*
X227358865Y-92502549D01*
X227366333Y-92572018D01*
X227358865Y-92597447D01*
X227330263Y-92666503D01*
X227330262Y-92666506D01*
X227330260Y-92666511D01*
X227299500Y-92821153D01*
X227299500Y-92978846D01*
X227330261Y-93133489D01*
X227330264Y-93133501D01*
X227390602Y-93279172D01*
X227390609Y-93279185D01*
X227478210Y-93410288D01*
X227478213Y-93410292D01*
X227480240Y-93412319D01*
X227480962Y-93413642D01*
X227482076Y-93414999D01*
X227481818Y-93415210D01*
X227513725Y-93473642D01*
X227508741Y-93543334D01*
X227482001Y-93584939D01*
X227482076Y-93585001D01*
X227481552Y-93585639D01*
X227480240Y-93587681D01*
X227478213Y-93589707D01*
X227478210Y-93589711D01*
X227390609Y-93720814D01*
X227390602Y-93720827D01*
X227330264Y-93866498D01*
X227330261Y-93866510D01*
X227299500Y-94021153D01*
X227299500Y-94174500D01*
X227279815Y-94241539D01*
X227227011Y-94287294D01*
X227175500Y-94298500D01*
X221330057Y-94298500D01*
X221171942Y-94298500D01*
X221019215Y-94339423D01*
X221019214Y-94339423D01*
X221019212Y-94339424D01*
X221019209Y-94339425D01*
X220969096Y-94368359D01*
X220969095Y-94368360D01*
X220930564Y-94390606D01*
X220882285Y-94418479D01*
X220882282Y-94418481D01*
X217862181Y-97438583D01*
X217800858Y-97472068D01*
X217731166Y-97467084D01*
X217675233Y-97425212D01*
X217650816Y-97359748D01*
X217650500Y-97350902D01*
X217650500Y-97221155D01*
X217650499Y-97221153D01*
X217628269Y-97109397D01*
X217619737Y-97066503D01*
X217592398Y-97000500D01*
X217559396Y-96920825D01*
X217559394Y-96920822D01*
X217559394Y-96920821D01*
X217524694Y-96868889D01*
X217503816Y-96802215D01*
X217522300Y-96734835D01*
X217524676Y-96731136D01*
X217559394Y-96679179D01*
X217619737Y-96533497D01*
X217650500Y-96378842D01*
X217650500Y-96221158D01*
X217650500Y-96221155D01*
X217650499Y-96221153D01*
X217648281Y-96210001D01*
X217619737Y-96066503D01*
X217597236Y-96012181D01*
X217559397Y-95920827D01*
X217559390Y-95920814D01*
X217471789Y-95789711D01*
X217471786Y-95789707D01*
X217360292Y-95678213D01*
X217360288Y-95678210D01*
X217229185Y-95590609D01*
X217229172Y-95590602D01*
X217083501Y-95530264D01*
X217083489Y-95530261D01*
X216928845Y-95499500D01*
X216928842Y-95499500D01*
X216771158Y-95499500D01*
X216771155Y-95499500D01*
X216616510Y-95530261D01*
X216616498Y-95530264D01*
X216470827Y-95590602D01*
X216470814Y-95590609D01*
X216339711Y-95678210D01*
X216339707Y-95678213D01*
X216228213Y-95789707D01*
X216228210Y-95789711D01*
X216140609Y-95920814D01*
X216140602Y-95920827D01*
X216080264Y-96066498D01*
X216080261Y-96066510D01*
X216049500Y-96221153D01*
X216049500Y-96378846D01*
X216080261Y-96533489D01*
X216080264Y-96533501D01*
X216140602Y-96679172D01*
X216140609Y-96679185D01*
X216175304Y-96731109D01*
X216196182Y-96797786D01*
X216177698Y-96865167D01*
X216175304Y-96868891D01*
X216140609Y-96920814D01*
X216140602Y-96920827D01*
X216080264Y-97066498D01*
X216080261Y-97066510D01*
X216049500Y-97221153D01*
X216049500Y-97378846D01*
X216080261Y-97533489D01*
X216080264Y-97533501D01*
X216140602Y-97679172D01*
X216140609Y-97679185D01*
X216175304Y-97731109D01*
X216196182Y-97797786D01*
X216177698Y-97865167D01*
X216175304Y-97868891D01*
X216140609Y-97920814D01*
X216140602Y-97920827D01*
X216080264Y-98066498D01*
X216080261Y-98066510D01*
X216049500Y-98221153D01*
X216049500Y-98378851D01*
X216049564Y-98379170D01*
X216049548Y-98379339D01*
X216050097Y-98384907D01*
X216049040Y-98385011D01*
X216043329Y-98448761D01*
X216000459Y-98503933D01*
X215934567Y-98527170D01*
X215866572Y-98511094D01*
X215840263Y-98491028D01*
X215108906Y-97759671D01*
X215075421Y-97698348D01*
X215080405Y-97628656D01*
X215081993Y-97624617D01*
X215119737Y-97533497D01*
X215150500Y-97378842D01*
X215150500Y-97221158D01*
X215150500Y-97221155D01*
X215150499Y-97221153D01*
X215128269Y-97109397D01*
X215119737Y-97066503D01*
X215092398Y-97000500D01*
X215059397Y-96920827D01*
X215059390Y-96920814D01*
X214971789Y-96789711D01*
X214971786Y-96789707D01*
X214860292Y-96678213D01*
X214860288Y-96678210D01*
X214729185Y-96590609D01*
X214729172Y-96590602D01*
X214583501Y-96530264D01*
X214583489Y-96530261D01*
X214428845Y-96499500D01*
X214428842Y-96499500D01*
X214271158Y-96499500D01*
X214271155Y-96499500D01*
X214116510Y-96530261D01*
X214116498Y-96530264D01*
X213970827Y-96590602D01*
X213970814Y-96590609D01*
X213839711Y-96678210D01*
X213839707Y-96678213D01*
X213728213Y-96789707D01*
X213728208Y-96789713D01*
X213696289Y-96837483D01*
X213642676Y-96882288D01*
X213573351Y-96890994D01*
X213510324Y-96860838D01*
X213505507Y-96856272D01*
X213288834Y-96639599D01*
X213255349Y-96578276D01*
X213260333Y-96508584D01*
X213273410Y-96483032D01*
X213309394Y-96429179D01*
X213369737Y-96283497D01*
X213400500Y-96128842D01*
X213400500Y-95971158D01*
X213400500Y-95971155D01*
X213400499Y-95971153D01*
X213380326Y-95869737D01*
X213369737Y-95816503D01*
X213363239Y-95800816D01*
X213309397Y-95670827D01*
X213309390Y-95670814D01*
X213221789Y-95539711D01*
X213221786Y-95539707D01*
X213110292Y-95428213D01*
X213110288Y-95428210D01*
X212979185Y-95340609D01*
X212979172Y-95340602D01*
X212833501Y-95280264D01*
X212833489Y-95280261D01*
X212678845Y-95249500D01*
X212678842Y-95249500D01*
X212521158Y-95249500D01*
X212521155Y-95249500D01*
X212366510Y-95280261D01*
X212366498Y-95280264D01*
X212220827Y-95340602D01*
X212220814Y-95340609D01*
X212168891Y-95375304D01*
X212102214Y-95396182D01*
X212034833Y-95377698D01*
X212031109Y-95375304D01*
X211979185Y-95340609D01*
X211979172Y-95340602D01*
X211833501Y-95280264D01*
X211833489Y-95280261D01*
X211678845Y-95249500D01*
X211678842Y-95249500D01*
X211521158Y-95249500D01*
X211521155Y-95249500D01*
X211366510Y-95280261D01*
X211366498Y-95280264D01*
X211220827Y-95340602D01*
X211220814Y-95340609D01*
X211089711Y-95428210D01*
X211089707Y-95428213D01*
X210978213Y-95539707D01*
X210978210Y-95539711D01*
X210890609Y-95670814D01*
X210890602Y-95670827D01*
X210830264Y-95816498D01*
X210830261Y-95816510D01*
X210799500Y-95971153D01*
X210799500Y-96128846D01*
X210804003Y-96151484D01*
X210797776Y-96221076D01*
X210754913Y-96276253D01*
X210751279Y-96278776D01*
X210714709Y-96303211D01*
X210603211Y-96414709D01*
X210578776Y-96451279D01*
X210525163Y-96496083D01*
X210455838Y-96504789D01*
X210451484Y-96504003D01*
X210428846Y-96499500D01*
X210428842Y-96499500D01*
X210271158Y-96499500D01*
X210271155Y-96499500D01*
X210116510Y-96530261D01*
X210116498Y-96530264D01*
X209970827Y-96590602D01*
X209970814Y-96590609D01*
X209839711Y-96678210D01*
X209839707Y-96678213D01*
X209728213Y-96789707D01*
X209728210Y-96789711D01*
X209640609Y-96920814D01*
X209640602Y-96920827D01*
X209580264Y-97066498D01*
X209580261Y-97066510D01*
X209549500Y-97221153D01*
X209549500Y-97378846D01*
X209580261Y-97533489D01*
X209580264Y-97533501D01*
X209640602Y-97679172D01*
X209640609Y-97679185D01*
X209728210Y-97810288D01*
X209728213Y-97810292D01*
X209839707Y-97921786D01*
X209839711Y-97921789D01*
X209970814Y-98009390D01*
X209970827Y-98009397D01*
X210108683Y-98066498D01*
X210116503Y-98069737D01*
X210271153Y-98100499D01*
X210271156Y-98100500D01*
X210271158Y-98100500D01*
X210428844Y-98100500D01*
X210428845Y-98100499D01*
X210583497Y-98069737D01*
X210701592Y-98020821D01*
X210729172Y-98009397D01*
X210729172Y-98009396D01*
X210729179Y-98009394D01*
X210860289Y-97921789D01*
X210971789Y-97810289D01*
X210996221Y-97773722D01*
X211011559Y-97760903D01*
X211023254Y-97744687D01*
X211037820Y-97738956D01*
X211049831Y-97728918D01*
X211069667Y-97726425D01*
X211088273Y-97719106D01*
X211116069Y-97720596D01*
X211119156Y-97720209D01*
X211123516Y-97720996D01*
X211146851Y-97725638D01*
X211208762Y-97758024D01*
X211210339Y-97759574D01*
X217711181Y-104260416D01*
X217744666Y-104321739D01*
X217747500Y-104348097D01*
X217747500Y-108316059D01*
X217727815Y-108383098D01*
X217675011Y-108428853D01*
X217605853Y-108438797D01*
X217542297Y-108409772D01*
X217535819Y-108403740D01*
X217510292Y-108378213D01*
X217510288Y-108378210D01*
X217379185Y-108290609D01*
X217379172Y-108290602D01*
X217233501Y-108230264D01*
X217233489Y-108230261D01*
X217078845Y-108199500D01*
X217078842Y-108199500D01*
X216921158Y-108199500D01*
X216921155Y-108199500D01*
X216766510Y-108230261D01*
X216766498Y-108230264D01*
X216673952Y-108268598D01*
X216604483Y-108276067D01*
X216542004Y-108244791D01*
X216506352Y-108184702D01*
X216502500Y-108154037D01*
X216502500Y-106573001D01*
X216502500Y-106573000D01*
X216491915Y-106533497D01*
X216461577Y-106420272D01*
X216425697Y-106358127D01*
X216382520Y-106283341D01*
X216341669Y-106242490D01*
X216335809Y-106234351D01*
X216327405Y-106210474D01*
X216315272Y-106188254D01*
X216316000Y-106178071D01*
X216312612Y-106168444D01*
X216318451Y-106143811D01*
X216320258Y-106118562D01*
X216328044Y-106103348D01*
X216328729Y-106100459D01*
X216330294Y-106098950D01*
X216333337Y-106093006D01*
X216409394Y-105979179D01*
X216412719Y-105971153D01*
X216469735Y-105833501D01*
X216469737Y-105833497D01*
X216500500Y-105678842D01*
X216500500Y-105521158D01*
X216500500Y-105521155D01*
X216500499Y-105521153D01*
X216476419Y-105400097D01*
X216469737Y-105366503D01*
X216436067Y-105285216D01*
X216409397Y-105220827D01*
X216409390Y-105220814D01*
X216321789Y-105089711D01*
X216321786Y-105089707D01*
X216210292Y-104978213D01*
X216210288Y-104978210D01*
X216079185Y-104890609D01*
X216079172Y-104890602D01*
X215933501Y-104830264D01*
X215933489Y-104830261D01*
X215778845Y-104799500D01*
X215778842Y-104799500D01*
X215621158Y-104799500D01*
X215621155Y-104799500D01*
X215466510Y-104830261D01*
X215466498Y-104830264D01*
X215320827Y-104890602D01*
X215320814Y-104890609D01*
X215189711Y-104978210D01*
X215189707Y-104978213D01*
X215078213Y-105089707D01*
X215078210Y-105089711D01*
X214990609Y-105220814D01*
X214990602Y-105220827D01*
X214948716Y-105321952D01*
X214904875Y-105376356D01*
X214838581Y-105398421D01*
X214834155Y-105398500D01*
X214480057Y-105398500D01*
X214321942Y-105398500D01*
X214169215Y-105439423D01*
X214169214Y-105439423D01*
X214169212Y-105439424D01*
X214169209Y-105439425D01*
X214119100Y-105468356D01*
X214119097Y-105468358D01*
X214119095Y-105468360D01*
X214093932Y-105482887D01*
X214031934Y-105499500D01*
X214021155Y-105499500D01*
X213866510Y-105530261D01*
X213866498Y-105530264D01*
X213720828Y-105590602D01*
X213720812Y-105590611D01*
X213667604Y-105626163D01*
X213600927Y-105647040D01*
X213551263Y-105637621D01*
X213533502Y-105630264D01*
X213533494Y-105630261D01*
X213378845Y-105599500D01*
X213378842Y-105599500D01*
X213221158Y-105599500D01*
X213221155Y-105599500D01*
X213066510Y-105630261D01*
X213066498Y-105630264D01*
X212920827Y-105690602D01*
X212920814Y-105690609D01*
X212806993Y-105766663D01*
X212740315Y-105787541D01*
X212672935Y-105769056D01*
X212650421Y-105751242D01*
X208953032Y-102053854D01*
X208919547Y-101992531D01*
X208924531Y-101922839D01*
X208926141Y-101918746D01*
X208969737Y-101813497D01*
X209000500Y-101658842D01*
X209000500Y-101501158D01*
X209000500Y-101501155D01*
X209000499Y-101501153D01*
X208986398Y-101430263D01*
X208969737Y-101346503D01*
X208969735Y-101346498D01*
X208909397Y-101200827D01*
X208909390Y-101200814D01*
X208821789Y-101069711D01*
X208821786Y-101069707D01*
X208710292Y-100958213D01*
X208710288Y-100958210D01*
X208579185Y-100870609D01*
X208579172Y-100870602D01*
X208433501Y-100810264D01*
X208433489Y-100810261D01*
X208278845Y-100779500D01*
X208278842Y-100779500D01*
X208121158Y-100779500D01*
X208121155Y-100779500D01*
X207966510Y-100810261D01*
X207966498Y-100810264D01*
X207820827Y-100870602D01*
X207820814Y-100870609D01*
X207689711Y-100958210D01*
X207689707Y-100958213D01*
X207578213Y-101069707D01*
X207578210Y-101069711D01*
X207490609Y-101200814D01*
X207490602Y-101200827D01*
X207440018Y-101322952D01*
X207396178Y-101377356D01*
X207329884Y-101399421D01*
X207325457Y-101399500D01*
X207321155Y-101399500D01*
X207166510Y-101430261D01*
X207166498Y-101430264D01*
X207020827Y-101490602D01*
X207020814Y-101490609D01*
X206889711Y-101578210D01*
X206889707Y-101578213D01*
X206778213Y-101689707D01*
X206778210Y-101689711D01*
X206690609Y-101820814D01*
X206690602Y-101820827D01*
X206630264Y-101966498D01*
X206630261Y-101966510D01*
X206599500Y-102121153D01*
X206599500Y-102278846D01*
X206630261Y-102433489D01*
X206630264Y-102433501D01*
X206690602Y-102579172D01*
X206690609Y-102579185D01*
X206778210Y-102710288D01*
X206778213Y-102710292D01*
X206780240Y-102712319D01*
X206780962Y-102713642D01*
X206782076Y-102714999D01*
X206781818Y-102715210D01*
X206813725Y-102773642D01*
X206808741Y-102843334D01*
X206782001Y-102884939D01*
X206782076Y-102885001D01*
X206781552Y-102885639D01*
X206780240Y-102887681D01*
X206778213Y-102889707D01*
X206778210Y-102889711D01*
X206690609Y-103020814D01*
X206690602Y-103020827D01*
X206630264Y-103166498D01*
X206630261Y-103166510D01*
X206599500Y-103321153D01*
X206599500Y-103478846D01*
X206630261Y-103633489D01*
X206630264Y-103633501D01*
X206690602Y-103779172D01*
X206690609Y-103779185D01*
X206778210Y-103910288D01*
X206778213Y-103910292D01*
X206889707Y-104021786D01*
X206889712Y-104021790D01*
X206907507Y-104033680D01*
X206952313Y-104087291D01*
X206961022Y-104156616D01*
X206930868Y-104219644D01*
X206926299Y-104224464D01*
X206531286Y-104619478D01*
X206419481Y-104731282D01*
X206419480Y-104731284D01*
X206376761Y-104805276D01*
X206340423Y-104868215D01*
X206299499Y-105020943D01*
X206299499Y-105020945D01*
X206299499Y-105189046D01*
X206299500Y-105189059D01*
X206299500Y-111820234D01*
X206279815Y-111887273D01*
X206278602Y-111889125D01*
X206190609Y-112020814D01*
X206190602Y-112020827D01*
X206130264Y-112166498D01*
X206130261Y-112166510D01*
X206099500Y-112321153D01*
X206099500Y-112478846D01*
X206130261Y-112633489D01*
X206130264Y-112633501D01*
X206190602Y-112779172D01*
X206190609Y-112779185D01*
X206278210Y-112910288D01*
X206278213Y-112910292D01*
X206355240Y-112987319D01*
X206388725Y-113048642D01*
X206383741Y-113118334D01*
X206355240Y-113162681D01*
X206328213Y-113189707D01*
X206328210Y-113189711D01*
X206240609Y-113320814D01*
X206240602Y-113320827D01*
X206180264Y-113466498D01*
X206180261Y-113466508D01*
X206161777Y-113559433D01*
X206129392Y-113621344D01*
X206127841Y-113622922D01*
X204184070Y-115566693D01*
X204184062Y-115566701D01*
X204181286Y-115569478D01*
X204181284Y-115569480D01*
X204069480Y-115681284D01*
X204049668Y-115715600D01*
X204043495Y-115726291D01*
X204043493Y-115726294D01*
X203994999Y-115810289D01*
X203990423Y-115818215D01*
X203949499Y-115970943D01*
X203949499Y-115970945D01*
X203949499Y-116139046D01*
X203949500Y-116139059D01*
X203949500Y-120670234D01*
X203929815Y-120737273D01*
X203928602Y-120739125D01*
X203840609Y-120870814D01*
X203840602Y-120870827D01*
X203780264Y-121016498D01*
X203780261Y-121016510D01*
X203749500Y-121171153D01*
X201350500Y-121171153D01*
X201350500Y-120194604D01*
X201359939Y-120147151D01*
X201369737Y-120123497D01*
X201400500Y-119968842D01*
X201400500Y-119811158D01*
X201400500Y-119811155D01*
X201400499Y-119811153D01*
X201369737Y-119656503D01*
X201355502Y-119622136D01*
X201309397Y-119510827D01*
X201309390Y-119510814D01*
X201221789Y-119379711D01*
X201221786Y-119379707D01*
X201110292Y-119268213D01*
X201110288Y-119268210D01*
X200979185Y-119180609D01*
X200979172Y-119180602D01*
X200833501Y-119120264D01*
X200833489Y-119120261D01*
X200678845Y-119089500D01*
X200678842Y-119089500D01*
X200521158Y-119089500D01*
X200521155Y-119089500D01*
X200366510Y-119120261D01*
X200366498Y-119120264D01*
X200220827Y-119180602D01*
X200220814Y-119180609D01*
X200089711Y-119268210D01*
X200089707Y-119268213D01*
X199978213Y-119379707D01*
X199978210Y-119379711D01*
X199890609Y-119510814D01*
X199890602Y-119510827D01*
X199830264Y-119656498D01*
X199830261Y-119656510D01*
X199799500Y-119811153D01*
X198747727Y-119811153D01*
X198805515Y-119753365D01*
X198881281Y-119622135D01*
X198920500Y-119475766D01*
X198920500Y-119324234D01*
X198881281Y-119177865D01*
X198805515Y-119046635D01*
X198698365Y-118939485D01*
X198632750Y-118901602D01*
X198567136Y-118863719D01*
X198493950Y-118844109D01*
X198420766Y-118824500D01*
X198269234Y-118824500D01*
X198122863Y-118863719D01*
X197991635Y-118939485D01*
X197991632Y-118939487D01*
X197884487Y-119046632D01*
X197884485Y-119046635D01*
X197808719Y-119177863D01*
X197769500Y-119324234D01*
X193700500Y-119324234D01*
X193700500Y-102753339D01*
X193720185Y-102686300D01*
X193772989Y-102640545D01*
X193842147Y-102630601D01*
X193889597Y-102647801D01*
X194030658Y-102734809D01*
X194030661Y-102734810D01*
X194030667Y-102734814D01*
X194197204Y-102789999D01*
X194299993Y-102800500D01*
X199900006Y-102800499D01*
X200002796Y-102789999D01*
X200169333Y-102734814D01*
X200318655Y-102642711D01*
X200442711Y-102518655D01*
X200534814Y-102369333D01*
X200589999Y-102202796D01*
X200600500Y-102100007D01*
X200600499Y-96499994D01*
X200600099Y-96496083D01*
X200589999Y-96397204D01*
X200589998Y-96397201D01*
X200576772Y-96357289D01*
X200534814Y-96230667D01*
X200442711Y-96081345D01*
X200373547Y-96012181D01*
X200340062Y-95950858D01*
X200345046Y-95881166D01*
X200386918Y-95825233D01*
X200452382Y-95800816D01*
X200461228Y-95800500D01*
X200578844Y-95800500D01*
X200578845Y-95800499D01*
X200733497Y-95769737D01*
X200879179Y-95709394D01*
X201010289Y-95621789D01*
X201121789Y-95510289D01*
X201209394Y-95379179D01*
X201210008Y-95377698D01*
X201228319Y-95333489D01*
X201269737Y-95233497D01*
X201286739Y-95148021D01*
X201319121Y-95086113D01*
X201339459Y-95069115D01*
X201410289Y-95021789D01*
X201521789Y-94910289D01*
X201609394Y-94779179D01*
X201669737Y-94633497D01*
X201700500Y-94478842D01*
X201700500Y-94321158D01*
X201700500Y-94321155D01*
X201700499Y-94321153D01*
X201692077Y-94278815D01*
X201669737Y-94166503D01*
X201609534Y-94021158D01*
X201609397Y-94020827D01*
X201609390Y-94020814D01*
X201521789Y-93889711D01*
X201521786Y-93889707D01*
X201410289Y-93778210D01*
X201339464Y-93730887D01*
X201294659Y-93677275D01*
X201286740Y-93651987D01*
X201269737Y-93566503D01*
X201224246Y-93456676D01*
X201209397Y-93420827D01*
X201209390Y-93420814D01*
X201121789Y-93289711D01*
X201121786Y-93289707D01*
X201010292Y-93178213D01*
X201010288Y-93178210D01*
X200879185Y-93090609D01*
X200879172Y-93090602D01*
X200733501Y-93030264D01*
X200733489Y-93030261D01*
X200578845Y-92999500D01*
X200578842Y-92999500D01*
X200421158Y-92999500D01*
X200421155Y-92999500D01*
X200266510Y-93030261D01*
X200266498Y-93030264D01*
X200147452Y-93079574D01*
X200077982Y-93087043D01*
X200052548Y-93079574D01*
X199933501Y-93030264D01*
X199933489Y-93030261D01*
X199778845Y-92999500D01*
X199778842Y-92999500D01*
X199621158Y-92999500D01*
X199621155Y-92999500D01*
X199466510Y-93030261D01*
X199466498Y-93030264D01*
X199347452Y-93079574D01*
X199277982Y-93087043D01*
X199252548Y-93079574D01*
X199133501Y-93030264D01*
X199133489Y-93030261D01*
X198978845Y-92999500D01*
X198978842Y-92999500D01*
X198821158Y-92999500D01*
X198821155Y-92999500D01*
X198666510Y-93030261D01*
X198666498Y-93030264D01*
X198547452Y-93079574D01*
X198477982Y-93087043D01*
X198452548Y-93079574D01*
X198333501Y-93030264D01*
X198333489Y-93030261D01*
X198178845Y-92999500D01*
X198178842Y-92999500D01*
X198021158Y-92999500D01*
X198021155Y-92999500D01*
X197866510Y-93030261D01*
X197866498Y-93030264D01*
X197747452Y-93079574D01*
X197677982Y-93087043D01*
X197652548Y-93079574D01*
X197533501Y-93030264D01*
X197533489Y-93030261D01*
X197378845Y-92999500D01*
X197378842Y-92999500D01*
X197221158Y-92999500D01*
X197221155Y-92999500D01*
X197066510Y-93030261D01*
X197066498Y-93030264D01*
X196947452Y-93079574D01*
X196877982Y-93087043D01*
X196852548Y-93079574D01*
X196733501Y-93030264D01*
X196733489Y-93030261D01*
X196578845Y-92999500D01*
X196578842Y-92999500D01*
X196421158Y-92999500D01*
X196421153Y-92999500D01*
X196359292Y-93011805D01*
X196289700Y-93005578D01*
X196234523Y-92962714D01*
X196211279Y-92896825D01*
X196227347Y-92828828D01*
X196277626Y-92780312D01*
X196296777Y-92772259D01*
X196349219Y-92755220D01*
X196531610Y-92662287D01*
X196655856Y-92572018D01*
X196697213Y-92541971D01*
X196697215Y-92541968D01*
X196697219Y-92541966D01*
X196841966Y-92397219D01*
X196841968Y-92397215D01*
X196841971Y-92397213D01*
X196927968Y-92278846D01*
X196962287Y-92231610D01*
X197055220Y-92049219D01*
X197118477Y-91854534D01*
X197150500Y-91652352D01*
X197150500Y-91447648D01*
X197126742Y-91297648D01*
X197118477Y-91245465D01*
X197069739Y-91095466D01*
X197055220Y-91050781D01*
X197055218Y-91050778D01*
X197055218Y-91050776D01*
X197003065Y-90948422D01*
X196962287Y-90868390D01*
X196954556Y-90857749D01*
X196841971Y-90702786D01*
X196697213Y-90558028D01*
X196531613Y-90437715D01*
X196531612Y-90437714D01*
X196531610Y-90437713D01*
X196473350Y-90408028D01*
X196349223Y-90344781D01*
X196154534Y-90281522D01*
X195979995Y-90253878D01*
X195952352Y-90249500D01*
X195747648Y-90249500D01*
X195723329Y-90253351D01*
X195545465Y-90281522D01*
X195350776Y-90344781D01*
X195168386Y-90437715D01*
X195002786Y-90558028D01*
X194858028Y-90702786D01*
X194737715Y-90868386D01*
X194644781Y-91050776D01*
X194581522Y-91245465D01*
X194549500Y-91447648D01*
X194549500Y-91652351D01*
X194581522Y-91854534D01*
X194644781Y-92049223D01*
X194737715Y-92231613D01*
X194858028Y-92397213D01*
X195002786Y-92541971D01*
X195089843Y-92605220D01*
X195168390Y-92662287D01*
X195284607Y-92721503D01*
X195350776Y-92755218D01*
X195350778Y-92755218D01*
X195350781Y-92755220D01*
X195428006Y-92780312D01*
X195468979Y-92793625D01*
X195491359Y-92808928D01*
X195515549Y-92821169D01*
X195519771Y-92828356D01*
X195526654Y-92833063D01*
X195537208Y-92858037D01*
X195550940Y-92881412D01*
X195550606Y-92889741D01*
X195553852Y-92897422D01*
X195549228Y-92924138D01*
X195548143Y-92951226D01*
X195543358Y-92958053D01*
X195541937Y-92966268D01*
X195523604Y-92986242D01*
X195508046Y-93008445D01*
X195498729Y-93013345D01*
X195494693Y-93017744D01*
X195477614Y-93026322D01*
X195469380Y-93029690D01*
X195466503Y-93030263D01*
X195347455Y-93079574D01*
X195346954Y-93079779D01*
X195312478Y-93083334D01*
X195277982Y-93087043D01*
X195277600Y-93086930D01*
X195277453Y-93086946D01*
X195277178Y-93086806D01*
X195252548Y-93079574D01*
X195133501Y-93030264D01*
X195133489Y-93030261D01*
X194978845Y-92999500D01*
X194978842Y-92999500D01*
X194821158Y-92999500D01*
X194821155Y-92999500D01*
X194666510Y-93030261D01*
X194666498Y-93030264D01*
X194547452Y-93079574D01*
X194477982Y-93087043D01*
X194452548Y-93079574D01*
X194333501Y-93030264D01*
X194333489Y-93030261D01*
X194178845Y-92999500D01*
X194178842Y-92999500D01*
X194021158Y-92999500D01*
X194021155Y-92999500D01*
X193866510Y-93030261D01*
X193860676Y-93032031D01*
X193859873Y-93029385D01*
X193802056Y-93035396D01*
X193739687Y-93003902D01*
X193704245Y-92943689D01*
X193700500Y-92913444D01*
X193700500Y-91803750D01*
X193700726Y-91796263D01*
X193704486Y-91734108D01*
X193718271Y-91506201D01*
X193720076Y-91491340D01*
X193740631Y-91379179D01*
X193771780Y-91209197D01*
X193775364Y-91194663D01*
X193806275Y-91095466D01*
X193860696Y-90920822D01*
X193865998Y-90906841D01*
X193983731Y-90645249D01*
X193990676Y-90632016D01*
X194139080Y-90386526D01*
X194147567Y-90374230D01*
X194324480Y-90148417D01*
X194334395Y-90137226D01*
X194537226Y-89934395D01*
X194548417Y-89924480D01*
X194774230Y-89747567D01*
X194786526Y-89739080D01*
X195032016Y-89590676D01*
X195045249Y-89583731D01*
X195306841Y-89465998D01*
X195320822Y-89460696D01*
X195594668Y-89375362D01*
X195609197Y-89371780D01*
X195891344Y-89320075D01*
X195906201Y-89318271D01*
X196196264Y-89300726D01*
X196203751Y-89300500D01*
X196265892Y-89300500D01*
X241034108Y-89300500D01*
X241096249Y-89300500D01*
X241103736Y-89300726D01*
G37*
%TD.AperFunction*%
%TD*%
M02*
