%TF.GenerationSoftware,KiCad,Pcbnew,9.0.2*%
%TF.CreationDate,2025-07-01T21:57:16-05:00*%
%TF.ProjectId,testing3,74657374-696e-4673-932e-6b696361645f,rev?*%
%TF.SameCoordinates,Original*%
%TF.FileFunction,Copper,L4,Bot*%
%TF.FilePolarity,Positive*%
%FSLAX46Y46*%
G04 Gerber Fmt 4.6, Leading zero omitted, Abs format (unit mm)*
G04 Created by KiCad (PCBNEW 9.0.2) date 2025-07-01 21:57:16*
%MOMM*%
%LPD*%
G01*
G04 APERTURE LIST*
G04 Aperture macros list*
%AMRoundRect*
0 Rectangle with rounded corners*
0 $1 Rounding radius*
0 $2 $3 $4 $5 $6 $7 $8 $9 X,Y pos of 4 corners*
0 Add a 4 corners polygon primitive as box body*
4,1,4,$2,$3,$4,$5,$6,$7,$8,$9,$2,$3,0*
0 Add four circle primitives for the rounded corners*
1,1,$1+$1,$2,$3*
1,1,$1+$1,$4,$5*
1,1,$1+$1,$6,$7*
1,1,$1+$1,$8,$9*
0 Add four rect primitives between the rounded corners*
20,1,$1+$1,$2,$3,$4,$5,0*
20,1,$1+$1,$4,$5,$6,$7,0*
20,1,$1+$1,$6,$7,$8,$9,0*
20,1,$1+$1,$8,$9,$2,$3,0*%
G04 Aperture macros list end*
%TA.AperFunction,ComponentPad*%
%ADD10C,1.700000*%
%TD*%
%TA.AperFunction,ComponentPad*%
%ADD11R,1.700000X1.700000*%
%TD*%
%TA.AperFunction,ComponentPad*%
%ADD12C,6.000000*%
%TD*%
%TA.AperFunction,ComponentPad*%
%ADD13RoundRect,0.250002X-2.749998X2.749998X-2.749998X-2.749998X2.749998X-2.749998X2.749998X2.749998X0*%
%TD*%
%TA.AperFunction,HeatsinkPad*%
%ADD14O,1.600000X1.000000*%
%TD*%
%TA.AperFunction,HeatsinkPad*%
%ADD15O,2.100000X1.000000*%
%TD*%
%TA.AperFunction,HeatsinkPad*%
%ADD16C,0.500000*%
%TD*%
%TA.AperFunction,HeatsinkPad*%
%ADD17R,2.000000X0.500000*%
%TD*%
%TA.AperFunction,ViaPad*%
%ADD18C,0.600000*%
%TD*%
%TA.AperFunction,Conductor*%
%ADD19C,0.200000*%
%TD*%
G04 APERTURE END LIST*
D10*
%TO.P,J2,3,Pin_3*%
%TO.N,GND*%
X212840000Y-130700000D03*
%TO.P,J2,2,Pin_2*%
%TO.N,PWM-In*%
X210300000Y-130700000D03*
D11*
%TO.P,J2,1,Pin_1*%
%TO.N,+3V3*%
X207760000Y-130700000D03*
%TD*%
D12*
%TO.P,J3,2,Pin_2*%
%TO.N,GND*%
X197100000Y-111300000D03*
D13*
%TO.P,J3,1,Pin_1*%
%TO.N,Vin*%
X197100000Y-99300000D03*
%TD*%
%TO.P,J4,1,Pin_1*%
%TO.N,MOT1*%
X240500000Y-99700000D03*
D12*
%TO.P,J4,2,Pin_2*%
%TO.N,MOT2*%
X240500000Y-111700000D03*
%TO.P,J4,3,Pin_3*%
%TO.N,MOT3*%
X240500000Y-123700000D03*
%TD*%
D14*
%TO.P,J1,S1,SHIELD*%
%TO.N,GND*%
X194665000Y-126610000D03*
D15*
X198845000Y-126610000D03*
D14*
X194665000Y-117970000D03*
D15*
X198845000Y-117970000D03*
%TD*%
D16*
%TO.P,U9,9,GND*%
%TO.N,GND*%
X202950000Y-105600000D03*
D17*
X203700000Y-105600000D03*
D16*
X203700000Y-105600000D03*
X204450000Y-105600000D03*
%TD*%
D18*
%TO.N,MOT1*%
X221720000Y-101000000D03*
%TO.N,Vin*%
X230200000Y-113200000D03*
X228600000Y-113200000D03*
X231000000Y-113200000D03*
X230600000Y-112600000D03*
X228600000Y-112000000D03*
X229400000Y-112000000D03*
X229400000Y-113200000D03*
X231000000Y-112000000D03*
X229800000Y-112600000D03*
X230200000Y-112000000D03*
X229000000Y-112600000D03*
X230100000Y-127500000D03*
X230900000Y-127500000D03*
X230500000Y-126900000D03*
X229300000Y-126300000D03*
X229300000Y-127500000D03*
X230900000Y-126300000D03*
X231300000Y-126900000D03*
X229700000Y-126900000D03*
X230100000Y-126300000D03*
X228900000Y-126900000D03*
X230100000Y-125600000D03*
X230900000Y-125600000D03*
X230500000Y-125000000D03*
X229300000Y-124400000D03*
X229300000Y-125600000D03*
X230900000Y-124400000D03*
X231300000Y-125000000D03*
X229700000Y-125000000D03*
X230100000Y-124400000D03*
X228900000Y-125000000D03*
X228100000Y-92200000D03*
X229700000Y-92200000D03*
X230500000Y-92200000D03*
X229700000Y-91000000D03*
X228900000Y-92200000D03*
X230100000Y-91600000D03*
X228500000Y-91600000D03*
X228900000Y-91000000D03*
X230500000Y-91000000D03*
X229300000Y-91600000D03*
X228100000Y-91000000D03*
X230100000Y-99600000D03*
X230900000Y-99600000D03*
X230500000Y-99000000D03*
X229300000Y-98400000D03*
X229300000Y-99600000D03*
X230900000Y-98400000D03*
X231300000Y-99000000D03*
X229700000Y-99000000D03*
X230100000Y-98400000D03*
X228100000Y-94100000D03*
X229700000Y-94100000D03*
X230500000Y-94100000D03*
X229700000Y-92900000D03*
X228900000Y-94100000D03*
X230100000Y-93500000D03*
X228500000Y-93500000D03*
X228900000Y-92900000D03*
X230500000Y-92900000D03*
X229300000Y-93500000D03*
X228100000Y-92900000D03*
X229800000Y-118300000D03*
X230600000Y-118300000D03*
X229800000Y-117100000D03*
X229000000Y-118300000D03*
X230200000Y-117700000D03*
X229000000Y-117100000D03*
X230600000Y-117100000D03*
X229400000Y-117700000D03*
X231000000Y-117700000D03*
X229800000Y-116400000D03*
X230600000Y-116400000D03*
X229800000Y-115200000D03*
X229000000Y-116400000D03*
X230200000Y-115800000D03*
X229000000Y-115200000D03*
X230600000Y-115200000D03*
X229400000Y-115800000D03*
X231000000Y-115800000D03*
X228200000Y-103000000D03*
X229800000Y-103000000D03*
X230600000Y-103000000D03*
X229800000Y-101800000D03*
X229000000Y-103000000D03*
X230200000Y-102400000D03*
X228600000Y-102400000D03*
X229000000Y-101800000D03*
X230600000Y-101800000D03*
X229400000Y-102400000D03*
X231000000Y-102400000D03*
X228200000Y-101800000D03*
X228200000Y-104900000D03*
X229800000Y-104900000D03*
X230600000Y-104900000D03*
X229800000Y-103700000D03*
X229000000Y-104900000D03*
X230200000Y-104300000D03*
X228600000Y-104300000D03*
X229000000Y-103700000D03*
X230600000Y-103700000D03*
X229400000Y-104300000D03*
X231000000Y-104300000D03*
X228200000Y-103700000D03*
X228200000Y-105600000D03*
X230600000Y-105600000D03*
X229800000Y-106800000D03*
X229400000Y-106200000D03*
X230200000Y-106200000D03*
X231000000Y-106200000D03*
X229000000Y-106800000D03*
X229800000Y-105600000D03*
X229000000Y-105600000D03*
X228600000Y-106200000D03*
X230600000Y-106800000D03*
X230600000Y-107500000D03*
X229800000Y-107500000D03*
X230200000Y-108100000D03*
X231000000Y-108100000D03*
X230600000Y-108700000D03*
X198900000Y-93800000D03*
X200500000Y-93800000D03*
X200100000Y-94400000D03*
X199700000Y-93800000D03*
X200900000Y-94400000D03*
X200500000Y-95000000D03*
X199700000Y-95000000D03*
X198900000Y-95000000D03*
X199300000Y-94400000D03*
X197700000Y-94400000D03*
X196500000Y-95000000D03*
X198500000Y-94400000D03*
X198100000Y-93800000D03*
X198100000Y-95000000D03*
X197300000Y-93800000D03*
X196500000Y-93800000D03*
X197300000Y-95000000D03*
X196900000Y-94400000D03*
X196100000Y-94400000D03*
X195700000Y-93800000D03*
X195700000Y-95000000D03*
X195300000Y-94400000D03*
X194900000Y-93800000D03*
X194100000Y-93800000D03*
X194500000Y-94400000D03*
X194900000Y-95000000D03*
X194100000Y-95000000D03*
%TO.N,MOT1*%
X232100000Y-101100000D03*
X217850000Y-100300000D03*
%TO.N,Net-(Q1-G)*%
X231600000Y-96400000D03*
X223850000Y-97300000D03*
%TO.N,GND*%
X231900000Y-93300000D03*
X205800000Y-112900000D03*
X238500000Y-118000000D03*
X237800000Y-106400000D03*
X212850000Y-127200000D03*
X202000000Y-126400000D03*
X219650000Y-129800000D03*
X195750000Y-122200000D03*
X240600000Y-107200000D03*
X239200000Y-93600000D03*
X232600000Y-91300000D03*
X237100000Y-117200000D03*
X237100000Y-90900000D03*
X198800000Y-107100000D03*
X237000000Y-131700000D03*
X238500000Y-90900000D03*
X205800000Y-112200000D03*
X206850000Y-123100000D03*
X214000000Y-126600000D03*
X234700000Y-131700000D03*
X214350000Y-127900000D03*
X218900000Y-128600000D03*
X197250000Y-105900000D03*
X219250000Y-129200000D03*
X205150000Y-97900000D03*
X238500000Y-106100000D03*
X200500000Y-128300000D03*
X204000000Y-97300000D03*
X243400000Y-106400000D03*
X237800000Y-117500000D03*
X232600000Y-107300000D03*
X213600000Y-127900000D03*
X239900000Y-104500000D03*
X231900000Y-120800000D03*
X240600000Y-105600000D03*
X210000000Y-123200000D03*
X222800000Y-107200000D03*
X242000000Y-107200000D03*
X213800000Y-111800000D03*
X239200000Y-105600000D03*
X239900000Y-103700000D03*
X214000000Y-128500000D03*
X222200000Y-130800000D03*
X237100000Y-92500000D03*
X238500000Y-104500000D03*
X239900000Y-105300000D03*
X239900000Y-117200000D03*
X204750000Y-100400000D03*
X239200000Y-118300000D03*
X243400000Y-119100000D03*
X206200000Y-129900000D03*
X200300000Y-105900000D03*
X199950000Y-106500000D03*
X239900000Y-118800000D03*
X202000000Y-128300000D03*
X195350000Y-106500000D03*
X213400000Y-101100000D03*
X242700000Y-104500000D03*
X232600000Y-105700000D03*
X204100000Y-124100000D03*
X194550000Y-106500000D03*
X243400000Y-104800000D03*
X237100000Y-91700000D03*
X223300000Y-116600000D03*
X236250000Y-131700000D03*
X208380000Y-116600000D03*
X231900000Y-119200000D03*
X222250000Y-119800000D03*
X232600000Y-92900000D03*
X199150000Y-106500000D03*
X204350000Y-99800000D03*
X232600000Y-104900000D03*
X222900000Y-130500000D03*
X210500000Y-112800000D03*
X242700000Y-106100000D03*
X205500000Y-99200000D03*
X239200000Y-90400000D03*
X222700000Y-111400000D03*
X205150000Y-99800000D03*
X204750000Y-99200000D03*
X239900000Y-106100000D03*
X236250000Y-130500000D03*
X240600000Y-104800000D03*
X220600000Y-98050000D03*
X231900000Y-105300000D03*
X212000000Y-113200000D03*
X202000000Y-129500000D03*
X237800000Y-105600000D03*
X242000000Y-117500000D03*
X241300000Y-104500000D03*
X201250000Y-128300000D03*
X210000000Y-129100000D03*
X242000000Y-116700000D03*
X222600000Y-99050000D03*
X196850000Y-106500000D03*
X196500000Y-107100000D03*
X243400000Y-107200000D03*
X196100000Y-106500000D03*
X241300000Y-106900000D03*
X194950000Y-107100000D03*
X220400000Y-131700000D03*
X237100000Y-93300000D03*
X205200000Y-108680000D03*
X237800000Y-107200000D03*
X238500000Y-93200000D03*
X231900000Y-89300000D03*
X195700000Y-107100000D03*
X197250000Y-107100000D03*
X200500000Y-127600000D03*
X239900000Y-106900000D03*
X237800000Y-92800000D03*
X201650000Y-127000000D03*
X222900000Y-116000000D03*
X222850000Y-99800000D03*
X218900000Y-130500000D03*
X239200000Y-104000000D03*
X243400000Y-116700000D03*
X214350000Y-127200000D03*
X220400000Y-130500000D03*
X205000000Y-112300000D03*
X204350000Y-97900000D03*
X239900000Y-118000000D03*
X205700000Y-122500000D03*
X215750000Y-118400000D03*
X231900000Y-91700000D03*
X239200000Y-89600000D03*
X240600000Y-118300000D03*
X218900000Y-131700000D03*
X223200000Y-103200000D03*
X237750000Y-130500000D03*
X237800000Y-116700000D03*
X243300000Y-93600000D03*
X213400000Y-102300000D03*
X213200000Y-128500000D03*
X242000000Y-119100000D03*
X231900000Y-117600000D03*
X211100000Y-112200000D03*
X209600000Y-128500000D03*
X222900000Y-131900000D03*
X219650000Y-130500000D03*
X216500000Y-119600000D03*
X234750000Y-130500000D03*
X211900000Y-101100000D03*
X238500000Y-117200000D03*
X201250000Y-127600000D03*
X232600000Y-119600000D03*
X195400000Y-122800000D03*
X239200000Y-104800000D03*
X196150000Y-122800000D03*
X213600000Y-126000000D03*
X222600000Y-120400000D03*
X215350000Y-119000000D03*
X237800000Y-92000000D03*
X238500000Y-90100000D03*
X222150000Y-116000000D03*
X232600000Y-120400000D03*
X236650000Y-131100000D03*
X201250000Y-126400000D03*
X211100000Y-122100000D03*
X232600000Y-106500000D03*
X205800000Y-113600000D03*
X237100000Y-90100000D03*
X223400000Y-120400000D03*
X232600000Y-118000000D03*
X214350000Y-129100000D03*
X241300000Y-118800000D03*
X212850000Y-129100000D03*
X216700000Y-116800000D03*
X231900000Y-90100000D03*
X231900000Y-121600000D03*
X222200000Y-131500000D03*
X237100000Y-106900000D03*
X220400000Y-129800000D03*
X221800000Y-99000000D03*
X210800000Y-123200000D03*
X237100000Y-106100000D03*
X219850000Y-98300000D03*
X243400000Y-117500000D03*
X223650000Y-116000000D03*
X237100000Y-118800000D03*
X212650000Y-101100000D03*
X206450000Y-122500000D03*
X213600000Y-129100000D03*
X209600000Y-121000000D03*
X223650000Y-117200000D03*
X194950000Y-105900000D03*
X206450000Y-123700000D03*
X242700000Y-106900000D03*
X210400000Y-128500000D03*
X237800000Y-91200000D03*
X238500000Y-106900000D03*
X235500000Y-130500000D03*
X206200000Y-128500000D03*
X237100000Y-118000000D03*
X237800000Y-90400000D03*
X241300000Y-105300000D03*
X200850000Y-128900000D03*
X241300000Y-117200000D03*
X206200000Y-130600000D03*
X204000000Y-100400000D03*
X198000000Y-107100000D03*
X219650000Y-131700000D03*
X197650000Y-106500000D03*
X239200000Y-107200000D03*
X202500000Y-120400000D03*
X232600000Y-93700000D03*
X202000000Y-127600000D03*
X232600000Y-90500000D03*
X240600000Y-106400000D03*
X212500000Y-112600000D03*
X243400000Y-104000000D03*
X237800000Y-89600000D03*
X237100000Y-89300000D03*
X211900000Y-102300000D03*
X194200000Y-105900000D03*
X236600000Y-129900000D03*
X237400000Y-131100000D03*
X222900000Y-131200000D03*
X232600000Y-118800000D03*
X209500000Y-121800000D03*
X237400000Y-129900000D03*
X231900000Y-120000000D03*
X215750000Y-119600000D03*
X231900000Y-94100000D03*
X231900000Y-103700000D03*
X205700000Y-123700000D03*
X239200000Y-116700000D03*
X219250000Y-131100000D03*
X242700000Y-117200000D03*
X204750000Y-98500000D03*
X204000000Y-98500000D03*
X200500000Y-129500000D03*
X231900000Y-106900000D03*
X231900000Y-104500000D03*
X222900000Y-117200000D03*
X198400000Y-106500000D03*
X222000000Y-98000000D03*
X222800000Y-108000000D03*
X203400000Y-123700000D03*
X218900000Y-129800000D03*
X242700000Y-105300000D03*
X208380000Y-117600000D03*
X235100000Y-129900000D03*
X199550000Y-105900000D03*
X237800000Y-93600000D03*
X223500000Y-113400000D03*
X214350000Y-126000000D03*
X204750000Y-97300000D03*
X207200000Y-123700000D03*
X232600000Y-121200000D03*
X205500000Y-97300000D03*
X220050000Y-131100000D03*
X242000000Y-118300000D03*
X222900000Y-129800000D03*
X239200000Y-92800000D03*
X208340000Y-100760000D03*
X235900000Y-129900000D03*
X240600000Y-119100000D03*
X237100000Y-104500000D03*
X222700000Y-112600000D03*
X223000000Y-119800000D03*
X232600000Y-92100000D03*
X231900000Y-116800000D03*
X206050000Y-123100000D03*
X240600000Y-116700000D03*
X223500000Y-113400000D03*
X242000000Y-105600000D03*
X202290000Y-108800000D03*
X231900000Y-92500000D03*
X239200000Y-92000000D03*
X232600000Y-108100000D03*
X242700000Y-118000000D03*
X221350000Y-98300000D03*
X238500000Y-92500000D03*
X196550000Y-122200000D03*
X242000000Y-104000000D03*
X237800000Y-104000000D03*
X210400000Y-122600000D03*
X231900000Y-107700000D03*
X240600000Y-117500000D03*
X242700000Y-103700000D03*
X196900000Y-122800000D03*
X237100000Y-103700000D03*
X200500000Y-126400000D03*
X243400000Y-105600000D03*
X238500000Y-118800000D03*
X198000000Y-105900000D03*
X237800000Y-104800000D03*
X240600000Y-104000000D03*
X232600000Y-117200000D03*
X242700000Y-118800000D03*
X203400000Y-124400000D03*
X212650000Y-102300000D03*
X241300000Y-118000000D03*
X231900000Y-118400000D03*
X238500000Y-103700000D03*
X223500000Y-112600000D03*
X231900000Y-90900000D03*
X237000000Y-130500000D03*
X200850000Y-127000000D03*
X194200000Y-107100000D03*
X210400000Y-112100000D03*
X213000000Y-112000000D03*
X200300000Y-107100000D03*
X201250000Y-129500000D03*
X201650000Y-128900000D03*
X213200000Y-126600000D03*
X239200000Y-117500000D03*
X223600000Y-131600000D03*
X199550000Y-107100000D03*
X195700000Y-105900000D03*
X239200000Y-119100000D03*
X205500000Y-98500000D03*
X241300000Y-103700000D03*
X222500000Y-116600000D03*
X196900000Y-121600000D03*
X222150000Y-117200000D03*
X223100000Y-112000000D03*
X237800000Y-118300000D03*
X237100000Y-105300000D03*
X198800000Y-105900000D03*
X216500000Y-118400000D03*
X213050000Y-101700000D03*
X222250000Y-121000000D03*
X212850000Y-126000000D03*
X223750000Y-121000000D03*
X222600000Y-98300000D03*
X231900000Y-108500000D03*
X206900000Y-128800000D03*
X213600000Y-127200000D03*
X242000000Y-106400000D03*
X232600000Y-89700000D03*
X222850000Y-102600000D03*
X235100000Y-131100000D03*
X207200000Y-122500000D03*
X204000000Y-99200000D03*
X223500000Y-111400000D03*
X232600000Y-104100000D03*
X196500000Y-105900000D03*
X215000000Y-119600000D03*
X206200000Y-129200000D03*
X223000000Y-121000000D03*
X231900000Y-106100000D03*
X235500000Y-131700000D03*
X206200000Y-131300000D03*
X223600000Y-108000000D03*
X216150000Y-119000000D03*
X212850000Y-127900000D03*
X238500000Y-89300000D03*
X238500000Y-105300000D03*
X212250000Y-101700000D03*
X196150000Y-121600000D03*
X239200000Y-91200000D03*
X211500000Y-113800000D03*
X205800000Y-111500000D03*
X235850000Y-131100000D03*
X238500000Y-91700000D03*
X222850000Y-103800000D03*
X241300000Y-106100000D03*
X239200000Y-106400000D03*
X242000000Y-104800000D03*
X215000000Y-118400000D03*
X195400000Y-121600000D03*
X223750000Y-119800000D03*
X243400000Y-118300000D03*
X237800000Y-119100000D03*
%TO.N,Net-(Q3-G)*%
X223850000Y-96300000D03*
X231600000Y-95500000D03*
%TO.N,Net-(D2-A)*%
X200600000Y-119890000D03*
X200600000Y-124690000D03*
%TO.N,SD2*%
X213300000Y-106400000D03*
X213400000Y-110400000D03*
%TO.N,In1*%
X211100000Y-115600000D03*
X214300000Y-107100000D03*
%TO.N,In2*%
X214100000Y-106300000D03*
X211900000Y-115400000D03*
%TO.N,In3*%
X212700000Y-115600000D03*
X215700000Y-105600000D03*
%TO.N,SD3*%
X215000000Y-106600000D03*
X212800000Y-109800000D03*
%TO.N,D-*%
X206950000Y-113700000D03*
X204550000Y-121250000D03*
%TO.N,D+*%
X206949943Y-114500000D03*
X204586912Y-122086912D03*
%TO.N,MOT2*%
X216850000Y-97300000D03*
X232100000Y-115600000D03*
X221900000Y-114400000D03*
%TO.N,Net-(Q2-G)*%
X231600000Y-110800000D03*
X223900000Y-110600000D03*
%TO.N,Net-(Q4-G)*%
X223900000Y-109800000D03*
X231600000Y-109900000D03*
%TO.N,MOT3*%
X221410000Y-128600000D03*
X235100000Y-128600000D03*
X211600000Y-96050000D03*
%TO.N,Net-(Q5-G)*%
X223700000Y-123800000D03*
X231700000Y-123900000D03*
%TO.N,Net-(Q6-G)*%
X223700000Y-123000000D03*
X231700000Y-123000000D03*
%TO.N,V3*%
X219700000Y-126700000D03*
X215400000Y-113800000D03*
%TO.N,V1*%
X221800000Y-111700000D03*
X220700000Y-99000000D03*
%TO.N,V2*%
X217000000Y-109000000D03*
X220700000Y-113100000D03*
%TO.N,VNAT*%
X218350000Y-111250000D03*
X221420000Y-127550000D03*
%TO.N,SPA*%
X232300000Y-95100000D03*
X216975000Y-99175000D03*
%TO.N,SPB*%
X214350000Y-97300000D03*
X232300000Y-109500000D03*
%TO.N,SPC*%
X210350000Y-97300000D03*
X232400000Y-122600000D03*
%TO.N,GHB*%
X220850000Y-110800000D03*
X216850000Y-96300000D03*
%TO.N,GLB*%
X219350000Y-109800000D03*
X216850000Y-98300000D03*
%TO.N,GLC*%
X219100000Y-123050000D03*
X211225000Y-96925000D03*
%TO.N,GHC*%
X212600000Y-96050000D03*
X220600000Y-124050000D03*
%TO.N,+3V3*%
X209800000Y-109900000D03*
X211500000Y-110900000D03*
X208200000Y-101580000D03*
X209800000Y-115300000D03*
%TO.N,NSCS*%
X208000000Y-104000000D03*
X206900000Y-112400000D03*
%TO.N,SCLK*%
X214400000Y-110500000D03*
X207400000Y-103400000D03*
%TO.N,SDI*%
X214000000Y-109800000D03*
X208000000Y-102800000D03*
%TO.N,SDO*%
X210350000Y-106050000D03*
X207400000Y-102200000D03*
X214900000Y-109800000D03*
%TO.N,RST*%
X218350000Y-112800000D03*
X217350000Y-126300000D03*
%TO.N,BOOT*%
X213850000Y-118300000D03*
X203350000Y-125300000D03*
%TD*%
D19*
%TO.N,V1*%
X221800000Y-102800057D02*
X221800000Y-111700000D01*
X222600000Y-102000057D02*
X221800000Y-102800057D01*
X222600000Y-100900000D02*
X222600000Y-102000057D01*
X220700000Y-99000000D02*
X222600000Y-100900000D01*
%TO.N,SPC*%
X228649057Y-119199000D02*
X223299057Y-119199000D01*
X213600000Y-100550000D02*
X210350000Y-97300000D01*
X216850000Y-100550000D02*
X213600000Y-100550000D01*
X218600000Y-102300000D02*
X216850000Y-100550000D01*
X221300000Y-112667043D02*
X218600000Y-109967043D01*
X223299057Y-119199000D02*
X221300000Y-117199943D01*
X218600000Y-109967043D02*
X218600000Y-102300000D01*
X231651057Y-122201000D02*
X228649057Y-119199000D01*
X232001000Y-122201000D02*
X231651057Y-122201000D01*
X221300000Y-117199943D02*
X221300000Y-112667043D01*
X232400000Y-122600000D02*
X232001000Y-122201000D01*
%TO.N,SD2*%
X212199000Y-107501000D02*
X213300000Y-106400000D01*
X213400000Y-110400000D02*
X212550057Y-110400000D01*
X212550057Y-110400000D02*
X212199000Y-110048943D01*
X212199000Y-110048943D02*
X212199000Y-107501000D01*
X213300000Y-106400000D02*
X213400000Y-106500000D01*
%TO.N,In3*%
X215700000Y-112600000D02*
X212700000Y-115600000D01*
X215700000Y-105600000D02*
X215700000Y-112600000D01*
%TO.N,SD3*%
X215000000Y-106600000D02*
X215000000Y-107950057D01*
X213150057Y-109800000D02*
X212900000Y-109800000D01*
X215000000Y-107950057D02*
X213150057Y-109800000D01*
%TO.N,MOT2*%
X220199000Y-100216100D02*
X220199000Y-110998943D01*
X220199000Y-110998943D02*
X221700000Y-112499943D01*
X216850000Y-97300000D02*
X217282900Y-97300000D01*
X217282900Y-97300000D02*
X220199000Y-100216100D01*
X221700000Y-112499943D02*
X221700000Y-114400000D01*
%TO.N,V2*%
X220850000Y-112950000D02*
X220700000Y-113100000D01*
X218667071Y-110667071D02*
X220850000Y-112850000D01*
X220850000Y-112850000D02*
X220850000Y-112950000D01*
X218667071Y-110667071D02*
X217000000Y-109000000D01*
X218732928Y-110667071D02*
X218667071Y-110667071D01*
%TO.N,VNAT*%
X219100000Y-112000000D02*
X219100000Y-121550000D01*
X218350000Y-111250000D02*
X219100000Y-112000000D01*
X219100000Y-121550000D02*
X221420000Y-123870000D01*
X221420000Y-123870000D02*
X221420000Y-127550000D01*
%TO.N,GHB*%
X220850000Y-110800000D02*
X220850000Y-100300000D01*
X220850000Y-100300000D02*
X216850000Y-96300000D01*
%TO.N,GLB*%
X219350000Y-100050000D02*
X219350000Y-109800000D01*
X217600000Y-98300000D02*
X219350000Y-100050000D01*
X216850000Y-98300000D02*
X217600000Y-98300000D01*
X216850000Y-98300000D02*
X217100000Y-98300000D01*
%TO.N,+3V3*%
X209800000Y-114450057D02*
X209800000Y-115300000D01*
X206799000Y-101951057D02*
X206799000Y-111449057D01*
X208200000Y-101580000D02*
X207170057Y-101580000D01*
X206799000Y-111449057D02*
X209800000Y-114450057D01*
X207170057Y-101580000D02*
X206799000Y-101951057D01*
%TO.N,SCLK*%
X214400000Y-110500000D02*
X213899000Y-111001000D01*
X213899000Y-111001000D02*
X212583957Y-111001000D01*
X212583957Y-111001000D02*
X207400000Y-105817043D01*
X207400000Y-105817043D02*
X207400000Y-103400000D01*
%TO.N,SDO*%
X208249943Y-102200000D02*
X207400000Y-102200000D01*
X210350000Y-104300057D02*
X208249943Y-102200000D01*
X210350000Y-106050000D02*
X210350000Y-104300057D01*
%TO.N,RST*%
X217350000Y-113800000D02*
X217350000Y-126300000D01*
X218350000Y-112800000D02*
X217350000Y-113800000D01*
%TO.N,BOOT*%
X206850000Y-125300000D02*
X203350000Y-125300000D01*
X213850000Y-118300000D02*
X206850000Y-125300000D01*
%TD*%
%TA.AperFunction,Conductor*%
%TO.N,Vin*%
G36*
X228415999Y-119819185D02*
G01*
X228436641Y-119835819D01*
X231011187Y-122410365D01*
X231044672Y-122471688D01*
X231039688Y-122541380D01*
X231026609Y-122566935D01*
X230990611Y-122620811D01*
X230990602Y-122620827D01*
X230930264Y-122766498D01*
X230930261Y-122766510D01*
X230899500Y-122921153D01*
X230899500Y-123078846D01*
X230930261Y-123233489D01*
X230930264Y-123233501D01*
X230990604Y-123379177D01*
X230990605Y-123379179D01*
X230991899Y-123381115D01*
X230992264Y-123382282D01*
X230993476Y-123384549D01*
X230993045Y-123384778D01*
X231012773Y-123447794D01*
X230994285Y-123515173D01*
X230991899Y-123518885D01*
X230990605Y-123520820D01*
X230990604Y-123520822D01*
X230930264Y-123666498D01*
X230930261Y-123666510D01*
X230899500Y-123821153D01*
X230899500Y-123978846D01*
X230930261Y-124133489D01*
X230930264Y-124133501D01*
X230990602Y-124279172D01*
X230990609Y-124279185D01*
X231078210Y-124410288D01*
X231078213Y-124410292D01*
X231189710Y-124521789D01*
X231255169Y-124565527D01*
X231320821Y-124609394D01*
X231323444Y-124610480D01*
X231324604Y-124611415D01*
X231326192Y-124612264D01*
X231326031Y-124612564D01*
X231377849Y-124654314D01*
X231399921Y-124720605D01*
X231400000Y-124725044D01*
X231400000Y-125533390D01*
X231398738Y-125551036D01*
X231394500Y-125580513D01*
X231394500Y-126319486D01*
X231394521Y-126324052D01*
X231394541Y-126326266D01*
X231394597Y-126330458D01*
X231394601Y-126330729D01*
X231398403Y-126354184D01*
X231400000Y-126374022D01*
X231400000Y-127433390D01*
X231398738Y-127451036D01*
X231394500Y-127480511D01*
X231394500Y-128470496D01*
X231398034Y-128503368D01*
X231385627Y-128572127D01*
X231338016Y-128623264D01*
X231313905Y-128634275D01*
X231262498Y-128651385D01*
X231262496Y-128651386D01*
X231141462Y-128729171D01*
X231141451Y-128729179D01*
X231088659Y-128774923D01*
X230994433Y-128883664D01*
X230994430Y-128883668D01*
X230934664Y-129014534D01*
X230914976Y-129081582D01*
X230894500Y-129224001D01*
X230894500Y-131975500D01*
X230874815Y-132042539D01*
X230822011Y-132088294D01*
X230770500Y-132099500D01*
X224529499Y-132099500D01*
X224462460Y-132079815D01*
X224416705Y-132027011D01*
X224405499Y-131975500D01*
X224405489Y-124724507D01*
X224405488Y-124724490D01*
X224393936Y-124617047D01*
X224393936Y-124617044D01*
X224382730Y-124565533D01*
X224382576Y-124565070D01*
X224348603Y-124462997D01*
X224329366Y-124433064D01*
X224309681Y-124366025D01*
X224329365Y-124298986D01*
X224330550Y-124297176D01*
X224409394Y-124179179D01*
X224469737Y-124033497D01*
X224500500Y-123878842D01*
X224500500Y-123721158D01*
X224500500Y-123721155D01*
X224500499Y-123721153D01*
X224469738Y-123566510D01*
X224469737Y-123566503D01*
X224469735Y-123566498D01*
X224420425Y-123447452D01*
X224412956Y-123377983D01*
X224420425Y-123352548D01*
X224469735Y-123233501D01*
X224469737Y-123233497D01*
X224500500Y-123078842D01*
X224500500Y-122921158D01*
X224500500Y-122921155D01*
X224500499Y-122921153D01*
X224469738Y-122766510D01*
X224469737Y-122766503D01*
X224469735Y-122766498D01*
X224409397Y-122620827D01*
X224409390Y-122620814D01*
X224330524Y-122502784D01*
X224309646Y-122436107D01*
X224320831Y-122382383D01*
X224365327Y-122284952D01*
X224385011Y-122217913D01*
X224405486Y-122075499D01*
X224405485Y-121497473D01*
X224425169Y-121430435D01*
X224426384Y-121428582D01*
X224459389Y-121379187D01*
X224459390Y-121379184D01*
X224459394Y-121379179D01*
X224519737Y-121233497D01*
X224550500Y-121078842D01*
X224550500Y-120921158D01*
X224550500Y-120921155D01*
X224550499Y-120921153D01*
X224519738Y-120766510D01*
X224519737Y-120766503D01*
X224462989Y-120629500D01*
X224459397Y-120620827D01*
X224459390Y-120620814D01*
X224426381Y-120571413D01*
X224420730Y-120553366D01*
X224410506Y-120537457D01*
X224406054Y-120506497D01*
X224405503Y-120504736D01*
X224405483Y-120502522D01*
X224405483Y-120297476D01*
X224425168Y-120230437D01*
X224426332Y-120228658D01*
X224459394Y-120179179D01*
X224519737Y-120033497D01*
X224546429Y-119899309D01*
X224578814Y-119837398D01*
X224639529Y-119802824D01*
X224668046Y-119799500D01*
X228348960Y-119799500D01*
X228415999Y-119819185D01*
G37*
%TD.AperFunction*%
%TA.AperFunction,Conductor*%
G36*
X230837539Y-89320185D02*
G01*
X230883294Y-89372989D01*
X230894500Y-89424500D01*
X230894500Y-91337432D01*
X230894500Y-94575500D01*
X230894501Y-94575509D01*
X230906052Y-94682950D01*
X230906054Y-94682962D01*
X230917260Y-94734472D01*
X230951383Y-94836997D01*
X230951386Y-94837003D01*
X230970628Y-94866943D01*
X230990313Y-94933982D01*
X230970629Y-95001022D01*
X230969415Y-95002874D01*
X230890609Y-95120814D01*
X230890602Y-95120827D01*
X230830264Y-95266498D01*
X230830261Y-95266510D01*
X230799500Y-95421153D01*
X230799500Y-95578846D01*
X230830261Y-95733489D01*
X230830264Y-95733501D01*
X230890604Y-95879177D01*
X230890605Y-95879179D01*
X230891899Y-95881115D01*
X230892264Y-95882282D01*
X230893476Y-95884549D01*
X230893045Y-95884778D01*
X230912773Y-95947794D01*
X230894285Y-96015173D01*
X230891899Y-96018885D01*
X230890605Y-96020820D01*
X230890604Y-96020822D01*
X230830264Y-96166498D01*
X230830261Y-96166510D01*
X230799500Y-96321153D01*
X230799500Y-96478846D01*
X230830261Y-96633489D01*
X230830264Y-96633501D01*
X230890602Y-96779172D01*
X230890609Y-96779185D01*
X230969467Y-96897203D01*
X230990345Y-96963880D01*
X230979159Y-97017606D01*
X230934664Y-97115034D01*
X230914976Y-97182082D01*
X230894500Y-97324501D01*
X230894500Y-97716561D01*
X230897397Y-97770609D01*
X230897397Y-97770610D01*
X230900229Y-97796943D01*
X230900232Y-97796970D01*
X230908885Y-97850366D01*
X230908885Y-97850368D01*
X230943708Y-97943729D01*
X230959168Y-97985178D01*
X230992653Y-98046501D01*
X231078877Y-98161682D01*
X231078886Y-98161691D01*
X231120498Y-98203303D01*
X231134585Y-98220137D01*
X231135285Y-98221142D01*
X231189084Y-98301657D01*
X231190621Y-98300629D01*
X231220258Y-98343199D01*
X231220654Y-98344386D01*
X231222805Y-98347006D01*
X231230216Y-98358538D01*
X231230225Y-98358549D01*
X231275968Y-98411340D01*
X231275971Y-98411343D01*
X231275975Y-98411347D01*
X231357204Y-98481733D01*
X231394977Y-98540511D01*
X231400000Y-98575445D01*
X231400000Y-99239566D01*
X231380315Y-99306605D01*
X231360499Y-99330318D01*
X231355353Y-99335108D01*
X231355349Y-99335113D01*
X231271197Y-99451817D01*
X231238814Y-99513726D01*
X231238808Y-99513740D01*
X231190952Y-99649400D01*
X231190950Y-99649408D01*
X231186043Y-99674075D01*
X231178989Y-99697328D01*
X231142419Y-99785622D01*
X231142411Y-99785643D01*
X231113656Y-99880435D01*
X231113651Y-99880456D01*
X231104212Y-99927906D01*
X231100894Y-99961601D01*
X231094500Y-100026523D01*
X231094500Y-101819486D01*
X231094521Y-101824052D01*
X231094541Y-101826266D01*
X231094594Y-101830268D01*
X231094601Y-101830733D01*
X231117615Y-101972750D01*
X231133933Y-102024864D01*
X231138494Y-102039428D01*
X231138495Y-102039432D01*
X231138497Y-102039435D01*
X231200590Y-102169218D01*
X231200589Y-102169218D01*
X231254638Y-102250106D01*
X231266098Y-102271546D01*
X231278990Y-102302671D01*
X231286045Y-102325927D01*
X231292617Y-102358961D01*
X231295000Y-102383156D01*
X231295000Y-102416840D01*
X231292617Y-102441033D01*
X231276025Y-102524440D01*
X231275459Y-102527128D01*
X231271890Y-102543197D01*
X231264999Y-102580916D01*
X231264999Y-102724794D01*
X231270109Y-102760326D01*
X231260166Y-102829484D01*
X231214411Y-102882289D01*
X231141462Y-102929170D01*
X231141451Y-102929179D01*
X231088659Y-102974923D01*
X230994433Y-103083664D01*
X230994430Y-103083668D01*
X230934664Y-103214534D01*
X230914976Y-103281582D01*
X230894500Y-103424001D01*
X230894500Y-103538239D01*
X230899645Y-103610180D01*
X230904668Y-103645121D01*
X230919991Y-103715564D01*
X230927787Y-103732635D01*
X230930895Y-103739442D01*
X230946802Y-103789461D01*
X230973393Y-103832510D01*
X230976616Y-103839569D01*
X230979761Y-103846457D01*
X230991800Y-103865189D01*
X230991805Y-103865196D01*
X231010110Y-103893683D01*
X231010172Y-103893775D01*
X231017548Y-103905252D01*
X231017552Y-103905258D01*
X231019089Y-103907031D01*
X231021408Y-103910479D01*
X231022408Y-103911867D01*
X231022412Y-103911872D01*
X231022415Y-103911876D01*
X231022419Y-103911881D01*
X231066862Y-103965064D01*
X231067205Y-103965479D01*
X231072858Y-103970557D01*
X231083697Y-103981590D01*
X231111776Y-104013992D01*
X231121794Y-104020430D01*
X231167552Y-104073228D01*
X231177501Y-104142386D01*
X231169323Y-104172201D01*
X231130264Y-104266498D01*
X231130261Y-104266510D01*
X231099500Y-104421153D01*
X231099500Y-104548606D01*
X231079815Y-104615645D01*
X231063963Y-104635498D01*
X231059059Y-104640490D01*
X231059056Y-104640493D01*
X230994434Y-104721421D01*
X230934663Y-104852297D01*
X230914976Y-104919342D01*
X230894500Y-105061761D01*
X230894500Y-105438238D01*
X230905110Y-105541269D01*
X230915415Y-105590762D01*
X230946804Y-105689467D01*
X230946807Y-105689474D01*
X231022417Y-105811878D01*
X231022418Y-105811879D01*
X231067222Y-105865492D01*
X231067224Y-105865495D01*
X231072303Y-105870058D01*
X231075945Y-105873942D01*
X231089387Y-105900565D01*
X231105064Y-105925943D01*
X231105282Y-105932047D01*
X231107436Y-105936313D01*
X231105946Y-105950633D01*
X231107101Y-105982939D01*
X231099500Y-106021156D01*
X231099500Y-106178846D01*
X231130261Y-106333494D01*
X231130263Y-106333498D01*
X231138812Y-106354138D01*
X231146279Y-106423608D01*
X231115003Y-106486086D01*
X231103344Y-106497088D01*
X231094487Y-106504422D01*
X231094481Y-106504428D01*
X231059058Y-106540490D01*
X231059056Y-106540493D01*
X230994434Y-106621421D01*
X230934663Y-106752297D01*
X230914976Y-106819342D01*
X230894500Y-106961761D01*
X230894500Y-107338238D01*
X230905110Y-107441269D01*
X230915415Y-107490762D01*
X230946804Y-107589467D01*
X230946807Y-107589474D01*
X231022417Y-107711878D01*
X231022418Y-107711879D01*
X231067222Y-107765492D01*
X231067224Y-107765495D01*
X231075830Y-107773225D01*
X231078864Y-107776363D01*
X231093148Y-107803600D01*
X231109305Y-107829756D01*
X231111305Y-107838221D01*
X231111315Y-107838240D01*
X231111313Y-107838256D01*
X231111340Y-107838368D01*
X231130261Y-107933491D01*
X231130264Y-107933501D01*
X231179574Y-108052548D01*
X231182319Y-108078087D01*
X231188979Y-108102898D01*
X231186334Y-108115426D01*
X231187043Y-108122018D01*
X231183141Y-108137706D01*
X231181558Y-108142663D01*
X231130263Y-108266503D01*
X231110803Y-108364326D01*
X231108677Y-108370990D01*
X231092863Y-108394375D01*
X231079780Y-108419387D01*
X231079014Y-108420174D01*
X231059059Y-108440489D01*
X231059056Y-108440493D01*
X230994434Y-108521421D01*
X230934663Y-108652297D01*
X230934662Y-108652301D01*
X230914977Y-108719340D01*
X230914976Y-108719344D01*
X230894500Y-108861760D01*
X230894500Y-108975500D01*
X230894501Y-108975509D01*
X230906052Y-109082950D01*
X230906054Y-109082962D01*
X230917260Y-109134472D01*
X230951383Y-109236997D01*
X230951386Y-109237003D01*
X230970628Y-109266943D01*
X230990313Y-109333982D01*
X230970629Y-109401022D01*
X230969415Y-109402874D01*
X230890609Y-109520814D01*
X230890602Y-109520827D01*
X230830264Y-109666498D01*
X230830261Y-109666510D01*
X230799500Y-109821153D01*
X230799500Y-109978846D01*
X230830261Y-110133489D01*
X230830264Y-110133501D01*
X230890604Y-110279177D01*
X230890605Y-110279179D01*
X230891899Y-110281115D01*
X230892264Y-110282282D01*
X230893476Y-110284549D01*
X230893045Y-110284778D01*
X230912773Y-110347794D01*
X230894285Y-110415173D01*
X230891899Y-110418885D01*
X230890605Y-110420820D01*
X230890604Y-110420822D01*
X230830264Y-110566498D01*
X230830261Y-110566510D01*
X230799500Y-110721153D01*
X230799500Y-110878846D01*
X230830261Y-111033489D01*
X230830264Y-111033501D01*
X230890602Y-111179172D01*
X230890609Y-111179185D01*
X230978210Y-111310288D01*
X230978213Y-111310292D01*
X231089707Y-111421786D01*
X231089711Y-111421789D01*
X231195970Y-111492790D01*
X231200341Y-111498021D01*
X231206593Y-111500742D01*
X231222459Y-111524486D01*
X231240775Y-111546402D01*
X231242547Y-111554547D01*
X231245412Y-111558835D01*
X231248553Y-111582158D01*
X231251059Y-111593674D01*
X231251118Y-111597006D01*
X231246731Y-111719844D01*
X231254199Y-111789311D01*
X231254200Y-111789323D01*
X231254586Y-111790835D01*
X231274552Y-111869059D01*
X231276021Y-111875533D01*
X231292617Y-111958960D01*
X231295000Y-111983153D01*
X231295000Y-112076000D01*
X231295001Y-112076009D01*
X231306552Y-112183450D01*
X231306554Y-112183462D01*
X231317759Y-112234969D01*
X231353919Y-112343610D01*
X231353924Y-112343752D01*
X231354005Y-112343870D01*
X231355169Y-112378615D01*
X231356413Y-112413436D01*
X231356341Y-112413607D01*
X231356345Y-112413701D01*
X231355891Y-112414691D01*
X231342767Y-112446278D01*
X231340565Y-112449970D01*
X231300087Y-112508270D01*
X231270218Y-112567939D01*
X231270032Y-112568252D01*
X231268809Y-112570754D01*
X231223372Y-112707272D01*
X231218238Y-112851059D01*
X231218239Y-112851060D01*
X231225706Y-112920514D01*
X231225709Y-112920533D01*
X231261287Y-113059928D01*
X231261291Y-113059939D01*
X231278990Y-113102671D01*
X231286045Y-113125927D01*
X231292617Y-113158962D01*
X231295000Y-113183156D01*
X231295000Y-113216839D01*
X231292617Y-113241034D01*
X231286044Y-113274074D01*
X231278987Y-113297333D01*
X231266097Y-113328451D01*
X231254640Y-113349886D01*
X231200610Y-113430750D01*
X231198008Y-113434683D01*
X231196816Y-113436501D01*
X231194431Y-113440178D01*
X231194430Y-113440181D01*
X231134664Y-113571047D01*
X231134662Y-113571054D01*
X231114977Y-113638093D01*
X231114976Y-113638097D01*
X231094500Y-113780513D01*
X231094500Y-115219486D01*
X231094521Y-115224052D01*
X231094541Y-115226266D01*
X231094594Y-115230268D01*
X231094601Y-115230733D01*
X231117615Y-115372750D01*
X231119524Y-115378845D01*
X231138494Y-115439428D01*
X231138495Y-115439432D01*
X231138497Y-115439435D01*
X231200590Y-115569218D01*
X231200589Y-115569218D01*
X231254638Y-115650106D01*
X231266098Y-115671546D01*
X231278990Y-115702671D01*
X231286045Y-115725928D01*
X231294023Y-115766032D01*
X231295695Y-115776970D01*
X231306552Y-115877954D01*
X231309129Y-115889798D01*
X231304143Y-115959490D01*
X231262270Y-116015423D01*
X231255004Y-116020468D01*
X231241460Y-116029172D01*
X231241451Y-116029179D01*
X231188659Y-116074923D01*
X231094433Y-116183664D01*
X231094430Y-116183668D01*
X231034664Y-116314534D01*
X231014976Y-116381582D01*
X230994500Y-116524001D01*
X230994500Y-117016561D01*
X230997397Y-117070609D01*
X230997397Y-117070610D01*
X231000229Y-117096943D01*
X231000232Y-117096970D01*
X231008885Y-117150366D01*
X231008885Y-117150368D01*
X231056806Y-117278846D01*
X231059168Y-117285178D01*
X231092653Y-117346501D01*
X231095044Y-117350221D01*
X231094121Y-117350813D01*
X231116789Y-117411596D01*
X231114722Y-117444624D01*
X231099500Y-117521157D01*
X231099500Y-117678846D01*
X231130260Y-117833488D01*
X231130263Y-117833498D01*
X231146027Y-117871555D01*
X231153496Y-117941024D01*
X231128029Y-117996798D01*
X231126062Y-117999240D01*
X231126055Y-117999249D01*
X231126053Y-117999251D01*
X231094433Y-118043103D01*
X231094430Y-118043107D01*
X231034664Y-118173974D01*
X231014976Y-118241022D01*
X230994500Y-118383441D01*
X230994500Y-120395846D01*
X230974815Y-120462885D01*
X230922011Y-120508640D01*
X230852853Y-120518584D01*
X230789297Y-120489559D01*
X230782819Y-120483527D01*
X229136647Y-118837355D01*
X229136645Y-118837352D01*
X229017774Y-118718481D01*
X229017766Y-118718475D01*
X228914020Y-118658578D01*
X228914019Y-118658577D01*
X228914019Y-118658578D01*
X228880842Y-118639423D01*
X228728114Y-118598499D01*
X228570000Y-118598499D01*
X228562404Y-118598499D01*
X228562388Y-118598500D01*
X224529482Y-118598500D01*
X224520796Y-118595949D01*
X224511836Y-118597238D01*
X224487797Y-118586259D01*
X224462443Y-118578815D01*
X224456515Y-118571973D01*
X224448280Y-118568213D01*
X224433992Y-118545980D01*
X224416688Y-118526011D01*
X224414400Y-118515496D01*
X224410505Y-118509435D01*
X224405482Y-118474501D01*
X224405481Y-118285336D01*
X224405481Y-118285335D01*
X224405480Y-117492581D01*
X224414919Y-117445128D01*
X224415128Y-117444624D01*
X224419737Y-117433497D01*
X224450500Y-117278842D01*
X224450500Y-117121158D01*
X224450500Y-117121155D01*
X224450499Y-117121153D01*
X224419738Y-116966509D01*
X224419737Y-116966503D01*
X224414918Y-116954870D01*
X224405478Y-116907419D01*
X224405478Y-116292585D01*
X224414919Y-116245128D01*
X224415196Y-116244457D01*
X224419737Y-116233497D01*
X224450500Y-116078842D01*
X224450500Y-115921158D01*
X224450500Y-115921155D01*
X224450499Y-115921153D01*
X224444262Y-115889798D01*
X224419737Y-115766503D01*
X224414916Y-115754863D01*
X224405478Y-115707413D01*
X224405478Y-115378845D01*
X224405472Y-111517929D01*
X224405471Y-111517927D01*
X224404975Y-111509394D01*
X224402073Y-111459415D01*
X224398749Y-111430898D01*
X224388599Y-111373172D01*
X224388598Y-111373171D01*
X224388598Y-111373167D01*
X224381733Y-111355719D01*
X224375504Y-111286128D01*
X224407889Y-111224217D01*
X224409441Y-111222636D01*
X224410285Y-111221791D01*
X224410289Y-111221789D01*
X224521789Y-111110289D01*
X224609394Y-110979179D01*
X224669737Y-110833497D01*
X224700500Y-110678842D01*
X224700500Y-110521158D01*
X224700500Y-110521155D01*
X224700499Y-110521153D01*
X224680542Y-110420822D01*
X224669737Y-110366503D01*
X224634852Y-110282282D01*
X224620425Y-110247452D01*
X224612956Y-110177983D01*
X224620425Y-110152548D01*
X224669735Y-110033501D01*
X224669737Y-110033497D01*
X224700500Y-109878842D01*
X224700500Y-109721158D01*
X224700500Y-109721155D01*
X224700499Y-109721153D01*
X224684304Y-109639735D01*
X224669737Y-109566503D01*
X224650812Y-109520814D01*
X224609397Y-109420827D01*
X224609390Y-109420814D01*
X224521789Y-109289711D01*
X224521786Y-109289707D01*
X224407863Y-109175784D01*
X224374378Y-109114461D01*
X224376567Y-109053168D01*
X224384993Y-109024472D01*
X224405468Y-108882058D01*
X224405455Y-98224499D01*
X224393902Y-98117044D01*
X224382696Y-98065533D01*
X224365393Y-98013548D01*
X224362899Y-97943729D01*
X224395365Y-97886712D01*
X224471789Y-97810289D01*
X224559394Y-97679179D01*
X224619737Y-97533497D01*
X224650500Y-97378842D01*
X224650500Y-97221158D01*
X224650500Y-97221155D01*
X224650499Y-97221153D01*
X224619738Y-97066510D01*
X224619737Y-97066503D01*
X224619735Y-97066498D01*
X224559396Y-96920825D01*
X224559394Y-96920822D01*
X224559394Y-96920821D01*
X224524694Y-96868889D01*
X224503816Y-96802215D01*
X224522300Y-96734835D01*
X224524676Y-96731136D01*
X224559394Y-96679179D01*
X224619737Y-96533497D01*
X224650500Y-96378842D01*
X224650500Y-96221158D01*
X224650500Y-96221155D01*
X224650499Y-96221153D01*
X224619738Y-96066510D01*
X224619737Y-96066503D01*
X224619735Y-96066498D01*
X224559397Y-95920827D01*
X224559390Y-95920814D01*
X224471789Y-95789711D01*
X224471786Y-95789707D01*
X224360292Y-95678213D01*
X224360288Y-95678210D01*
X224229185Y-95590609D01*
X224229172Y-95590602D01*
X224083501Y-95530264D01*
X224083489Y-95530261D01*
X223928845Y-95499500D01*
X223928842Y-95499500D01*
X223787087Y-95499500D01*
X223720048Y-95479815D01*
X223682772Y-95442540D01*
X223617812Y-95341462D01*
X223617809Y-95341457D01*
X223607135Y-95329138D01*
X223572060Y-95288659D01*
X223572056Y-95288656D01*
X223572054Y-95288653D01*
X223463320Y-95194433D01*
X223463317Y-95194431D01*
X223463315Y-95194430D01*
X223332449Y-95134664D01*
X223332444Y-95134662D01*
X223332443Y-95134662D01*
X223265404Y-95114977D01*
X223265406Y-95114977D01*
X223265401Y-95114976D01*
X223203331Y-95106052D01*
X223122984Y-95094500D01*
X217577016Y-95094500D01*
X217577013Y-95094500D01*
X217465160Y-95107030D01*
X217465152Y-95107032D01*
X217411659Y-95119169D01*
X217411640Y-95119175D01*
X217305336Y-95156144D01*
X217305332Y-95156146D01*
X217185700Y-95236080D01*
X217144066Y-95273477D01*
X217144060Y-95273484D01*
X217133723Y-95282770D01*
X217133716Y-95282776D01*
X217041452Y-95393179D01*
X217021940Y-95438006D01*
X217013478Y-95449407D01*
X216996467Y-95462248D01*
X216982802Y-95478601D01*
X216969141Y-95482878D01*
X216957715Y-95491505D01*
X216936462Y-95493111D01*
X216916125Y-95499480D01*
X216913910Y-95499500D01*
X216787087Y-95499500D01*
X216720048Y-95479815D01*
X216682772Y-95442540D01*
X216617812Y-95341462D01*
X216617809Y-95341457D01*
X216607135Y-95329138D01*
X216572060Y-95288659D01*
X216572056Y-95288656D01*
X216572054Y-95288653D01*
X216463320Y-95194433D01*
X216463317Y-95194431D01*
X216463315Y-95194430D01*
X216332449Y-95134664D01*
X216332444Y-95134662D01*
X216332443Y-95134662D01*
X216265404Y-95114977D01*
X216265406Y-95114977D01*
X216265401Y-95114976D01*
X216203331Y-95106052D01*
X216122984Y-95094500D01*
X213465638Y-95094500D01*
X213465621Y-95094500D01*
X213402626Y-95098442D01*
X213371982Y-95102292D01*
X213371976Y-95102293D01*
X213371969Y-95102294D01*
X213327922Y-95110647D01*
X213309967Y-95114052D01*
X213177035Y-95169111D01*
X213116948Y-95204761D01*
X213113012Y-95207819D01*
X213111773Y-95208933D01*
X213016115Y-95286015D01*
X212951563Y-95312751D01*
X212890860Y-95304023D01*
X212884807Y-95301515D01*
X212833497Y-95280263D01*
X212833493Y-95280262D01*
X212833488Y-95280260D01*
X212678845Y-95249500D01*
X212678842Y-95249500D01*
X212521158Y-95249500D01*
X212521155Y-95249500D01*
X212366510Y-95280261D01*
X212366498Y-95280264D01*
X212220827Y-95340602D01*
X212220814Y-95340609D01*
X212168891Y-95375304D01*
X212102214Y-95396182D01*
X212034833Y-95377698D01*
X212031109Y-95375304D01*
X211979185Y-95340609D01*
X211979172Y-95340602D01*
X211833501Y-95280264D01*
X211833489Y-95280261D01*
X211678845Y-95249500D01*
X211678842Y-95249500D01*
X211521158Y-95249500D01*
X211521155Y-95249500D01*
X211366505Y-95280261D01*
X211366502Y-95280263D01*
X211306854Y-95304969D01*
X211237384Y-95312436D01*
X211178200Y-95284119D01*
X211074698Y-95194433D01*
X211074695Y-95194431D01*
X211074693Y-95194430D01*
X210943827Y-95134664D01*
X210943822Y-95134662D01*
X210943821Y-95134662D01*
X210876782Y-95114977D01*
X210876784Y-95114977D01*
X210876779Y-95114976D01*
X210814709Y-95106052D01*
X210734362Y-95094500D01*
X203524000Y-95094500D01*
X203523991Y-95094500D01*
X203523990Y-95094501D01*
X203416549Y-95106052D01*
X203416537Y-95106054D01*
X203365027Y-95117260D01*
X203262502Y-95151383D01*
X203262496Y-95151386D01*
X203141462Y-95229171D01*
X203141451Y-95229179D01*
X203088659Y-95274923D01*
X202994433Y-95383664D01*
X202994430Y-95383668D01*
X202934664Y-95514534D01*
X202914976Y-95581582D01*
X202894500Y-95724001D01*
X202894500Y-103170500D01*
X202874815Y-103237539D01*
X202822011Y-103283294D01*
X202770500Y-103294500D01*
X193824500Y-103294500D01*
X193757461Y-103274815D01*
X193711706Y-103222011D01*
X193700500Y-103170500D01*
X193700500Y-91803750D01*
X193700726Y-91796263D01*
X193704486Y-91734108D01*
X193718271Y-91506201D01*
X193720076Y-91491340D01*
X193722946Y-91475682D01*
X193728083Y-91447648D01*
X194549500Y-91447648D01*
X194549500Y-91652351D01*
X194581522Y-91854534D01*
X194644781Y-92049223D01*
X194737715Y-92231613D01*
X194858028Y-92397213D01*
X195002786Y-92541971D01*
X195157749Y-92654556D01*
X195168390Y-92662287D01*
X195284607Y-92721503D01*
X195350776Y-92755218D01*
X195350778Y-92755218D01*
X195350781Y-92755220D01*
X195455137Y-92789127D01*
X195545465Y-92818477D01*
X195646557Y-92834488D01*
X195747648Y-92850500D01*
X195747649Y-92850500D01*
X195952351Y-92850500D01*
X195952352Y-92850500D01*
X196154534Y-92818477D01*
X196349219Y-92755220D01*
X196531610Y-92662287D01*
X196624590Y-92594732D01*
X196697213Y-92541971D01*
X196697215Y-92541968D01*
X196697219Y-92541966D01*
X196841966Y-92397219D01*
X196841968Y-92397215D01*
X196841971Y-92397213D01*
X196894732Y-92324590D01*
X196962287Y-92231610D01*
X197055220Y-92049219D01*
X197118477Y-91854534D01*
X197150500Y-91652352D01*
X197150500Y-91447648D01*
X197133043Y-91337430D01*
X197118477Y-91245465D01*
X197067379Y-91088204D01*
X197055220Y-91050781D01*
X197055218Y-91050778D01*
X197055218Y-91050776D01*
X197003065Y-90948422D01*
X196962287Y-90868390D01*
X196954556Y-90857749D01*
X196841971Y-90702786D01*
X196697213Y-90558028D01*
X196531613Y-90437715D01*
X196531612Y-90437714D01*
X196531610Y-90437713D01*
X196474653Y-90408691D01*
X196349223Y-90344781D01*
X196154534Y-90281522D01*
X195979995Y-90253878D01*
X195952352Y-90249500D01*
X195747648Y-90249500D01*
X195723329Y-90253351D01*
X195545465Y-90281522D01*
X195350776Y-90344781D01*
X195168386Y-90437715D01*
X195002786Y-90558028D01*
X194858028Y-90702786D01*
X194737715Y-90868386D01*
X194644781Y-91050776D01*
X194581522Y-91245465D01*
X194549500Y-91447648D01*
X193728083Y-91447648D01*
X193771780Y-91209197D01*
X193775364Y-91194663D01*
X193808538Y-91088204D01*
X193860696Y-90920822D01*
X193865998Y-90906841D01*
X193983731Y-90645249D01*
X193990676Y-90632016D01*
X194139080Y-90386526D01*
X194147567Y-90374230D01*
X194324480Y-90148417D01*
X194334395Y-90137226D01*
X194537226Y-89934395D01*
X194548417Y-89924480D01*
X194774230Y-89747567D01*
X194786526Y-89739080D01*
X195032016Y-89590676D01*
X195045249Y-89583731D01*
X195306841Y-89465998D01*
X195320822Y-89460696D01*
X195594668Y-89375362D01*
X195609197Y-89371780D01*
X195891344Y-89320075D01*
X195906201Y-89318271D01*
X196196264Y-89300726D01*
X196203751Y-89300500D01*
X196265892Y-89300500D01*
X230770500Y-89300500D01*
X230837539Y-89320185D01*
G37*
%TD.AperFunction*%
%TD*%
%TA.AperFunction,Conductor*%
%TO.N,MOT1*%
G36*
X243542539Y-94725185D02*
G01*
X243588294Y-94777989D01*
X243599500Y-94829500D01*
X243599500Y-102670500D01*
X243579815Y-102737539D01*
X243527011Y-102783294D01*
X243475500Y-102794500D01*
X231888092Y-102794500D01*
X231821053Y-102774815D01*
X231775298Y-102722011D01*
X231765354Y-102652853D01*
X231769431Y-102634504D01*
X231769733Y-102633506D01*
X231769737Y-102633497D01*
X231800500Y-102478842D01*
X231800500Y-102321158D01*
X231800500Y-102321155D01*
X231800499Y-102321153D01*
X231769738Y-102166510D01*
X231769737Y-102166503D01*
X231769735Y-102166498D01*
X231709397Y-102020827D01*
X231709390Y-102020814D01*
X231620898Y-101888377D01*
X231600020Y-101821700D01*
X231600000Y-101819486D01*
X231600000Y-100026523D01*
X231609439Y-99979071D01*
X231628233Y-99933696D01*
X231669737Y-99833497D01*
X231686739Y-99748021D01*
X231719121Y-99686113D01*
X231739459Y-99669115D01*
X231810289Y-99621789D01*
X231921789Y-99510289D01*
X232009394Y-99379179D01*
X232069737Y-99233497D01*
X232100500Y-99078842D01*
X232100500Y-98921158D01*
X232100500Y-98921155D01*
X232100499Y-98921153D01*
X232069739Y-98766512D01*
X232069738Y-98766509D01*
X232069737Y-98766503D01*
X232069734Y-98766496D01*
X232069431Y-98765496D01*
X232069426Y-98764937D01*
X232068549Y-98760528D01*
X232069385Y-98760361D01*
X232068808Y-98695629D01*
X232106056Y-98636516D01*
X232169350Y-98606925D01*
X232188092Y-98605500D01*
X236875490Y-98605500D01*
X236875500Y-98605500D01*
X236982956Y-98593947D01*
X237034467Y-98582741D01*
X237068697Y-98571347D01*
X237136997Y-98548616D01*
X237137001Y-98548613D01*
X237137004Y-98548613D01*
X237258043Y-98470825D01*
X237310847Y-98425070D01*
X237405067Y-98316336D01*
X237464838Y-98185459D01*
X237484523Y-98118420D01*
X237484524Y-98118416D01*
X237505000Y-97976000D01*
X237505000Y-96932059D01*
X237505642Y-96919459D01*
X237505876Y-96917168D01*
X237511525Y-96890773D01*
X237521888Y-96859500D01*
X237534051Y-96833417D01*
X237548901Y-96809341D01*
X237566757Y-96786761D01*
X237621100Y-96732418D01*
X237621100Y-96732417D01*
X237621124Y-96732394D01*
X237657298Y-96692122D01*
X237673931Y-96671480D01*
X237705567Y-96627607D01*
X237765338Y-96496730D01*
X237785023Y-96429691D01*
X237785024Y-96429687D01*
X237805500Y-96287271D01*
X237805500Y-94829500D01*
X237825185Y-94762461D01*
X237877989Y-94716706D01*
X237929500Y-94705500D01*
X243475500Y-94705500D01*
X243542539Y-94725185D01*
G37*
%TD.AperFunction*%
%TD*%
%TA.AperFunction,Conductor*%
%TO.N,MOT2*%
G36*
X243542539Y-108625185D02*
G01*
X243588294Y-108677989D01*
X243599500Y-108729500D01*
X243599500Y-115770500D01*
X243579815Y-115837539D01*
X243527011Y-115883294D01*
X243475500Y-115894500D01*
X232181353Y-115894500D01*
X232178323Y-115894649D01*
X232178320Y-115894601D01*
X232170190Y-115895000D01*
X232029810Y-115895000D01*
X232021679Y-115894601D01*
X232021677Y-115894649D01*
X232018647Y-115894500D01*
X232018644Y-115894500D01*
X231924500Y-115894500D01*
X231857461Y-115874815D01*
X231811706Y-115822011D01*
X231800500Y-115770500D01*
X231800500Y-115721155D01*
X231800499Y-115721153D01*
X231769738Y-115566510D01*
X231769737Y-115566503D01*
X231769735Y-115566498D01*
X231709397Y-115420827D01*
X231709390Y-115420814D01*
X231620898Y-115288377D01*
X231600020Y-115221700D01*
X231600000Y-115219486D01*
X231600000Y-113780513D01*
X231619685Y-113713474D01*
X231620898Y-113711622D01*
X231621789Y-113710289D01*
X231709394Y-113579179D01*
X231769737Y-113433497D01*
X231800500Y-113278842D01*
X231800500Y-113121158D01*
X231800500Y-113121155D01*
X231800499Y-113121153D01*
X231769738Y-112966510D01*
X231769737Y-112966503D01*
X231728311Y-112866490D01*
X231720842Y-112797021D01*
X231752117Y-112734542D01*
X231812206Y-112698890D01*
X231860513Y-112696300D01*
X231924500Y-112705500D01*
X231924504Y-112705500D01*
X236894988Y-112705500D01*
X236894995Y-112705500D01*
X237026556Y-112688080D01*
X237088875Y-112671282D01*
X237211364Y-112620225D01*
X237324197Y-112530948D01*
X237372262Y-112480238D01*
X237455372Y-112362789D01*
X237502026Y-112226683D01*
X237515045Y-112158037D01*
X237515045Y-112158036D01*
X237515125Y-112157180D01*
X237515168Y-112155281D01*
X237521464Y-112014299D01*
X237505597Y-111853196D01*
X237505000Y-111841042D01*
X237505000Y-111558952D01*
X237505597Y-111546799D01*
X237533244Y-111266073D01*
X237535030Y-111254035D01*
X237590061Y-110977375D01*
X237593015Y-110965580D01*
X237678394Y-110684129D01*
X237694690Y-110611556D01*
X237700029Y-110575561D01*
X237705500Y-110501394D01*
X237705500Y-108729500D01*
X237725185Y-108662461D01*
X237777989Y-108616706D01*
X237829500Y-108605500D01*
X243475500Y-108605500D01*
X243542539Y-108625185D01*
G37*
%TD.AperFunction*%
%TD*%
%TA.AperFunction,Conductor*%
%TO.N,MOT3*%
G36*
X243542539Y-120525185D02*
G01*
X243588294Y-120577989D01*
X243599500Y-120629500D01*
X243599500Y-126870500D01*
X243579815Y-126937539D01*
X243527011Y-126983294D01*
X243475500Y-126994500D01*
X239224000Y-126994500D01*
X239223991Y-126994500D01*
X239223990Y-126994501D01*
X239116549Y-127006052D01*
X239116537Y-127006054D01*
X239065027Y-127017260D01*
X238962502Y-127051383D01*
X238962496Y-127051386D01*
X238841462Y-127129171D01*
X238841451Y-127129179D01*
X238788659Y-127174923D01*
X238694433Y-127283664D01*
X238694430Y-127283668D01*
X238634664Y-127414534D01*
X238614976Y-127481582D01*
X238594500Y-127624001D01*
X238594500Y-128470500D01*
X238574815Y-128537539D01*
X238522011Y-128583294D01*
X238470500Y-128594500D01*
X235783439Y-128594500D01*
X235729390Y-128597397D01*
X235729389Y-128597397D01*
X235703056Y-128600229D01*
X235703029Y-128600232D01*
X235649633Y-128608885D01*
X235649631Y-128608885D01*
X235514826Y-128659166D01*
X235453502Y-128692651D01*
X235338319Y-128778874D01*
X235338309Y-128778882D01*
X235296688Y-128820504D01*
X235277900Y-128835923D01*
X235277898Y-128835925D01*
X235249887Y-128854641D01*
X235228450Y-128866099D01*
X235197331Y-128878989D01*
X235174071Y-128886045D01*
X235157340Y-128889373D01*
X235141031Y-128892617D01*
X235116841Y-128895000D01*
X235083159Y-128895000D01*
X235058970Y-128892617D01*
X235025924Y-128886044D01*
X235002667Y-128878988D01*
X234971547Y-128866098D01*
X234950107Y-128854638D01*
X234922099Y-128835923D01*
X234903311Y-128820504D01*
X234861694Y-128778888D01*
X234861688Y-128778882D01*
X234861680Y-128778874D01*
X234821421Y-128742712D01*
X234821418Y-128742709D01*
X234800773Y-128726073D01*
X234756895Y-128694433D01*
X234626021Y-128634663D01*
X234558976Y-128614976D01*
X234496913Y-128606053D01*
X234416559Y-128594500D01*
X232024000Y-128594500D01*
X231956961Y-128574815D01*
X231911206Y-128522011D01*
X231900000Y-128470500D01*
X231900000Y-127480513D01*
X231919685Y-127413474D01*
X231920898Y-127411622D01*
X231921789Y-127410289D01*
X232009394Y-127279179D01*
X232069737Y-127133497D01*
X232100500Y-126978842D01*
X232100500Y-126821158D01*
X232100500Y-126821155D01*
X232100499Y-126821153D01*
X232069738Y-126666510D01*
X232069737Y-126666503D01*
X232069735Y-126666498D01*
X232009397Y-126520827D01*
X232009390Y-126520814D01*
X231920898Y-126388377D01*
X231900020Y-126321700D01*
X231900000Y-126319486D01*
X231900000Y-125580513D01*
X231919685Y-125513474D01*
X231920898Y-125511622D01*
X231921789Y-125510289D01*
X232009394Y-125379179D01*
X232069737Y-125233497D01*
X232100500Y-125078842D01*
X232100500Y-124994587D01*
X232120185Y-124927548D01*
X232172989Y-124881793D01*
X232242147Y-124871849D01*
X232279937Y-124883669D01*
X232299992Y-124893693D01*
X232366300Y-124915717D01*
X232366305Y-124915718D01*
X232453234Y-124931345D01*
X232507907Y-124941175D01*
X232507910Y-124941175D01*
X232507915Y-124941176D01*
X236935062Y-125096514D01*
X236957482Y-125096803D01*
X236968467Y-125096701D01*
X236990827Y-125095999D01*
X236990831Y-125095998D01*
X236990833Y-125095998D01*
X237013709Y-125091447D01*
X237131943Y-125067929D01*
X237177705Y-125051785D01*
X237197819Y-125044690D01*
X237197822Y-125044688D01*
X237197832Y-125044685D01*
X237325320Y-124977999D01*
X237428860Y-124878094D01*
X237437476Y-124867002D01*
X237471681Y-124822974D01*
X237471714Y-124822931D01*
X237471725Y-124822916D01*
X237471725Y-124822914D01*
X237471731Y-124822908D01*
X237542927Y-124697878D01*
X237576014Y-124557853D01*
X237582241Y-124488261D01*
X237574540Y-124344592D01*
X237574539Y-124344586D01*
X237535030Y-124145963D01*
X237533244Y-124133925D01*
X237505597Y-123853199D01*
X237505000Y-123841046D01*
X237505000Y-123558952D01*
X237505597Y-123546799D01*
X237533244Y-123266073D01*
X237535030Y-123254035D01*
X237590063Y-122977365D01*
X237593015Y-122965580D01*
X237678394Y-122684129D01*
X237694690Y-122611556D01*
X237700029Y-122575561D01*
X237705500Y-122501394D01*
X237705500Y-120629500D01*
X237725185Y-120562461D01*
X237777989Y-120516706D01*
X237829500Y-120505500D01*
X243475500Y-120505500D01*
X243542539Y-120525185D01*
G37*
%TD.AperFunction*%
%TD*%
%TA.AperFunction,Conductor*%
%TO.N,GND*%
G36*
X241103736Y-89300726D02*
G01*
X241393796Y-89318271D01*
X241408659Y-89320076D01*
X241690798Y-89371780D01*
X241705335Y-89375363D01*
X241979172Y-89460695D01*
X241993163Y-89466000D01*
X242254743Y-89583727D01*
X242267989Y-89590680D01*
X242513465Y-89739075D01*
X242525776Y-89747573D01*
X242751573Y-89924473D01*
X242762781Y-89934403D01*
X242965596Y-90137218D01*
X242975526Y-90148426D01*
X243095481Y-90301538D01*
X243152422Y-90374217D01*
X243160926Y-90386537D01*
X243261424Y-90552781D01*
X243309316Y-90632004D01*
X243316275Y-90645263D01*
X243433997Y-90906831D01*
X243439306Y-90920832D01*
X243524635Y-91194663D01*
X243528219Y-91209201D01*
X243579923Y-91491340D01*
X243581728Y-91506205D01*
X243599274Y-91796263D01*
X243599500Y-91803750D01*
X243599500Y-94076000D01*
X243579815Y-94143039D01*
X243527011Y-94188794D01*
X243475500Y-94200000D01*
X237300000Y-94200000D01*
X237300000Y-96287271D01*
X237280315Y-96354310D01*
X237263682Y-96374952D01*
X237157288Y-96481346D01*
X237065187Y-96630664D01*
X237065186Y-96630667D01*
X237010001Y-96797204D01*
X237010001Y-96797205D01*
X237010000Y-96797205D01*
X236999500Y-96899985D01*
X236999500Y-97976000D01*
X236979815Y-98043039D01*
X236927011Y-98088794D01*
X236875500Y-98100000D01*
X231725045Y-98100000D01*
X231658006Y-98080315D01*
X231612251Y-98027511D01*
X231610482Y-98023448D01*
X231609394Y-98020822D01*
X231609390Y-98020814D01*
X231521789Y-97889711D01*
X231521786Y-97889707D01*
X231436319Y-97804240D01*
X231402834Y-97742917D01*
X231400000Y-97716559D01*
X231400000Y-97324500D01*
X231419685Y-97257461D01*
X231472489Y-97211706D01*
X231524000Y-97200500D01*
X231678844Y-97200500D01*
X231678845Y-97200499D01*
X231833497Y-97169737D01*
X231979179Y-97109394D01*
X232110289Y-97021789D01*
X232221789Y-96910289D01*
X232309394Y-96779179D01*
X232369737Y-96633497D01*
X232400500Y-96478842D01*
X232400500Y-96321158D01*
X232400500Y-96321155D01*
X232400499Y-96321153D01*
X232393759Y-96287271D01*
X232369737Y-96166503D01*
X232369735Y-96166498D01*
X232326457Y-96062013D01*
X232318988Y-95992544D01*
X232350264Y-95930065D01*
X232410353Y-95894413D01*
X232416817Y-95892946D01*
X232533497Y-95869737D01*
X232679179Y-95809394D01*
X232810289Y-95721789D01*
X232921789Y-95610289D01*
X233009394Y-95479179D01*
X233069737Y-95333497D01*
X233100500Y-95178842D01*
X233100500Y-95021158D01*
X233100500Y-95021155D01*
X233100499Y-95021153D01*
X233069738Y-94866510D01*
X233069737Y-94866503D01*
X233013305Y-94730263D01*
X233009397Y-94720827D01*
X233009390Y-94720814D01*
X232921789Y-94589711D01*
X232921786Y-94589707D01*
X232810292Y-94478213D01*
X232810288Y-94478210D01*
X232679185Y-94390609D01*
X232679172Y-94390602D01*
X232533501Y-94330264D01*
X232533489Y-94330261D01*
X232378845Y-94299500D01*
X232378842Y-94299500D01*
X232221158Y-94299500D01*
X232221155Y-94299500D01*
X232066510Y-94330261D01*
X232066498Y-94330264D01*
X231920827Y-94390602D01*
X231920814Y-94390609D01*
X231789711Y-94478210D01*
X231789707Y-94478213D01*
X231678213Y-94589707D01*
X231678207Y-94589715D01*
X231641675Y-94644390D01*
X231635584Y-94649480D01*
X231632286Y-94656703D01*
X231609155Y-94671567D01*
X231588063Y-94689196D01*
X231578688Y-94691147D01*
X231573508Y-94694477D01*
X231538573Y-94699500D01*
X231524000Y-94699500D01*
X231456961Y-94679815D01*
X231411206Y-94627011D01*
X231400000Y-94575500D01*
X231400000Y-91297648D01*
X240199500Y-91297648D01*
X240199500Y-91502351D01*
X240231522Y-91704534D01*
X240294781Y-91899223D01*
X240387715Y-92081613D01*
X240508028Y-92247213D01*
X240652786Y-92391971D01*
X240807749Y-92504556D01*
X240818390Y-92512287D01*
X240934607Y-92571503D01*
X241000776Y-92605218D01*
X241000778Y-92605218D01*
X241000781Y-92605220D01*
X241105137Y-92639127D01*
X241195465Y-92668477D01*
X241296557Y-92684488D01*
X241397648Y-92700500D01*
X241397649Y-92700500D01*
X241602351Y-92700500D01*
X241602352Y-92700500D01*
X241804534Y-92668477D01*
X241999219Y-92605220D01*
X242181610Y-92512287D01*
X242274590Y-92444732D01*
X242347213Y-92391971D01*
X242347215Y-92391968D01*
X242347219Y-92391966D01*
X242491966Y-92247219D01*
X242491968Y-92247215D01*
X242491971Y-92247213D01*
X242544732Y-92174590D01*
X242612287Y-92081610D01*
X242705220Y-91899219D01*
X242768477Y-91704534D01*
X242800500Y-91502352D01*
X242800500Y-91297648D01*
X242768477Y-91095466D01*
X242705220Y-90900781D01*
X242705218Y-90900778D01*
X242705218Y-90900776D01*
X242671503Y-90834607D01*
X242612287Y-90718390D01*
X242554189Y-90638424D01*
X242491971Y-90552786D01*
X242347213Y-90408028D01*
X242181613Y-90287715D01*
X242181612Y-90287714D01*
X242181610Y-90287713D01*
X242124653Y-90258691D01*
X241999223Y-90194781D01*
X241804534Y-90131522D01*
X241629995Y-90103878D01*
X241602352Y-90099500D01*
X241397648Y-90099500D01*
X241373329Y-90103351D01*
X241195465Y-90131522D01*
X241000776Y-90194781D01*
X240818386Y-90287715D01*
X240652786Y-90408028D01*
X240508028Y-90552786D01*
X240387715Y-90718386D01*
X240294781Y-90900776D01*
X240231522Y-91095465D01*
X240199500Y-91297648D01*
X231400000Y-91297648D01*
X231400000Y-89424500D01*
X231419685Y-89357461D01*
X231472489Y-89311706D01*
X231524000Y-89300500D01*
X241034108Y-89300500D01*
X241096249Y-89300500D01*
X241103736Y-89300726D01*
G37*
%TD.AperFunction*%
%TD*%
%TA.AperFunction,Conductor*%
%TO.N,GND*%
G36*
X243542539Y-103319685D02*
G01*
X243588294Y-103372489D01*
X243599500Y-103424000D01*
X243599500Y-107976000D01*
X243579815Y-108043039D01*
X243527011Y-108088794D01*
X243475500Y-108100000D01*
X237200000Y-108100000D01*
X237200000Y-110501394D01*
X237194661Y-110537389D01*
X237100308Y-110848427D01*
X237033210Y-111185750D01*
X237009964Y-111421786D01*
X236999500Y-111528031D01*
X236999500Y-111871969D01*
X237004345Y-111921158D01*
X237018398Y-112063846D01*
X237005379Y-112132492D01*
X236957314Y-112183202D01*
X236894995Y-112200000D01*
X231924500Y-112200000D01*
X231857461Y-112180315D01*
X231811706Y-112127511D01*
X231800500Y-112076000D01*
X231800500Y-111921155D01*
X231800499Y-111921153D01*
X231769738Y-111766510D01*
X231769737Y-111766503D01*
X231756803Y-111735279D01*
X231749335Y-111665812D01*
X231780610Y-111603333D01*
X231828457Y-111573488D01*
X231827869Y-111572068D01*
X231979172Y-111509397D01*
X231979172Y-111509396D01*
X231979179Y-111509394D01*
X232110289Y-111421789D01*
X232221789Y-111310289D01*
X232309394Y-111179179D01*
X232369737Y-111033497D01*
X232400500Y-110878842D01*
X232400500Y-110721158D01*
X232400500Y-110721155D01*
X232400499Y-110721153D01*
X232369738Y-110566510D01*
X232369737Y-110566503D01*
X232350183Y-110519295D01*
X232326457Y-110462013D01*
X232318988Y-110392544D01*
X232350264Y-110330065D01*
X232410353Y-110294413D01*
X232416817Y-110292946D01*
X232533497Y-110269737D01*
X232679179Y-110209394D01*
X232810289Y-110121789D01*
X232921789Y-110010289D01*
X233009394Y-109879179D01*
X233069737Y-109733497D01*
X233100500Y-109578842D01*
X233100500Y-109421158D01*
X233100500Y-109421155D01*
X233100499Y-109421153D01*
X233069738Y-109266510D01*
X233069737Y-109266503D01*
X233013305Y-109130263D01*
X233009397Y-109120827D01*
X233009390Y-109120814D01*
X232921789Y-108989711D01*
X232921786Y-108989707D01*
X232810292Y-108878213D01*
X232810288Y-108878210D01*
X232679185Y-108790609D01*
X232679172Y-108790602D01*
X232533501Y-108730264D01*
X232533489Y-108730261D01*
X232378845Y-108699500D01*
X232378842Y-108699500D01*
X232221158Y-108699500D01*
X232221155Y-108699500D01*
X232066510Y-108730261D01*
X232066498Y-108730264D01*
X231920827Y-108790602D01*
X231920814Y-108790609D01*
X231789711Y-108878210D01*
X231789707Y-108878213D01*
X231678213Y-108989707D01*
X231678207Y-108989715D01*
X231641675Y-109044390D01*
X231635584Y-109049480D01*
X231632286Y-109056703D01*
X231609155Y-109071567D01*
X231588063Y-109089196D01*
X231578688Y-109091147D01*
X231573508Y-109094477D01*
X231538573Y-109099500D01*
X231524000Y-109099500D01*
X231456961Y-109079815D01*
X231411206Y-109027011D01*
X231400000Y-108975500D01*
X231400000Y-108861760D01*
X231419685Y-108794721D01*
X231455106Y-108758660D01*
X231510289Y-108721789D01*
X231621789Y-108610289D01*
X231709394Y-108479179D01*
X231769737Y-108333497D01*
X231800500Y-108178842D01*
X231800500Y-108021158D01*
X231800500Y-108021155D01*
X231800499Y-108021153D01*
X231769738Y-107866510D01*
X231769737Y-107866503D01*
X231714645Y-107733497D01*
X231709397Y-107720827D01*
X231709390Y-107720814D01*
X231621789Y-107589711D01*
X231621786Y-107589707D01*
X231510293Y-107478214D01*
X231455107Y-107441339D01*
X231410303Y-107387726D01*
X231400000Y-107338238D01*
X231400000Y-106961760D01*
X231419685Y-106894721D01*
X231455106Y-106858660D01*
X231510289Y-106821789D01*
X231621789Y-106710289D01*
X231709394Y-106579179D01*
X231769737Y-106433497D01*
X231800500Y-106278842D01*
X231800500Y-106121158D01*
X231800500Y-106121155D01*
X231800499Y-106121153D01*
X231769738Y-105966510D01*
X231769737Y-105966503D01*
X231714645Y-105833497D01*
X231709397Y-105820827D01*
X231709390Y-105820814D01*
X231621789Y-105689711D01*
X231621786Y-105689707D01*
X231510293Y-105578214D01*
X231455107Y-105541339D01*
X231410303Y-105487726D01*
X231400000Y-105438238D01*
X231400000Y-105061760D01*
X231419685Y-104994721D01*
X231455106Y-104958660D01*
X231510289Y-104921789D01*
X231621789Y-104810289D01*
X231709394Y-104679179D01*
X231769737Y-104533497D01*
X231800500Y-104378842D01*
X231800500Y-104221158D01*
X231800500Y-104221155D01*
X231800499Y-104221153D01*
X231769738Y-104066510D01*
X231769737Y-104066503D01*
X231714645Y-103933497D01*
X231709397Y-103920827D01*
X231709390Y-103920814D01*
X231621789Y-103789711D01*
X231621786Y-103789707D01*
X231510293Y-103678214D01*
X231455107Y-103641339D01*
X231450017Y-103635248D01*
X231442797Y-103631951D01*
X231427933Y-103608823D01*
X231410303Y-103587726D01*
X231408351Y-103578352D01*
X231405023Y-103573173D01*
X231400000Y-103538238D01*
X231400000Y-103424000D01*
X231419685Y-103356961D01*
X231472489Y-103311206D01*
X231524000Y-103300000D01*
X243475500Y-103300000D01*
X243542539Y-103319685D01*
G37*
%TD.AperFunction*%
%TD*%
%TA.AperFunction,Conductor*%
%TO.N,GND*%
G36*
X232021158Y-116400500D02*
G01*
X232178842Y-116400500D01*
X232181356Y-116400000D01*
X243475500Y-116400000D01*
X243542539Y-116419685D01*
X243588294Y-116472489D01*
X243599500Y-116524000D01*
X243599500Y-119876000D01*
X243579815Y-119943039D01*
X243527011Y-119988794D01*
X243475500Y-120000000D01*
X237200000Y-120000000D01*
X237200000Y-122501394D01*
X237194661Y-122537389D01*
X237100308Y-122848427D01*
X237033210Y-123185750D01*
X237012660Y-123394413D01*
X236999500Y-123528031D01*
X236999500Y-123871969D01*
X237009751Y-123976054D01*
X237033210Y-124214249D01*
X237078753Y-124443210D01*
X237072526Y-124512802D01*
X237029662Y-124567979D01*
X236963773Y-124591223D01*
X236952788Y-124591325D01*
X232525641Y-124435987D01*
X232459333Y-124413963D01*
X232415458Y-124359588D01*
X232407945Y-124290123D01*
X232415426Y-124264615D01*
X232469737Y-124133497D01*
X232500500Y-123978842D01*
X232500500Y-123821158D01*
X232500500Y-123821155D01*
X232500499Y-123821153D01*
X232469738Y-123666510D01*
X232469737Y-123666503D01*
X232441984Y-123599500D01*
X232426457Y-123562013D01*
X232418988Y-123492544D01*
X232450264Y-123430065D01*
X232510353Y-123394413D01*
X232516817Y-123392946D01*
X232633497Y-123369737D01*
X232779179Y-123309394D01*
X232910289Y-123221789D01*
X233021789Y-123110289D01*
X233109394Y-122979179D01*
X233169737Y-122833497D01*
X233200500Y-122678842D01*
X233200500Y-122521158D01*
X233200500Y-122521155D01*
X233200499Y-122521153D01*
X233169738Y-122366510D01*
X233169737Y-122366503D01*
X233169735Y-122366498D01*
X233109397Y-122220827D01*
X233109390Y-122220814D01*
X233021789Y-122089711D01*
X233021786Y-122089707D01*
X232910292Y-121978213D01*
X232910288Y-121978210D01*
X232779185Y-121890609D01*
X232779172Y-121890602D01*
X232633501Y-121830264D01*
X232633491Y-121830261D01*
X232478151Y-121799362D01*
X232429297Y-121777946D01*
X232421492Y-121772256D01*
X232369716Y-121720480D01*
X232282904Y-121670360D01*
X232232785Y-121641423D01*
X232080057Y-121600499D01*
X231951153Y-121600499D01*
X231884114Y-121580814D01*
X231863472Y-121564180D01*
X231536319Y-121237027D01*
X231502834Y-121175704D01*
X231500000Y-121149346D01*
X231500000Y-118383440D01*
X231519685Y-118316401D01*
X231536314Y-118295763D01*
X231621789Y-118210289D01*
X231709394Y-118079179D01*
X231769737Y-117933497D01*
X231800500Y-117778842D01*
X231800500Y-117621158D01*
X231800500Y-117621155D01*
X231800499Y-117621153D01*
X231769738Y-117466510D01*
X231769737Y-117466503D01*
X231769735Y-117466498D01*
X231709397Y-117320827D01*
X231709390Y-117320814D01*
X231621789Y-117189711D01*
X231621786Y-117189707D01*
X231536319Y-117104240D01*
X231502834Y-117042917D01*
X231500000Y-117016559D01*
X231500000Y-116524000D01*
X231519685Y-116456961D01*
X231572489Y-116411206D01*
X231624000Y-116400000D01*
X232018644Y-116400000D01*
X232021158Y-116400500D01*
G37*
%TD.AperFunction*%
%TD*%
%TA.AperFunction,Conductor*%
%TO.N,GND*%
G36*
X243542539Y-127519685D02*
G01*
X243588294Y-127572489D01*
X243599500Y-127624000D01*
X243599500Y-129596249D01*
X243599274Y-129603736D01*
X243581728Y-129893794D01*
X243579923Y-129908659D01*
X243528219Y-130190798D01*
X243524635Y-130205336D01*
X243439306Y-130479167D01*
X243433997Y-130493168D01*
X243316275Y-130754736D01*
X243309316Y-130767995D01*
X243160928Y-131013459D01*
X243152422Y-131025782D01*
X242975526Y-131251573D01*
X242965596Y-131262781D01*
X242762781Y-131465596D01*
X242751573Y-131475526D01*
X242525782Y-131652422D01*
X242513459Y-131660928D01*
X242267995Y-131809316D01*
X242254736Y-131816275D01*
X241993168Y-131933997D01*
X241979167Y-131939306D01*
X241705336Y-132024635D01*
X241690798Y-132028219D01*
X241408659Y-132079923D01*
X241393794Y-132081728D01*
X241103736Y-132099274D01*
X241096249Y-132099500D01*
X231524000Y-132099500D01*
X231456961Y-132079815D01*
X231411206Y-132027011D01*
X231400000Y-131975500D01*
X231400000Y-129947648D01*
X240199500Y-129947648D01*
X240199500Y-130152351D01*
X240231522Y-130354534D01*
X240294781Y-130549223D01*
X240387715Y-130731613D01*
X240508028Y-130897213D01*
X240652786Y-131041971D01*
X240807749Y-131154556D01*
X240818390Y-131162287D01*
X240934607Y-131221503D01*
X241000776Y-131255218D01*
X241000778Y-131255218D01*
X241000781Y-131255220D01*
X241105137Y-131289127D01*
X241195465Y-131318477D01*
X241296557Y-131334488D01*
X241397648Y-131350500D01*
X241397649Y-131350500D01*
X241602351Y-131350500D01*
X241602352Y-131350500D01*
X241804534Y-131318477D01*
X241999219Y-131255220D01*
X242181610Y-131162287D01*
X242274590Y-131094732D01*
X242347213Y-131041971D01*
X242347215Y-131041968D01*
X242347219Y-131041966D01*
X242491966Y-130897219D01*
X242491968Y-130897215D01*
X242491971Y-130897213D01*
X242544732Y-130824590D01*
X242612287Y-130731610D01*
X242705220Y-130549219D01*
X242768477Y-130354534D01*
X242800500Y-130152352D01*
X242800500Y-129947648D01*
X242768477Y-129745466D01*
X242705220Y-129550781D01*
X242705218Y-129550778D01*
X242705218Y-129550776D01*
X242671503Y-129484607D01*
X242612287Y-129368390D01*
X242604556Y-129357749D01*
X242491971Y-129202786D01*
X242347213Y-129058028D01*
X242181613Y-128937715D01*
X242181612Y-128937714D01*
X242181610Y-128937713D01*
X242124653Y-128908691D01*
X241999223Y-128844781D01*
X241804534Y-128781522D01*
X241629995Y-128753878D01*
X241602352Y-128749500D01*
X241397648Y-128749500D01*
X241373329Y-128753351D01*
X241195465Y-128781522D01*
X241000776Y-128844781D01*
X240818386Y-128937715D01*
X240652786Y-129058028D01*
X240508028Y-129202786D01*
X240387715Y-129368386D01*
X240294781Y-129550776D01*
X240231522Y-129745465D01*
X240199500Y-129947648D01*
X231400000Y-129947648D01*
X231400000Y-129224000D01*
X231419685Y-129156961D01*
X231472489Y-129111206D01*
X231524000Y-129100000D01*
X234416559Y-129100000D01*
X234483598Y-129119685D01*
X234504240Y-129136319D01*
X234589707Y-129221786D01*
X234589711Y-129221789D01*
X234720814Y-129309390D01*
X234720827Y-129309397D01*
X234863241Y-129368386D01*
X234866503Y-129369737D01*
X235021153Y-129400499D01*
X235021156Y-129400500D01*
X235021158Y-129400500D01*
X235178844Y-129400500D01*
X235178845Y-129400499D01*
X235333497Y-129369737D01*
X235479179Y-129309394D01*
X235610289Y-129221789D01*
X235629297Y-129202781D01*
X235695760Y-129136319D01*
X235757083Y-129102834D01*
X235783441Y-129100000D01*
X239100000Y-129100000D01*
X239100000Y-127624000D01*
X239119685Y-127556961D01*
X239172489Y-127511206D01*
X239224000Y-127500000D01*
X243475500Y-127500000D01*
X243542539Y-127519685D01*
G37*
%TD.AperFunction*%
%TD*%
%TA.AperFunction,Conductor*%
%TO.N,GND*%
G36*
X210801401Y-95619685D02*
G01*
X210847156Y-95672489D01*
X210857100Y-95741647D01*
X210848923Y-95771452D01*
X210830264Y-95816498D01*
X210830261Y-95816510D01*
X210799500Y-95971153D01*
X210799500Y-96128846D01*
X210804003Y-96151484D01*
X210797776Y-96221076D01*
X210754913Y-96276253D01*
X210751279Y-96278776D01*
X210714709Y-96303211D01*
X210603211Y-96414709D01*
X210578776Y-96451279D01*
X210525163Y-96496083D01*
X210455838Y-96504789D01*
X210451484Y-96504003D01*
X210428846Y-96499500D01*
X210428842Y-96499500D01*
X210271158Y-96499500D01*
X210271155Y-96499500D01*
X210116510Y-96530261D01*
X210116498Y-96530264D01*
X209970827Y-96590602D01*
X209970814Y-96590609D01*
X209839711Y-96678210D01*
X209839707Y-96678213D01*
X209728213Y-96789707D01*
X209728210Y-96789711D01*
X209640609Y-96920814D01*
X209640602Y-96920827D01*
X209580264Y-97066498D01*
X209580261Y-97066510D01*
X209549500Y-97221153D01*
X209549500Y-97378846D01*
X209580261Y-97533489D01*
X209580264Y-97533501D01*
X209640602Y-97679172D01*
X209640609Y-97679185D01*
X209728210Y-97810288D01*
X209728213Y-97810292D01*
X209839707Y-97921786D01*
X209839711Y-97921789D01*
X209970814Y-98009390D01*
X209970827Y-98009397D01*
X210108683Y-98066498D01*
X210116503Y-98069737D01*
X210181147Y-98082595D01*
X210271849Y-98100638D01*
X210333760Y-98133023D01*
X210335339Y-98134574D01*
X213115139Y-100914374D01*
X213115149Y-100914385D01*
X213119479Y-100918715D01*
X213119480Y-100918716D01*
X213231284Y-101030520D01*
X213307848Y-101074724D01*
X213368215Y-101109577D01*
X213520943Y-101150500D01*
X216549903Y-101150500D01*
X216616942Y-101170185D01*
X216637584Y-101186819D01*
X217963181Y-102512416D01*
X217996666Y-102573739D01*
X217999500Y-102600097D01*
X217999500Y-108697809D01*
X217979815Y-108764848D01*
X217927011Y-108810603D01*
X217857853Y-108820547D01*
X217794297Y-108791522D01*
X217760939Y-108745261D01*
X217709397Y-108620827D01*
X217709390Y-108620814D01*
X217621789Y-108489711D01*
X217621786Y-108489707D01*
X217510292Y-108378213D01*
X217510288Y-108378210D01*
X217379185Y-108290609D01*
X217379172Y-108290602D01*
X217233501Y-108230264D01*
X217233489Y-108230261D01*
X217078845Y-108199500D01*
X217078842Y-108199500D01*
X216921158Y-108199500D01*
X216921155Y-108199500D01*
X216766510Y-108230261D01*
X216766498Y-108230264D01*
X216620827Y-108290602D01*
X216620814Y-108290609D01*
X216493391Y-108375751D01*
X216426713Y-108396629D01*
X216359333Y-108378144D01*
X216312643Y-108326165D01*
X216300500Y-108272649D01*
X216300500Y-106179765D01*
X216320185Y-106112726D01*
X216321398Y-106110874D01*
X216409390Y-105979185D01*
X216409390Y-105979184D01*
X216409394Y-105979179D01*
X216412719Y-105971153D01*
X216423067Y-105946166D01*
X216469737Y-105833497D01*
X216500500Y-105678842D01*
X216500500Y-105521158D01*
X216500500Y-105521155D01*
X216500499Y-105521153D01*
X216490811Y-105472447D01*
X216469737Y-105366503D01*
X216469735Y-105366498D01*
X216409397Y-105220827D01*
X216409390Y-105220814D01*
X216321789Y-105089711D01*
X216321786Y-105089707D01*
X216210292Y-104978213D01*
X216210288Y-104978210D01*
X216079185Y-104890609D01*
X216079172Y-104890602D01*
X215933501Y-104830264D01*
X215933489Y-104830261D01*
X215778845Y-104799500D01*
X215778842Y-104799500D01*
X215621158Y-104799500D01*
X215621155Y-104799500D01*
X215466510Y-104830261D01*
X215466498Y-104830264D01*
X215320827Y-104890602D01*
X215320814Y-104890609D01*
X215189711Y-104978210D01*
X215189707Y-104978213D01*
X215078213Y-105089707D01*
X215078210Y-105089711D01*
X214990609Y-105220814D01*
X214990602Y-105220827D01*
X214930264Y-105366498D01*
X214930261Y-105366510D01*
X214899500Y-105521153D01*
X214899500Y-105668059D01*
X214879815Y-105735098D01*
X214827011Y-105780853D01*
X214757853Y-105790797D01*
X214694297Y-105761772D01*
X214687819Y-105755740D01*
X214610292Y-105678213D01*
X214610288Y-105678210D01*
X214479185Y-105590609D01*
X214479172Y-105590602D01*
X214333501Y-105530264D01*
X214333489Y-105530261D01*
X214178845Y-105499500D01*
X214178842Y-105499500D01*
X214021158Y-105499500D01*
X214021155Y-105499500D01*
X213866510Y-105530261D01*
X213866498Y-105530264D01*
X213720828Y-105590602D01*
X213720812Y-105590611D01*
X213667604Y-105626163D01*
X213600927Y-105647040D01*
X213551263Y-105637621D01*
X213533502Y-105630264D01*
X213533494Y-105630261D01*
X213378845Y-105599500D01*
X213378842Y-105599500D01*
X213221158Y-105599500D01*
X213221155Y-105599500D01*
X213066510Y-105630261D01*
X213066498Y-105630264D01*
X212920827Y-105690602D01*
X212920814Y-105690609D01*
X212789711Y-105778210D01*
X212789707Y-105778213D01*
X212678213Y-105889707D01*
X212678210Y-105889711D01*
X212590609Y-106020814D01*
X212590602Y-106020827D01*
X212530264Y-106166498D01*
X212530261Y-106166508D01*
X212499361Y-106321850D01*
X212466976Y-106383761D01*
X212465425Y-106385339D01*
X211718481Y-107132282D01*
X211718479Y-107132284D01*
X211699586Y-107165009D01*
X211691600Y-107178842D01*
X211639423Y-107269215D01*
X211598499Y-107421943D01*
X211598499Y-107421945D01*
X211598499Y-107590046D01*
X211598500Y-107590059D01*
X211598500Y-108866946D01*
X211578815Y-108933985D01*
X211526011Y-108979740D01*
X211456853Y-108989684D01*
X211393297Y-108960659D01*
X211386819Y-108954627D01*
X208036819Y-105604627D01*
X208003334Y-105543304D01*
X208000500Y-105516946D01*
X208000500Y-104917847D01*
X208020185Y-104850808D01*
X208072989Y-104805053D01*
X208100309Y-104796230D01*
X208116291Y-104793050D01*
X208233497Y-104769737D01*
X208379179Y-104709394D01*
X208510289Y-104621789D01*
X208621789Y-104510289D01*
X208709394Y-104379179D01*
X208769737Y-104233497D01*
X208800500Y-104078842D01*
X208800500Y-103921158D01*
X208800452Y-103920916D01*
X208800463Y-103920786D01*
X208799903Y-103915093D01*
X208800982Y-103914986D01*
X208806678Y-103851326D01*
X208849540Y-103796147D01*
X208915429Y-103772901D01*
X208983426Y-103788967D01*
X209009750Y-103809042D01*
X209713181Y-104512473D01*
X209746666Y-104573796D01*
X209749500Y-104600154D01*
X209749500Y-105470234D01*
X209729815Y-105537273D01*
X209728602Y-105539125D01*
X209640609Y-105670814D01*
X209640602Y-105670827D01*
X209580264Y-105816498D01*
X209580261Y-105816510D01*
X209549500Y-105971153D01*
X209549500Y-106128846D01*
X209580261Y-106283489D01*
X209580264Y-106283501D01*
X209640602Y-106429172D01*
X209640609Y-106429185D01*
X209728210Y-106560288D01*
X209728213Y-106560292D01*
X209839707Y-106671786D01*
X209839711Y-106671789D01*
X209970814Y-106759390D01*
X209970827Y-106759397D01*
X210116498Y-106819735D01*
X210116503Y-106819737D01*
X210230447Y-106842402D01*
X210271153Y-106850499D01*
X210271156Y-106850500D01*
X210271158Y-106850500D01*
X210428844Y-106850500D01*
X210428845Y-106850499D01*
X210583497Y-106819737D01*
X210729179Y-106759394D01*
X210860289Y-106671789D01*
X210971789Y-106560289D01*
X211059394Y-106429179D01*
X211119737Y-106283497D01*
X211150500Y-106128842D01*
X211150500Y-105971158D01*
X211150500Y-105971155D01*
X211150499Y-105971153D01*
X211123117Y-105833497D01*
X211119737Y-105816503D01*
X211109089Y-105790797D01*
X211059397Y-105670827D01*
X211059390Y-105670814D01*
X210971398Y-105539125D01*
X210950520Y-105472447D01*
X210950500Y-105470234D01*
X210950500Y-104221002D01*
X210950500Y-104221000D01*
X210936764Y-104169737D01*
X210909577Y-104068272D01*
X210856572Y-103976465D01*
X210830520Y-103931341D01*
X210718716Y-103819537D01*
X210718713Y-103819535D01*
X208953032Y-102053854D01*
X208919547Y-101992531D01*
X208924531Y-101922839D01*
X208926141Y-101918746D01*
X208969737Y-101813497D01*
X209000500Y-101658842D01*
X209000500Y-101501158D01*
X209000500Y-101501155D01*
X209000499Y-101501153D01*
X208994409Y-101470535D01*
X208969737Y-101346503D01*
X208913728Y-101211284D01*
X208909397Y-101200827D01*
X208909390Y-101200814D01*
X208821789Y-101069711D01*
X208821786Y-101069707D01*
X208710292Y-100958213D01*
X208710288Y-100958210D01*
X208579185Y-100870609D01*
X208579172Y-100870602D01*
X208433501Y-100810264D01*
X208433489Y-100810261D01*
X208278845Y-100779500D01*
X208278842Y-100779500D01*
X208121158Y-100779500D01*
X208121155Y-100779500D01*
X207966510Y-100810261D01*
X207966498Y-100810264D01*
X207820827Y-100870602D01*
X207820814Y-100870609D01*
X207689125Y-100958602D01*
X207622447Y-100979480D01*
X207620234Y-100979500D01*
X207256726Y-100979500D01*
X207256710Y-100979499D01*
X207249114Y-100979499D01*
X207091000Y-100979499D01*
X206979432Y-101009394D01*
X206938271Y-101020423D01*
X206920786Y-101030519D01*
X206920783Y-101030520D01*
X206801347Y-101099475D01*
X206801339Y-101099481D01*
X206318481Y-101582339D01*
X206318480Y-101582341D01*
X206274312Y-101658844D01*
X206268361Y-101669151D01*
X206268359Y-101669153D01*
X206239425Y-101719266D01*
X206239424Y-101719267D01*
X206230835Y-101751322D01*
X206198499Y-101872000D01*
X206198499Y-101872002D01*
X206198499Y-102040103D01*
X206198500Y-102040116D01*
X206198500Y-111362387D01*
X206198499Y-111362405D01*
X206198499Y-111528111D01*
X206198498Y-111528111D01*
X206198499Y-111528114D01*
X206239423Y-111680842D01*
X206239424Y-111680844D01*
X206239423Y-111680844D01*
X206250771Y-111700498D01*
X206250775Y-111700503D01*
X206283541Y-111757257D01*
X206300012Y-111825158D01*
X206279255Y-111888147D01*
X206190609Y-112020814D01*
X206190602Y-112020827D01*
X206130264Y-112166498D01*
X206130261Y-112166510D01*
X206099500Y-112321153D01*
X206099500Y-112478846D01*
X206130261Y-112633489D01*
X206130264Y-112633501D01*
X206190602Y-112779172D01*
X206190609Y-112779185D01*
X206278210Y-112910288D01*
X206278213Y-112910292D01*
X206355240Y-112987319D01*
X206388725Y-113048642D01*
X206383741Y-113118334D01*
X206355240Y-113162681D01*
X206328213Y-113189707D01*
X206328210Y-113189711D01*
X206240609Y-113320814D01*
X206240602Y-113320827D01*
X206180264Y-113466498D01*
X206180261Y-113466510D01*
X206149500Y-113621153D01*
X206149500Y-113778846D01*
X206180261Y-113933489D01*
X206180264Y-113933501D01*
X206229546Y-114052479D01*
X206237015Y-114121948D01*
X206229546Y-114147383D01*
X206180207Y-114266498D01*
X206180204Y-114266510D01*
X206149443Y-114421153D01*
X206149443Y-114578846D01*
X206180204Y-114733489D01*
X206180207Y-114733501D01*
X206240545Y-114879172D01*
X206240552Y-114879185D01*
X206328153Y-115010288D01*
X206328156Y-115010292D01*
X206439650Y-115121786D01*
X206439654Y-115121789D01*
X206570757Y-115209390D01*
X206570770Y-115209397D01*
X206716441Y-115269735D01*
X206716446Y-115269737D01*
X206871096Y-115300499D01*
X206871099Y-115300500D01*
X206871101Y-115300500D01*
X207028787Y-115300500D01*
X207028788Y-115300499D01*
X207183440Y-115269737D01*
X207329122Y-115209394D01*
X207460232Y-115121789D01*
X207571732Y-115010289D01*
X207659337Y-114879179D01*
X207719680Y-114733497D01*
X207750443Y-114578842D01*
X207750443Y-114421158D01*
X207750443Y-114421155D01*
X207750442Y-114421153D01*
X207734430Y-114340656D01*
X207719680Y-114266503D01*
X207670395Y-114147519D01*
X207662927Y-114078053D01*
X207670394Y-114052621D01*
X207719737Y-113933497D01*
X207750500Y-113778842D01*
X207750500Y-113621158D01*
X207738036Y-113558498D01*
X207744263Y-113488908D01*
X207787125Y-113433730D01*
X207853015Y-113410485D01*
X207921012Y-113426552D01*
X207947334Y-113446626D01*
X209151196Y-114650488D01*
X209184681Y-114711811D01*
X209179697Y-114781503D01*
X209166618Y-114807059D01*
X209090608Y-114920816D01*
X209090602Y-114920827D01*
X209030264Y-115066498D01*
X209030261Y-115066510D01*
X208999500Y-115221153D01*
X208999500Y-115378846D01*
X209030261Y-115533489D01*
X209030264Y-115533501D01*
X209090602Y-115679172D01*
X209090609Y-115679185D01*
X209178210Y-115810288D01*
X209178213Y-115810292D01*
X209289707Y-115921786D01*
X209289711Y-115921789D01*
X209420814Y-116009390D01*
X209420827Y-116009397D01*
X209566498Y-116069735D01*
X209566503Y-116069737D01*
X209721153Y-116100499D01*
X209721156Y-116100500D01*
X209721158Y-116100500D01*
X209878844Y-116100500D01*
X209878845Y-116100499D01*
X210033497Y-116069737D01*
X210179179Y-116009394D01*
X210179184Y-116009390D01*
X210179187Y-116009389D01*
X210236201Y-115971293D01*
X210302878Y-115950414D01*
X210370259Y-115968898D01*
X210408195Y-116005503D01*
X210478210Y-116110289D01*
X210589707Y-116221786D01*
X210589711Y-116221789D01*
X210720814Y-116309390D01*
X210720827Y-116309397D01*
X210866498Y-116369735D01*
X210866503Y-116369737D01*
X211021153Y-116400499D01*
X211021156Y-116400500D01*
X211021158Y-116400500D01*
X211178844Y-116400500D01*
X211178845Y-116400499D01*
X211333497Y-116369737D01*
X211479179Y-116309394D01*
X211610289Y-116221789D01*
X211616163Y-116215914D01*
X211677481Y-116182429D01*
X211728037Y-116181977D01*
X211821155Y-116200500D01*
X211821158Y-116200500D01*
X211978843Y-116200500D01*
X212012334Y-116193837D01*
X212071962Y-116181977D01*
X212141552Y-116188204D01*
X212183834Y-116215913D01*
X212189707Y-116221786D01*
X212189711Y-116221789D01*
X212320814Y-116309390D01*
X212320827Y-116309397D01*
X212466498Y-116369735D01*
X212466503Y-116369737D01*
X212621153Y-116400499D01*
X212621156Y-116400500D01*
X212621158Y-116400500D01*
X212778844Y-116400500D01*
X212778845Y-116400499D01*
X212933497Y-116369737D01*
X213079179Y-116309394D01*
X213210289Y-116221789D01*
X213321789Y-116110289D01*
X213409394Y-115979179D01*
X213412661Y-115971293D01*
X213423067Y-115946166D01*
X213469737Y-115833497D01*
X213500433Y-115679179D01*
X213500638Y-115678150D01*
X213533023Y-115616239D01*
X213534520Y-115614714D01*
X214721119Y-114428114D01*
X214782440Y-114394631D01*
X214852132Y-114399615D01*
X214887467Y-114419947D01*
X214889708Y-114421786D01*
X214889711Y-114421789D01*
X214889714Y-114421791D01*
X215020814Y-114509390D01*
X215020827Y-114509397D01*
X215166498Y-114569735D01*
X215166503Y-114569737D01*
X215316131Y-114599500D01*
X215321153Y-114600499D01*
X215321156Y-114600500D01*
X215321158Y-114600500D01*
X215478844Y-114600500D01*
X215478845Y-114600499D01*
X215633497Y-114569737D01*
X215779179Y-114509394D01*
X215910289Y-114421789D01*
X216021789Y-114310289D01*
X216109394Y-114179179D01*
X216169737Y-114033497D01*
X216200500Y-113878842D01*
X216200500Y-113721158D01*
X216200500Y-113721155D01*
X216200499Y-113721153D01*
X216198562Y-113711416D01*
X216169737Y-113566503D01*
X216146082Y-113509394D01*
X216109397Y-113420827D01*
X216109390Y-113420814D01*
X216021792Y-113289715D01*
X216019947Y-113287467D01*
X216019348Y-113286058D01*
X216018405Y-113284646D01*
X216018672Y-113284467D01*
X215992632Y-113223158D01*
X216004421Y-113154290D01*
X216028115Y-113121119D01*
X216180520Y-112968716D01*
X216259577Y-112831784D01*
X216300501Y-112679057D01*
X216300501Y-112520942D01*
X216300501Y-112513347D01*
X216300500Y-112513329D01*
X216300500Y-109727350D01*
X216320185Y-109660311D01*
X216372989Y-109614556D01*
X216442147Y-109604612D01*
X216493391Y-109624248D01*
X216620814Y-109709390D01*
X216620827Y-109709397D01*
X216766498Y-109769735D01*
X216766503Y-109769737D01*
X216831147Y-109782595D01*
X216921849Y-109800638D01*
X216983760Y-109833023D01*
X216985339Y-109834574D01*
X217721883Y-110571118D01*
X217755368Y-110632441D01*
X217750384Y-110702133D01*
X217730053Y-110737467D01*
X217728207Y-110739715D01*
X217640609Y-110870814D01*
X217640602Y-110870827D01*
X217580264Y-111016498D01*
X217580261Y-111016510D01*
X217549500Y-111171153D01*
X217549500Y-111328846D01*
X217580261Y-111483489D01*
X217580264Y-111483501D01*
X217640602Y-111629172D01*
X217640609Y-111629185D01*
X217728210Y-111760288D01*
X217728213Y-111760292D01*
X217839707Y-111871786D01*
X217839711Y-111871789D01*
X217914703Y-111921898D01*
X217959508Y-111975511D01*
X217968215Y-112044836D01*
X217938060Y-112107863D01*
X217914703Y-112128102D01*
X217839711Y-112178210D01*
X217839707Y-112178213D01*
X217728213Y-112289707D01*
X217728210Y-112289711D01*
X217640609Y-112420814D01*
X217640602Y-112420827D01*
X217580264Y-112566498D01*
X217580261Y-112566508D01*
X217549362Y-112721848D01*
X217516977Y-112783759D01*
X217515426Y-112785337D01*
X216981286Y-113319478D01*
X216869481Y-113431282D01*
X216869479Y-113431285D01*
X216824385Y-113509392D01*
X216824384Y-113509393D01*
X216790423Y-113568214D01*
X216790423Y-113568215D01*
X216749499Y-113720943D01*
X216749499Y-113720945D01*
X216749499Y-113889046D01*
X216749500Y-113889059D01*
X216749500Y-125720234D01*
X216729815Y-125787273D01*
X216728602Y-125789125D01*
X216640609Y-125920814D01*
X216640602Y-125920827D01*
X216580264Y-126066498D01*
X216580261Y-126066510D01*
X216549500Y-126221153D01*
X216549500Y-126378846D01*
X216580261Y-126533489D01*
X216580264Y-126533501D01*
X216640602Y-126679172D01*
X216640609Y-126679185D01*
X216728210Y-126810288D01*
X216728213Y-126810292D01*
X216839707Y-126921786D01*
X216839711Y-126921789D01*
X216970814Y-127009390D01*
X216970827Y-127009397D01*
X217044013Y-127039711D01*
X217116503Y-127069737D01*
X217271153Y-127100499D01*
X217271156Y-127100500D01*
X217271158Y-127100500D01*
X217428844Y-127100500D01*
X217428845Y-127100499D01*
X217583497Y-127069737D01*
X217729179Y-127009394D01*
X217860289Y-126921789D01*
X217971789Y-126810289D01*
X218059394Y-126679179D01*
X218083429Y-126621153D01*
X218899500Y-126621153D01*
X218899500Y-126778846D01*
X218930261Y-126933489D01*
X218930264Y-126933501D01*
X218990602Y-127079172D01*
X218990609Y-127079185D01*
X219078210Y-127210288D01*
X219078213Y-127210292D01*
X219189707Y-127321786D01*
X219189711Y-127321789D01*
X219320814Y-127409390D01*
X219320827Y-127409397D01*
X219466498Y-127469735D01*
X219466503Y-127469737D01*
X219621153Y-127500499D01*
X219621156Y-127500500D01*
X219621158Y-127500500D01*
X219778844Y-127500500D01*
X219778845Y-127500499D01*
X219933497Y-127469737D01*
X220079179Y-127409394D01*
X220210289Y-127321789D01*
X220321789Y-127210289D01*
X220409394Y-127079179D01*
X220469737Y-126933497D01*
X220500500Y-126778842D01*
X220500500Y-126621158D01*
X220500500Y-126621155D01*
X220500499Y-126621153D01*
X220469738Y-126466510D01*
X220469737Y-126466503D01*
X220433427Y-126378842D01*
X220409397Y-126320827D01*
X220409390Y-126320814D01*
X220321789Y-126189711D01*
X220321786Y-126189707D01*
X220210292Y-126078213D01*
X220210288Y-126078210D01*
X220079185Y-125990609D01*
X220079172Y-125990602D01*
X219933501Y-125930264D01*
X219933489Y-125930261D01*
X219778845Y-125899500D01*
X219778842Y-125899500D01*
X219621158Y-125899500D01*
X219621155Y-125899500D01*
X219466510Y-125930261D01*
X219466498Y-125930264D01*
X219320827Y-125990602D01*
X219320814Y-125990609D01*
X219189711Y-126078210D01*
X219189707Y-126078213D01*
X219078213Y-126189707D01*
X219078210Y-126189711D01*
X218990609Y-126320814D01*
X218990602Y-126320827D01*
X218930264Y-126466498D01*
X218930261Y-126466510D01*
X218899500Y-126621153D01*
X218083429Y-126621153D01*
X218105603Y-126567621D01*
X218105605Y-126567614D01*
X218119737Y-126533497D01*
X218150500Y-126378842D01*
X218150500Y-126221158D01*
X218150500Y-126221155D01*
X218150499Y-126221153D01*
X218122066Y-126078211D01*
X218119737Y-126066503D01*
X218088298Y-125990602D01*
X218059397Y-125920827D01*
X218059390Y-125920814D01*
X217971398Y-125789125D01*
X217950520Y-125722447D01*
X217950500Y-125720234D01*
X217950500Y-114100097D01*
X217970185Y-114033058D01*
X217986819Y-114012416D01*
X218129500Y-113869735D01*
X218287820Y-113711415D01*
X218349142Y-113677931D01*
X218418834Y-113682915D01*
X218474767Y-113724787D01*
X218499184Y-113790251D01*
X218499500Y-113799097D01*
X218499500Y-121463330D01*
X218499499Y-121463348D01*
X218499499Y-121629054D01*
X218499498Y-121629054D01*
X218499533Y-121629185D01*
X218540423Y-121781785D01*
X218566219Y-121826465D01*
X218619477Y-121918712D01*
X218619481Y-121918717D01*
X218738349Y-122037585D01*
X218738355Y-122037590D01*
X218816259Y-122115494D01*
X218849744Y-122176817D01*
X218844760Y-122246509D01*
X218802888Y-122302442D01*
X218776032Y-122317735D01*
X218720829Y-122340601D01*
X218720814Y-122340609D01*
X218589711Y-122428210D01*
X218589707Y-122428213D01*
X218478213Y-122539707D01*
X218478210Y-122539711D01*
X218390609Y-122670814D01*
X218390602Y-122670827D01*
X218330264Y-122816498D01*
X218330261Y-122816510D01*
X218299500Y-122971153D01*
X218299500Y-123128846D01*
X218330261Y-123283489D01*
X218330264Y-123283501D01*
X218390602Y-123429172D01*
X218390609Y-123429185D01*
X218478210Y-123560288D01*
X218478213Y-123560292D01*
X218589707Y-123671786D01*
X218589711Y-123671789D01*
X218720814Y-123759390D01*
X218720827Y-123759397D01*
X218858693Y-123816502D01*
X218866503Y-123819737D01*
X219021153Y-123850499D01*
X219021156Y-123850500D01*
X219021158Y-123850500D01*
X219178844Y-123850500D01*
X219178845Y-123850499D01*
X219333497Y-123819737D01*
X219479179Y-123759394D01*
X219610289Y-123671789D01*
X219647331Y-123634747D01*
X219708653Y-123601261D01*
X219778345Y-123606245D01*
X219834279Y-123648115D01*
X219858697Y-123713579D01*
X219849575Y-123769878D01*
X219830263Y-123816502D01*
X219830261Y-123816510D01*
X219799500Y-123971153D01*
X219799500Y-124128846D01*
X219830261Y-124283489D01*
X219830264Y-124283501D01*
X219890602Y-124429172D01*
X219890609Y-124429185D01*
X219978210Y-124560288D01*
X219978213Y-124560292D01*
X220089707Y-124671786D01*
X220089711Y-124671789D01*
X220220814Y-124759390D01*
X220220827Y-124759397D01*
X220294013Y-124789711D01*
X220366503Y-124819737D01*
X220518926Y-124850056D01*
X220521153Y-124850499D01*
X220521156Y-124850500D01*
X220521158Y-124850500D01*
X220678835Y-124850500D01*
X220678842Y-124850500D01*
X220678848Y-124850498D01*
X220683342Y-124850056D01*
X220751988Y-124863073D01*
X220802700Y-124911136D01*
X220819500Y-124973459D01*
X220819500Y-126970234D01*
X220799815Y-127037273D01*
X220798602Y-127039125D01*
X220710609Y-127170814D01*
X220710602Y-127170827D01*
X220650264Y-127316498D01*
X220650261Y-127316510D01*
X220619500Y-127471153D01*
X220619500Y-127628846D01*
X220650261Y-127783489D01*
X220650264Y-127783501D01*
X220710602Y-127929172D01*
X220710612Y-127929190D01*
X220757008Y-127998627D01*
X220777886Y-128065304D01*
X220759401Y-128132684D01*
X220757008Y-128136407D01*
X220700612Y-128220809D01*
X220700602Y-128220827D01*
X220640264Y-128366498D01*
X220640261Y-128366510D01*
X220609500Y-128521153D01*
X220609500Y-128678846D01*
X220640261Y-128833489D01*
X220640264Y-128833501D01*
X220700602Y-128979172D01*
X220700609Y-128979185D01*
X220788210Y-129110288D01*
X220788213Y-129110292D01*
X220899707Y-129221786D01*
X220899711Y-129221789D01*
X221030814Y-129309390D01*
X221030827Y-129309397D01*
X221143119Y-129355909D01*
X221176503Y-129369737D01*
X221331153Y-129400499D01*
X221331156Y-129400500D01*
X221331158Y-129400500D01*
X221488844Y-129400500D01*
X221488845Y-129400499D01*
X221643497Y-129369737D01*
X221789179Y-129309394D01*
X221920289Y-129221789D01*
X222031789Y-129110289D01*
X222119394Y-128979179D01*
X222179737Y-128833497D01*
X222210500Y-128678842D01*
X222210500Y-128521158D01*
X222210500Y-128521155D01*
X222210499Y-128521153D01*
X222179738Y-128366510D01*
X222179737Y-128366503D01*
X222179735Y-128366498D01*
X222119397Y-128220827D01*
X222119390Y-128220814D01*
X222072991Y-128151373D01*
X222052113Y-128084695D01*
X222070598Y-128017315D01*
X222072992Y-128013590D01*
X222129389Y-127929187D01*
X222129390Y-127929184D01*
X222129394Y-127929179D01*
X222189737Y-127783497D01*
X222220500Y-127628842D01*
X222220500Y-127471158D01*
X222220500Y-127471155D01*
X222220499Y-127471153D01*
X222190788Y-127321789D01*
X222189737Y-127316503D01*
X222189735Y-127316498D01*
X222129397Y-127170827D01*
X222129390Y-127170814D01*
X222041398Y-127039125D01*
X222020520Y-126972447D01*
X222020500Y-126970234D01*
X222020500Y-123790944D01*
X222020500Y-123790943D01*
X222012046Y-123759394D01*
X221989567Y-123675501D01*
X221989567Y-123675499D01*
X221979578Y-123638219D01*
X221979576Y-123638213D01*
X221900524Y-123501290D01*
X221900521Y-123501286D01*
X221900520Y-123501284D01*
X221788716Y-123389480D01*
X221788715Y-123389479D01*
X221784385Y-123385149D01*
X221784374Y-123385139D01*
X219736819Y-121337584D01*
X219703334Y-121276261D01*
X219700500Y-121249903D01*
X219700500Y-113402190D01*
X219720185Y-113335151D01*
X219772989Y-113289396D01*
X219842147Y-113279452D01*
X219905703Y-113308477D01*
X219939061Y-113354738D01*
X219990602Y-113479172D01*
X219990609Y-113479185D01*
X220078210Y-113610288D01*
X220078213Y-113610292D01*
X220189707Y-113721786D01*
X220189711Y-113721789D01*
X220320814Y-113809390D01*
X220320827Y-113809397D01*
X220466498Y-113869735D01*
X220466503Y-113869737D01*
X220576987Y-113891713D01*
X220599691Y-113896230D01*
X220661602Y-113928615D01*
X220696176Y-113989330D01*
X220699500Y-114017847D01*
X220699500Y-117113273D01*
X220699499Y-117113291D01*
X220699499Y-117278997D01*
X220699498Y-117278997D01*
X220740423Y-117431728D01*
X220769358Y-117481843D01*
X220769359Y-117481847D01*
X220769360Y-117481847D01*
X220797312Y-117530263D01*
X220819479Y-117568657D01*
X220819481Y-117568660D01*
X220938349Y-117687528D01*
X220938354Y-117687532D01*
X222930341Y-119679520D01*
X222930343Y-119679521D01*
X222930347Y-119679524D01*
X223058244Y-119753364D01*
X223067273Y-119758577D01*
X223220000Y-119799501D01*
X223220002Y-119799501D01*
X223385711Y-119799501D01*
X223385727Y-119799500D01*
X223775983Y-119799500D01*
X223843022Y-119819185D01*
X223888777Y-119871989D01*
X223899983Y-119923500D01*
X223899986Y-122075500D01*
X223880302Y-122142539D01*
X223827498Y-122188294D01*
X223775986Y-122199500D01*
X223621155Y-122199500D01*
X223466510Y-122230261D01*
X223466498Y-122230264D01*
X223320827Y-122290602D01*
X223320814Y-122290609D01*
X223189711Y-122378210D01*
X223189707Y-122378213D01*
X223078213Y-122489707D01*
X223078210Y-122489711D01*
X222990609Y-122620814D01*
X222990602Y-122620827D01*
X222930264Y-122766498D01*
X222930261Y-122766510D01*
X222899500Y-122921153D01*
X222899500Y-123078846D01*
X222930261Y-123233489D01*
X222930264Y-123233501D01*
X222979574Y-123352548D01*
X222987043Y-123422018D01*
X222979574Y-123447452D01*
X222930264Y-123566498D01*
X222930261Y-123566510D01*
X222899500Y-123721153D01*
X222899500Y-123878846D01*
X222930261Y-124033489D01*
X222930264Y-124033501D01*
X222990602Y-124179172D01*
X222990609Y-124179185D01*
X223078210Y-124310288D01*
X223078213Y-124310292D01*
X223189707Y-124421786D01*
X223189711Y-124421789D01*
X223320814Y-124509390D01*
X223320827Y-124509397D01*
X223466498Y-124569735D01*
X223466503Y-124569737D01*
X223621153Y-124600499D01*
X223621156Y-124600500D01*
X223775989Y-124600500D01*
X223843028Y-124620185D01*
X223888783Y-124672989D01*
X223899989Y-124724500D01*
X223899999Y-131975500D01*
X223880315Y-132042539D01*
X223827511Y-132088294D01*
X223775999Y-132099500D01*
X211044555Y-132099500D01*
X210977516Y-132079815D01*
X210931761Y-132027011D01*
X210921817Y-131957853D01*
X210950842Y-131894297D01*
X210988261Y-131865015D01*
X210994796Y-131861684D01*
X211007816Y-131855051D01*
X211061187Y-131816275D01*
X211179786Y-131730109D01*
X211179788Y-131730106D01*
X211179792Y-131730104D01*
X211330104Y-131579792D01*
X211330106Y-131579788D01*
X211330109Y-131579786D01*
X211455048Y-131407820D01*
X211455047Y-131407820D01*
X211455051Y-131407816D01*
X211551557Y-131218412D01*
X211617246Y-131016243D01*
X211650500Y-130806287D01*
X211650500Y-130593713D01*
X211617246Y-130383757D01*
X211551557Y-130181588D01*
X211455051Y-129992184D01*
X211455049Y-129992181D01*
X211455048Y-129992179D01*
X211330109Y-129820213D01*
X211179786Y-129669890D01*
X211007820Y-129544951D01*
X210818414Y-129448444D01*
X210818413Y-129448443D01*
X210818412Y-129448443D01*
X210616243Y-129382754D01*
X210616241Y-129382753D01*
X210616240Y-129382753D01*
X210454957Y-129357208D01*
X210406287Y-129349500D01*
X210193713Y-129349500D01*
X210145042Y-129357208D01*
X209983760Y-129382753D01*
X209882672Y-129415598D01*
X209874094Y-129418386D01*
X209781585Y-129448444D01*
X209592179Y-129544951D01*
X209420215Y-129669889D01*
X209306673Y-129783431D01*
X209245350Y-129816915D01*
X209175658Y-129811931D01*
X209119725Y-129770059D01*
X209102810Y-129739082D01*
X209053797Y-129607671D01*
X209053793Y-129607664D01*
X208967547Y-129492455D01*
X208967544Y-129492452D01*
X208852335Y-129406206D01*
X208852328Y-129406202D01*
X208717482Y-129355908D01*
X208717483Y-129355908D01*
X208657883Y-129349501D01*
X208657881Y-129349500D01*
X208657873Y-129349500D01*
X208657864Y-129349500D01*
X206862129Y-129349500D01*
X206862123Y-129349501D01*
X206802516Y-129355908D01*
X206667671Y-129406202D01*
X206667664Y-129406206D01*
X206552455Y-129492452D01*
X206552452Y-129492455D01*
X206466206Y-129607664D01*
X206466202Y-129607671D01*
X206415908Y-129742517D01*
X206409501Y-129802116D01*
X206409500Y-129802135D01*
X206409500Y-131597870D01*
X206409501Y-131597876D01*
X206415908Y-131657483D01*
X206466202Y-131792328D01*
X206466206Y-131792335D01*
X206547695Y-131901189D01*
X206572113Y-131966653D01*
X206557262Y-132034926D01*
X206507857Y-132084332D01*
X206448429Y-132099500D01*
X196203751Y-132099500D01*
X196196264Y-132099274D01*
X195906205Y-132081728D01*
X195891340Y-132079923D01*
X195609201Y-132028219D01*
X195594663Y-132024635D01*
X195320832Y-131939306D01*
X195306831Y-131933997D01*
X195045263Y-131816275D01*
X195032004Y-131809316D01*
X195003902Y-131792328D01*
X194786537Y-131660926D01*
X194774217Y-131652422D01*
X194704590Y-131597873D01*
X194548426Y-131475526D01*
X194537218Y-131465596D01*
X194334403Y-131262781D01*
X194324473Y-131251573D01*
X194298493Y-131218412D01*
X194147573Y-131025776D01*
X194139075Y-131013465D01*
X193990680Y-130767989D01*
X193983727Y-130754743D01*
X193866000Y-130493163D01*
X193860693Y-130479167D01*
X193837436Y-130404534D01*
X193775363Y-130205335D01*
X193771780Y-130190798D01*
X193739587Y-130015128D01*
X193739587Y-130015127D01*
X193736384Y-129997648D01*
X194549500Y-129997648D01*
X194549500Y-130202351D01*
X194581522Y-130404534D01*
X194644781Y-130599223D01*
X194737715Y-130781613D01*
X194858028Y-130947213D01*
X195002786Y-131091971D01*
X195157749Y-131204556D01*
X195168390Y-131212287D01*
X195267490Y-131262781D01*
X195350776Y-131305218D01*
X195350778Y-131305218D01*
X195350781Y-131305220D01*
X195455137Y-131339127D01*
X195545465Y-131368477D01*
X195646557Y-131384488D01*
X195747648Y-131400500D01*
X195747649Y-131400500D01*
X195952351Y-131400500D01*
X195952352Y-131400500D01*
X196154534Y-131368477D01*
X196349219Y-131305220D01*
X196531610Y-131212287D01*
X196624590Y-131144732D01*
X196697213Y-131091971D01*
X196697215Y-131091968D01*
X196697219Y-131091966D01*
X196841966Y-130947219D01*
X196841968Y-130947215D01*
X196841971Y-130947213D01*
X196944358Y-130806287D01*
X196962287Y-130781610D01*
X197055220Y-130599219D01*
X197118477Y-130404534D01*
X197150500Y-130202352D01*
X197150500Y-129997648D01*
X197118477Y-129795466D01*
X197110842Y-129771969D01*
X197077675Y-129669890D01*
X197055220Y-129600781D01*
X197055218Y-129600778D01*
X197055218Y-129600776D01*
X197000025Y-129492455D01*
X196962287Y-129418390D01*
X196936396Y-129382754D01*
X196841971Y-129252786D01*
X196697213Y-129108028D01*
X196531613Y-128987715D01*
X196531612Y-128987714D01*
X196531610Y-128987713D01*
X196474653Y-128958691D01*
X196349223Y-128894781D01*
X196154534Y-128831522D01*
X195979995Y-128803878D01*
X195952352Y-128799500D01*
X195747648Y-128799500D01*
X195723329Y-128803351D01*
X195545465Y-128831522D01*
X195350776Y-128894781D01*
X195168386Y-128987715D01*
X195002786Y-129108028D01*
X194858028Y-129252786D01*
X194737715Y-129418386D01*
X194644781Y-129600776D01*
X194581522Y-129795465D01*
X194549500Y-129997648D01*
X193736384Y-129997648D01*
X193720076Y-129908658D01*
X193718271Y-129893794D01*
X193700726Y-129603736D01*
X193700500Y-129596249D01*
X193700500Y-125104234D01*
X197769500Y-125104234D01*
X197769500Y-125255765D01*
X197808719Y-125402136D01*
X197841976Y-125459737D01*
X197884485Y-125533365D01*
X197991635Y-125640515D01*
X198122865Y-125716281D01*
X198269234Y-125755500D01*
X198269236Y-125755500D01*
X198420764Y-125755500D01*
X198420766Y-125755500D01*
X198567135Y-125716281D01*
X198698365Y-125640515D01*
X198805515Y-125533365D01*
X198881281Y-125402135D01*
X198920500Y-125255766D01*
X198920500Y-125104234D01*
X198881281Y-124957865D01*
X198805515Y-124826635D01*
X198698365Y-124719485D01*
X198617832Y-124672989D01*
X198567136Y-124643719D01*
X198445614Y-124611158D01*
X198445595Y-124611153D01*
X199799500Y-124611153D01*
X199799500Y-124768846D01*
X199830261Y-124923489D01*
X199830264Y-124923501D01*
X199890602Y-125069172D01*
X199890609Y-125069185D01*
X199978210Y-125200288D01*
X199978213Y-125200292D01*
X200089707Y-125311786D01*
X200089711Y-125311789D01*
X200220814Y-125399390D01*
X200220827Y-125399397D01*
X200366498Y-125459735D01*
X200366503Y-125459737D01*
X200521153Y-125490499D01*
X200521156Y-125490500D01*
X200521158Y-125490500D01*
X200678844Y-125490500D01*
X200678845Y-125490499D01*
X200833497Y-125459737D01*
X200979179Y-125399394D01*
X201110289Y-125311789D01*
X201200925Y-125221153D01*
X202549500Y-125221153D01*
X202549500Y-125378846D01*
X202580261Y-125533489D01*
X202580264Y-125533501D01*
X202640602Y-125679172D01*
X202640609Y-125679185D01*
X202728210Y-125810288D01*
X202728213Y-125810292D01*
X202839707Y-125921786D01*
X202839711Y-125921789D01*
X202970814Y-126009390D01*
X202970827Y-126009397D01*
X203108683Y-126066498D01*
X203116503Y-126069737D01*
X203271153Y-126100499D01*
X203271156Y-126100500D01*
X203271158Y-126100500D01*
X203428844Y-126100500D01*
X203428845Y-126100499D01*
X203583497Y-126069737D01*
X203729179Y-126009394D01*
X203757303Y-125990602D01*
X203860875Y-125921398D01*
X203927553Y-125900520D01*
X203929766Y-125900500D01*
X206763331Y-125900500D01*
X206763347Y-125900501D01*
X206770943Y-125900501D01*
X206929054Y-125900501D01*
X206929057Y-125900501D01*
X207081785Y-125859577D01*
X207131904Y-125830639D01*
X207218716Y-125780520D01*
X207330520Y-125668716D01*
X207330520Y-125668714D01*
X207340728Y-125658507D01*
X207340729Y-125658504D01*
X213864662Y-119134572D01*
X213925983Y-119101089D01*
X213928150Y-119100638D01*
X213986085Y-119089113D01*
X214083497Y-119069737D01*
X214229179Y-119009394D01*
X214360289Y-118921789D01*
X214471789Y-118810289D01*
X214559394Y-118679179D01*
X214619737Y-118533497D01*
X214650500Y-118378842D01*
X214650500Y-118221158D01*
X214650500Y-118221155D01*
X214650499Y-118221153D01*
X214619738Y-118066510D01*
X214619738Y-118066508D01*
X214619737Y-118066503D01*
X214619735Y-118066498D01*
X214559397Y-117920827D01*
X214559390Y-117920814D01*
X214471789Y-117789711D01*
X214471786Y-117789707D01*
X214360292Y-117678213D01*
X214360288Y-117678210D01*
X214229185Y-117590609D01*
X214229172Y-117590602D01*
X214083501Y-117530264D01*
X214083489Y-117530261D01*
X213928845Y-117499500D01*
X213928842Y-117499500D01*
X213771158Y-117499500D01*
X213771155Y-117499500D01*
X213616510Y-117530261D01*
X213616498Y-117530264D01*
X213470827Y-117590602D01*
X213470814Y-117590609D01*
X213339711Y-117678210D01*
X213339707Y-117678213D01*
X213228213Y-117789707D01*
X213228210Y-117789711D01*
X213140609Y-117920814D01*
X213140602Y-117920827D01*
X213080264Y-118066498D01*
X213080261Y-118066508D01*
X213049361Y-118221850D01*
X213016976Y-118283761D01*
X213015425Y-118285339D01*
X206637584Y-124663181D01*
X206576261Y-124696666D01*
X206549903Y-124699500D01*
X203929766Y-124699500D01*
X203862727Y-124679815D01*
X203860875Y-124678602D01*
X203729185Y-124590609D01*
X203729172Y-124590602D01*
X203583501Y-124530264D01*
X203583489Y-124530261D01*
X203428845Y-124499500D01*
X203428842Y-124499500D01*
X203271158Y-124499500D01*
X203271155Y-124499500D01*
X203116510Y-124530261D01*
X203116498Y-124530264D01*
X202970827Y-124590602D01*
X202970814Y-124590609D01*
X202839711Y-124678210D01*
X202839707Y-124678213D01*
X202728213Y-124789707D01*
X202728210Y-124789711D01*
X202640609Y-124920814D01*
X202640602Y-124920827D01*
X202580264Y-125066498D01*
X202580261Y-125066510D01*
X202549500Y-125221153D01*
X201200925Y-125221153D01*
X201221789Y-125200289D01*
X201309394Y-125069179D01*
X201310503Y-125066503D01*
X201369735Y-124923501D01*
X201369737Y-124923497D01*
X201400500Y-124768842D01*
X201400500Y-124611158D01*
X201400500Y-124611155D01*
X201400499Y-124611153D01*
X201398380Y-124600499D01*
X201369737Y-124456503D01*
X201355357Y-124421786D01*
X201309397Y-124310827D01*
X201309390Y-124310814D01*
X201221789Y-124179711D01*
X201221786Y-124179707D01*
X201110292Y-124068213D01*
X201110288Y-124068210D01*
X200979185Y-123980609D01*
X200979172Y-123980602D01*
X200833501Y-123920264D01*
X200833489Y-123920261D01*
X200678845Y-123889500D01*
X200678842Y-123889500D01*
X200521158Y-123889500D01*
X200521155Y-123889500D01*
X200366510Y-123920261D01*
X200366498Y-123920264D01*
X200220827Y-123980602D01*
X200220814Y-123980609D01*
X200089711Y-124068210D01*
X200089707Y-124068213D01*
X199978213Y-124179707D01*
X199978210Y-124179711D01*
X199890609Y-124310814D01*
X199890602Y-124310827D01*
X199830264Y-124456498D01*
X199830261Y-124456510D01*
X199799500Y-124611153D01*
X198445595Y-124611153D01*
X198420766Y-124604500D01*
X198269234Y-124604500D01*
X198122863Y-124643719D01*
X197991635Y-124719485D01*
X197991632Y-124719487D01*
X197884487Y-124826632D01*
X197884485Y-124826635D01*
X197808719Y-124957863D01*
X197769500Y-125104234D01*
X193700500Y-125104234D01*
X193700500Y-121171153D01*
X203749500Y-121171153D01*
X203749500Y-121328846D01*
X203780261Y-121483489D01*
X203780264Y-121483501D01*
X203840602Y-121629172D01*
X203840609Y-121629185D01*
X203846655Y-121638233D01*
X203867533Y-121704911D01*
X203858114Y-121754576D01*
X203817175Y-121853415D01*
X203817174Y-121853418D01*
X203817174Y-121853419D01*
X203817173Y-121853422D01*
X203786412Y-122008065D01*
X203786412Y-122165758D01*
X203817173Y-122320401D01*
X203817176Y-122320413D01*
X203877514Y-122466084D01*
X203877521Y-122466097D01*
X203965122Y-122597200D01*
X203965125Y-122597204D01*
X204076619Y-122708698D01*
X204076623Y-122708701D01*
X204207726Y-122796302D01*
X204207739Y-122796309D01*
X204353410Y-122856647D01*
X204353415Y-122856649D01*
X204508065Y-122887411D01*
X204508068Y-122887412D01*
X204508070Y-122887412D01*
X204665756Y-122887412D01*
X204665757Y-122887411D01*
X204820409Y-122856649D01*
X204966091Y-122796306D01*
X205097201Y-122708701D01*
X205208701Y-122597201D01*
X205296306Y-122466091D01*
X205356649Y-122320409D01*
X205387412Y-122165754D01*
X205387412Y-122008070D01*
X205387412Y-122008067D01*
X205387411Y-122008065D01*
X205356650Y-121853422D01*
X205356649Y-121853415D01*
X205296306Y-121707733D01*
X205290255Y-121698678D01*
X205269378Y-121632001D01*
X205278797Y-121582335D01*
X205319737Y-121483497D01*
X205350500Y-121328842D01*
X205350500Y-121171158D01*
X205350500Y-121171155D01*
X205350499Y-121171153D01*
X205319738Y-121016510D01*
X205319737Y-121016503D01*
X205319735Y-121016498D01*
X205259397Y-120870827D01*
X205259390Y-120870814D01*
X205171789Y-120739711D01*
X205171786Y-120739707D01*
X205060292Y-120628213D01*
X205060288Y-120628210D01*
X204929185Y-120540609D01*
X204929172Y-120540602D01*
X204783501Y-120480264D01*
X204783489Y-120480261D01*
X204628845Y-120449500D01*
X204628842Y-120449500D01*
X204471158Y-120449500D01*
X204471155Y-120449500D01*
X204316510Y-120480261D01*
X204316498Y-120480264D01*
X204170827Y-120540602D01*
X204170814Y-120540609D01*
X204039711Y-120628210D01*
X204039707Y-120628213D01*
X203928213Y-120739707D01*
X203928210Y-120739711D01*
X203840609Y-120870814D01*
X203840602Y-120870827D01*
X203780264Y-121016498D01*
X203780261Y-121016510D01*
X203749500Y-121171153D01*
X193700500Y-121171153D01*
X193700500Y-119324234D01*
X197769500Y-119324234D01*
X197769500Y-119475766D01*
X197789109Y-119548950D01*
X197808719Y-119622136D01*
X197841849Y-119679518D01*
X197884485Y-119753365D01*
X197991635Y-119860515D01*
X198122865Y-119936281D01*
X198269234Y-119975500D01*
X198269236Y-119975500D01*
X198420764Y-119975500D01*
X198420766Y-119975500D01*
X198567135Y-119936281D01*
X198698365Y-119860515D01*
X198747727Y-119811153D01*
X199799500Y-119811153D01*
X199799500Y-119968846D01*
X199830261Y-120123489D01*
X199830264Y-120123501D01*
X199890602Y-120269172D01*
X199890609Y-120269185D01*
X199978210Y-120400288D01*
X199978213Y-120400292D01*
X200089707Y-120511786D01*
X200089711Y-120511789D01*
X200220814Y-120599390D01*
X200220827Y-120599397D01*
X200366498Y-120659735D01*
X200366503Y-120659737D01*
X200521153Y-120690499D01*
X200521156Y-120690500D01*
X200521158Y-120690500D01*
X200678844Y-120690500D01*
X200678845Y-120690499D01*
X200833497Y-120659737D01*
X200979179Y-120599394D01*
X201110289Y-120511789D01*
X201221789Y-120400289D01*
X201309394Y-120269179D01*
X201369737Y-120123497D01*
X201400500Y-119968842D01*
X201400500Y-119811158D01*
X201400500Y-119811155D01*
X201400499Y-119811153D01*
X201390040Y-119758573D01*
X201369737Y-119656503D01*
X201355502Y-119622136D01*
X201309397Y-119510827D01*
X201309390Y-119510814D01*
X201221789Y-119379711D01*
X201221786Y-119379707D01*
X201110292Y-119268213D01*
X201110288Y-119268210D01*
X200979185Y-119180609D01*
X200979172Y-119180602D01*
X200833501Y-119120264D01*
X200833489Y-119120261D01*
X200678845Y-119089500D01*
X200678842Y-119089500D01*
X200521158Y-119089500D01*
X200521155Y-119089500D01*
X200366510Y-119120261D01*
X200366498Y-119120264D01*
X200220827Y-119180602D01*
X200220814Y-119180609D01*
X200089711Y-119268210D01*
X200089707Y-119268213D01*
X199978213Y-119379707D01*
X199978210Y-119379711D01*
X199890609Y-119510814D01*
X199890602Y-119510827D01*
X199830264Y-119656498D01*
X199830261Y-119656510D01*
X199799500Y-119811153D01*
X198747727Y-119811153D01*
X198805515Y-119753365D01*
X198881281Y-119622135D01*
X198920500Y-119475766D01*
X198920500Y-119324234D01*
X198881281Y-119177865D01*
X198805515Y-119046635D01*
X198698365Y-118939485D01*
X198632750Y-118901602D01*
X198567136Y-118863719D01*
X198442352Y-118830284D01*
X198420766Y-118824500D01*
X198269234Y-118824500D01*
X198122863Y-118863719D01*
X197991635Y-118939485D01*
X197991632Y-118939487D01*
X197884487Y-119046632D01*
X197884485Y-119046635D01*
X197808719Y-119177863D01*
X197781873Y-119278057D01*
X197769500Y-119324234D01*
X193700500Y-119324234D01*
X193700500Y-103924000D01*
X193720185Y-103856961D01*
X193772989Y-103811206D01*
X193824500Y-103800000D01*
X203400000Y-103800000D01*
X203400000Y-95724000D01*
X203419685Y-95656961D01*
X203472489Y-95611206D01*
X203524000Y-95600000D01*
X210734362Y-95600000D01*
X210801401Y-95619685D01*
G37*
%TD.AperFunction*%
%TA.AperFunction,Conductor*%
G36*
X223190023Y-95619685D02*
G01*
X223235778Y-95672489D01*
X223245722Y-95741647D01*
X223226086Y-95792891D01*
X223140609Y-95920814D01*
X223140602Y-95920827D01*
X223080264Y-96066498D01*
X223080261Y-96066510D01*
X223049500Y-96221153D01*
X223049500Y-96378846D01*
X223080261Y-96533489D01*
X223080264Y-96533501D01*
X223140602Y-96679172D01*
X223140609Y-96679185D01*
X223175304Y-96731109D01*
X223196182Y-96797786D01*
X223177698Y-96865167D01*
X223175304Y-96868891D01*
X223140609Y-96920814D01*
X223140602Y-96920827D01*
X223080264Y-97066498D01*
X223080261Y-97066510D01*
X223049500Y-97221153D01*
X223049500Y-97378846D01*
X223080261Y-97533489D01*
X223080264Y-97533501D01*
X223140602Y-97679172D01*
X223140609Y-97679185D01*
X223228210Y-97810288D01*
X223228213Y-97810292D01*
X223339707Y-97921786D01*
X223339711Y-97921789D01*
X223470814Y-98009390D01*
X223470827Y-98009397D01*
X223608683Y-98066498D01*
X223616503Y-98069737D01*
X223771153Y-98100499D01*
X223771156Y-98100500D01*
X223775955Y-98100500D01*
X223842994Y-98120185D01*
X223888749Y-98172989D01*
X223899955Y-98224500D01*
X223899968Y-108882059D01*
X223880284Y-108949098D01*
X223827480Y-108994853D01*
X223800160Y-109003676D01*
X223666508Y-109030261D01*
X223666498Y-109030264D01*
X223520827Y-109090602D01*
X223520814Y-109090609D01*
X223389711Y-109178210D01*
X223389707Y-109178213D01*
X223278213Y-109289707D01*
X223278210Y-109289711D01*
X223190609Y-109420814D01*
X223190602Y-109420827D01*
X223130264Y-109566498D01*
X223130261Y-109566510D01*
X223099500Y-109721153D01*
X223099500Y-109878846D01*
X223130261Y-110033489D01*
X223130264Y-110033501D01*
X223179574Y-110152548D01*
X223187043Y-110222018D01*
X223179574Y-110247452D01*
X223130264Y-110366498D01*
X223130261Y-110366510D01*
X223099500Y-110521153D01*
X223099500Y-110678846D01*
X223130261Y-110833489D01*
X223130264Y-110833501D01*
X223190602Y-110979172D01*
X223190609Y-110979185D01*
X223278210Y-111110288D01*
X223278213Y-111110292D01*
X223389707Y-111221786D01*
X223389711Y-111221789D01*
X223520814Y-111309390D01*
X223520827Y-111309397D01*
X223641793Y-111359502D01*
X223666503Y-111369737D01*
X223756042Y-111387547D01*
X223800163Y-111396324D01*
X223862074Y-111428709D01*
X223896648Y-111489424D01*
X223899972Y-111517941D01*
X223899978Y-115378846D01*
X223899981Y-118285339D01*
X223899982Y-118474500D01*
X223897431Y-118483186D01*
X223898720Y-118492147D01*
X223887742Y-118516183D01*
X223880298Y-118541539D01*
X223873455Y-118547467D01*
X223869695Y-118555703D01*
X223847463Y-118569989D01*
X223827494Y-118587294D01*
X223816978Y-118589581D01*
X223810917Y-118593477D01*
X223775982Y-118598500D01*
X223599155Y-118598500D01*
X223532116Y-118578815D01*
X223511474Y-118562181D01*
X221936819Y-116987526D01*
X221903334Y-116926203D01*
X221900500Y-116899845D01*
X221900500Y-115317847D01*
X221920185Y-115250808D01*
X221972989Y-115205053D01*
X222000309Y-115196230D01*
X222016291Y-115193050D01*
X222133497Y-115169737D01*
X222279179Y-115109394D01*
X222410289Y-115021789D01*
X222521789Y-114910289D01*
X222609394Y-114779179D01*
X222611338Y-114774487D01*
X222633810Y-114720234D01*
X222669737Y-114633497D01*
X222700500Y-114478842D01*
X222700500Y-114321158D01*
X222700500Y-114321155D01*
X222700499Y-114321153D01*
X222689627Y-114266498D01*
X222669737Y-114166503D01*
X222634462Y-114081341D01*
X222609397Y-114020827D01*
X222609390Y-114020814D01*
X222521789Y-113889711D01*
X222521786Y-113889707D01*
X222410292Y-113778213D01*
X222355608Y-113741674D01*
X222310804Y-113688061D01*
X222300500Y-113638572D01*
X222300500Y-112590402D01*
X222300500Y-112579004D01*
X222300501Y-112579001D01*
X222300501Y-112420886D01*
X222296300Y-112405210D01*
X222295963Y-112390320D01*
X222301326Y-112370393D01*
X222301816Y-112349763D01*
X222310884Y-112334883D01*
X222314123Y-112322852D01*
X222323277Y-112314548D01*
X222332248Y-112299829D01*
X222421789Y-112210289D01*
X222509394Y-112079179D01*
X222569737Y-111933497D01*
X222600500Y-111778842D01*
X222600500Y-111621158D01*
X222600500Y-111621155D01*
X222600499Y-111621153D01*
X222596590Y-111601499D01*
X222569737Y-111466503D01*
X222564299Y-111453375D01*
X222509397Y-111320827D01*
X222509390Y-111320814D01*
X222421398Y-111189125D01*
X222400520Y-111122447D01*
X222400500Y-111120234D01*
X222400500Y-103100153D01*
X222420185Y-103033114D01*
X222436815Y-103012476D01*
X222958506Y-102490784D01*
X222958511Y-102490781D01*
X222968714Y-102480577D01*
X222968716Y-102480577D01*
X223080520Y-102368773D01*
X223120040Y-102300322D01*
X223132441Y-102278843D01*
X223141486Y-102263175D01*
X223159577Y-102231842D01*
X223200501Y-102079114D01*
X223200501Y-101921000D01*
X223200501Y-101913405D01*
X223200500Y-101913387D01*
X223200500Y-100989060D01*
X223200501Y-100989047D01*
X223200501Y-100820944D01*
X223197646Y-100810288D01*
X223159577Y-100668216D01*
X223081798Y-100533497D01*
X223080524Y-100531290D01*
X223080518Y-100531282D01*
X221534573Y-98985337D01*
X221501088Y-98924014D01*
X221500637Y-98921847D01*
X221496397Y-98900532D01*
X221469737Y-98766503D01*
X221433569Y-98679185D01*
X221409397Y-98620827D01*
X221409390Y-98620814D01*
X221321789Y-98489711D01*
X221321786Y-98489707D01*
X221210292Y-98378213D01*
X221210288Y-98378210D01*
X221079185Y-98290609D01*
X221079172Y-98290602D01*
X220933501Y-98230264D01*
X220933489Y-98230261D01*
X220778845Y-98199500D01*
X220778842Y-98199500D01*
X220621158Y-98199500D01*
X220621155Y-98199500D01*
X220466510Y-98230261D01*
X220466498Y-98230264D01*
X220320827Y-98290602D01*
X220320814Y-98290609D01*
X220189711Y-98378210D01*
X220189707Y-98378213D01*
X220073903Y-98494018D01*
X220072615Y-98492730D01*
X220021927Y-98527246D01*
X219952082Y-98529106D01*
X219896157Y-98496922D01*
X217684574Y-96285339D01*
X217651089Y-96224016D01*
X217650638Y-96221849D01*
X217619738Y-96066510D01*
X217619737Y-96066503D01*
X217580242Y-95971153D01*
X217559397Y-95920827D01*
X217559390Y-95920814D01*
X217473914Y-95792891D01*
X217453036Y-95726214D01*
X217471520Y-95658833D01*
X217523499Y-95612143D01*
X217577016Y-95600000D01*
X223122984Y-95600000D01*
X223190023Y-95619685D01*
G37*
%TD.AperFunction*%
%TA.AperFunction,Conductor*%
G36*
X207604703Y-106871427D02*
G01*
X207611181Y-106877459D01*
X209650589Y-108916867D01*
X209684074Y-108978190D01*
X209679090Y-109047882D01*
X209637218Y-109103815D01*
X209587102Y-109126165D01*
X209566506Y-109130262D01*
X209566498Y-109130264D01*
X209420827Y-109190602D01*
X209420814Y-109190609D01*
X209289711Y-109278210D01*
X209289707Y-109278213D01*
X209178213Y-109389707D01*
X209178210Y-109389711D01*
X209090609Y-109520814D01*
X209090602Y-109520827D01*
X209030264Y-109666498D01*
X209030261Y-109666510D01*
X208999500Y-109821153D01*
X208999500Y-109978846D01*
X209030261Y-110133489D01*
X209030264Y-110133501D01*
X209090602Y-110279172D01*
X209090609Y-110279185D01*
X209178210Y-110410288D01*
X209178213Y-110410292D01*
X209289707Y-110521786D01*
X209289711Y-110521789D01*
X209420814Y-110609390D01*
X209420827Y-110609397D01*
X209558683Y-110666498D01*
X209566503Y-110669737D01*
X209721153Y-110700499D01*
X209721156Y-110700500D01*
X209721158Y-110700500D01*
X209878844Y-110700500D01*
X209878845Y-110700499D01*
X210033497Y-110669737D01*
X210179179Y-110609394D01*
X210310289Y-110521789D01*
X210421789Y-110410289D01*
X210509394Y-110279179D01*
X210569737Y-110133497D01*
X210573834Y-110112900D01*
X210578543Y-110103895D01*
X210579269Y-110093757D01*
X210594464Y-110073459D01*
X210606217Y-110050990D01*
X210615050Y-110045959D01*
X210621141Y-110037824D01*
X210644895Y-110028963D01*
X210666932Y-110016415D01*
X210677081Y-110016958D01*
X210686605Y-110013407D01*
X210711382Y-110018797D01*
X210736702Y-110020154D01*
X210746763Y-110026493D01*
X210754878Y-110028259D01*
X210783132Y-110049410D01*
X210913140Y-110179418D01*
X210946625Y-110240741D01*
X210941641Y-110310433D01*
X210913141Y-110354779D01*
X210878214Y-110389706D01*
X210878210Y-110389711D01*
X210790609Y-110520814D01*
X210790602Y-110520827D01*
X210730264Y-110666498D01*
X210730261Y-110666510D01*
X210699500Y-110821153D01*
X210699500Y-110978846D01*
X210730261Y-111133489D01*
X210730264Y-111133501D01*
X210790602Y-111279172D01*
X210790609Y-111279185D01*
X210878210Y-111410288D01*
X210878213Y-111410292D01*
X210989707Y-111521786D01*
X210989711Y-111521789D01*
X211120814Y-111609390D01*
X211120827Y-111609397D01*
X211266498Y-111669735D01*
X211266503Y-111669737D01*
X211421148Y-111700498D01*
X211421153Y-111700499D01*
X211421156Y-111700500D01*
X211421158Y-111700500D01*
X211578844Y-111700500D01*
X211578845Y-111700499D01*
X211733497Y-111669737D01*
X211879179Y-111609394D01*
X212010289Y-111521789D01*
X212014137Y-111517941D01*
X212045219Y-111486860D01*
X212106542Y-111453375D01*
X212176234Y-111458359D01*
X212197199Y-111468515D01*
X212209997Y-111476276D01*
X212215241Y-111481520D01*
X212284990Y-111521789D01*
X212352172Y-111560577D01*
X212504899Y-111601500D01*
X212504900Y-111601500D01*
X213812331Y-111601500D01*
X213812347Y-111601501D01*
X213819943Y-111601501D01*
X213978054Y-111601501D01*
X213978057Y-111601501D01*
X214130785Y-111560577D01*
X214197967Y-111521789D01*
X214267716Y-111481520D01*
X214379520Y-111369716D01*
X214379520Y-111369714D01*
X214389726Y-111359509D01*
X214389732Y-111359502D01*
X214414663Y-111334572D01*
X214475986Y-111301088D01*
X214478151Y-111300638D01*
X214553052Y-111285738D01*
X214633497Y-111269737D01*
X214779179Y-111209394D01*
X214906609Y-111124248D01*
X214973286Y-111103370D01*
X215040666Y-111121854D01*
X215087357Y-111173833D01*
X215099500Y-111227350D01*
X215099500Y-112299902D01*
X215079815Y-112366941D01*
X215063181Y-112387583D01*
X212685339Y-114765425D01*
X212668743Y-114774487D01*
X212655134Y-114787619D01*
X212625636Y-114798025D01*
X212624016Y-114798910D01*
X212621850Y-114799361D01*
X212528038Y-114818022D01*
X212458446Y-114811795D01*
X212416165Y-114784086D01*
X212410292Y-114778213D01*
X212410288Y-114778210D01*
X212279185Y-114690609D01*
X212279172Y-114690602D01*
X212133501Y-114630264D01*
X212133489Y-114630261D01*
X211978845Y-114599500D01*
X211978842Y-114599500D01*
X211821158Y-114599500D01*
X211821155Y-114599500D01*
X211666510Y-114630261D01*
X211666498Y-114630264D01*
X211520827Y-114690602D01*
X211520814Y-114690609D01*
X211389714Y-114778208D01*
X211383831Y-114784091D01*
X211322506Y-114817573D01*
X211271963Y-114818022D01*
X211178846Y-114799500D01*
X211178842Y-114799500D01*
X211021158Y-114799500D01*
X211021155Y-114799500D01*
X210866510Y-114830261D01*
X210866498Y-114830264D01*
X210720827Y-114890602D01*
X210720816Y-114890608D01*
X210663796Y-114928708D01*
X210655155Y-114931413D01*
X210648422Y-114937462D01*
X210622338Y-114941688D01*
X210597119Y-114949585D01*
X210588388Y-114947189D01*
X210579452Y-114948638D01*
X210555221Y-114938090D01*
X210529739Y-114931100D01*
X210521995Y-114923628D01*
X210515388Y-114920752D01*
X210491804Y-114894497D01*
X210421789Y-114789711D01*
X210421397Y-114789124D01*
X210400520Y-114722447D01*
X210400500Y-114720234D01*
X210400500Y-114539116D01*
X210400501Y-114539103D01*
X210400501Y-114371002D01*
X210400501Y-114371000D01*
X210359577Y-114218272D01*
X210329688Y-114166503D01*
X210280520Y-114081341D01*
X210168716Y-113969537D01*
X210168715Y-113969536D01*
X210164385Y-113965206D01*
X210164374Y-113965196D01*
X207435819Y-111236641D01*
X207402334Y-111175318D01*
X207399500Y-111148960D01*
X207399500Y-106965140D01*
X207419185Y-106898101D01*
X207471989Y-106852346D01*
X207541147Y-106842402D01*
X207604703Y-106871427D01*
G37*
%TD.AperFunction*%
%TD*%
M02*
